<?xml version="1.0" encoding="utf-8"?>
<!-- Generator: Adobe Illustrator 25.3.1, SVG Export Plug-In . SVG Version: 6.00 Build 0)  -->
<svg version="1.1" id="Layer_1" xmlns="http://www.w3.org/2000/svg" xmlns:xlink="http://www.w3.org/1999/xlink" x="0px" y="0px"
	 width="120px" height="120px" viewBox="0 0 120 120" style="enable-background:new 0 0 120 120;" xml:space="preserve">
<g>
	<path d="M98.1,65.9c0-1.4-0.6-2.2-1.7-2.9c-1.6-0.9-3.4-1.2-5.2-1.5c-4.6-0.7-9.3-0.8-14-0.5c-0.6,0-0.7-0.2-0.7-0.7
		c0-11.3,0-22.6,0-33.9c0-2.5-1.9-4.5-4.5-4.4c-15.2,0.1-30.3,0-45.5,0c-2.6,0-3.8,0.9-4.5,3.4c0,0.1-0.1,0.1-0.1,0.2
		c0,21.2,0,42.3,0,63.5c0.7,1.4,1.6,2.4,3.2,2.7c0.4,0.1,0.9,0.1,1.3,0.1c12.6,0,25.2,0,37.8,0c0.7,0,1.1,0.1,1,0.9
		c-0.3,1.8,0.8,2.9,2.3,3.5c1.8,0.8,3.7,1.1,5.7,1.3c1.5,0.2,3,0.3,4.5,0.5c2.6,0,5.3,0,7.9,0c1-0.3,2.1-0.2,3.2-0.3
		c2.1-0.3,4.2-0.5,6.2-1.2c0.7-0.2,1.3-0.5,1.9-0.9c0.9-0.6,1.3-1.4,1.3-2.5C98,84.1,98,75,98.1,65.9z M87.6,63.4
		c2.1,0.2,4.2,0.4,6.3,1c0.5,0.2,1,0.4,1.5,0.6c0.4,0.3,0.4,0.5,0,0.7c-1.2,0.7-2.5,1-3.9,1.2c-3.3,0.6-6.6,0.7-9.9,0.8
		c-3.7-0.1-7.5-0.2-11.2-1c-0.9-0.2-1.7-0.5-2.5-0.9c-0.4-0.3-0.4-0.5,0-0.7c1.2-0.7,2.5-1,3.9-1.2C77,63,82.3,63,87.6,63.4z
		 M65.2,89.1c0,0.4-0.1,0.5-0.5,0.5c-0.6,0-1.2,0-1.9,0c-12.1,0-24.2,0-36.3,0c-0.5,0-1,0-1.4-0.3c-0.6-0.3-1-0.8-1-1.5
		c0-11.7,0-23.4,0-35.1c0-0.6,0.2-0.7,0.8-0.7c11.8,0,23.6,0,35.4,0c0.2,0,0.4,0,0.7,0c0.6-0.1,1.1-0.6,1-1.1c-0.1-0.6-0.4-1-1-1.1
		c-0.2,0-0.4,0-0.7,0c-11.8,0-23.5,0-35.3,0c-0.7,0-0.9-0.1-0.9-0.8c0-7.3,0-14.6,0-21.8c0-0.4,0-0.8,0.1-1.2
		c0.3-1.2,0.9-1.7,2.1-1.7c7.6,0,15.2,0,22.8,0c7.6,0,15.1,0,22.7,0c1.7,0,2.4,0.7,2.4,2.4c0,7.5,0,15,0,22.4c0,0.6-0.2,0.8-0.8,0.8
		c-2.4,0-4.8,0-7.1,0c-0.9,0-1.4,0.4-1.4,1.1c0,0.7,0.5,1.1,1.4,1.1c2.4,0,4.9,0,7.3,0c0.5,0,0.6,0.1,0.6,0.6c0,2.7,0,5.4,0,8
		c0,0.5-0.1,0.7-0.6,0.7c-0.2,0-0.5,0-0.7,0.1c-1.1,0.1-1.1,0.1-1.1-0.9c0-0.5,0-1.1,0-1.6c0-1.7-1.4-3.1-3.1-3.1
		c-12.1,0-24.2,0-36.3,0c-1.8,0-3.1,1.5-3.1,3.4c0,4.4,0,8.9,0,13.3c0,3.4,0,6.9,0,10.3c0,1.8,1.3,3.1,3.1,3.2c3.1,0,6.2,0,9.4,0
		c7.5,0,15,0,22.5,0c0.6,0,0.9,0.1,0.8,0.8C65.1,87.5,65.2,88.3,65.2,89.1z M51.8,72.4c0-0.4,0.1-0.5,0.5-0.5c4.2,0,8.3,0,12.5,0
		c0.4,0,0.5,0.1,0.5,0.5c0,3.6,0,7.2,0,10.8c0,0.4-0.1,0.5-0.5,0.5c-4.1,0-8.3,0-12.4,0c-0.5,0-0.5-0.2-0.5-0.6c0-0.7,0-1.3,0-2
		c0-0.9-0.5-1.4-1.1-1.4c-0.7,0-1.1,0.5-1.2,1.4c0,0.7,0,1.3,0,2c0,0.4-0.1,0.6-0.6,0.6c-5.4,0-10.7,0-16.1,0
		c-0.9,0-1.2-0.3-1.2-1.2c0-3.3,0-6.6,0-9.9c0-0.5,0.1-0.7,0.7-0.7c2.8,0,5.5,0,8.3,0c2.7,0,5.5,0,8.2,0c0.5,0,0.7,0.1,0.7,0.6
		c0,0.9,0,1.9,0,2.8c0,0.8,0.5,1.4,1.1,1.4c0.7,0,1.1-0.5,1.2-1.4C51.8,74.4,51.8,73.4,51.8,72.4z M31.6,69c0-3.2,0-6.4,0-9.6
		c0-1.2,0.3-1.5,1.5-1.5c5.2,0,10.4,0,15.6,0c0.6,0,0.8,0.1,0.7,0.7c0,3.4,0,6.9,0,10.3c0,0.6-0.2,0.7-0.8,0.7c-2.7,0-5.5,0-8.2,0
		c-2.7,0-5.5,0-8.2,0C31.7,69.7,31.6,69.6,31.6,69z M65.2,65.8c0.1,1.1,0,2.3,0,3.4c0,0.4-0.1,0.5-0.5,0.5c-4.1,0-8.3,0-12.4,0
		c-0.4,0-0.5-0.1-0.5-0.6c0-3.5,0-7.1,0-10.6c0-0.5,0.2-0.6,0.7-0.6c2.7,0,5.3,0,8,0c2.6,0,5.2,0,7.8,0c1.1,0,1.4,0.3,1.4,1.4
		c0,0.6,0,1.3,0,1.9c0,0.5-0.1,0.8-0.7,0.9c-0.9,0.2-1.8,0.6-2.6,1.1C65.6,63.9,65.1,64.7,65.2,65.8z M67.4,68.4
		c9.5,2.2,18.9,2.2,28.4,0c0,1.2,0,2.5,0,3.8c0,0.5-0.4,0.6-0.7,0.8c-1.3,0.7-2.7,1-4.2,1.2C85,75,79.1,75,73.2,74.3
		c-1.6-0.2-3.3-0.5-4.8-1.2c-0.7-0.3-1-0.7-1-1.5C67.5,70.5,67.4,69.4,67.4,68.4z M67.4,75.4c9.5,2.2,18.9,2.2,28.4,0
		c0,1.2,0,2.4,0,3.7c0,0.6-0.4,0.8-0.8,0.9c-1.2,0.6-2.5,0.9-3.8,1.1C84.8,82,78.4,82,72,81.1c-1.3-0.2-2.6-0.5-3.8-1.1
		c-0.5-0.3-0.8-0.6-0.8-1.3C67.5,77.6,67.4,76.5,67.4,75.4z M91.7,89.5c0.3,0.5,0.7,0.7,1.3,0.6c0.8-0.2,1.6-0.4,2.3-0.7
		c0.4-0.1,0.5-0.2,0.5,0.3c0,1.1,0,2.3,0,3.4c0,0.6-0.4,0.7-0.7,0.9c-1.4,0.7-2.9,1-4.3,1.2c-5.3,0.8-10.7,0.8-16,0.3
		c-2-0.2-4-0.5-5.9-1.2c-1.3-0.5-1.4-0.6-1.4-2c0-1,0-1.9,0-2.9c0,0,0-0.1,0-0.1c5.7,1.8,11.6,1.8,17.4,1.7c0.9,0,1.7-0.1,2.6-0.2
		c0.8-0.1,1.3-0.6,1.2-1.3c-0.1-0.6-0.6-1.1-1.4-1c-3.9,0.3-7.9,0.3-11.8,0c-2-0.2-4.1-0.4-6.1-1c-0.4-0.1-0.8-0.3-1.2-0.5
		c-0.5-0.2-0.7-0.6-0.7-1.2c0.1-1.2,0-2.4,0-3.7c1.5,0.6,3,0.9,4.5,1.2c3.9,0.6,7.7,0.7,11.6,0.6c3.4-0.1,6.8-0.3,10.1-1.1
		c0.5-0.1,1-0.2,1.5-0.5c0.6-0.3,0.7-0.1,0.7,0.5c0,1,0,2,0,3c0,0.6-0.2,0.9-0.7,1.1c-0.8,0.4-1.7,0.6-2.6,0.9
		C91.7,88.1,91.3,88.8,91.7,89.5z"/>
	<path d="M72,42.7c0-3.8,0-7.6,0-11.4c0-2.1-1.3-3.4-3.4-3.4c-8,0-16,0-24,0c-0.2,0-0.3,0-0.5,0c-0.6,0.1-1,0.5-1,1.1
		c0,0.6,0.3,1,0.9,1.1c0.2,0,0.5,0,0.7,0c7.8,0,15.7,0,23.5,0c1.1,0,1.4,0.3,1.4,1.5c0,3.6,0,7.3,0,10.9c0,1-0.4,1.3-1.3,1.3
		c-11.9,0-23.7,0-35.6,0c-1,0-1.3-0.3-1.3-1.3c0-3.7,0-7.4,0-11.1c0-1,0.3-1.3,1.4-1.3c1.9,0,3.9,0,5.8,0c0.9,0,1.4-0.4,1.4-1.1
		c0-0.7-0.5-1.1-1.4-1.1c-2,0-4,0-6,0c-2,0-3.4,1.3-3.4,3.3c0,3.8,0,7.6,0,11.4c0,2.1,1.3,3.4,3.4,3.4c5.9,0,11.9,0,17.8,0
		c6,0,12,0,18.1,0C70.7,46,72,44.7,72,42.7z"/>
	<path d="M65.1,41.7c1.5,0,2.6-1.1,2.6-2.6c0-0.7,0-1.4,0-2.2c0-0.7,0-1.5,0-2.2c0-1.4-1.1-2.5-2.6-2.5c-0.7,0-1.4,0-2.2,0
		c-1.4,0-2.5,1.1-2.6,2.5c0,1.5,0,2.9,0,4.4c0,1.5,1.1,2.6,2.6,2.6C63.7,41.7,64.4,41.7,65.1,41.7z M62.7,37.5c0-0.8,0-1.5,0-2.3
		c0-0.6,0.2-0.7,0.8-0.7c2.5,0,2-0.3,2.1,2c0,0.2,0,0.4,0,0.6c0,0.6,0,1.2,0,1.8c0,0.5-0.2,0.7-0.7,0.7
		C62.3,39.5,62.7,39.9,62.7,37.5z"/>
	<path d="M45.1,76.7c-1.2,0-2.5,0-3.7,0c-1.3,0-2.5,0-3.8,0c-0.9,0-1.4,0.4-1.4,1.1c0,0.7,0.5,1.1,1.3,1.1c2.5,0,5,0,7.6,0
		c0.9,0,1.3-0.4,1.3-1.1C46.5,77.1,46,76.7,45.1,76.7z"/>
	<path d="M58.4,81c1.6-1.6,3.2-3.2,4.8-4.8c0.3-0.3,0.4-0.5,0.5-0.9c-0.1-0.4-0.3-0.8-0.7-1c-0.5-0.2-0.9,0-1.3,0.3
		c-1.6,1.6-3.3,3.3-4.9,4.9c-0.5,0.5-0.5,1.2-0.1,1.7C57.1,81.6,57.8,81.5,58.4,81z"/>
	<path d="M57.8,76.1c0.6,0,1.1-0.5,1.1-1.1c0-0.6-0.5-1.1-1.1-1.1c-0.6,0-1.1,0.5-1.1,1.1C56.7,75.5,57.2,76,57.8,76.1z"/>
	<path d="M62.2,79.5c-0.6,0-1.1,0.5-1.1,1.1c0,0.6,0.5,1.1,1.1,1.1c0.6,0,1.1-0.5,1.1-1.1C63.4,79.9,62.9,79.5,62.2,79.5z"/>
	<path d="M38.1,64.9c0.5,0,1.1,0,1.6,0c0.4,0,0.5,0.1,0.5,0.5c0,0.5,0,1.1,0,1.6c0,0.7,0.5,1.1,1.1,1.1c0.6,0,1.1-0.4,1.1-1.1
		c0-0.5,0-1.1,0-1.6c0-0.4,0.1-0.5,0.5-0.5c0.5,0,1.1,0,1.6,0c0.7,0,1.1-0.5,1.1-1.1c0-0.6-0.4-1.1-1.1-1.1c-0.5,0-1.1,0-1.6,0
		c-0.4,0-0.5-0.1-0.5-0.5c0-0.6,0-1.1,0-1.7c0-0.6-0.5-1.1-1.1-1.1c-0.6,0-1.1,0.4-1.1,1.1c0,0.6,0,1.1,0,1.7c0,0.4-0.1,0.5-0.5,0.5
		c-0.5,0-1.1,0-1.6,0c-0.7,0-1.1,0.5-1.1,1.1C37,64.4,37.4,64.9,38.1,64.9z"/>
	<path d="M62.7,65c-1.1-1.2-1.1-1.2,0-2.3c0.3-0.3,0.7-0.6,0.7-1.1c0-0.6-0.2-0.9-0.6-1.1c-0.5-0.2-0.9-0.1-1.3,0.3
		C61,61.2,60.5,62,60,62c-0.6,0-1-0.8-1.5-1.3c-0.6-0.5-1.1-0.5-1.6,0c-0.5,0.4-0.5,1.1,0,1.7c0.4,0.5,1.3,0.9,1.3,1.4
		c0,0.6-0.9,1-1.3,1.5c-0.5,0.5-0.5,1.2,0,1.7c0.5,0.4,1.1,0.4,1.6,0c0.4-0.4,0.8-0.8,1.2-1.2c0.2-0.3,0.4-0.3,0.7,0
		c0.4,0.4,0.8,0.8,1.2,1.2c0.5,0.4,1,0.4,1.5,0c0.5-0.4,0.5-1.1,0-1.6C63,65.2,62.9,65.1,62.7,65z"/>
</g>
</svg>
