<?xml version="1.0" encoding="utf-8"?>
<!-- Generator: Adobe Illustrator 25.3.1, SVG Export Plug-In . SVG Version: 6.00 Build 0)  -->
<svg version="1.1" id="Layer_1" xmlns="http://www.w3.org/2000/svg" xmlns:xlink="http://www.w3.org/1999/xlink" x="0px" y="0px"
	 width="1200px" height="1128px" viewBox="0 0 1200 1128" style="enable-background:new 0 0 1200 1128;" xml:space="preserve">
<style type="text/css">
	.st0{fill:#2F2F81;}
	.st1{fill:#344193;}
	.st2{fill:#FFFFFF;}
	.st3{fill:#E6424B;}
</style>
<g>
	<g>
		<path class="st0" d="M1189.1,494.6c0.7-4.4,0.9-9,0.4-13.7c-3.7-32.5-37.1-46.4-60.4-63.4c-32.9-24.1-32.9-68.4-62.4-94.8
			c-13.1-11.7-29.5-18.1-44.8-26.3c-20.7-11.1-30.3-25-35.6-47.8c-4.9-21.2-11.4-39.2-25-56.4c-13.3-16.8-29.8-30.6-45.2-45.3
			c-16.8-16-31.2-33.2-41.1-54.4c-11.3-24.3-17.2-50.9-23.1-76.9c-0.9-3.9-6-7.2-10-5.7c-20,7.9-21.3,28.7-20.3,48.6
			c-0.8,11.1,0.6,23.1,1.1,33.4c-0.9,35.3-7,70.2-17.9,103.8c-49.4-0.8-96.2-20.7-131.1-55c5.3-7.8,8.9-16.4,8-26.1
			c-0.2-1.7-0.5-3.4-0.9-5c0.9-3.5,1.2-7.1,0.9-10.9c-0.2-2.3-0.7-4.6-1.4-6.8c4.5-3.1,5.3-11.2-0.3-13.7c-0.6-0.3-1.2-0.5-1.8-0.8
			c0.6-0.4,1.2-0.7,1.8-1.1c4.8-2.9,5.8-11.3,0-14c-14.2-6.5-28.3-13-42.5-19.4c-10.9-5-21.8-11.2-33.8-13.1
			c-15.4-2.5-32.1,1.8-33.6,19.4c-0.2,2.6,0.6,4.5,2,5.8c-0.8,1.4-1.6,2.8-2.5,4.1c-17.7-5.2-35.2-0.4-51.9,8.3
			c-17,8.8-37.5,19.9-38.5,41.2c-0.6,12.7,2.6,24.3-8.7,33.5c-10,8.2-25.3,6.4-33.5-3.7c-6.1-7.4-5.6-18.2-13-24.9
			c-6.2-5.6-14.7-6.2-22.5-4.3c-44.9,10.9-69.3,64.9-96.1,97.3c-32.1,38.9-71,72.2-116.3,94.8c-54.1,26.9-114.6,37.4-173.6,47.8
			c-7.1,1.3-7.5,27.5-1.9,30.7c8.3,4.9,12.5,10.5,14.2,16.5c-2,9.4-6.4,19.3-9.1,28.9c-3.7,13.1-4.7,26.7-3.9,40.2
			c-0.7,11.8,0.2,23.7,2.2,35.4c7.6,44.8,31.6,83.9,48.3,125.6c8.4,20.9,15.6,43,17.1,65.6c0,0.5,0,0.9,0.1,1.4
			c-0.4,5.5-1.1,10.9-2.4,16.2c-2.3,9.6-7.8,18.3-9.5,27.8c-0.8,4.4-0.4,8.4,0.9,12c-0.4,1.3-0.7,2.6-0.9,4
			c-2.1,11.7,4.5,20.7,13.8,26.9c6.6,4.4,25.7,9.5,24.7,19.2c-0.5,5.4,5.6,9.1,10.3,7.8c22.9-6.1,45.9-12.3,68.8-18.4
			c11-2.9,21.9-6,32.9-8.8c15.4-3.8,26.6-2.3,41.9,0.6c15.5,2.9,28.3-1.2,36.9-14.7c4-6.4,6.3-13.7,10.3-20
			c5.8-9.3,14.6-12.8,25.1-14.7c18.8-3.5,35.9-5.6,53.6-13.5c21.1-9.5,41.1-20.4,63.2-27.5c40.6-13,85.4-17,126.2-2.6
			c40.4,14.2,74.6,45.8,85.9,87.7c1.6,6,9.2,7.7,13.6,3.6c10.3-9.6,28-33,43.2-32.3c5,0.2,7.9,2.2,9.4,5.1
			c-1.6,5.9-4.2,11.6-6.1,15.3c-1.6,3.1,0.7,14.5,0,15.9c-1.6,3.1-1.5,7.3,1.3,9.8c17.1,15.6,31.9,33.3,46.5,51.2
			c7.5,9.3,14.8,18.5,19.4,29.7c3.5,8.4,5.8,17,11.4,24.4c20.4,27,58.9,20.3,83.9,39.6c3.2,2.5,6.2,2.9,9.8,1.3
			c10.2-4.6,19.3-10.5,27.6-17.7c22.5,21.2,66.2,6.3,91.7-0.7c21-5.8,43.4-12.3,62.8-22.3c13.5-6.9,15.9-18.3,13.2-30.8
			c2.1-7.4,0.6-16-2.6-24.7c-2.3-6.3-3.7-12.3-4.4-18.3c3.6-32.3,27.7-60.5,48.2-86.9c12.5-16.2,24.3-33,31.2-52.4
			c5.2-14.8,6.1-29.9,5.4-45.2c0.6-11.6-0.3-23.4-1.5-35.2c-0.8-7.5-1.5-14.9-1.8-22.2c0.6-11,2.7-22,7.5-32.8
			c7.6-17,17.8-33.9,15.6-53.3C1189.4,496.1,1189.2,495.3,1189.1,494.6z"/>
		<path class="st0" d="M1024.5,1010c-8.5-19.6-24.7-13.8-41.3-7.5c-11.6,4.4-24.1,8.3-32-4.2c-4.1-6.4-5.8-12.1-11-16.7
			c-0.3-1.1-0.9-2.3-1.8-3.3c-8.4-9.8-23.5-10.1-33.3-2c-8.1,6.6-8.5,15.7-6.3,24.9c-4.1,12.2,4.1,27.7,8.7,39
			c8.7,21.8,17.7,45.7,30.9,65.3c12.2,18.1,32.2,7,48.8,1.3c16.8-5.8,31-14.6,38.1-31.6c4.1-9.9,5.4-21,4.1-31.7
			C1030.6,1032.2,1029,1020.4,1024.5,1010z"/>
	</g>
	<g>
		<g>
			<g>
				<path class="st1" d="M1129,417.5c-32.9-24.1-32.9-68.4-62.4-94.8c-13.1-11.7-29.5-18.1-44.8-26.3c-20.7-11.1-30.3-25-35.6-47.8
					c-4.9-21.2-11.4-39.2-25-56.4c-13.3-16.8-29.8-30.6-45.2-45.3c-16.8-16-31.2-33.2-41.1-54.4c-11.3-24.3-17.2-50.9-23.1-76.9
					c-0.9-3.9-6-7.2-10-5.7c-28.2,11.1-19.2,47.8-19,71.3c0.3,39-6.1,77.5-18.1,114.5c-52.7-0.9-102.4-23.4-138-62.1
					c8.5-9.9,16.1-21.4,14.8-35c-0.6-7-3.6-13.6-8.3-18.4c2.2-1.4,4.4-2.7,6.6-4.1c4.8-2.9,5.8-11.3,0-14
					c-14.2-6.5-28.3-13-42.5-19.4c-10.9-5-21.8-11.2-33.8-13.1c-15.4-2.5-32.1,1.8-33.6,19.4c-0.2,2.6,0.6,4.5,2,5.8
					c-0.8,1.4-1.6,2.8-2.5,4.1c-17.7-5.2-35.2-0.4-51.9,8.3c-17,8.8-37.5,19.9-38.5,41.2c-0.6,12.7,2.6,24.3-8.7,33.5
					c-10,8.2-25.3,6.4-33.5-3.7c-6.1-7.4-5.6-18.2-13-24.9c-6.2-5.6-14.7-6.2-22.5-4.3c-44.9,10.9-69.3,64.9-96.1,97.3
					c-32.1,38.9-71,72.2-116.3,94.8c-54.1,26.9-114.6,37.4-173.6,47.8c-7.1,1.3-7.6,11.5-1.9,14.8c26.7,15.7,11.4,39.3,5.2,61.4
					c-5.4,19.4-5.1,39.9-1.7,59.6c7.6,44.8,31.6,83.9,48.3,125.6c8.4,20.9,15.6,43,17.1,65.6c0.8,11.2,0.3,22.6-2.3,33.6
					c-2.3,9.6-7.8,18.3-9.5,27.8c-2.1,11.7,4.5,20.7,13.8,26.9c6.6,4.4,25.7,9.5,24.7,19.2c-0.5,5.4,5.6,9.1,10.3,7.8
					c22.9-6.1,45.9-12.3,68.8-18.4c11-2.9,21.9-6,32.9-8.8c15.4-3.8,26.6-2.3,41.9,0.6c15.5,2.9,28.3-1.2,36.9-14.7
					c4-6.4,6.3-13.7,10.3-20c5.8-9.3,14.6-12.8,25.1-14.7c18.8-3.5,35.9-5.6,53.6-13.5c21.1-9.5,41.1-20.4,63.2-27.5
					c40.6-13,85.4-17,126.2-2.6c40.4,14.2,74.6,45.8,85.9,87.7c1.6,6,9.2,7.7,13.6,3.6c10.3-9.6,28-33,43.2-32.3
					c18.9,0.9,8.5,26.4,3.4,36.4c-1.6,3.1-1.5,7.3,1.3,9.8c17.1,15.6,31.9,33.3,46.5,51.2c7.5,9.3,14.8,18.5,19.4,29.7
					c3.5,8.4,5.8,17,11.4,24.4c20.4,27,58.9,20.3,83.9,39.6c3.2,2.5,6.2,2.9,9.8,1.3c10.2-4.6,19.3-10.5,27.6-17.7
					c22.5,21.2,66.2,6.3,91.7-0.7c21-5.8,43.4-12.3,62.8-22.3c16.6-8.5,16.4-23.8,10.5-39.6c-17.5-47.4,16.5-85.8,43.9-121.1
					c12.5-16.2,24.3-33,31.2-52.4c7.4-21,6.2-42.7,4-64.5c-2.5-24.5-4.6-47.8,5.7-71c7.6-17,17.8-33.9,15.6-53.3
					C1185.8,448.4,1152.3,434.5,1129,417.5z"/>
				<path class="st1" d="M983.1,1002.5c-11.6,4.4-24.1,8.3-32-4.2c-4.1-6.4-5.8-12.1-11-16.7c-0.3-1.1-0.9-2.3-1.8-3.3
					c-8.4-9.8-23.5-10.1-33.3-2c-15.3,12.5-3.4,33.7,2.4,48.1c8.7,21.8,17.7,45.7,30.9,65.3c12.2,18.1,32.2,7,48.8,1.3
					c16.8-5.8,31-14.6,38.1-31.6c6.5-15.5,6-33.9-0.7-49.3C1015.9,990.4,999.7,996.2,983.1,1002.5z"/>
			</g>
		</g>
	</g>
	<g>
		<path class="st2" d="M279.6,538.8c-0.1-0.1-0.3-0.3-0.4-0.4c-15.2,5.7-30.4,11.5-45.7,17.3c-5-15.6-10-31.2-15-46.7
			c-0.2,0-0.4,0.1-0.5,0.1c-5,15.5-10,31-15,46.6c-15.5-5.8-30.6-11.6-45.8-17.3c-0.1,0.1-0.2,0.3-0.3,0.4c9,13.6,18,27.1,27.1,40.8
			c-14.3,8.5-28.2,16.8-42.2,25.1c0.1,0.2,0.1,0.3,0.2,0.5c16.2,1.4,32.4,2.8,48.8,4.3c-2.3,16.3-4.5,32.4-6.7,48.5
			c0.2,0.1,0.3,0.1,0.5,0.2c11.2-11.8,22.5-23.6,33.8-35.5c11.4,12,22.6,23.8,33.8,35.5c0.1-0.1,0.3-0.2,0.4-0.3
			c-2.2-16.1-4.5-32.3-6.7-48.5c16.5-1.4,32.7-2.9,48.9-4.3c0-0.2,0.1-0.3,0.1-0.5c-14-8.3-28-16.6-42.2-25.1
			C261.6,565.9,270.6,552.4,279.6,538.8z"/>
		<path class="st2" d="M708.3,289c7.6,0.7,15.3,1.4,22.9,2.1c-1.1,7.9-2.1,15.3-3.1,22.8c0.2,0.1,0.3,0.1,0.5,0.2
			c5.3-5.5,10.5-11,15.8-16.6c5.4,5.7,10.7,11.2,15.9,16.7c0.1-0.1,0.3-0.1,0.4-0.2c-1-7.5-2.1-15.1-3.1-22.8
			c7.8-0.7,15.4-1.4,22.9-2c0-0.2,0.1-0.3,0.1-0.5c-6.6-3.9-13.1-7.8-19.8-11.8c4.4-6.6,8.5-12.9,12.7-19.2
			c-0.1-0.1-0.2-0.3-0.3-0.4c-7.1,2.7-14.2,5.4-21.5,8.1c-2.4-7.4-4.7-14.6-7.1-21.8c-0.2,0-0.3,0-0.5,0c-2.3,7.2-4.7,14.4-7.1,21.8
			c-7.4-2.8-14.5-5.4-21.6-8.1c-0.1,0.1-0.2,0.3-0.2,0.4c4.2,6.4,8.4,12.7,12.7,19.2c-6.7,4-13.3,7.9-19.8,11.8
			C708.2,288.7,708.3,288.9,708.3,289z"/>
		<path class="st2" d="M897.5,395.9c-6.5-3.9-13.1-7.8-19.7-11.7c4.4-6.6,8.6-12.9,12.8-19.3c-0.1-0.1-0.2-0.2-0.3-0.3
			c-7.1,2.7-14.3,5.4-21.5,8.1c-2.4-7.4-4.8-14.7-7.1-22c-0.1,0-0.3,0-0.4,0c-2.3,7.3-4.7,14.5-7.1,21.9c-7.3-2.8-14.5-5.4-21.6-8.1
			c-0.1,0.1-0.2,0.3-0.2,0.4c4.2,6.4,8.4,12.7,12.7,19.2c-6.7,4-13.3,7.9-19.8,11.8c0.1,0.2,0.1,0.3,0.2,0.5
			c7.5,0.7,15.1,1.3,22.9,2c-1.1,7.7-2.1,15.2-3.1,22.7c0.2,0.1,0.3,0.1,0.5,0.2c5.2-5.5,10.5-11,15.8-16.6
			c5.5,5.7,10.7,11.2,15.9,16.7c0.1-0.1,0.3-0.2,0.4-0.3c-1-7.6-2.1-15.1-3.1-22.8c7.8-0.7,15.4-1.4,22.9-2.1
			C897.5,396.3,897.5,396.1,897.5,395.9z"/>
		<path class="st2" d="M642.1,400.1c-0.1-0.1-0.2-0.2-0.4-0.3c-7.1,2.7-14.3,5.4-21.5,8.1c-2.4-7.4-4.7-14.6-7.1-21.8
			c-0.2,0-0.4,0-0.5,0.1c-2.3,7.2-4.7,14.5-7,21.8c-7.4-2.8-14.5-5.5-21.6-8.1c-0.1,0.1-0.2,0.2-0.3,0.4c4.2,6.4,8.4,12.7,12.7,19.2
			c-6.7,4-13.2,7.9-19.7,11.7c0.1,0.2,0.1,0.3,0.1,0.5c7.6,0.7,15.1,1.3,22.8,2c-1.1,7.8-2.1,15.3-3.1,22.8c0.2,0.1,0.3,0.1,0.5,0.2
			c5.3-5.5,10.5-11,15.8-16.6c5.4,5.7,10.7,11.2,15.9,16.7c0.1-0.1,0.3-0.2,0.4-0.3c-1-7.6-2.1-15.1-3.1-22.8
			c7.8-0.7,15.3-1.4,22.9-2c0-0.2,0-0.4,0.1-0.5c-6.5-3.9-13.1-7.8-19.7-11.7C633.7,412.7,637.9,406.4,642.1,400.1z"/>
		<path class="st2" d="M773.6,608.3c-0.1-0.1-0.2-0.2-0.3-0.3c-7.1,2.7-14.3,5.4-21.5,8.1c-2.4-7.4-4.7-14.6-7.1-21.9
			c-0.2,0-0.3,0-0.5,0c-2.3,7.2-4.7,14.4-7.1,21.8c-7.4-2.8-14.5-5.4-21.6-8.1c-0.1,0.1-0.1,0.3-0.2,0.4c4.2,6.4,8.4,12.7,12.7,19.2
			c-6.7,4-13.3,7.9-19.8,11.8c0,0.1,0.1,0.3,0.1,0.4c7.6,0.7,15.2,1.4,23,2.1c-1.1,7.7-2.1,15.3-3.1,22.8c0.1,0.1,0.3,0.1,0.4,0.2
			c5.3-5.5,10.6-11.1,15.9-16.7c5.4,5.7,10.7,11.2,15.9,16.7c0.1-0.1,0.3-0.2,0.4-0.3c-1-7.5-2.1-15.1-3.1-22.7
			c7.8-0.7,15.4-1.4,23-2.1c0-0.2,0-0.3,0-0.5c-6.6-3.9-13.1-7.8-19.8-11.8C765.2,621.1,769.4,614.7,773.6,608.3z"/>
		<path class="st2" d="M808.3,479.3c3.2-2.5,6.3-5.2,9.7-8.2c-1.5-0.2-2.5-0.3-3.5-0.4c-2.8-0.2-5.6-0.5-8.4-0.5
			c-2.4,0-3.7-0.9-4.5-3.3c-1.2-3.6-2.8-7-4.5-11.1c-1.4,3.3-2.9,6-3.6,8.8c-1.1,4.5-3.6,6.1-8.1,5.8c-2.9-0.2-5.8,0.4-9.2,0.7
			c0.8,0.8,1.3,1.3,1.8,1.7c2.8,2.4,5.6,4.8,8.5,7.1c0.9,0.7,1.2,1.4,0.8,2.6c-0.9,3.4-1.7,6.8-2.5,10.1c-0.2,0.9-0.3,1.7-0.6,3.1
			c2.9-1.8,5.7-3.1,7.9-5c3.5-2.9,6.5-2.9,10,0c2.2,1.9,5,3.2,8,5c-1.1-4.5-2-8.5-3.1-12.5C806.5,481.5,806.8,480.5,808.3,479.3z"/>
		<path class="st3" d="M342.8,368.4c-11.9-0.1-23.7,0-35.6,0c-0.1,0.1-0.1,0.3-0.2,0.4c54.5,27.3,109,54.5,163.5,81.8h7v-16
			c-43.4-21.7-86.9-43.4-130.3-65.1C346,368.8,344.3,368.4,342.8,368.4z"/>
		<path class="st3" d="M244.4,296.4c0-10,0-20,0-30c-17.3,13.5-35.8,25.3-55.5,35.2c-54.1,26.9-114.6,37.4-173.6,47.8
			c-1.2,0.2-2.2,0.7-3,1.3h181.5v99.8h24.3h2.2h24.3v-99.8h233V298H244.6C244.5,297.5,244.4,296.9,244.4,296.4z"/>
		<path class="st2" d="M307.7,279.5c-0.9,0.5-2.1,0.8-3.1,0.9c-11.8,0.1-23.6,0-35.4,0c-0.4,0-0.8,0-1.8-0.1c1.3-0.7,2-1.1,2.8-1.5
			c56.5-28.3,113-56.5,169.6-84.8c0.7-0.4,1.4-0.8,2.1-1.2h-19.7c-15,7.5-30.1,15.1-45.1,22.6c-37.5,18.8-75,37.5-112.5,56.3
			c-0.7,0.3-1.3,0.6-2.3,1.1v-21.2c-5.8,5.1-11.7,10.1-17.7,14.8c0,10,0,20,0,30c0,0.5,0.1,1,0.1,1.6h233.1v-17.6H366.1
			c0.5-0.6,1.1-0.9,1.6-1.2c21.7-10.8,43.3-21.7,65-32.5c15-7.5,30-15,44.9-22.5v-29.7c-8.1,4.1-16.1,8.2-24.2,12.2
			C404.9,231,356.3,255.2,307.7,279.5z"/>
		<path class="st3" d="M439.8,194c-56.5,28.3-113,56.5-169.6,84.8c-0.8,0.4-1.5,0.8-2.8,1.5c1.1,0.1,1.4,0.1,1.8,0.1
			c11.8,0,23.6,0,35.4,0c1,0,2.1-0.4,3.1-0.9c48.6-24.3,97.2-48.5,145.7-72.8c8.1-4,16.1-8.1,24.2-12.2v-1.7h-35.8
			C441.2,193.2,440.5,193.7,439.8,194z"/>
		<path class="st2" d="M244.6,450.5h17.5V376c1.1,0.5,1.9,0.8,2.6,1.2c48.9,24.5,97.8,48.9,146.8,73.3h59.1
			c-54.5-27.3-109-54.5-163.5-81.8c0.1-0.1,0.1-0.3,0.2-0.4c11.9,0,23.7,0,35.6,0c1.5,0,3.1,0.4,4.5,1.1
			c43.5,21.7,86.9,43.4,130.3,65.1v-10c-36.7-18.3-73.3-36.6-110-55c-0.6-0.3-1.1-0.6-1.7-0.9c0-0.1,0.1-0.3,0.1-0.4h111.5v-17.5
			h-233V450.5z"/>
		<path class="st3" d="M131.1,368.3c-11.9,0-23.7,0-35.6,0c-1.5,0-3.1,0.4-4.5,1.1c-21.6,10.8-43.2,21.6-64.7,32.3
			c-2.2,7.7-5.4,15.5-7.6,23.3c37.5-18.8,75-37.5,112.6-56.3C131.2,368.6,131.2,368.5,131.1,368.3z"/>
		<path class="st2" d="M12.3,350.7c-4.1,3.2-3.6,10.7,1.1,13.5c2.2,1.3,4.1,2.7,5.8,4.1h53.2c0,0.1,0.1,0.3,0.1,0.4
			c-0.6,0.3-1.1,0.6-1.7,0.9c-14.1,7-28.2,14.1-42.3,21.1c-0.3,3.6-1.1,7.3-2.1,11.1c21.6-10.8,43.1-21.6,64.7-32.3
			c1.3-0.7,3-1,4.5-1.1c11.9-0.1,23.7,0,35.6,0c0.1,0.1,0.1,0.3,0.2,0.4c-37.5,18.8-75,37.5-112.6,56.3c-0.1,0.2-0.1,0.4-0.2,0.5
			c-2.3,8.2-3.5,16.5-4,24.9h12.3c48.9-24.4,97.8-48.9,146.8-73.3c0.8-0.4,1.6-0.7,2.6-1.2v74.5h17.5v-99.8H12.3z"/>
	</g>
</g>
</svg>
