<?xml version="1.0" encoding="utf-8"?>
<!-- Generator: Adobe Illustrator 24.0.2, SVG Export Plug-In . SVG Version: 6.00 Build 0)  -->
<svg version="1.1" id="Layer_1" xmlns="http://www.w3.org/2000/svg" xmlns:xlink="http://www.w3.org/1999/xlink" x="0px" y="0px"
	 viewBox="0 0 1920 222" style="enable-background:new 0 0 1920 222;" xml:space="preserve">
<style type="text/css">
	.st0{display:none;fill:#FDBC4D;}
	.st1{display:none;fill:#2256A7;}
	.st2{display:none;fill:none;stroke:#2256A7;stroke-width:2;}
	.st3{fill:#2256A7;}
	.st4{fill:none;stroke:#2256A7;stroke-width:2;}
</style>
<path class="st0" d="M656-307.2c5.5,0.5,11,1.1,16-2.1C666.6-309.1,661.2-309.2,656-307.2 M1139.9,94.9c5.9,2,11.9,2.4,17.8,2.7
	c2,0.1,5,0.4,5.4-2.2c0.3-2.4-2-3.5-4.2-4.2C1151.9,89.1,1146.1,93,1139.9,94.9 M766.8-110.7c2.9-8.7-0.8-15.2-10.6-19.6
	C752.2-119.8,761.4-116.3,766.8-110.7 M288,144.3c12.2,2.3,24.4,1.5,36.7,1.6c0.8,0,1.7-0.2,2.5-0.4c1.2-0.3,2.1-0.9,1.9-2.5
	c-0.2-1.8-1.3-1.4-2.5-1.3c-4,0.2-8.1-0.1-12.1,0.2C305.5,142.6,296.7,142.5,288,144.3 M735.3-146.1c1.9,7.1,10.6,17.5,17.3,21.1
	c-0.9-3.6,1.8-7.9-1.6-10.6C746.3-139.4,741.8-143.7,735.3-146.1 M671.7-14.7c-1.1-4.5-0.5-9.3-2.2-13.8c-0.9-2.3-2.4-3.6-4.3-0.9
	c-2.9,4-4.2,8.6-3.9,13.6c0.1,2,6.3,6,8.6,5.7C672.9-10.7,670.7-13.2,671.7-14.7 M652.2-176.4c0,1.7,0,3.4,0,5c0,1.5-0.2,3.3,1.4,4
	c1.7,0.8,2.9-0.9,3.8-1.8c4-4.2,6.4-9.2,7.5-14.8c0.5-2.5-0.9-3.5-3.4-3.4C654.6-187.2,652.2-184.4,652.2-176.4 M767.7-126.2
	c0-11.1-0.1-22.1,0.1-33c0.1-3.2-1.1-4.4-4-4.9c-8.2-1.5-8.2-1.5-8.2,7.2c0,2,0.3,4.1,0,6c-2,10.9,1.7,19.1,11.3,24.7
	C766.9-126.1,767.1-126.1,767.7-126.2 M755.9,213.9c2,0.8,3.2,1.3,4.4,1.7c0.8,0.2,1.7,0.1,2.5,0.3c15.2,2.2,30.2-0.2,45.3-1.1
	c3.3-0.2,6.6-1.2,9.9-1.9c2.3-0.5,1.9-2.6,2-4c0.1-1.6-1.7-1.3-2.8-1.3c-14.8-0.1-29.7-0.4-44.4,1.4
	C767.4,209.6,761.5,209.7,755.9,213.9 M662.4-367.6c-1.2,4.6-2.4,9.2-3.5,13.8c-2.3,9.4-4.5,18.9-6.6,28.4c-1,4.8,0,5.9,4.6,5.1
	c4.2-0.7,8.3-0.9,12.5-0.9c2,0,2.9-0.4,2.3-3c-1.1-5-1.5-10.2-2.4-15.2C667.7-348.7,666.1-358.2,662.4-367.6 M744.1-283.6
	c4.7-3.2,9.3-3.8,13.7-3.9c3.4-0.1,4.2-1,3.9-4.3c-1.7-17.1-3.8-34.1-6.8-51.2C749.7-323.9,747.2-304.3,744.1-283.6 M460.4-139.4
	c1.7,0.8,2.4,0.4,3.2,0.1c13.3-5.4,26.5-10.8,39.9-16.1c27.4-10.7,54.3-22.5,82.4-31.3c4.1-1.3,7.8-2.3,9.3,3.7
	c-0.1-5.9,1.7-11.2,1.4-16.8c-0.1-3.3-1.3-3.7-3.9-2.6c-1.5,0.6-3.1,1.3-4.6,2c-18.2,8.4-36.4,16.7-54.5,25.4
	C509.3-163.4,485.1-151.5,460.4-139.4 M202.1,72.9c-11.4,2-23.1,0.3-34.7,1.9c-1.3,0.2-2.9-0.5-3.7,1.6c-2.5,7-5.2,14-7.8,20.9
	c-0.3,0.8-0.4,1.8,0.6,2.1c1.1,0.4,1.9,0,2.2-1.3c0.8-2.9,1.5-5.8,2.5-8.6c0.5-1.3,1.1-3.3,2.8-3.2c2,0.1,1.5,2.1,1.9,3.4
	c0.6,2,0.8,3.9,1,5.9c0.1,1.3,0.4,3.4,2.3,3.4c5,0.1,10.2,1.4,15-0.2c3.1-1,3.1-5.2,4.7-7.8c1.5-2.5,2.3-6.8,5.4-6.6
	c3,0.3,2,4.7,2.9,7.2c1.1,2.9,1,6.6,4.9,7.4c4.1,0.9,8.2,1.7,12.4,2c5.9,0.4,8.2-3.5,5.5-8.9c-2.1-4.2-4.6-8.2-6.4-12.5
	C211.4,74.6,208.4,71.3,202.1,72.9 M532.7,166.6c-0.4-7.7-0.9-14.6-1-21.6c0-3.2-0.7-4.4-4.1-4.1c-14.1,1.1-28.2,1.7-42.4,2.3
	c-21,1-41.9,2.7-62.9,3.7c-14.8,0.7-29.5,2-44.3,3.2c-2.8,0.2-5,0.9-5.7,4.9c-1.1,5.8-1.3,11.6-2.5,17.4c-0.3,1.6-0.9,3.5,0.8,4.7
	c1.6,1.1,2.9-0.4,4.2-1c15-6.8,30.2-13.1,45.8-18.6c28.5-10,57-10,85.7-1.3C515.1,158.8,523.7,162.3,532.7,166.6 M166.9,163.9
	c14.1-4.4,28.2-5.6,42-7.8c10.7-1.7,21.5-3.4,32.2-4.8c3.1-0.4,3.9-1.8,3.8-4.6c-0.1-3.2-0.7-6.8,0.5-9.5
	c5-10.8,11.6-20.7,19.2-29.9c2.4-3,4-1.7,4.6,1.3c1,5.1,1.7,10.2,2.5,15.6c1-1.8,0.8-3.4,1-5c1.1-9.7-0.2-19.6,2.4-29.1
	c5.4-20.4,14.5-39.4,23.3-58.5c0.8-1.6,1.1-4.7,3.8-3.8c2.3,0.7,1.6,3.4,1.6,5.4c0,8.5,0,17,0,25.5c0.5,0,1.1,0,1.6,0
	c1.2-21.1,2.4-42.1,3.6-63.2c-1.3,0.3-1.8,0.7-2,1.3c-8.8,22.1-18.4,43.9-28.8,65.3c-12.7,26-25.5,51.9-43.8,74.7
	c-12.6,15.8-35,15.7-48.4,4.8c-5.5-4.5-9.6-10.2-14.9-16C168.4,138.4,168.6,151,166.9,163.9 M416.8,112.6c-0.1-6.2,1-12.4,1.3-18.6
	c0.8-16.8,1-33.7,2.3-50.4c0.7-9.1,0.4-18.2,1-27.3c1.1-17,1.4-34,1.7-50.9c0-1.8-0.4-2.6-2.5-2.9c-14-2-28-2.9-42.1-2.7
	c-1.3,0-2.6,0.6-3.9,0.8c-1.5,0.1-1.9,1-2,2.4c-1,12.8-1.7,25.6,0,38.3c0.3,2.3,1.2,3.7,4.1,4c7.6,0.7,15.3,1.8,22.9,3
	c2.6,0.4,5.2,1.6,5.5,4.9c0.8,11.1,1,22.2-0.2,33.3c-0.4,3.7-1.9,7-6.7,7.5c-4.6,0.5-9.1,1.5-13.6,2.3c6.6,0.5,13.1,0.2,19.5,2.4
	c4.6,1.6,7.6,3.9,8.4,9.3c0.8,5.7,0.5,11.4,1.7,17.1C416.1,94.1,413.8,103.6,416.8,112.6 M181.8,163.3c0,0.3,0,0.5,0.1,0.8
	c0.9,0.1,1.9,0.3,2.8,0.2c23.7-0.6,47.4-2.6,71-4.9c2.9-0.3,4.4,0.2,4.5,3.6c0.2,5,0.7,10.1,1.1,15.1c0.9,12.1,0.9,24.2,0.8,36.6
	c7.2-2,14.2-3,21.2-2.3c23.2,2.3,46.4,1.4,69.6-0.5c3-0.2,3.6-1.2,3.5-3.9c-0.3-14.7,1.9-29.2,2.8-43.8c0.4-6.1,0.1-12.2-0.9-18.1
	c-0.4-2.3-1.1-5.2-4.5-5.1c-6.1,0.1-12.2,0-18.2,0.2c-1.4,0-3.5,0.1-3.4,2.2c0.3,5.7-3.9,5.5-7.5,5.6c-6.4,0.2-12.8,0-19.2,0.1
	c-8.1,0-16.1-0.8-24.1-2c-1.8-0.3-3.7-0.8-3.8-2.6c-0.1-2,1.9-2.4,3.7-2.6c5.1-0.6,10.3-1.6,15.4-1.9c2.7-0.2,3.6-1,3.6-3.5
	c0.1-4.6,0.3-9.1,0.4-13.7c0.3-20.7-0.3-41.5,0.7-62.2c0.4-8.3,0.1-16.5,0.1-24.8c-0.5-0.1-1-0.1-1.6-0.2
	c-4.9,10.1-9.4,20.4-13.4,30.9c-3.5,9.2-7.9,18.1-9,28c-1.4,13.6-2,27.2-2.1,40.9c0,4.2-0.6,8.3-0.8,12.5c-0.1,1.3-0.5,2.7-1.6,2.7
	c-1.2,0-1.6-1.4-1.7-2.7c-0.9-8.4-1.9-16.7-2.9-25.1c-0.5-4-0.6-8.1-2-12.1c-2.2,0.9-2.8,2.7-3.7,4c-6.6,10.8-16.7,20.1-14.8,34.6
	c0.3,2.3-1.2,4.2-3.7,4.6c-11.4,1.8-22.8,3.5-34.2,5.2C200.5,160.5,191.1,161.9,181.8,163.3 M1098.4,72.7
	c-12.6-5.8-25.3-11.3-37.8-17.4c-35.1-17.3-66.1-40.8-97-64.5c-28.9-22.3-57.5-45-85.7-68.2c-27.5-22.6-55-45.1-82.6-67.5
	c-6.6-5.4-12.8-11.4-20.4-15.4c-2.3-1.2-4.2-2.3-4.2,2c0.2,11,0.1,21.9,0,32.9c0,2.4,1.1,3.8,2.5,5.1c5.2,4.8,10.5,9.5,15.6,14.3
	c27.4,25.9,54.7,51.9,83,76.9C886.1-16.5,900.9-4.8,918,3.8c47.6,24.1,96.7,44.9,147.4,61.5C1076.1,68.8,1086.9,72.3,1098.4,72.7
	 M698.7,213.3c1-3.8-0.9-7.5-0.8-11.3c0.2-12.4-1.6-24.7-0.5-37.2c1.1-11.2-0.1-22.6,0.9-33.9c0.6-7.1,0.4-6.4-5.6-6.2
	c-25.6,0.6-51.2,1.3-76.8,1.8c-21.9,0.5-43.8,0.9-65.7,2c-4.4,0.2-5.7,2.1-6.3,5.7c-1.8,11.1-2.3,22.3-2.9,33.5
	c-0.6,11.3-0.9,22.5-2.1,33.7c-0.3,3.1-1.9,7.1-0.6,9.2c2,3.2,6.1-0.3,9.4,0.3c0.2,0,0.3,0,0.5,0c21.4-0.1,42.8-0.2,64.1,0.6
	c21.9,0.8,43.9,0.4,65.8,0.6C684.9,212.3,691.7,212.9,698.7,213.3 M667.2-410.7c-6.7,19.7-12.3,39.3-18,58.9
	c-3.1,10.6-6.1,21.2-9.1,31.9c-0.3,1.2-0.6,2.5-1.9,2.7c-1.4,0.2-1.7-1.1-2.3-2.2c-1-1.7-2.3-3.2-3.5-4.8c-1.8-2.3-3-2.8-4.2,0.7
	c-1.9,5.6-4.3,11.1-6.3,16.6c-0.4,1-0.5,2-1.8,2c-1.4,0-2.1-1-2.3-2.2c-0.7-4.4-1.2-8.9-2.1-13.2c-1.8-9-3.3-18.1-6.5-27.4
	c-2.3,6.3-3,12.4-4.1,18.5c-2.6,15.1-5,30.2-7.4,45.3c-0.3,2.1,0.6,2.5,2.7,2c5.5-1.4,11-2.8,16.6-3.5c2.5-0.3,6.6-2,7.6,1.5
	c1,3.4-3.2,4.4-5.5,5.3c-5.6,2.1-11.4,3.5-17.1,5.3c-2,0.6-4.2,0.9-4.5,3.8c-1,8.6-2.6,17.2-2,26c0.3,5,2.1,6.6,6.9,5.5
	c1.3-0.3,2.5-1,3.7-1.5c15.3-6.1,29.5-14.6,44.5-21.4c5.6-2.5,11.2-3.2,17.4-1.7c24.3,5.8,48.2,13.2,71.8,21.3
	c5.7,1.9,11.3,3.9,16.7,6.4c1.5,0.7,2.6,1.5,2.4,3.3c-0.3,2.4-2.1,1.6-3.5,1.7c-0.8,0.1-1.7,0.1-2.5,0c-11-1.8-22.1-3.4-33-5.4
	c-17.2-3.1-34.3-6.7-51.5-9.7c-5.1-0.9-10.2-1.9-15.6,1c-14.3,7.6-28.9,14.6-43,22.7c-1.9,1.1-2.8,2.4-3.1,4.7
	c-0.7,6.6-2.4,13.2-2.7,19.8c-0.4,9-2.5,18-0.3,27.1c0.6,2.6,1.1,4.4,4.9,3c13.6-5,25.8-13,39.1-18.7c0.9-0.4,1.7-1.1,1.5-2.3
	c-0.6-4.1,0.7-8,1.1-12c1.2-11.4,2.9-22.8,4.2-34.3c0.5-4.3,3-4.3,6.2-3.8c17.5,3,35.1,5.9,52.6,9c11.1,2,22.1,4.3,32.7,8.2
	c7.4,2.7,8.4,4.5,8.5,12.2c0.2,12.5,0.7,24.9,1,37.4c0,1.6-0.2,2.9,2.2,3c3.2,0.2,6.5,0.9,9.9,1.4c0-4.7,0-9.2,0-13.8
	c0-30.9,0.2-61.7-0.9-92.6c-0.1-3.7-1.4-5.1-4.8-4.2c-3.8,1.1-7.7,0.9-11.6,0.6c-3.5-0.3-4.5,1.5-4.7,4.1c-0.3,4.4-0.2,8.8-0.4,13.1
	c-0.1,1.5,0.3,3.8-1.9,4c-1.9,0.1-1.8-2-2.3-3.4c-7.1-18.3-13.8-36.9-22-54.8c-2.5-5.6-4.7-11.4-9.3-16.9c-3.2,7.4-6.1,14-8.8,20.7
	c-4.6,11.3-8.9,22.8-14.4,33.7c-0.8,1.5-1.2,3.8-3.7,3.5c-2.5-0.4-1.8-2.6-2.3-4.3c-1.7-6.3-0.7-12.8-0.9-19.1
	c-0.2-4.7-0.2-9.4-2-14.6c-1.6,2.1-2.4,4-4.4,4.8c-7.2,2.8-14.6,3.2-22,1.3c-1.3-0.4-3.2-0.8-2.9-2.8c0.2-1.8,2-2.3,3.3-2.5
	c6.2-1.1,12.5-2,18.7-3c1.4-0.2,3.3,0.2,2.6-2.3c-0.4-1.6-0.6-2.9-3-3c-5.8-0.2-11.5,0.3-17.1,1.5c-4.9,1-4.5-1.8-4.2-4.2
	c2.5-17.2,7.2-33.9,11.6-50.7c0.4-1.5,0.7-3.3,2.5-3.3c2.1-0.1,2.2,1.9,2.8,3.5c2.5,6.7,3.5,13.8,4.9,20.7c1.7,8.3,3.4,16.6,4.3,25
	c0.2,1.5,0,4.4,3.2,4.1c4-0.3,8.1-0.3,12.1-0.6c9-0.9,14.6-10.2,11.2-18.6c-8.1-20.2-17-40.1-27-59.4
	C672.6-403.9,671.1-407.9,667.2-410.7 M693.5-167.8c10.3,18.2,20.6,36.1,30.7,54c4.6,8.2,9.1,16.5,13.7,24.7
	c0.6,1.1,0.9,2.2,0.4,3.3c-0.4,1.1-1.3,0.7-2.1,0.5c-16.4-3.4-32.7-6.8-49.1-10.2c-9.2-1.9-18.4-4.4-27.7-5.6
	c-9.6-1.2-17.5,3.9-25,9.1c-6.8,4.7-13.4,9.8-21.9,11.5c-6.3,1.3-8.4-1.1-7.2-7.5c1.3-6.4,4.4-12.6,2.5-19.4c-0.7-2.5-0.5-5.4-4.1-5
	c-3.5,0.4-3.1,3.3-3.2,5.8c-0.5,17-0.6,34.1-1.5,51.1c-1.3,24.1-0.1,48.2-1.3,72.2c-1.1,22.1-0.2,44.2-0.3,66.3
	c0,3.3,0.8,4.7,4.3,5.1c15.8,2.1,31.6,0.8,47.3-0.7c5.3-0.5,10.6-0.8,15.9-2.3c2.3-0.6,3.2-1.3,3.6-3.8c2-12.1,2.4-24.4,2.8-36.6
	c0.5-15.7,0-31.4,0.3-47.1c0.1-3.8-1.3-5.1-4.6-6c-3.8-1.1-8-2.3-8.7-7c-0.9-5.6,0.8-10.9,4-15.6c1.3-1.9,3.3-3.9,5.7-3.5
	c2.5,0.4,3.9,2.7,4.6,5.3c1.4,5.2,2.2,10.4,2,15.8c-0.2,3.2,0.5,4.7,4.3,5.2c7.6,1,15.2,2.3,22.8,3.2c14.5,1.6,29.1,2.5,43.7,2.8
	c2.4,0.1,2.9-0.7,3.4-3c2.4-11.1,2.2-22.4,2.6-33.6c1-24.3,0.7-48.6,1.4-72.8c0.2-5.7-1.4-9.6-5.7-13.3c-5.8-5.1-11.2-10.7-14.2-18
	c-0.8-1.9-1.3-4.1,0.5-5.6c1.5-1.3,3.4-0.8,5.2,0.1c3.3,1.7,6.3,3.7,9.2,6c1.3,1.1,2.4,2.8,4.8,2.3c0-7.8,0-15.6,0-23.3
	c0-1.8-0.4-2.8-2.5-3c-13.5-1.5-27-1-40.5-1C704.3-167.2,699.1-169,693.5-167.8 M776.9,119.4c18.8-0.5,37.7-1.1,56.5-1.6
	c19-0.5,38.1-0.9,57.1-1.3c2,0,4-0.2,6-0.4l0.5,0.1l0.5-0.2c11.5-0.3,23-0.6,34.5-0.9c0.6,0,1.3,0,1.9-0.1c1,0,2.1,0,3.1,0
	c0.6-0.1,1.1-0.3,1.7-0.4c19.3-0.5,38.7-0.9,58-1.6c18.3-0.7,36.6-1.7,54.9-2.7c2.8-0.1,5.8-0.2,8.5-1.1c4.5-1.4,3.8-6.1,4.9-9.5
	c0.8-2.6-1-3.9-3.6-4c-0.6,0-1.2-0.1-1.7-0.1c-18.8,0.2-37.7,0-56.5,0.8c-16.7,0.8-33.3,0.4-50,1.1c-0.6,0.1-1.1,0.3-1.7,0.4
	c-12.3,0.1-24.5,0.3-36.8,0.4c-0.7,0-1.4,0-2,0c-21.6,0.4-43.3,0.8-64.9,1.2c-0.5,0.2-0.9,0.3-1.4,0.5c-1.1,0-2.2,0-3.2,0
	c-0.5-0.2-0.9-0.4-1.4-0.5c-21.6,1.2-43.3,0.3-64.9,1.1c-0.6,0.1-1.1,0.2-1.7,0.3c-22.8,0-45.6,0-68.4,0c-0.6-0.1-1.1-0.2-1.7-0.3
	c-1.7,0-3.4,0-5.2-0.1c-0.3-0.2-0.6-0.2-1-0.1c-1-0.1-2-0.2-3-0.2c-14.4-0.2-14.4,0.3-14.1-14.6c0.3-18.5,1.7-37,10.9-53.7
	c4.9-8.9,11.5-15.2,22.8-14.9c8.8,0.3,13.7,5.6,17.5,12.3c4.9,8.5,7,18,8.3,27.5c1.4,10.3,2.2,20.7,3.1,31c0.2,2.4,1,3.4,3.4,3.2
	c0.2,0,0.3,0,0.5,0c17.4,1.1,17,1,17.6-16.3c1-33.5,0.9-67,0.9-100.6c0-2.3,0.4-4.6,0.6-7c0-0.6,0-1.1,0-1.7
	c0.1-22.9,0.3-45.9,0.4-68.8c0-1.6-0.3-2.8-1.6-3.9c-3.3-2.8-6.5-5.9-9.8-8.9c-1.5,1.3-0.7,3.1-0.7,4.6c0.6,24.9-0.9,49.9-1.3,74.8
	c-0.2,10.9-0.3,22.1-2.6,33c-0.8,3.7-2.3,4.7-5.7,4.7c-15.5-0.1-30.9-1.2-46.2-2.9c-7.1-0.8-14.2-1.7-21.2-3.1c-2.2-0.4-4.1-0.5-4,3
	c0.3,10.8,0.3,21.6,0.3,32.4c-0.2,0.3-0.2,0.6-0.1,1c-0.6,10-0.1,20.1-1.1,30.1c-0.7,7.3-1.2,14.6-2.3,21.9
	c-0.4,2.6-1.8,4.3-4.7,4.9c-12.7,2.5-25.5,3.4-38.4,4c-3.9,0.2-7.7,0.1-11.6,0.2c-1.4,0-2.7,0-4.1,0c-4.2-0.2-8.4-0.1-12.5-1.2
	c-3.7-1-5.9-2.7-5.9-7.3c0.2-25.7-0.7-51.3,0.4-77c0.9-19.9,0-39.7,1-59.6c0.3-5.4,1.8-10.9,0.4-16.4c0.1-0.3,0.1-0.6,0-1
	c0.4-12.6,1-25.2,1.2-37.8c0.1-4.3,1.4-7.2,5.9-7.8c4.7-0.7,6.2,2.3,7.5,6.2c2.5,7.8-0.7,14.9-2.5,22c-1.1,4.6,0.8,4,3.7,3.5
	c8.1-1.5,14.1-6.9,20.9-10.9c8.5-4.9,16.6-11.5,27.3-9.7c9.1,1.5,18.2,3.6,27.3,5.5c14.8,3,29.5,6.1,44.3,9.1
	c0.6,0.6,1.3,0.7,1.9,0.1c0.1-0.1-0.4-0.7-0.7-1.1c-9.4-18.6-20-36.5-30.3-54.6c-4.2-7.3-8.8-14.4-13-21.7c-1.2-2.1-3.1-3.3-4.6-5
	c-1-1.2-1.1-2.7-0.2-3.7c1.3-1.4,2.5-0.3,3.2,0.9c1.9,3.1,4.9,3.7,8.2,3.6c6.2-0.3,12.3,2,18.5,0.8l0.5,0.1l0.5-0.1
	c7.1,0.1,14.2,0.2,21.2,0.3c2.2,0,4.4,0,6.6,0.4c9.5,1.5,9,1.5,8.2-8.3c-0.8-10.4-0.6-20.9-0.5-31.4c0-4-1.5-6.1-5.1-7.5
	c-12.7-5.2-26.1-7.4-39.5-9.8c-15.3-2.7-30.6-4.8-45.9-7.6c-2.5-0.5-3.6-0.3-3.8,2.1c-1.3,11.8-3.8,23.4-4,35.3
	c-0.1,2.8-2.7,6.2-0.5,8.2c1.9,1.8,4.8-1.2,7.4-1.6c6.2-0.8,8.6,2.3,7.4,8.7c-1.2,6.1-4.4,11.1-8.6,15.4c-1.7,1.8-3.8,3.4-6.6,2.2
	c-2.7-1.1-3.3-3.5-3.2-6.1c0.1-4-2-7.8-0.7-12.5c-7.9,4-15.8,8.2-23.8,12.1c-5,2.5-9.9,5.2-15.4,6.8c-5.1,1.5-7.9-0.1-8.8-5.3
	c-1.1-6.7-0.8-13.3-0.3-20c0.7-9.5,2.1-18.9,3.3-28.3c0.3-2.8,1.5-4.6,3.8-6c15.8-9.2,31.9-17.6,48.6-25c4.8-2.1,9.4-0.2,13.8,0.5
	c24.1,4.1,47.9,9.4,72.1,13c2.3,0.3,4.5,1.3,8.2,0.5c-8.6-3.1-16.2-6-23.9-8.4c-19.5-6-38.9-12-58.7-16.9c-9.2-2.3-16.2,2-23.6,5.4
	c-13.3,6.2-25.9,13.8-39.8,18.7c-8.4,3-11.1-1.2-11.6-7.7c-0.8-9.5,1.1-18.7,2.2-28c0.4-3.5,3.7-4.4,6.5-5.3
	c5.2-1.6,10.5-2.9,15.6-4.8c-5.7-0.5-10.9,1.3-16.3,2.6c-5.2,1.2-6.7,0-5.8-5.2c3.5-21.7,6.5-43.4,11.2-64.8
	c0.4-1.8,0.5-4.5,2.9-4.7c2.9-0.3,3.3,2.7,3.9,4.5c3.4,11.6,5.6,23.5,7.8,35.7c2.6-3.3,3.3-7.2,4.9-10.8c3.2-7.4,4.3-7.6,9.8-2
	c0.8,0.8,1.6,1.7,2.7,2.9c5.6-19.2,11.1-38.1,16.7-57c3-10.1,6.3-20.2,9.6-30.3c0.6-1.7,0.5-4.3,3.4-4.2c2.4,0,3.2,1.9,4.3,3.6
	c7,10.2,11.9,21.4,17,32.5c5.4,11.9,10.5,23.9,15.5,36c4.6,11-2.7,22.6-14.6,23.3c-3.5,0.2-7.1,0.2-10.6,0.3c-1.1,0-2.7,0-2.8,1.4
	c-0.1,1.4,0.5,3.9,1.1,4c7,1.2,4.7,7.1,5.2,10.9c0.8,7.2,0.5,14.5,0.6,21.7c0,0.6,0.2,1.3,0.5,2.8c2.9-4.2,4.5-8.3,6.1-12.2
	c5.2-12.5,10.2-25.1,15.6-37.6c0.9-2.2,1.1-5.6,4.7-5.6c3.6,0,4.5,3.4,5.7,5.7c7.7,14.5,13.6,29.8,19.6,45c2.1,5.2,4,10.4,6.6,15.5
	c-0.4-4.5,1.9-8.6-0.3-13.5c-2-4.7,0-10.4,0.9-15.4c2.7-16.1,4.7-32.2,9-48c0.7-2.5,0.9-6.3,4-6.2c3.6,0.1,2.6,4.4,3,6.6
	c2.6,18.5,4.8,37.1,7.2,55.7c0.4,2.9-1.1,3.7-3.5,3.4c-3.8-0.5-7.3,0.8-11,1.1c-1.5,0.1-3.8,0.5-3.6,2.7c0.2,2.2,2.4,1.1,3.7,1.1
	c3.7,0.2,7.4-0.2,11.1-0.8c5.7-1,7.2,0.7,7.5,6.4c1.7,34.4,0.8,68.8,0.9,103.3c0,3.8,0.8,5.7,4.6,7.3c8,3.3,14,9.7,20.6,15.1
	c21.8,17.6,43.4,35.5,65.2,53.2c20.4,16.7,40.8,33.4,61.4,49.8c23.7,18.9,47.8,37.4,72,55.6c33.3,25.1,69.4,45.1,108.1,60.4
	c2.5,1,7,1.7,6.1,4.7c-1.1,3.6-5.5,1.7-8.5,1.3c-27-3.2-51.9-13.4-77-22.9C988,40.3,953.4,25.2,919.7,8.2
	C899-2.3,881-16.3,864.1-31.8c-26.4-24.3-52.7-48.6-79-73c-4.5-4.2-8.6-8.9-13.8-12.7c-1.5,6.8-0.5,12.1,5.2,16.5
	c4.2,3.3,7.2,7.9,10.4,12.2c3.9,5.2,5.7,11.3,6.1,17.6c1.2,17.6,2,35.3,3.1,52.9c1.2,19.5,2.7,38.9,4,58.4c0.2,3,1.6,5.8,2,8.9
	c0-2.7,0-5.4,0-8c-0.1-19.6-0.4-39.2,1.1-58.7c0.5-7.1,1.1-14.3,3.6-21.1c2.8-7.4,5.8-9,12.2-4.8c27,17.2,51.9,36.9,73,61.2
	c3.9,4.5,5.8,9.4,5.5,15.6c-0.5,12.3-0.2,24.6-0.1,37c0,1.7-0.8,3.7,1.5,5.3c2.2-12,4.3-23.8,6.4-35.5c0.1-0.8,0.3-1.7,0.5-2.5
	c3.5-12.8,4.3-13.2,16.9-9.1c17.9,5.8,35.8,11.7,53.1,19.2c6.4,2.8,10.3,6.2,10,14.2c-0.2,6.3,0.4,13,2.9,20.1
	c3.5-6.7,4.4-13.1,5.8-19.4c0.3-1.1,0.8-2.2,0.8-3.4c0.2-3.8,2-3.2,4.6-2.1c18.1,7.8,36.3,15.6,55.6,20.2c24.9,6,50,11.2,75,16.7
	c1.9,0.4,3.3-0.6,4.7-1.2c7-2.9,14-5.4,21.8-4.9c1.7,0.1,3.4-0.1,4.9,1c2.4,1.8,5.3,3.9,4.7,7.1c-0.7,3.4-3.9,3.9-7.2,4.2
	c-8.3,0.6-16.4-0.9-24.5-2.4c-1.9-0.4-3.1-0.1-4.7,0.6c-16.3,7.3-31.9,15.9-48.3,22.9c-12.2,5.2-25.2,6.6-38.2,7.3
	c-25.6,1.4-51.2,2.7-76.8,3.3c-15.5,0.4-31,1.2-46.5,1.9c-21.2,1-42.4,2.3-63.5,4.2c-8.1,0.7-16.2,1.8-24.2,3.7
	c-5,1.2-6.8,4-7.4,8.6c-1.7,12.7-2.2,25.4-2,38.2c0,3.5,0.3,7.1-0.1,10.6c-0.4,4.1,0.9,5.6,5.2,5.6c20.9-0.1,41.5,3.1,62,6.7
	c15.1,2.7,30.3,3.1,45.7,2.6c27.5-0.8,952-0.5,979.5-0.7c0.8,0,1.7,0,2.5,0.1c0.8,0.1,1.8,0.3,1.6,1.4c-0.1,1-1,1.3-1.9,1.3
	c-1.5,0-3-0.1-4.5-0.1c-26.8,0.2-950.6-0.1-977.4,0.9c-22.2,0.9-43.8-2.2-65.6-6c-14.6-2.5-29.4-3.6-44.2-3.4c-2,0-3,0.4-3.1,2.6
	c-0.1,4-2.8,5.7-6.4,6.2c-18.6,2.4-37.1,4.4-55.9,2.2c-3.2-0.4-7.6-0.8-7.8-4.9c-0.1-3.5,3.8-4.5,6.9-5.5c7.6-2.5,15.6-3.2,23.3-3.4
	c11.3-0.3,22.5-1.8,33.8-0.6c3.3,0.3,3.2-1.4,3.2-3.6c0.1-13.8-0.6-27.7,1-41.5c0.4-3.7,0.7-7.3,1.2-11c0.7-5.5,4.2-8.1,9.4-9.5
	c11.9-3,24.2-4,36.3-4.8c24.4-1.8,48.8-2.9,73.2-4c14.8-0.7,29.7-0.7,44.5-1.4c23.5-1.1,47.1-2.4,70.6-3.9
	c13.9-0.9,26.4-6.6,38.7-12.6c9.6-4.7,19.3-9.3,28.9-13.9c0.6-0.3,1.1-0.7,2.4-1.6c-10.9-2.6-20.7-5.2-30.6-7.1
	c-32.5-6.3-64.5-14.1-94.6-28.3c-2.3-1.1-3.3-0.7-3.9,2.3c-1.1,6-2.2,12.1-4.8,17.8c-0.8,1.8-1.7,4.1-4,3.8
	c-2.2-0.3-2.9-2.3-3.5-4.4c-1.9-6.7-2.3-13.6-2.5-20.4c-0.1-4.4-1.6-6.6-5.4-8.4c-15.6-7.4-32.1-12.5-48.3-18.2
	c-3.9-1.4-7.9-2.4-11.7-4c-3.8-1.5-5.5-0.4-6.8,3.5c-2.4,7.5-3.6,15.2-4.9,22.9c-1.3,7.4-2.6,14.8-4,22.2c-0.4,2.1-1,4.9-3.5,4.6
	c-2-0.2-2.4-2.7-2.7-4.9c-1.9-14.6-0.9-29.3-0.6-44c0.1-6.3-1.9-10.9-5.7-15.5C875.3,2,858.6-11.2,841.9-24.2
	c-7.9-6.1-16-12-24.6-17.1c-3.6-2.2-5.5-1.2-7,2.3c-2.9,7.1-3.4,14.7-4,22.1c-1.7,24.3-1.1,48.6-1.1,72.8c0,2.6-0.4,5-1,7.5
	c-0.3,1.1-0.8,1.9-1.8,2c-1.1,0.1-1.9-0.9-2.1-1.8c-0.8-3.9-1.7-7.8-2.1-11.8c-0.9-8.7-1.5-17.4-2.1-26.1
	c-1.4-19.1-2.6-38.3-3.9-57.4c-0.7-11.1-2.3-22.2-1.9-33.3c0.5-15.8-8.1-26.3-18.5-36.5c-1.6,1.8-0.9,3.7-0.9,5.4
	c-0.2,24.8,0.2,49.6-0.5,74.4c-0.7,24.6-0.2,49.3-0.6,73.9c-0.2,12-0.9,23.9-0.9,35.9c0,5.2-3.7,5.7-7,6.1
	c-5.2,0.5-10.5,0.3-15.7,0.1c-3.2-0.1-4.6-1.9-5-5.5c-1.7-17.2-1.8-34.7-7.9-51.2c-1.6-4.3-3.7-8.2-6.5-11.7
	c-6.6-8.5-21.1-7-28.3,2.6c-4.7,6.3-7.6,13.5-9.4,21c-3.3,13.6-4.4,27.4-4.3,41.3c0,5.6,2.7,6.5,7.5,6.7c33.1,1.4,66.1,0.6,99.2,0
	c16.2-0.3,32.4,0.6,48.5-0.1c36.7-1.8,73.5-1,110.2-2.9c3.7-0.2,7.4-0.1,11.1-0.1c23.6,0.1,47.2-1.4,70.8-1.2
	c8.7,0.1,17.5-0.8,26.3-0.8c8.4,0,11.1,3.6,8.9,11.4c-2.4,8.7-2.4,9.1-13.9,9.7c-15.5,0.8-30.9,1.8-46.4,2.3
	c-35.4,1-70.8,2.5-106.1,3.7c-8.1,0.3-16.2-0.3-24.3,0.4c-16.5,1.4-33,0.2-49.5,1.6c-10.7,0.9-21.5,0.2-32.2,0.5
	c-30,0.7-60,1.5-90,2.1c-2.6,0.1-3.1,1-3.2,3.2c-1.4,24.4-1,48.9-0.8,73.3c0,3.3,0.6,6.7,1.1,10c0.5,3.1,2.6,4.1,5.5,4.7
	c2.7,0.6,7.7,0.5,6.3,4.9c-1.2,3.7-5.8,2-9,1.6c-0.7-0.1-1.6-0.8-2-1.5c-2.5-4.3-6.7-4.4-10.8-4.4c-28.3-0.5-56.7-0.6-85-1.4
	c-18.9-0.5-37.8-0.8-56.7-0.4c-5,0.1-10.4-0.6-15.1,2.4c-1.2,0.8-2.3,0.1-3.1-0.8c-1-1.1,0-2.1,0.6-2.5c2.7-1.8,2.5-4.8,2.7-7.2
	c1-10.4,1.9-20.8,2.1-31.2c0.3-12.6,1.4-25.2,2.5-37.7c2.4-11.1,2.4-11.1,9.8-11.8c0.5-0.2,1.1-0.3,1.6-0.5
	c9.3-0.2,18.5-0.3,27.8-0.5c0.5-0.2,1.1-0.3,1.6-0.5c12.6-0.2,25.3-0.4,37.9-0.5c0.6,0.3,0.9-0.1,1.1-0.6
	c24.9-0.4,49.8-0.7,74.7-1.1c1.1,0,2.4,0.1,3.2-1c0.6,0,1-0.2,0.8-0.9c0.6-9.5,0.5-11.6-11.3-12.2c-0.8,0-1.7,0-2.5-0.1
	c-0.2-0.5-0.5-0.8-1.1-0.6c-18.3-0.6-36.5-0.6-54.8,0c-0.6-0.3-0.9,0-1.2,0.5c-13.6-0.1-27.1,1.1-40.7,2c-15.4,0.9-30.7,2.4-46,4.2
	c-4.3,0.5-8.2,8.9-4.9,11.6c4,3.3,3.3,7,3.1,11c-0.2,0.6-0.2,1.6-0.6,1.9c-6.5,3.7-3.7,9.9-3.4,14.8c0.2,4.7,0.2,9.4,0.6,14.1
	c0.3,3.8-0.9,4.4-4.3,2.7c-12.6-6.5-26-10.9-39.9-13.9c-21.8-4.7-43.1-3.5-64.4,2.9c-18.2,5.5-35.5,13.3-52.9,20.8
	c-6.2,2.7-6.7,2.8-7.1-3.6c-0.5-8.7,0.8-17.3,3.3-25.7c0.6-2.2,2.3-2.3,3.9-2.5c9-1,18-2.2,27.1-2.8c19.7-1.1,39.3-2.3,59-3.3
	c18.1-0.9,36.3-2,54.4-2.9c4.9-0.2,9.8-0.3,14.6-1.1c4.5-0.7,1.5-4.6,2.1-6.9c0.6-2.5-1.4-1.9-2.9-1.8c-17.4,1.6-34.8,3.1-52.2,4.8
	c-18.7,1.8-37.4,4.2-56.1,5.7c-16.3,1.3-32.5,3.6-48.8,3.3c-1.8,0-4.7,1-4.9-1.9c-0.2-2.4,2.4-2.7,4.3-3.4
	c5.1-1.7,10.5-1.9,15.8-2.7c7.1-1,14.4-1.5,21.5-2.1c1.6-0.1,3.5-0.2,3.5-2c0.1-2.2-2.2-1.8-3.5-1.8c-2.4-0.1-5.1-1.2-7.2,1
	c-0.8,0.9-1.7,1.1-2.6,0.3c-1-0.8-1.4-1.9-0.8-3.2c3.7-8.2,0.6-16.6,0.7-24.9c0-3-0.5-6-1.2-8.9c-1.8-7.6-6.1-11.7-12.7-12.1
	c-8.5-0.6-16.7-0.2-21.2,8.8c-5.1,10.1-5.9,21.2-8,32c-0.4,2.1-0.9,4.2-1.5,6.3c-0.3,1-1,1.8-2.2,1.7c-1.4-0.2-1.2-1.3-1.4-2.3
	c-1.1-7.1-0.6-14.2-0.5-21.2c0.4-19.9,0.9-39.8,1.7-59.7c1.1-26.8,2.5-53.5,4-80.3c0.4-6.7,1.3-13.4,1.9-20.1c0.3-3,1.5-4.5,4.7-4.5
	c8.9,0.1,17.8,0.9,26.6,2c7.5,0.9,15,1.6,22.5,2.4c5,0.5,9.9,1.2,14.9,1.7c5.5,0.5,10.3-2.2,15.1-4.1
	c35.2-13.6,70.2-27.9,104.7-43.1c14-6.2,28-12.4,41.8-18.9c5.1-2.4,7-5.6,7-11.3c-0.1-12.9-0.9-25.8-2.4-38.7
	c-16.4,7.4-32.5,15-48.8,22c-39.8,17.1-79.6,34-119.5,50.8c-24.2,10.2-48.5,19.9-72.8,29.9c-1.2,0.5-2.4,1.2-3.7,1.5
	c-2.7,0.6-4.7,0.2-4.3-3.4c0.6-6.2,1.4-12.4,1.5-18.6c0.1-3.9,2.3-5.6,5.2-7.1c12.9-6.4,26.2-11.7,39.4-17.4
	c11.2-4.8,22.4-9.7,33.6-14.4c3.5-1.5,4.8-3.7,4.3-7.4c-1.5-10.2-2.9-20.3-4.5-32c-3.4,7.8-4.4,14.8-6.5,21.5c-1.2,4-2,8.1-3.3,12
	c-1,3.1-2.5,6.2-6.4,6c-3.7-0.2-6.5-2-7.7-5.9c-6-18.8-12.1-37.6-18.2-56.4c-2.1-6.5-4.2-13.1-6.6-20.5c-4.1,7.7-5.4,15.5-8,22.8
	c-2.4,6.9-3.4,14.3-5.7,21.2c-4.8,14.5-2.2,29.4-3,44.1c-0.2,5,0.7,10.1-0.7,15.1c-0.6,2-0.5,5-3.3,4.6c-2.4-0.3-2.8-3.1-3-5.3
	c-0.6-6.6-0.2-13.3,1.2-19.6c2.2-10.2-1.1-19.6-2.7-29.3c-1.1-6.5-2.7-12.9-4.6-19.3c-1.7,6.5-2.6,13.1-3,19.7
	c-0.4,5.5-0.8,11.1-1.1,16.6c-0.2,3.3-1.9,5.9-3.9,8.3c-1.3-0.5-2.2,0.5-3.3,0.8c-7.3,2-7.5,1.7-9.2-5.7c-1.3-5.7-0.2-11.6-2.3-18.2
	c-1.9,10.9-4.1,20.7-5.3,30.5c-1.9,15-1.8,30.2-2.1,45.3c-0.2,10.4-0.2,20.8,0.7,31.2c0.1,1.2-0.6,3.2,2,3.2c3.4,0,12-7.1,12.3-10.6
	c1.2-12,2.2-24.1,3.2-36.1c1.2-13.5,1.5-27.1,4-40.5c3.3-0.2,3.5,2.4,3.4,4.4c-0.6,23.1,0.3,46.2-1,69.3
	c-0.7,12.9-0.3,25.9-0.6,38.8c-0.4,16-1.2,32-1.7,48c-0.8,25.6-1.1,51.2-2.4,76.8c-0.4,8.9,0.1,17.9-1.3,26.7
	c-0.4,2.4,0.8,2.5,2.5,2.5c5.6-0.1,11.1-0.1,16.7,0c6.4,0,8.7,2.2,9.7,8.3c2,11.8,0.2,23.5-0.5,35.3c-0.6,8.6-1.6,17.1-1.7,25.7
	c0,3.4,1.1,5,4.7,4.6c2.2-0.2,4.4-0.2,6.6,0.1c2.3,0.4,3.3,1.9,1.5,3.9c-3.8,4.3-10.2,4.5-14,0.4c-1.9-2.1-4.1-1.3-6.1-1.2
	c-10.4,0.5-20.8,1.2-31.1,1.9c-12.7,0.8-25.3-1-37.9-1.2c-8.3-0.1-16.8-1-24,5c-0.9,0.8-2.4,0.9-3.3,0c-1.3-1.3,0.1-2.1,0.9-2.8
	c2.2-2,2.4-4.8,2.5-7.4c0.4-14.5-0.3-29-1.6-43.5c-0.3-3-0.8-4.2-4.4-3.9c-24.5,1.7-49,4.1-73.6,4.7c-4.1,0.1-8.1-0.3-12.1-1
	c-1.8,7.5-1.1,15.5-3.3,23.1c-0.5,1.7-0.6,3.8-2.7,3.6c-2-0.3-2.6-2.3-2.6-4.4c-0.1-15.8-0.5-31.7,0.8-47.5
	c0.7-9.1,0.8-18.2,1.3-27.3c0.2-3.2-0.7-4.8-4.1-4.7c-4.1,0.1-6.9-1-5.8-6.2c0.5-2.5-3.6-2.8-3.6-5.6c-2.9,6.3-2,12.9-2.3,19.2
	c-1.3,22-3,44.1-2.3,66.2c0.1,1.8,0.8,3.7,0.7,5.5c-0.2,3.6,1.6,4.7,4.7,4.8c1.9,0,4,0.1,4.5,2.3c0.4,2.2-1.2,3.6-3,4.8
	c-1.8,1.2-4.4,2.1-5.4,0.3c-4.4-7.7-11.2-3.7-17.1-3.7c-4.8,0-119.1,1-123.9,1.5c-1,0.1-2.8,0.6-2.9-1c-0.1-1.6,1.5-1.9,2.9-2
	c7.7-0.6,124.7-2.3,132.5-2.1c3.9,0.1,5.2-0.9,4.6-5.3c-1.6-11.7-1.2-23.6-0.3-35.4c0.7-8.9,0.3-17.8,1.4-26.7
	c1.4-11.2,1.6-22.5,2.3-33.7c0-0.3-0.1-0.7,0.1-1c0.9-1.6,0.1-4.8,2.6-4.8c1.9,0,1.9,2.6,2.5,4.3c0.9,2.5,0.8,5.2,3.1,8.1
	c2.4-6.5,4.6-12.5,6.9-18.6c3.4-9.3,3.4-9.2,13.5-9.4c11.5-0.3,22.9-0.6,34.4-1.1c3.5-0.2,5.8,1,7.3,4.1c2,4,4,8.1,6.3,11.9
	c1.2,2,0.7,5.9,5.3,4.7c1.5-0.4,4.8,11.1,3.6,12.7c-0.8,1.2-1.8,1.5-2.8,0.2c-0.8-1-1.7-2-2.6-3.3c-4.9,7.6-11.8,3.3-18,3
	c-8-0.3-10.9-5.8-12-14.5c-1.8,3.6-3.1,5.7-3.8,7.9c-1.5,4.6-4.6,6.2-9.2,5.8c-2.3-0.2-4.7-0.3-7.1-0.1c-5.5,0.5-9.5-0.8-9.9-8.1
	c-0.9,1.6-1.7,2.4-1.7,3c0.2,3.6-1.5,5.3-5,5.3c-1.6,0-2.9,1-2.9,2.2c0,2,2,1.5,3.1,1.4c5.2-0.1,7,2.1,6.8,7.4
	c-1,19.5-2.4,39.1-2.2,58.6c0,1.8,0,3.6,0.9,5.5c0.7-8.7,1.3-17.3,2.1-26c0.9-9,1.1-18.1,2.9-27c0.3-1.6,0.6-3.1,2.2-3.6
	c1.8-0.6,2.6,1.1,3.6,2.2c5.3,6.1,9.8,12.8,16.8,17.2c14.4,9,30,6.9,41.1-5.8c11.6-13.4,20.3-28.7,28.5-44.3
	c18-33.8,33.5-68.9,47.9-104.4c0.7-1.9,0.7-5.7,3.6-4.9c2.6,0.7,1.2,4.2,1.1,6.4c-0.9,15.1-1.8,30.2-2.8,45.4
	c-1.3,21.7-2.6,43.4-3.9,65.1c-0.7,12.3-1.4,24.6-2.2,36.9c-0.2,3.2,0.1,4.9,4.4,4.1c4.9-0.9,10.1-0.7,15.1-0.3
	c4.9,0.3,6.5-1.8,6.6-6.3c0.4-13.7,0.8-27.3,1.3-41c1.4-35.5,2.4-71.1,3.2-106.7c0.6-24.8,1.6-49.5,1-74.3
	c-0.8,8.3-1.5,16.6-2.3,24.9c-0.4,4.3-0.6,8.7-1.2,13c-0.8,5.4-10.4,13.1-15.9,12.9c-3.2-0.1-3.9-2.2-4.3-5.1
	c-1.7-14.5-0.7-29-0.9-43.5c-0.4-27.4,5.5-53.9,10.1-80.7c0.3-1.6,0.4-3.7,2.8-3.4c2,0.3,1.2,2.1,1.2,3.3c0.1,9.7-0.2,19.5,1.1,29.1
	c0.4,2.9-1.1,7.3,3.4,7.9c5.4,0.8,7.3-1.9,7.7-8.5c0.7-12.7,2-25.4,4-37.9c0.3-2.2,0.9-4.6,2.8-4.9c2.7-0.3,2.5,2.8,2.9,4.5
	c2,8.4,3.8,16.9,5.5,25.4c0.3,1.6,0.4,3.3,1.4,4.4c4.4-20.3,10-40.4,16.9-60.2c0.2-0.6,0.6-1.2,0.9-1.8c0.7-1.3,1.4-2.9,3.1-2.9
	c1.9,0.1,2,1.9,2.4,3.4c3.9,12.5,7.8,25.1,11.8,37.5c4.3,13.3,8.9,26.4,12.9,39.8c0.9,3,2.8,3.9,4.9,4.1c2.5,0.3,2.9-2.4,3.4-4.3
	c3.1-10.7,6.1-21.4,9.1-32.1c0.5-1.6,0.9-3.2,1.6-4.7c0.6-1.4,1.4-3,3.2-2.7c1.7,0.3,1.4,2,1.5,3.3c1.3,12.5,4.1,24.8,5,37.3
	c0.3,4.3-1.2,6.8-5.2,8.5c-18.7,7.9-37.4,16.1-56.1,24.2c-5,2.2-9.8,4.8-14.9,6.6c-5.4,1.8-6.8,5.6-6.9,10.6
	c-0.1,2.2,0.1,4.4-0.2,6.6c-0.7,7.7-0.8,7.7,6.1,4.9c48.6-19.4,96.8-39.8,144.9-60.5c23.8-10.2,47.5-20.7,71.2-31
	c5.9-2.6,11.6-5.5,17.5-8c3.7-1.5,5.2-3.4,4.7-7.9c-0.9-8.2-0.5-8.3-8.3-5.7c-30.1,10.2-59.2,22.6-88.7,34.2
	c-17.8,7-35.3,14.9-53.6,20.9c-1.8,0.6-4.3,2.3-5.3,0.2c-1.3-2.8,2.1-3.4,3.7-4.3c18.6-10.3,37.9-19.6,57-28.8
	c31.6-15.3,63.1-30.7,95.3-44.7c5.7-2.5,8-1.1,7.8,5.3c-0.2,9.9-1.8,19.5-3.4,29.3c-1.1,6.8,0.3,14,1,21c0.8,8.4,0.4,16.8,0.3,25.3
	c0,2.9-1.6,5.4-4.7,7c-20.7,11-42.3,19.9-63.8,29.1c-27.9,11.9-56.2,22.9-84.3,34.3c-2.9,1.2-5.9,2.1-8.8,3.4
	c-6.8,3.2-13.8,1.3-20.6,0.8c-11-0.9-21.9-2.6-32.9-3.7c-5.8-0.6-11.7-0.9-17.5-1.4c-3-0.3-4.2,0.3-4.6,3.9
	c-1.6,15.8-2.4,31.5-3.2,47.3c-1.8,35.8-3.7,71.6-3.8,107.5c0,2.6-1.5,5.2,0.1,8.7c1.8-7.1,3-13.5,5.1-19.5
	c4.9-14,21.1-19.8,33.7-12.4c5.4,3.1,8,8.1,8.6,14c0.9,9.2,1.5,18.4,2,27.7c0.1,2-0.2,4.1,2.7,3.3c2.5-0.6,6.6,2.8,7.2-2.5
	c0.5-4.5,0.6-9.1,0.3-13.6c-0.9-13.8-1.4-27.6-3.8-41.2c-0.6-3.6-2.2-5.4-5.3-6.4c-4-1.2-8.1-2.1-12.3-2c-7.3,0-14.5,0-21.8,0
	c-1.8,0-3.7-0.1-3.9-2.3c-0.1-1.7,1.7-2.5,3.1-2.7c5.3-0.8,10.6-1.4,15.9-2.2c4-0.5,7.9-1.2,11.9-1.6c3.4-0.3,4.5-2.6,4.9-5.4
	c1.4-10.4,0.6-20.8,0.2-31.2c-0.1-2.5-1.5-3.1-3.5-3.3c-7.5-1-14.9-2.3-22.4-2.9c-4.4-0.3-6-2.9-6.5-6.3c-2-13.4-1.1-26.9,0-40.3
	c0.2-2.3,1.6-3.7,4.2-4.3c4.7-1.1,9.4-1.2,14-0.8c11.2,0.8,22.5,1,33.6,2.7c4.2,0.6,4.8,2.7,4.8,6c-0.2,9.6-0.4,19.2-0.7,28.7
	c-0.2,0.3-0.2,0.6-0.1,0.9c-0.5,16-1,32-1.5,48c-0.2,0.5-0.3,1.1-0.5,1.6c-0.5,10.6-0.8,21.1-1.5,31.7c-1,16.3-1.3,32.6-3.5,48.8
	c-0.7,5.4-5.6,10.3-10.6,10.9c-3.4,0.3-6.7,0.6-10.1,1c-4.4,0.4-8.8,0.8-13.1,1.1c4.8,0.6,9.6,1.6,14.3-0.2c3.5-0.5,7.1,0.6,10.5-1
	c15-0.6,29.8-2.9,44.7-3.9c15.6-1,31-3.7,46.6-4.5c9.4-0.5,18.7-2,28-2.8c2.4-0.2,3.1-1.3,3.5-3.3c2.5-11.8,2.9-12,15.4-13.2
	c24-2.2,47.9-4.2,72-5.3l0.5,0.1l0.5-0.2c1,0,2.1,0,3.1,0c0.5-0.1,1.1-0.3,1.6-0.4c20,0,39.9-0.1,59.9-0.1c0.4,0.2,0.8,0.4,1.2,0.6
	c1.2,0.1,2.4,0.1,3.5,0.3c8.8,1.8,11.8,0.9,11.7,12.2c0,3.9,1,4.6,4.9,4.4c10.9-0.6,21.8-0.5,32.7-0.7c0.6-0.1,1.1-0.3,1.7-0.4
	c11.2-0.1,22.5-0.3,33.7-0.4H776.9z"/>
<path class="st1" d="M1622.9-276.6c-1,1.8-1.2,3.5-1.5,5.7c1.6-0.9,2.7-1.6,4-2.3C1624.5-274.4,1623.8-275.4,1622.9-276.6
	 M1666.8-250.3c-0.3,0-0.6,0-0.9,0c0,3.2-0.1,6.5,0,9.7c0.1,3.3-1,5.7-4.4,6.7c-0.8,0.2-1.5,0.6-1.6,1.7c-0.1,2-0.1,4-0.2,6
	c-0.1,2-0.2,4-0.3,5.9c5-6.2,8.4-12.9,9.3-20.7C1669-244.2,1668.6-247.5,1666.8-250.3 M1593.1-497.2c-4.6,6.5-7.1,13-5.7,20.5
	c0.6,3.3,2.4,5.9,5.5,7.3c1.5,0.7,3.2,1.6,4.7,0.6c1.6-1.1,1-3,0.8-4.6c-0.6-4.7-2-9.2-3-13.7C1594.7-490.3,1594-493.5,1593.1-497.2
	 M1626.9-274.1c4.5-2,8.7-3.4,13.2-3.8c7.8-0.7,15.5-0.2,23.2,0.7c3.2,0.3,6.2,0.9,9.4,1.5c1.4,0.3,2.1,0.1,2-1.8
	c-0.2-2.6-0.6-5.1-1.1-7.7c-0.1-0.7-0.2-1.8-1.3-1.8c-0.8,0-1,0.8-1.4,1.4c-1.2,1.9-2,4-2.8,6c-0.3,0.7-0.8,1.2-1.6,1.1
	c-0.9-0.1-1-0.8-1.1-1.5c-0.1-1.1-0.1-2.1-0.2-3.2c-0.2-2-0.2-4.1-1.6-6.1c-2.4,2.5-3.5,5.4-4.8,8.3c-0.3,0.7-0.7,1.6-1.7,1.5
	c-1.1-0.1-1.1-1-1.3-1.8c-0.2-1.3-0.3-2.6-0.5-3.8c-0.3-1.6-0.4-3.2-1.4-4.7c-1.3,0.9-1.7,2.1-2.1,3.3c-0.7,1.6-1.2,3.3-1.8,4.9
	c-0.3,0.8-0.6,1.7-1.6,1.6c-1.2,0-1.3-1-1.5-2c-0.6-2.3-0.4-4.7-1.9-7c-0.4,0.7-0.6,1-0.8,1.5c-0.8,2-1.2,4-1.7,6.1
	c-0.1,0.7-0.5,1.4-1.4,1.4c-0.8,0-1.2-0.5-1.4-1.3c-0.2-0.7-0.4-1.4-0.7-2c-0.6-1.3-0.8-2.9-2.4-4c-0.9,2.4-1.6,4.5-1.8,6.9
	c-0.1,1-0.2,2-1.3,2.3c-1.3,0.3-1.5-0.9-2-1.6c-0.7-1.1-1-2.6-2.5-3.4C1627.6-280.3,1627.2-277.5,1626.9-274.1 M1575.6-258.8
	c-1.6,0.3-2.3,1.5-3.1,2.4c-3.8,4.1-6.6,8.8-9.1,13.7c-4,7.8-7.2,15.8-8.1,24.6c-0.3,3.3-0.2,6.6,1.2,9.7c2.5,5.6,8.1,9.5,15,7.2
	c4.8-1.6,8.5-4.7,11.8-8.7c-7.2-0.6-11.5-4.2-13.5-11.1c-1.2-4-0.9-8.1-0.3-12.2c1.1-7.1,3.8-13.8,5.6-20.7
	C1575.4-255.4,1575.8-257,1575.6-258.8 M1691.8,185.2c0.6-0.3,0.8-0.3,1-0.5c5.4-5.1,10.4-10.6,15.4-16c0.7-0.7,1.1-1.5,1.1-2.5
	c0.1-2.1,0.3-4.2,0.3-6.3c0.1-23.8-0.9-47.5-2.5-71.2c-1.3-18.8-3-37.5-4.7-56.2c-1-11.5-2.5-22.9-3.7-34.4
	c-0.6-5.6-1.3-11.2-2-16.8c-2,11.8-3,23.6-4,35.4c-0.9,11-1.4,22.1-2.3,33.1c-1,12.9-1.5,25.8-1.8,38.8c-0.6,26.3-1,52.7,0.6,79
	C1689.7,173.4,1690.2,179.2,1691.8,185.2 M1601.1-385.5c0.3,0.4,0.6,0.9,1.2,1.1c0.8,1.3,1.9,2.5,2.1,4c0.1,1.1,0.6,2.4-0.7,3.2
	c-1.1,0.7-1.8-0.2-2.5-0.6c-0.8-0.4-1.6-1-2.4-1.4c-2.6-1.4-5.2-2.8-8-3.7c-2.9-0.9-3.5-0.6-4.2,2.3c-0.9,3.5-1.1,7-0.7,10.5
	c0.9,8.2-0.3,16.2-2.5,24.1c-1.7,6-3,12.1-3.8,18.3c-1.8,13.9-2.3,27.9-0.4,41.9c1,7.3,3.1,14.5,4.4,21.7c0.4,2.1,1.2,4.1,2.1,6
	c1.5,3.2,2.5,3.6,5.9,2.7c4.5-1.2,8.5-3.3,12.4-5.8c1.4-0.9,2.1-2,2.3-3.7c0.3-2.8,0.9-5.6,1.2-8.4c1.5-13.3,0.7-26.6-0.1-39.8
	c-0.9-15-1.9-30.1-2.2-45.1c-0.1-3.5,0.6-6.7,1.8-9.9c4-11,6.8-22.2,6.6-34c-0.1-4.5-1.1-8.8-2.8-13c-0.6-1.5-2.5-2.7-2.2-4.2
	c0.3-1.7,2.5-1.9,3.8-2.9c2.9-2.5,3.3-5.3,1.1-8.4c-0.4-0.6-1-1-1.4-1.6c-0.8-1.1-2.8-1.7-2.2-3.3c0.7-1.9,2.7-0.8,4.1-0.9
	c9-0.1,14.1-5.2,13.9-14.1c0-0.8,0.2-1.8-0.9-2c-1-0.2-2.2-0.5-2.8,0.8c-1.5,3.1-4,3.1-6.9,2.7c-4.3-0.7-5-2-2.7-5.9
	c1.3-2.1,2.7-4.2,3.9-6.3c1.8-2.9,3.6-5.9,4.4-9.2c2.3-9.2,1.3-18.2-2.1-27c-1.3-3.5-2.8-7-4.1-10.5c-1.7-4.7-2.5-9.6-2.3-15.4
	c-1.3,1.7-2.2,2.8-3.1,3.8c-4.5,5.8-8.8,11.6-13.4,17.3c-1.6,2-2,3.8-1.5,6.1c1.2,5,2.3,10.1,3.4,15.1c0.7,3,1.5,5.9,1.6,9
	c0.3,5.7-2.5,7.8-8,5.9c-5.2-1.8-8-5.6-8.8-10.9c-1.1-8,1.5-15.1,6.3-21.4c2.4-3.2,2.5-3.2,1.4-7.8c-0.9,1-1.7,1.8-2.4,2.7
	c-5.2,6.6-9.7,13.6-11.2,22.1c-2,11.3,5.7,24.5,19.8,23.7c2.9-0.1,5.8-0.8,8.8-0.8c3.3-0.1,4.2,0.8,3.8,4.1
	c-0.2,1.5-0.9,2.6-2.2,3.4c-1.6,1.1-3.5,1.6-5.4,1.4c-4.1-0.4-8.2,0-12.3,0.2c-2,0.1-3.8-0.4-5-2c-0.9-1.2-2-1.4-3.4-1.3
	c-1.2,0.1-2.4,0.1-3.5,0c-1.5-0.1-2.2,0.5-2.1,2c0.5,7.1,4,12.1,11.2,13.4c1.4,0.2,2.8,0.4,4.2,0.6c0.8,0.1,1.7-0.1,2.1,0.9
	c0.3,0.9-0.4,1.5-1,2.1c-0.7,0.8-1.6,1.5-2.2,2.3c-2.5,3.1-2.3,6,0.7,8.6c0.8,0.7,1.7,1.2,2.5,1.9c1.7,1.3,1.6,1.9-0.2,3.1
	c-0.9,0.6-2.1,0.9-3,2.1c4.5,0.4,8.4,1.1,12.1,3.1c2.6,1.4,4.5,3.3,5.2,6.3c0.3,1.4,0.6,2.8-0.1,4.2c-0.6,1.4-2.1,1.3-3.6,1.7
	c1.9,1.8,3.3,3.3,3.5,5.6c0.2,2.5-0.9,3.4-3.6,2.7c0-0.3-0.3-0.3-0.5-0.3c-0.3-0.4-0.8-0.7-1.1-0.3c-0.4,0.5,0.3,0.6,0.6,0.8
	c0.1,0.2,0.3,0.5,0.6,0.4c1,1.3,2.1,2.6,2.5,4.2c0.3,1.1,0.5,2.4-0.7,3.2c-1.1,0.7-1.7-0.3-2.5-0.7c-0.3-0.1-0.6-0.3-1-0.4
	c-0.2-0.6-0.7-0.7-1.3-0.9c-0.3-0.5-0.9-0.6-1.4-0.7c-0.2-0.3-0.5-0.6-0.7-0.3c-0.3,0.3,0.2,0.4,0.4,0.5 M1632.3-7
	c-5,4.9-8.7,10.7-12.6,16.5c-11,16.2-21,33.1-31.9,49.5c-7.2,10.8-15.1,21-22.6,31.6c-0.5,0.8-1.1,1.7-2.2,1.4
	c-1.2-0.3-1.1-1.4-1.2-2.3c-0.9-8.5-1-16.9,0.8-25.3c0.9-3.9,2.4-7.6,4.8-10.9c1.4-1.8,3-3.1,5.3-3.1c4-0.1,6.8-2.3,9.4-4.9
	c4.9-5,9-10.6,12.9-16.3c3.9-5.7,7.7-11.5,11.2-17.5c0.4-0.7,1.3-1.4,0.4-2.1c-0.9-0.7-1.5,0.2-2,0.8c-6.8,6.3-13.8,12.4-21.3,18
	c-4.1,3-8.2,5.9-12.8,8c-2.3,1-4.6,1.9-7.1,1.9c-3.4,0-5.4-1.6-6.3-5c-0.9-3.3-0.3-6.6,0.4-9.8c1.8-8.5,5-16.6,8.4-24.6
	c2.1-4.8,4.4-9.6,6.6-14.4c0.1-0.1,0.1-0.2,0.1-0.3c0.5-1,0.8-2.7,2.2-2.3c2,0.6,1,2.4,0.6,3.6c-1.5,5-2.4,10-3.3,15.1
	c-0.5,2.9-0.8,5.8-0.3,8.8c0.6,3.5,2.1,4.3,5.1,2.5c4.1-2.3,7.5-5.7,10.7-9.1c10.6-11.6,19.8-24.2,28.7-37
	c16.8-24,31.7-49.2,45.2-75.1c0.4-0.8,0.8-1.7,1.1-2.6c0.1-0.3,0.3-0.6,0.4-0.9c0.8-0.7,1.2-1.7,1.6-2.7c0.3-0.5,0.7-1.1,1-1.6
	c0.4-0.3,0.4-0.7,0.5-1.1c0.3-0.3,0.6-0.7,0.1-1c0,0-0.4,0.3-0.6,0.5c-0.5,0.2-0.7,0.6-0.7,1.2c-0.3,0.4-0.7,0.9-1,1.3
	c-0.6,0.8-1.3,1.6-1.6,2.7c-0.1,0.2-0.3,0.4-0.4,0.7c-4.4,6-8.8,11.9-13.2,17.9c-11.1,14.9-22.6,29.5-35.2,43.1
	c-8,8.6-16.4,16.9-26.2,23.5c-3.4,2.3-7.1,4.2-11,5.4c-8.9,2.8-14.8-1.3-17.8-8.7c-2.3-5.7-3.6-11.7-4.4-17.7
	c-2.9-22.5,2.8-42.8,16-61.1c0.8-1,1.4-3,3.1-2.2c1.6,0.8,0.5,2.5,0.2,3.8c-3.2,10.8-6.2,21.6-8.1,32.8c-0.7,3.9-1.1,7.9-0.9,11.9
	c0,0.9,0.1,1.9,0.3,2.8c0.6,2.6,1.7,3.1,4,2.1c2.6-1.2,4.8-2.9,7.1-4.6c8.6-6.6,16.2-14.3,23.7-22.1c16.1-16.8,31.2-34.5,44.6-53.6
	c4.5-6.4,8.6-13.1,12.1-20.2c0.3-0.4,0.8-0.8,0.1-1.2c-1.8-0.1-2.1,1.6-2.9,2.6c-5.3,6.9-10.3,14-15.7,20.8
	c-14,17.8-28.6,35-45,50.6c-4.1,3.9-8.2,7.7-13.3,10.4c-0.4,0.2-0.8,0.5-1.2,0.7c-1.8,0.8-3.6,1.4-5.3,0c-1.6-1.3-1.9-3.2-1.5-5.2
	c0.8-3.9,1.9-7.7,3.4-11.4c3.3-8.2,7.3-16,11.1-24c7.1-14.6,14.1-29.2,21.2-43.7c0.2-0.3,0.2-0.7,0.3-1c0.1-0.3,0.3-0.6,0.4-0.9
	c0.8-0.9,1.6-1.8,1.2-3.2c-1.3,0.5-1.6,1.5-2,2.4c-0.1,0.2-0.3,0.4-0.4,0.6c-4.6,6.1-9.1,12.2-13.8,18.3
	c-6.6,8.6-13.6,16.8-22.1,23.6c-2,1.6-4.2,3-6.7,3.7c-4.2,1.2-7.1-0.1-8.7-4.2c-1.2-3-1.5-6.2-1.4-9.4c0-2.3,0.2-4.7,0.3-7
	c0.1-1.1,0.6-2.1,2-1.9c10.3,1.4,18.4-3.3,26-9.4c2.9-2.4,5.5-5.1,8-7.9c0.6-0.6,1.8-1.3,0.7-2.3c-0.8-0.7-1.4,0.3-2,0.8
	c-5.1,4-10.3,7.8-15.8,11.2c-1.9,1.2-4,2.1-6.1,2.6c-4,1-6.3-1-5.8-4.9c0.4-3.8,2.2-7.2,3.7-10.6c0.4-1,1.3-1.4,2.4-0.9
	c2.9,1.3,5.5,0.2,8-1.1c4.8-2.6,8.7-6.4,12.1-10.6c8.2-10,14.5-21.1,20.2-32.6c1.4-2.9,3.3-5.6,4-9.1c-1.8-0.1-2.3,1.3-3,2.2
	c-2.5,3.4-4.8,7-7.5,10.2c-9.6,11.5-20.5,21.7-33.5,29.4c-3.6,2.2-7.5,3.9-11.7,4.6c-5.1,0.8-8.5-1.8-8.7-7
	c-0.1-2.3,0.3-4.5,0.9-6.6c1.3-5.1,3.4-10,5.6-14.8c0.2-0.5,0.6-1,0.9-1.5c0.4-0.6,0.7-1.4,1.5-1.2c1,0.2,1.1,1.1,1.1,1.9
	c-0.1,1.6-0.3,3.3-0.4,4.9c-0.2,1.4-0.1,2.8,0.2,4.2c0.6,2.9,2.6,4.2,5.4,3.5c1.5-0.3,3-0.8,4.3-1.6c10.8-6.6,21-13.9,29.2-23.7
	c7.3-8.7,12.3-18.6,14.4-29.8c0.4-0.6,0.5-1.3-0.2-2.1c-0.3,0.8-0.6,1.5-0.9,2.2c-3.2,6.1-6.8,12.1-11,17.7c-2.4,3.1-5,5.9-8.1,8.4
	c-2.2,1.8-3.7,4.2-5.7,6.2c-2.9,3-5.9,5.7-9.6,7.6c-11.9,6.2-21.9-3.3-22.6-12.4c-0.4-4.9,0.1-9.6,1.4-14.3
	c2.8-10.3,7.4-19.8,13.6-28.5c1.4-1.9,2.9-3.7,4.7-5.2c1.3-1.1,2.8-2.1,4.5-1.3c1.8,0.8,1.8,2.6,1.7,4.3c-0.4,4.2-1.9,8.2-3.3,12.2
	c-1.5,4.7-2.7,9.5-3.4,14.4c-0.5,3.6-0.3,7.1,1,10.4c1.1,2.9,3.1,5,5.8,6.4c3.5,1.8,7.3,0.8,9.6-2.5c6.7-9.7,11-20.5,14.1-31.7
	c0.9-3.3,2.2-6.6,2.3-10.5c-3.7,1.9-7,3.8-10.7,4.9c-6.8,2-9.6,0.6-11.9-6.2c-1.8-5.3-2.2-10.8-3.6-16.1
	c-3.2-12.3-3.4-24.9-2.8-37.5c0.5-11.7,2.2-23.1,5.4-34.4c1.9-6.7,2.8-13.6,2.4-20.6c-0.3-4.5-0.6-8.9,0.6-13.3
	c1.2-4.3,2.5-5.1,6.9-4.3c2,0.4,3.7,1.5,5.6,2.2c0.5,0.2,1.2,0.6,1.5-0.1c0.3-0.6-0.2-1.1-0.6-1.5c-1.9-1.4-3.8-2.8-5.6-4.2
	c-0.8-0.6-2.1-1.2-1.7-2.4c0.5-1.4,1.9-1.1,3.1-1c1.7,0.1,3.1,0.9,4.7,1.4c0.4,0.1,0.8,0.6,1.3,0c0.2-1.3-1-1.6-1.8-2.1
	c-2.2-1.3-4.6-2.4-6.9-3.6c-0.8-0.4-1.9-0.8-1.5-2c0.3-1.1,1.4-1.3,2.3-1.2c1.7,0.3,3.5,0.7,5.1,1.3c2.4,0.9,4.8,2,7.2,3
	c0.5,0.3,1.1,1,1.7,0.4c0.4-0.4-0.2-0.9-0.6-1.2c-2.5-3.1-6-4.8-9.4-6.7c-1.3-0.7-2.7-1.4-4-2.2c-1.1-0.7-0.9-2,0.3-2.4
	c1.1-0.5,2.3-0.2,3.4,0.2c2.9,1,5.6,2.4,8.4,3.7c0.9,0.4,2,1.4,2.9,0.4c0.7-0.9,0-2.1-0.5-2.9c-1.7-3.2-4.9-4.3-8.1-5.1
	c-3.1-0.8-6.3-0.9-9.4-1.1c-0.5,0-0.9,0-1.4,0c-0.8-0.1-1.7-0.1-1.9-1.1c-0.2-0.8,0.4-1.3,1-1.7c1.8-1.1,3.6-2.2,5.8-3.5
	c-5-4.4-6.6-9.2-1.3-14.5c-1.6-1-3.2-0.8-4.6-1.2c-9.2-2.9-11.9-11.6-11-18.7c0.2-1.2,0.7-1.7,1.8-1.7c3.1,0,6.1-0.1,9.2-0.1
	c1.1,0,1.7,0.6,2.1,1.6c0.7,1.6,2,1.8,3.5,1.7c4.1-0.3,8.2-0.6,12.3-0.2c1.5,0.1,3.1-0.1,4.2-1.5c0.4-0.5,0.6-1.1,0.3-1.6
	c-0.2-0.5-0.8-0.3-1.2-0.3c-2.9,0.1-5.8,0.7-8.8,0.8c-14.6,0.3-23.3-12.3-22.4-24.4c0.5-7.4,3.6-13.8,7.5-19.9
	c3.4-5.2,7.5-10,12.1-14.3c0.5-0.5,1-1,1.6-1.4c0.6-0.5,1.2-0.7,1.9-0.1c0.6,0.6,0.6,1.2,0.1,1.9c-0.7,1-1.5,1.9-2,2.9
	c-0.8,1.6-1.2,3.3-0.8,5.4c3.3-3.5,6-7.2,8.7-10.8c3.1-4,6.1-8.1,9.1-12.2c0.4-0.6,0.9-1.1,1.3-1.7c0.4-0.5,1-0.7,1.6-0.5
	c0.7,0.3,1,0.9,0.9,1.7c-0.2,0.9-0.3,1.9-0.4,2.8c-0.9,7.6,0.9,14.7,3.8,21.6c2.8,6.5,4.9,13.1,5.5,20.3c0.7,8.4-1.3,16.1-5.6,23.2
	c-1.5,2.6-3.2,5.1-4.9,7.9c1.4,0.6,2.5,0.9,3.7,0.6c1.4-0.3,1.7-1.3,2-2.5c0.4-1.6,1.9-1.2,3-1.1c1.8,0.2,3.8-0.8,5.3,0.9
	c0.1,0.2,0.1,0.4,0.2,0.7c1.7,6.5-1.8,14.8-7.4,18.1c-2.4,1.4-5.1,1.6-8.1,2.3c2.2,2.4,3.1,5.1,2.6,8.2c-0.5,3.1-2.9,4.7-5.4,6.4
	c5.6,10.2,4.9,20.9,3,31.6c-1.4,7.9-3.5,15.6-6.6,23c-0.5,1.3-0.7,2.7-0.7,4.1c0.2,11.7,0.9,23.3,1.6,34.9
	c0.8,13.9,2.1,27.7,1.6,41.6c-0.2,4.2-0.7,8.4-1,12.7c0,0.2-0.1,0.5-0.1,0.7c0.1,0.7-0.6,1.9,0.6,2c1,0,1-1.1,1-1.9
	c0.1-2.9,0.8-5.6,1.6-8.3c1.8-6.5,4.6-12.4,10.1-16.5c1.2-0.9,1.2-1.7,0.9-3c-2.7-11.6-5.2-23.1-7.8-34.7c-0.1-0.2-0.2-0.4-0.2-0.7
	c-0.1-1-0.4-2.3,0.9-2.7c1.2-0.3,1.6,0.8,2,1.6c2.1,4.3,4.1,8.7,6.2,13c3,6.4,6.1,12.7,9.1,19.1c0.7,1.4,1.3,1.7,2.7,1.1
	c3.2-1.3,6.6-1.9,10-1.5c2,0.2,2.7-0.5,3.2-2.2c1.5-5.4,3.1-10.8,4.6-16.3c2-7.1,4-14.2,6-21.4c0.3-0.9,0.7-1.8,0.9-2.7
	c0.2-0.8,0.6-1.3,1.5-1.2c1.1,0.1,1.2,1,1.2,1.8c0,0.8-0.1,1.6-0.2,2.5c-0.8,9.8-1.5,19.7-2.3,29.5c-0.2,3-0.5,6.1-0.9,9.1
	c-0.2,1.3,0.1,2,1.4,2.2c3.4,0.7,7,1.1,10.1,2.9c0.8,0.5,1.3-0.2,1.9-0.6c10.2-6.7,20.5-13.4,30.7-20c3.1-2,6.1-4,9.2-6
	c0.9-0.6,1.8-1.5,2.7-0.2c0.8,1.2-0.3,1.9-1,2.6c-3.1,2.9-6.2,5.8-9.3,8.7c-8.1,7.5-16.2,15-24.4,22.5c-0.7,0.6-1.6,1-0.9,2.3
	c0.6,1,1.2,2,2.7,1.7c3.5-0.7,7-1.2,10.4-1.8c9.8-1.7,19.7-3.3,29.5-5c1.4-0.2,3.5-1.4,4,0.6c0.5,2.3-2.1,2-3.5,2.5
	c-11.9,3.7-23.8,7.2-35.7,10.8c0.2,1.2,1.1,1.1,1.8,1.2c7.7,2,15.5,4,23.2,6.1c1.5,0.4,4.3,0.1,4,2.4c-0.4,2.6-2.9,1-4.4,1
	c-10.5-0.6-20.9-1.3-31.4-1.9c-1.3-0.1-2.6-0.2-4.3-0.3c-0.1,1.8-0.3,3.5-0.2,5.2c0.1,3.7-0.8,7.2-1.8,10.7
	c-0.7,2.6-1.2,2.8-3.8,1.7c-7.5-3.3-14.3-7.6-18.7-15.1c-7.2,5.7-15.2,9.5-23.5,12.8c-3.2,1.3-4.5,3.5-4.6,6.7
	c-0.1,3,0.4,5.9,1.5,8.6c3.2,8.3,7.3,16.1,13.2,22.8c2,2.3,4.5,4.1,7.4,5.2c3.2,1.2,5.7,0.1,8.2-1.7c1.3-1,1.1-2.5,1.2-3.9
	c0.3-4.5,0.5-8.9,0.7-13.4c0.1-2.8,0.2-2.8,3-3.8c2.4-0.8,2.8-1.4,2.9-4.1c0.2-4.4,0.3-8.7,0.4-13.1c0-0.9-0.2-2,1-2.4
	c1-0.4,1.8,0.3,2.5,1c3.6,3.7,4.8,8.3,4.5,13.3c-0.5,6.8-3,13-6.5,18.8c-1,1.6-1.8,3.4-3.2,4.7c-2.7,2.5-3.4,5.6-3.7,9.1
	c-0.4,4.6-0.9,9.1-2.6,13.4c-1.8,4.5-4.2,5.5-8.5,3.2c-2.7-1.5-5-3.5-7.1-5.7c-5.7-5.8-10.8-12.1-14.3-19.6c-0.1-0.3-0.4-0.5-1-1.1
	c-0.6,2.2-0.5,4.2,0,6c2.3,9.5,6.1,18.2,12,26.1c1.6,2.1,3.4,3.9,5.6,5.4c5.5,3.7,10.9,2.7,14.7-2.7c2.1-3,3.3-6.5,4.2-10
	c0.1-0.5,0.1-0.9,0.2-1.4c0.6-2.4,1.4-2.8,3.4-1.4c3.1,2.3,6.2,4.6,9.1,7.2c9,8.3,16.7,17.6,22.2,28.5c3.7,7.4,6.3,15.2,8.4,23.1
	c2.6,10.1,4.3,20.5,5.5,30.9c0,0.4-0.2,0.9,0.7,1.3c2.3-3.6,4.7-7.1,7-10.7c3.7-5.7,7.5-11.4,11.6-16.9c4.4-5.8,4.4-5.9,10-1.5
	c12.6,9.9,24.6,20.4,35.9,31.7c1.9,1.9,3.6,4,5.3,6.2c1.7,2.2,1.6,3.1,0,5.3c-1.3,1.8-2.5,3.7-3.9,5.4c-1.1,1.4-1.2,2.6-0.6,4.2
	c1.5,3.8,2.8,7.7,3.7,11.7c0.2,1.1,0.6,2.3,0.5,3.5c-0.1,2.1-1.8,2.8-3.5,1.6c-0.7-0.5-1.3-1.2-2-1.8c-1.1,0.5-0.6,1.2-0.5,1.8
	c0.2,1.2,0.4,2.3,0.5,3.5c0.2,1.5,0.4,3.1-1.1,4.2c-1.5,1.1-2.6-0.1-3.8-0.8c-0.2-0.1-0.4,0-0.9,0c0.2,1.6,0.3,3.1,0.4,4.7
	c0.1,1.2,0.1,2.5-1.3,3c-1.3,0.5-2.3-0.4-3-1.3c-1.4-1.8-2.6-3.7-3.9-5.5c-0.6-0.8-0.8-1.9-2.1-2.4c-0.6,3.2-1.1,6.2-1.8,9.3
	c-0.3,1.4-0.7,2.7-1.3,4c-0.8,1.8-1.9,2.2-3.7,1.2c-2.3-1.2-4.3-2.9-6.2-4.7c-11.4-10.7-22.5-21.8-31.7-34.5c-0.5-0.6-0.9-1.4-2-1.4
	c-0.4,3.8,0.7,7.4,1.3,11c2.4,13.2,4.9,26.3,7.3,39.5c0.6,3.1,0.7,6.3,1.1,9.5c-0.2,1.1-0.3,2.1,0.3,3.5c1.1-1.2,0.9-2.3,0.8-3.4
	c1.1-8.3,2.5-16.5,5.5-24.3c0.5-1.2,1-2.4,1.7-3.5c1-1.4,2.3-2.9,4.3-2.5c2.2,0.4,3.5,1.8,4,4c0.7,3.2,1.4,6.5,1.5,9.8
	c0.6,15-2.8,29.2-9.2,42.6c-4.5,9.3-6.7,19-7,29.2c-0.3,10.1,0.6,20.2,1.9,30.3c2.2,17,6.1,33.7,9,50.6c0.9,5.6,2,11.2,1.4,16.8
	c-0.5,5.6-2.8,10.6-5.5,15.5c-4.7,8.6-10.7,16.3-17.1,23.7c-0.9,1.1-1.8,2.1-1.8,3.7c-0.1,11.3-2.6,22.4-3.5,33.7
	c-0.3,3.4-0.5,6.8,0.2,10.2c0.7,3.3,1.7,3.7,4.7,2.3c3-1.4,5.6-3.4,8.2-5.5c7.6-6.3,15.2-12.7,23.2-18.4c9.8-7,20.6-12.2,31.8-16.5
	c16.1-6.2,91.5-25.9,108.3-30c7.8-1.9,15.6-3.5,23.5-5c0.5-0.1,0.9-0.3,1.4-0.3c0.8,0,1.4,0.4,1.5,1.2c0.2,0.8-0.3,1.4-1.1,1.5
	c-2.2,0.5-4.4,0.9-6.6,1.3c-20.7,4-99.8,24.3-119.6,31.5c-9.5,3.5-18.9,7.1-27.7,12.2c-8.4,4.9-16,10.7-23.5,16.8
	c-4.6,3.8-9.2,7.8-14,11.3c-1.6,1.2-3.3,2.2-5.2,3c-3.7,1.5-6.5,0-7.5-3.9c-1-3.9-0.9-7.9-0.5-11.9c1-8.5,2-17.1,3-25.6
	c0.2-1.7,0.2-3.5,0.4-5.3c-1.2-0.3-1.4,0.7-1.9,1.2c-4.3,4.4-8.7,8.7-12.7,13.2c-2.5,2.8-4.7,1.6-5.5-1.4c-0.8-3.2-1.4-6.4-1.7-9.7
	c-0.9-8.9-1.3-17.8-1.5-26.8c-0.7-26.4-0.2-52.8,0.9-79.1c0.5-13.4,1.6-26.8,2.5-40.2c1.2-18.1,3-36.1,5.2-54.1
	c0.3-2.1,0.5-4.2,0.8-6.3c0.1-0.9,0.4-2.1,1.5-2.1c1.2-0.1,1.5,1.1,1.6,2c0.4,2.1,0.6,4.2,0.8,6.3c1.7,14.6,3.5,29.2,5,43.8
	c2.1,21.2,4.2,42.4,5.7,63.6c1.5,22.9,2.9,45.8,2.8,68.8c0,3.6,0,7.3,0,10.9c1.2,0.1,1.5-1,2.1-1.6c5-6.1,9.7-12.4,13.7-19.3
	c4.8-8.3,6.4-17.1,4.6-26.8c-2.2-11.7-4.5-23.3-6.6-35c-2.9-16.3-5.6-32.7-5.2-49.3c0.3-11.1,2.2-21.7,7.4-31.7
	c1.7-3.3,3-6.9,4.2-10.4c3.5-10.4,5.4-20.9,4.7-31.9c-0.2-2.7-0.7-5.4-1.4-8c-0.3-0.9-0.6-1.9-1.7-2c-1.1-0.1-1.5,1-2,1.8
	c-1.3,2.1-2.1,4.5-2.7,6.9c-2.1,7.4-3.2,14.9-4.3,22.5c-0.8,5.6-1.5,11.2-1.9,16.8c0,0.4-0.1,0.7-0.1,1c-0.1,0.8-0.6,1.3-1.4,1.4
	c-0.9,0.1-1.2-0.6-1.3-1.3c-0.1-0.7,0-1.4,0-2.1c-0.2-10.1-1.3-20.1-2.9-30.2c-2.2-14.1-5.1-28-7.7-41.9c-0.4-2.3-0.5-4.7-0.8-7
	c-0.1-1.1,0.1-2.1,0.5-3.1c0.7-1.4,1.8-1.6,3.2-0.9c1.6,0.9,2.6,2.4,3.7,3.8c7.1,9.7,15.5,18.3,23.9,26.8c3.1,3.1,6.3,6,9.6,8.9
	c0.9,0.8,1.7,1.6,3.1,1.8c1.6-2.8,1.7-6,2.3-9.1c0.5-2.4,0.8-4.9,1.2-7.3c0.1-0.7,0.1-1.5,1-1.7c1-0.3,1.5,0.4,1.9,1.2
	c1.3,2.1,2.5,4.2,3.8,6.4c0.3,0.5,0.6,1.1,1.3,0.8c0.7-0.3,0.4-0.9,0.3-1.5c-0.7-2.4-1.3-4.8-2-7.1c-0.2-0.6-0.3-1.1-0.5-1.7
	c-0.3-0.8-0.5-1.6,0.5-2.2c1-0.5,1.5,0.2,2,0.9c0.9,1.4,1.8,2.8,2.7,4.1c0.9,1.3,1.9,2.6,2.9,3.9c1.1-0.5,0.8-1.2,0.6-1.8
	c-0.9-4.4-1.9-8.7-3.4-12.9c-0.2-0.4-0.3-0.9-0.5-1.3c-0.5-1-0.5-1.9,0.6-2.4c0.9-0.4,1.5,0.2,2,1c0.9,1.5,1.8,3,2.8,4.5
	c0.7,1.1,1.5,2.1,2.3,3.1c0.2,0.4,0.6,1.1,0.7,1c0.7-0.3,0.3-0.9,0.2-1.3c0-0.1-0.1-0.2-0.1-0.3c-0.8-3.6-2.1-7-3.4-10.4
	c-0.6-1.6-0.5-2.9,0.6-4.2c1.5-1.8,2.7-3.9,4.2-5.7c1.2-1.5,1.1-2.6,0-4c-3.3-4.1-6.9-7.7-10.7-11.2c-9.4-8.7-19.1-17.2-29.1-25.1
	c-1-0.8-2.1-1.5-3.2-2.4c-3,2.8-5.1,6.2-7.4,9.4c-5.2,7.5-10.2,15.2-15.1,23c-0.8,1.2-1.3,3.4-3,3c-2.1-0.4-1.5-2.7-1.6-4.2
	c-1.3-15.4-4.1-30.5-9.2-45.1c-4.5-13-11.9-24.2-21.5-34c-3.8-3.9-7.8-7.7-12.5-10.8c-1,1.3-1,2.8-1.4,4.1c-0.9,2.7-2.1,5.2-3.8,7.5
	c-4.9,6.6-12.2,7.6-18.9,2.7c-4.2-3.2-7.3-7.3-9.8-11.9c-3.8-7.1-7.6-14.4-8.4-22.6c-0.1-1.3-0.2-2.6-0.1-3.9c0-1.6,0.7-3,1.7-4.1
	c1.3-1.4,2.4-1.2,3.3,0.4c0.4,0.7,0.6,1.5,1,2.3c4.7,8.8,10.5,16.7,18.4,22.9c4.6,3.6,5.9,3.2,7.4-2.4c1.1-4.2,1.9-8.4,2-13
	c-6.8,3.1-12,0.7-16.7-4c-6.3-6.4-10.5-14.1-13.8-22.3c-1.4-3.5-2.7-7-2.7-10.8c-0.1-5.5,1.8-8.9,7.1-10.8c6.2-2.3,12-5.3,17.6-8.9
	c2-1.3,3.8-2.7,5.5-4.4c1.3-1.2,2.1-1.2,2.6,0.4c2.6,7.6,9.2,10.9,15.6,14.4c0.6,0.3,1.3,0.5,2.1,0.9c1.2-2.1,1.2-4.5,1.6-6.8
	c0.4-2.2,0.1-4.4,0.7-6.6c0.4-1.7-0.5-2.5-2.2-2.8c-11.3-1.4-22.6-3-34.1-1.6c-6.1,0.8-11.4,3.5-16.4,6.9c-0.6,0.4-1.1,0.9-1.7,1.3
	c-0.6,0.4-1.3,0.5-2,0c-0.7-0.5-0.8-1.1-0.6-1.9c0.6-2.6,1.1-5.3,1.9-7.8c0.6-1.7,1.5-3.6,4-2.8c0.8,0.3,0.9-0.4,1.1-0.9
	c0.4-1.1,0.7-2.2,1.3-3.3c1.4-2.6,2.8-2.9,5.4-1.1c0.3,0.2,0.6,0.3,0.9,0.6c0.4-1.2,0.8-2.3,1.2-3.4c0.5-1.2,1.1-2.4,2.6-2.6
	c1.7-0.2,2.7,0.6,3.4,2c0.2,0.4,0.5,0.8,1,1.4c0.7-1.4,1.2-2.7,1.9-3.8c1.4-2.4,3.5-2.4,4.9,0c0.5,0.9,0.8,1.9,1,3.1
	c1.5-0.7,1.6-2.1,2.3-3.2c0.8-1.2,1.7-2.2,3.3-2.1c1.8,0.1,2.3,1.4,2.8,2.7c0.3,0.9,0.5,1.8,0.8,2.6c1.2,0.3,1.3-0.8,1.7-1.4
	c0.7-0.9,1.2-2,2.2-2.7c1.7-1.2,3.4-0.8,4.4,1c0.2,0.3,0.3,0.6,0.5,1c0.3,1,0.6,2,0.9,3.1c1,0.1,1.1-1,1.6-1.6
	c2.5-2.9,4.9-2.6,6.4,0.9c1.2,2.7,1.4,5.7,1.6,8.6c0.2,3.6,0.3,3.7,3.9,3.9c4.8,0.3,9.6,0.6,14.5,0.9c1.7,0.2,3.5,0.4,5.2,0.6
	c-1.5-1.4-3.3-1.5-5.1-1.8c-3.9-1-7.9-2-11.8-3.1c-0.5-0.1-0.9-0.3-1.3-0.4c-0.8-0.2-1.6-0.5-1.7-1.5c-0.1-1.1,0.7-1.3,1.5-1.6
	c1.3-0.4,2.7-0.9,4-1.3c3.4-1.1,6.9-2.2,10.3-3.3c0.6-0.1,1.2-0.2,1.9-0.3c1.7-0.2,3.4-0.4,4.6-1.7c-1.6,0-3.2,0-4.6,0.9
	c-0.8,0.1-1.7,0-2.4,0.5c-3.9,0.6-7.9,1.2-11.8,1.7c-1.2,0.1-2.8,0.9-3.7-0.3c-1.2-1.6-2.4-3.2-2.8-5.2c-0.2-1.1,0.8-1.6,1.5-2.2
	c5.2-4.8,10.3-9.6,15.5-14.4c0.8-0.7,1.5-1.5,2.2-2.3c0.2,0,0.3-0.1,0.4-0.3c0.7-0.2,1.1-0.7,1.5-1.3c0.3-0.2,0.5-0.4,0.8-0.6
	c0.2-0.3,0.6-0.7,0.5-0.8c-0.4-0.6-0.8-0.2-1.1,0.2c-0.3,0.1-0.5,0.3-0.8,0.4c-0.4,0.3-0.9,0.4-1.1,0.9c-0.3,0.3-0.6,0.5-0.9,0.8
	c-6.1,3.4-11.9,7.6-17.8,11.3c-0.6,0.4-1.2,0.7-1.8,1.2c-2.3,1.7-4.2,2.8-7.3,0.6c-2.4-1.7-5.9-1.9-9.1-2.4c-2.2-0.3-2.5-0.8-2.4-3
	c0.7-8.2,1.4-16.4,2.1-24.5c0.5-1.3,0.6-2.5,0-4.3c-0.4,1.8-0.6,3.1-0.9,4.4c-2.3,8-4.6,16-7,24c-0.8,2.8-0.8,2.7-3.8,2.4
	c-4-0.4-8-0.1-11.7,1.7c-2.7,1.2-2.8,1.2-4.2-1.5c-2.6-5.1-5-10.4-7.5-15.5c-0.5-1-0.8-2.2-2.1-2.9c-0.3,2.6,0.6,4.8,1.1,7
	c1,4.6,2.1,9.1,3.3,13.7c0.5,1.9,0.2,3.3-1.7,4.4c-3.9,2.3-6.2,6-8,10.1c-1.6,3.7-2.9,7.5-3,11.5c-0.2,3.7-1.7,6.5-4.4,8.9
	c-1.2,1.1-1.9,2.3-2.2,3.9c-1.7,9.4-4.4,18.5-8.1,27.3c-0.2,0.5-0.3,1.1-0.5,1.7c-0.3,0.6-1,1.3-0.3,1.8c0.7,0.5,0.9-0.4,1.1-0.8
	c4.5-6.1,7.6-12.9,10.9-19.7c0.6-1.2,0.6-3.3,2.4-3c2.2,0.4,1.1,2.6,1.1,3.9c-0.8,14.6-6.1,27.4-15.2,38.7
	c-8.5,10.6-19.3,18.5-30.9,25.4c-2,1.2-4.2,2.1-6.6,2.1c-3.5,0-5.2-1.1-6.5-4.3c-0.3-0.9-0.3-1.9-1.1-2.8c-1.9,4.4-3.5,8.7-3.6,13.4
	c0,4,2,5.5,5.9,4.7c6.2-1.2,11.3-4.6,16.3-8.1c12.8-9,23.8-19.9,32.6-32.9c2.4-3.6,5-7.1,8-10.3c0.6-0.7,1.3-1.3,2.1-1.9
	c0.7-0.6,1.5-1.2,2.5-0.5c0.9,0.7,1.1,1.6,0.7,2.5c-0.9,2.3-1.7,4.6-2.7,6.9c-5.7,12-11.6,23.9-19.1,34.9
	c-4.7,6.8-9.5,13.4-16.4,18.3c-3.5,2.5-7.2,4.4-11.7,4c-0.8-0.1-1.3,0.1-1.7,0.9c-1.2,2.3-2.1,4.7-2.5,7.3c-0.4,2.4,0.5,3.1,2.7,2.3
	c3.4-1.3,6.5-3.1,9.6-5.2c8.6-5.8,16.5-12.5,24.3-19.3c0.9-0.7,1.7-2.6,3.2-1.4c1.6,1.3,0,2.6-0.7,3.7c-4.5,7.2-9.6,13.9-15.8,19.8
	c-5,4.8-10.5,8.7-17,11.2c-3.7,1.4-7.4,2.3-11.4,2.1c-1.6-0.1-2.3,0.2-2.4,2c-0.1,3.1,0,6.1,0.3,9.2c0,0.5,0.2,0.9,0.3,1.4
	c1.3,4.6,3.7,5.7,7.9,3.5c4.4-2.4,8-5.7,11.5-9.3c8-8.3,15.1-17.4,21.9-26.7c7.8-10.7,15.3-21.8,22.5-32.9c0.6-1,1-2.8,2.8-1.9
	c1.8,1,0.3,2.2-0.2,3.3c-8.3,17-16.5,34-24.8,51c-6,12.5-12.1,24.9-18,37.5c-2.6,5.5-5,11.1-6.3,17.1c-0.3,1.3-1.1,3,0.3,3.9
	c1.3,0.9,2.8-0.3,3.9-1c5.4-3.5,10.2-7.9,14.8-12.5c14.2-14.1,27.2-29.3,39.8-44.9c9.2-11.5,17.5-23.6,26.6-35.2
	c1.2-1.5,2.5-2.8,3.8-4.2c0.5-0.5,1.2-0.8,1.9-0.3c0.6,0.4,1,1.1,0.8,1.8c-0.4,1.3-0.8,2.7-1.4,4c-8.1,16.8-17.8,32.6-29.4,47.2
	c-12.4,15.6-25.3,30.6-39.4,44.7c-7.2,7.1-14.4,14.2-22.9,19.9c-1.3,0.8-2.6,1.7-4,2.2c-3.6,1.3-6.3-0.2-7.2-3.9
	c-0.3-1.5-0.4-3-0.4-4.6c-0.2-7,1.2-13.8,2.7-20.6c0.8-3.7,1.8-7.3,2.6-10.9c0.1-0.7,1-1.7-0.4-2c-1-0.3-1.1,0.7-1.3,1.3
	c-5.3,10.3-8.4,21.1-9,32.7c-0.5,10.4,0.8,20.7,4.4,30.5c0.8,2.3,1.8,4.6,3.6,6.4c2.4,2.3,5.2,3.1,8.4,2.7c3.9-0.5,7.4-2.2,10.8-4.2
	c9-5.5,16.6-12.7,23.9-20.2c12.9-13.3,24.4-27.7,35.6-42.4c11-14.5,21.5-29.4,31.5-44.7c0.6-1,1.1-2.8,2.8-1.9
	c1.6,0.9,0.4,2.3-0.1,3.4c-7.1,15.9-15.1,31.3-23.5,46.5c-12,21.5-25,42.3-39.4,62.3c-7.7,10.7-15.6,21.3-24.5,31
	c-3,3.2-6,6.3-9.7,8.7c-0.5,0.3-1,0.7-1.5,1c-5,2.8-8.8,0.8-9.5-4.9c-0.3-2.7-0.2-5.4,0.1-8.1c0-0.4,0.2-0.9-0.4-1.4
	c-1.3,1.8-1.8,4-2.7,6c-2.9,6.9-5.3,14-6.5,21.5c-0.3,1.8-0.2,3.5,0.2,5.2c0.5,1.9,1.6,2.7,3.6,2.7c2.2,0,4.1-0.8,6-1.7
	c6.4-3.1,12-7.4,17.5-11.8c9.7-7.7,18.6-16.2,27.4-25c0.9-0.9,1.8-2.8,3.4-1.5c1.3,1.1-0.1,2.4-0.7,3.4c-8.1,14.1-16.4,28-26.3,40.9
	c-3,3.9-6.5,7.4-10.3,10.7c-1.7,1.4-3.6,2.5-5.7,2.5c-3.5,0-5.4,2.2-6.7,4.8c-1.7,3.2-2.8,6.7-3.3,10.3c-0.9,6-0.9,11.9-0.4,18.2
	c1.3-0.6,1.8-1.7,2.5-2.6c13.9-18.5,26.3-37.8,38.6-57.4c7-11.3,14.2-22.5,22.6-32.8c1.3-1.6,2.8-3.1,4.6-4.4c1.1-0.7,2.2-1,3.3-0.3
	c1.1,0.7,1.2,2,1,3.2c-0.2,1.1-0.7,2.2-1.2,3.3c-4.8,10.4-11,20-17.2,29.5c-14.2,21.8-28.5,43.5-43,65
	c-9.1,13.4-11.7,28.2-10.6,44.3c1.7-0.8,2.7-2.1,3.8-3.2c13.4-13.9,26.1-28.4,38.8-42.9c9-10.3,17.7-20.8,25.2-32.3
	c8.3-12.7,15.4-26.1,22-39.8c7.3-15.3,13.2-31.1,18.8-47.1c4.9-14.1,9.2-28.4,13.8-42.5c0.8-2.3,1.7-4.6,2.7-6.9
	c0.4-1,1.1-1.9,2.4-1.7c1.3,0.2,1.5,1.4,1.6,2.4c0.2,2.4-0.2,4.7-0.5,7c-1.6,13.1-4.2,26-7,38.8c-3.5,15.9-7.2,31.9-12.3,47.4
	c-7.5,22.5-15.8,44.7-27.9,65.3c-6.9,11.8-15,22.8-24,33.1c-9.5,10.8-19.6,21-30.6,30.2c-16.1,13.6-34.2,23.5-53.9,30.9
	c-15.7,5.9-31.9,9.8-48.5,11.9c-3.3,0.4-6.5,1.1-9.8,0.9c-1,0-2.4,0.4-2.5-1.1c-0.1-1.6,1.3-1.6,2.5-1.7c11.9-0.5,23.6-2.8,35.1-5.7
	c21.3-5.4,41.4-13.7,59.9-25.8c8.6-5.6,16.5-12.1,24-19.1c11.1-10.5,21.7-21.6,31.1-33.7c9.9-12.8,18.1-26.6,24.8-41.3
	c7.9-17.4,14.7-35.4,20.1-53.7c6-20.5,10.4-41.4,14.4-62.4c0.5-2.9,0.9-5.8,1.4-8.7c0.1-0.5,0-1.1-0.4-1.2c-0.7-0.3-1,0.3-1.2,0.9
	c-1.5,4.5-3,8.9-4.4,13.4c-2.7,8.5-5.6,16.9-8.4,25.4c-4.6,13.6-9.9,26.9-15.6,40c-10,22.8-22,44.4-37.6,63.9
	c-9.6,11.9-19.9,23.3-30,34.7c-7.8,8.8-15.8,17.4-24.1,25.8c-0.9,0.9-1.8,1.8-2.8,2.6c-1.9,1.5-2.8,1.1-3.1-1.4
	c-0.5-5-0.4-10.1-0.2-15.2c0.7-13.1,5.3-24.6,12.6-35.4c12.8-18.9,25.3-37.9,37.9-57c6.8-10.4,13.6-20.9,19.4-32
	c0.5-1,0.9-2.1,1.4-3.2c0.2-0.5,0.7-1.1,0.2-1.5C1632.9-8,1632.6-7.4,1632.3-7"/>
<path class="st2" d="M1476.9,184.7c0,0-189.9,12.8-273.5,1.4c-83.6-11.3-443.6,12.8-564.1,14.2c-120.5,1.4-318.9-2.8-469.1-25.5
	C19.9,152.1,0.1,163.4,0.1,163.4"/>
<g>
	<path class="st3" d="M288.6,191.7c-2.1,0-3.6,0-5.2,0c-2.5-0.1-5-0.3-7.5-0.3c-0.9,0-2.1,0-2.3,0.9c-0.2,1.2,1.1,1.4,1.9,1.7
		c2.8,1,5.8,1,8.7,0.5C285.8,194.3,287.2,193.5,288.6,191.7 M281.1,148.1c-0.3,0.2-0.5,0.3-0.5,0.4c-0.8,5.7-1.3,11.4-1,17.1
		c0.1,1.1,0.4,2.3,0.9,3.4c0.6,1.2,1.5,1.2,2.1,0c0.3-0.6,0.5-1.2,0.6-1.9C283.6,160.7,282.8,154.4,281.1,148.1 M266,186
		c-14.8-2.1-29.6-1.1-44.5-1.5c-15-0.4-29.9-0.7-44.9-0.7c-14.9,0-29.8,0.4-44.7,0.7c-14.9,0.3-29.7,1.4-44.7,1.7
		c0.9,1,2,1.2,3.1,1.3c6.9,0.8,13.9,0.8,20.8,0.4c10.2-0.7,20.4-1.4,30.7-1.5c11.5-0.2,23-0.5,34.5-0.2c9.3,0.3,18.6,0.2,27.9,0.4
		c19,0.4,38,0.9,57.1,0.6C262.9,187.1,264.5,186.9,266,186 M89.2,183.8c2.7,0.3,5.3,0,7.9-0.1c17.4-0.8,34.8-1.5,52.2-1.8
		c22.2-0.3,44.4-0.2,66.6,0.3c14.1,0.3,28.2,0.3,42.3,0.5c2.3,0,4.6,0.3,6.8,0.7c1.7,0.4,3.9,0.6,3.8,2.9c-0.1,2.4-2.4,2.6-4.2,2.6
		c-2.9,0.1-5.7,0-8.6,0c0,0.2,0,0.4,0,0.7c3.2,0,6.5,0,9.7,0c1.9,0,2.9,0.9,3.3,2.6c0.5,2.1,1.8,3.7,3.4,5.1
		c4.9,4.2,15.6,4.9,21,1.4c1.8-1.2,3.1-2.7,3.7-4.8c0.2-0.8,0.3-1.6-0.7-2c-1.6-0.7-4.9,0-6,1.3c-3.8,4.4-13.1,5.2-17.7,1.5
		c-0.9-0.7-1.5-1.7-1.3-2.9c0.2-1.1,1-1.8,2-2.1c1-0.4,2-0.4,3.1-0.4c3.7,0.1,7.4,0.3,11,0.4c0.6,0,1.3,0.2,1.6-0.5
		c0.2-0.6-0.3-1.1-0.7-1.5c-1.3-1.3-2.9-2-4.6-2.5c-5.4-1.6-10.9-2.6-16.5-3.2c-13.9-1.4-27.8-1.6-41.7-1.8c-34-0.4-68-0.5-102,1.2
		c-8.5,0.4-16.9,0.6-25.4,1.1C94.9,182.8,91.9,182.6,89.2,183.8 M87.6,181.6c1.6-0.3,2.9-0.6,4.2-0.7c10.2-0.6,20.3-1.3,30.5-1.6
		c16.4-0.6,32.9-1.1,49.3-1.3c28.9-0.4,57.8,0,86.7,1.3c8.4,0.4,16.7,1.5,24.9,3.7c3.3,0.9,6.4,2.3,8,5.7c0.4,0.9,5.3,1.6,5.9,1
		c0.2-0.2,0.1-0.5,0.1-0.8c0.1-2.2,1.6-3,3.6-3.1c3.5-0.2,7.1-0.4,10.6-0.3c18.8,0.4,37.6,0.8,56.4,1.3c11.1,0.3,22.3,0.7,33.4,0.7
		c24.6,0.1,49.1,0.5,73.7-0.9c1.1-0.1,3.2,0.3,3.1-1c-0.1-1.5-2.1-1-3.2-0.9c-9.3,0.7-18.6,0.5-27.9,0.7
		c-22.8,0.5-45.6,0.3-68.4,0.1c-8.3-0.1-16.5-0.3-24.8-0.5c-17.8-0.5-35.5-0.7-53.3,0.5c-0.9,0.1-1.9,0-2.8-0.2
		c-1.3-0.2-2.1-1.1-2.2-2.4c-0.1-1.3,0.7-2.1,1.7-2.6c1.3-0.7,2.8-0.9,4.3-1c9.5-0.9,19-1.1,28.5-1c22.6,0.1,45.3,0.4,67.9,0.6
		c4.6,0,9.3,0.2,13.9,0.3c20.2,0.4,40.4-0.2,60.6,0.3c2.4,0.1,2.4-0.1,1.3-2.2c-4.7-8.5-10.1-16.6-15.6-24.7c-0.7-1-1.6-1.4-2.7-1.6
		c-15.1-3.3-30.3-5.4-45.8-6c-12.6-0.4-25.2,0.2-37.7,1.8c-21.9,2.8-43.1,8.5-63.4,17.1c-0.8,0.3-1.8,1-2.3-0.2
		c-0.4-1,0.6-1.4,1.3-1.7c5.3-2.7,10.6-5.6,16.1-7.9c22.5-9.5,46.2-13.4,70.5-14.3c20-0.7,39.9,0.9,59.6,4.6
		c0.5,0.1,1.2,0.5,1.6-0.2c0.3-0.5-0.1-1-0.4-1.4c-5.3-10.8-11.5-20.9-18.5-30.6c-0.8-1.1-1.7-1.4-3-1.3c-2.9,0.3-5.7,0.5-8.6,0.7
		c-11.3,0.6-22.5,1.5-33.7,3.2c-15.5,2.3-30.7,5.9-45.4,11.4c-14.7,5.5-28.5,12.8-40.9,22.5c-0.6,0.5-1.3,1.3-2.1,0.4
		c-0.7-0.9,0.1-1.5,0.7-2c2.7-2.6,5.4-5.2,8.5-7.3c14.2-9.7,29.4-17.5,45.4-23.8c25.1-9.8,51.2-15.4,78.2-16.4
		c1.8-0.1,1.8-0.6,1.1-2c-2.9-5.6-6.3-10.8-10.3-15.7c-6-7.2-13.1-13.4-18.6-21c-0.7-0.9-1.4-0.8-2.3-0.7c-5.5,1-10.9,2.5-16.2,4.4
		c-14.9,5.3-28.8,12.5-41.7,21.6c-13.5,9.6-26,20.3-36.4,33.4c-5.9,7.5-11.2,15.4-16.1,23.5c-0.4,0.7-0.8,1.7-1.8,1.3
		c-1.2-0.5-0.6-1.5-0.3-2.3c1.2-3.8,2.9-7.4,4.9-10.9C307,114.5,318,99,330.7,84.6c8.9-10.1,18.3-19.9,28.9-28.2
		c8.8-6.9,18.5-12.3,28.2-17.8c0.5-0.3,1.3-0.4,1.3-1c0.1-0.8-0.8-0.9-1.4-1.2c-7.8-4.1-15.9-7.2-24.5-8.8
		c-10.2-1.9-7.2-2.5-15.5,3.9c-9.8,7.6-18,16.7-25.5,26.6c-10.8,14.2-20.8,28.8-27.9,45.3c-5.1,11.9-9.6,24-12.3,36.7
		c-0.3,1.3-0.8,2.6-0.3,3.9c1.8,4.7,2.8,9.6,3.3,14.6c0.3,3.7,0.7,7.4-0.3,11c-0.4,1.5-1.4,2.7-3.1,2.7c-1.7,0-2.7-1.1-3.3-2.5
		c-0.6-1.4-0.8-3-0.9-4.5c-0.2-5.9,0-11.8,1.1-17.6c0.6-3.4,0.1-6.2-1.7-9c-1.2-1.9-2.3-3.8-3.6-5.6c-8.1-10.9-18.9-18.5-31-24.3
		c-15.3-7.3-31.4-12-47.8-15.5c-10.6-2.3-21.3-4.2-32.2-4c-1.4,0-2.5,0.4-3.5,1.4c-4.4,4.5-9.1,8.6-14,12.5
		c-9.9,8-19.7,16-27.4,26.2c-0.4,0.5-1.1,1-0.8,1.7c0.3,0.7,1.2,0.4,1.8,0.5c9.2,0.3,18.4,0.6,27.6,1c4.9,0.2,9.9,0.4,14.8,0.9
		c14.2,1.6,28.3,4.2,42.1,7.8c14.3,3.7,28.3,8.3,41.4,15.2c0.9,0.4,2.6,0.7,1.9,2.1c-0.7,1.4-2,0.1-2.9-0.3
		c-7.3-3.5-15-6.3-22.8-8.4c-10.3-2.8-20.7-4.7-31.2-6.5c-24.1-4.1-48.3-7-72.8-5.6c-1.3,0.1-2.2,0.4-3,1.4c-3.3,4-6.8,8-10.1,12
		c-1.5,1.8-2.8,3.7-3.9,6.2c3.2-0.4,6-0.7,8.9-1c12.4-1.4,24.8-2.6,37.2-2.8c9.9-0.2,19.8,0.3,29.6,0.5c6,0.1,11.9,0.7,17.9,1.3
		c15.8,1.7,31.3,5.2,46.5,9.6c3,0.9,5.9,1.8,8.9,2.8c0.6,0.2,1.4,0.5,1.1,1.4c-0.2,0.8-0.9,0.8-1.6,0.7c-0.5-0.1-1-0.2-1.5-0.3
		c-7.9-1.8-15.9-3.3-23.9-4.6c-15.8-2.6-31.7-4.1-47.7-4.6c-10.9-0.3-21.8-0.3-32.7,0.3c-12.3,0.6-24.5,2.2-36.7,3.4
		c-6,0.6-9.8,3.2-12.5,8.3C91.3,175.4,89.3,178.2,87.6,181.6 M575.2,190.3c-0.7,0.4-1.4,0.4-2.1,0.4c-14.6-1.7-29.1-1.3-43.7-0.4
		c-11.8,0.7-23.7,1.7-35.5,2c-37.5,0.8-74.9,0.4-112.4,0.2c-12.4-0.1-24.8-0.3-37.2-0.8c-13.5-0.6-27,0.1-40.5,0.1
		c-1.4,0-3-0.5-4.1,0c-1.2,0.5-0.5,2.4-1,3.6c-1.2,2.9-3.3,4.9-6.1,6.1c-7.2,3-14.1,2.2-20.7-1.8c-2.2-1.3-3.8-3.3-4.6-5.8
		c-0.5-1.7-1.5-2.2-3.2-2.2c-10,0-19.9,0-29.9-0.1c-26.2-0.3-52.4-0.6-78.5-0.2c-10.8,0.1-21.5,1.1-32.2,1.5
		c-12.7,0.6-25.5,0.8-38.2-0.2c-6.9-0.5-13.8-0.9-20.7-1.4c-14.7-1.1-29.4-1.9-44.2-1.4c-5.9,0.2-11.8,0.7-17.6,1.5
		c-1,0.1-1.9,0.3-2.8-0.3v-1.3c13-2.2,26.1-2.6,39.2-2c6.3,0.3,12.5,0.6,18.8,1c10.6,0.7,21.2,1.6,31.8,2.1
		c10.1,0.5,20.2,0.5,30.3-0.1c3.8-0.2,7.5-0.4,11.3-0.5c16.9-0.8,33.7-1.8,50.6-1.3c21.6,0.6,43.2,0.2,64.8,0.4c0.4,0,0.9,0,1.3-0.4
		c-9.8,0-19.5,0.2-29.3,0c-23.8-0.6-47.6-1-71.5-0.7c-11.1,0.2-22.1,0.7-33.1,1.5c-8,0.6-16.1,0.7-24.1-0.3
		c-4.6-0.5-6.3-3.6-4.2-8.7c2.6-6.1,6.7-11.5,10.6-16.8c0.5-0.7,1.4-0.7,2.2-0.9c11.1-1.8,22.3-3.2,33.6-4
		c11.8-0.9,23.7-1.4,35.6-1.2c17,0.4,34,1.6,50.9,4.2c0.5,0.1,1,0.1,1.5,0c-7.3-1.8-14.7-3.1-22.2-4.1c-20.5-2.7-41-2.6-61.6-2.1
		c-12.2,0.3-24.4,2-36.5,3.4c-0.8,0.1-1.8,0.5-2.4-0.4c-0.6-1-0.1-1.9,0.4-2.7c2.7-5.2,6.7-9.5,10.4-14c0.6-0.7,1.4-1.4,1.8-2.2
		c2.2-3.8,5.7-4.7,9.9-4.8c14.7-0.3,29.3,0.3,43.9,2c13.2,1.6,26.3,3.7,39.3,6.3c0.1,0,0.3-0.1,0.7-0.2c-7.2-2-14.3-3.4-21.3-4.8
		c-12-2.4-24.1-3.9-36.4-4.1c-9.4-0.2-18.9-0.8-28.3-1.2c-1.3-0.1-2.8,0-3.5-1.4c-0.7-1.4,0.5-2.5,1.3-3.5
		c7.1-9.7,16.2-17.3,25.4-24.9c6.1-5,12.5-9.6,17.6-15.7c1-1.2,2.3-1.1,3.7-1.1c10.5,0.1,20.9,1.6,31.1,3.8
		c15.1,3.3,30,7.2,44.2,13.4c11.3,5,22,10.7,30.8,19.5c3.9,3.9,7.4,8,10.1,12.8c0.5,0.9,1,1.8,1.5,2.6c0.6-0.2,0.5-0.6,0.6-1
		c4.2-16.6,9.8-32.7,18.1-47.6c11-19.7,23.8-38.2,40.3-53.8c4.3-4.1,8.9-7.9,13.9-11.3c0.9-0.6,1.8-1.1,3.1-1
		c12.9,1.4,24.9,5.5,36,12c1.8,1,1.6,1.8-0.4,3c-5.8,3.4-11.6,6.7-17.4,10.1c-11.8,7-21.9,16-31.4,25.8
		c-14.4,14.8-27.1,31-37.9,48.6c-0.3,0.5-0.6,1-0.6,1.7c1.4-1.8,2.8-3.6,4.2-5.5c9.1-12,20.1-21.9,32.1-30.9
		c15.9-12.1,33.3-21.5,52.4-27.6c4.3-1.4,8.7-2.4,13.1-3.2c1.1-0.2,2.2-0.3,2.9,0.9c4.4,6.7,10.5,11.9,15.8,17.9
		c5.8,6.6,11,13.6,14.8,21.7c1.3,2.7,1.1,3-1.8,3.1c-23.3,0.9-46,4.8-68.1,12.3c-8.3,2.8-16.5,6-24.5,9.7c-0.9,0.4-1.8,0.9-2.6,1.6
		c3.3-1.1,6.5-2.3,9.8-3.4c14.7-4.9,29.9-7.9,45.3-9.9c11.3-1.5,22.6-1.9,33.9-2.9c1.2-0.1,2.4,0,3.5-0.1c1.1,0,1.9,0.4,2.6,1.3
		c8,10.8,15,22.3,20.7,34.5c0.3,0.7,1,1.5,0.3,2.3c-0.7,0.8-1.7,0.3-2.5,0.2c-10.1-2-20.2-3.5-30.4-4.3c-11.9-1-23.8-1.3-35.8-0.6
		c-14.4,0.8-28.6,2.8-42.6,6.3c-3.1,0.8-6.2,1.7-9.2,2.7c6.6-1.7,13.3-3,20.1-4.4c18.5-3.6,37.2-4.6,55.9-3.8
		c13.8,0.6,27.4,2.7,40.9,5.6c2.5,0.5,4.2,1.7,5.6,3.8c5.7,8.5,11.4,17,16.2,26.1c1.3,2.4,0.9,3.2-1.9,3.1
		c-11.7-0.4-23.4-0.4-35.2-0.4c-14.2,0-28.5,0.1-42.7-0.2c-25.7-0.4-51.3-0.9-77-0.7c-6.2,0.1-12.4,0.5-18.6,0.9
		c-1.2,0.1-2.6,0.1-3.8,1.6c2.7,0.7,5.2,0.2,7.7,0.2c1.6,0,3.2-0.2,4.9-0.3c16.5-0.5,33-0.4,49.5,0.1c25.7,0.8,51.5,1,77.2,0.6
		c11.7-0.2,23.5,0,35.2-0.8c1.8-0.1,3.5-0.6,5.3-0.1c1.9,0.5,3.5,1.1,3.4,3.4c-0.1,2.3-2,2.6-3.7,2.7c-7.1,0.3-14.3,0.9-21.4,0.9
		c-22.4,0.1-44.7,0.1-67.1-0.1c-19.1-0.2-38.2-0.7-57.3-1.3c-9.7-0.3-19.3-0.3-29-0.3c-0.4,0-0.9,0-1.3,0c-0.4,0-0.8,0.1-0.9,0.5
		c-0.1,0.5,0.3,0.8,0.8,0.9c0.7,0.2,1.4,0.4,2.2,0.4c16.7-0.6,33.5-0.4,50.2,0.1c13.6,0.4,27.3,0.4,40.9,0.6
		c28.7,0.6,57.4,0.3,86.1,0.2c16.2-0.1,32.4-1.2,48.6-2.4c14.9-1,29.7-1.4,44.6,0.3c0.6,0.1,1.3,0.3,1.9,0.5V190.3z"/>
	<path class="st4" d="M573.5,189.7c0,0,189.9,12.8,273.5,1.4c83.6-11.3,443.6,12.8,564.1,14.2c120.5,1.4,318.9-2.8,469.1-25.5
		c150.2-22.7,170.1-11.3,170.1-11.3"/>
</g>
</svg>
