<svg id="Layer_1" data-name="Layer 1" xmlns="http://www.w3.org/2000/svg" viewBox="0 0 783 500"><defs><style>.cls-1{fill:#fdbb4c;}</style></defs><path class="cls-1" d="M620.72,436.64q-14.31,3.15-28.79,5.35c-3.32.5-6.61,1.19-10,.91,9.63-2.55,19.29-5,28.87-7.7,6.49-1.85,13-3.7,19-7.07a13,13,0,0,0,6.79-10.06c.49-3.33,1.06-6.65,1.42-10,.18-1.7,1.32-1,2.11-1.08,1.38-.18,1.77.61,1.76,1.88a44.48,44.48,0,0,1-2.6,15.22,16.57,16.57,0,0,1-11.91,11c-2.19.56-4.38,1.09-6.59,1.57M602.81,443c-.34.81-8.74,2.38-8.74,2.38l0-.07c-1.22.24-2.45.47-3.66.76-5,1.19-10,2.56-15.18,2.62-1.76,0-3.34-.93-5.43-.38.86-1.76,1.14-3.36,2.47-4.39-.36,2.23.14,2.82,2.63,2.8,4.79,0,9.48-1,14.21-1.61,1.66-.21,3.3-.54,4.95-.86,1.08-.24,4.78-1,7-1.33a.73.73,0,0,1,.39,0c.88-.1,1.45-.09,1.36.12m-40,4.31c-6.24-1.16-12.59-1.68-18.88-2.6-5.57-.82-11.1-1.86-16.66-2.75-6.94-1.12-13.85-2.43-20.77-3.68-10.53-1.91-21-4.25-31.32-6.86a13.31,13.31,0,0,1-3.77-1.45c7.57,0,14.75-.31,21.89.09,7.65.43,15.31.66,23,1.06,8.11.42,16.24.61,24.36.89,5,.17,10,.37,15,.31,2.89,0,5.76-.61,8.65-.91a2.45,2.45,0,0,0,2.32-2c.34-1.37-.71-2.09-1.6-2.67a13.69,13.69,0,0,0-5.59-1.56c-4.11-.59-8.17-1.49-12.3-1.73,5-.42,9.73.75,14.53,1.41a57.62,57.62,0,0,1,11.25,2.16c3.75,1.3,4.64,2.9,2.79,6.28-2,3.69-4.84,7-6.52,10.82-1.43,3.28-3.08,3.76-6.35,3.15m-24,1.4c-2.43-.27-4.89-.3-7.33-.45-7.08-.45-14.12-1.22-21.17-2-5.56-.59-11.15-.91-16.71-1.49-6.71-.71-13.4-1.71-20.12-2.3-3.61-.32-7.22-.82-10.83-1-7.48-.34-14.89-1.74-23.12-1.46,5.68-3.48,7-8.41,6.94-14,0-1.59-1.43-3.56-.36-4.5.85-.75,3,.18,4.52.31,10.22.86,20.46,1,30.69,1,3.06,0,6.05.62,9.11.45,6.68-.37,13.34.41,20,.56,6.17.14,12.37.44,18.52.91,10.48.8,21,1.07,31.36,3.28.83.18,1.65.42,2.48.62-.89.94-2,.82-3.15.82-7.9,0-15.81.23-23.7-.06-8.38-.31-16.77-.59-25.14-1-7.29-.34-14.57-.63-21.85-1-3-.16-6.06,0-9.1-.24a69.55,69.55,0,0,0-10.68.43c-1.16.1-2.49.71-2.54,2.06,0,1.16,1,1.79,2.14,2.22,7.53,2.88,15.43,4.43,23.26,6.16,8,1.76,16.07,3.27,24.15,4.72,7.08,1.27,14.2,2.35,21.31,3.46,6.54,1,13.09,2,19.64,2.95a107.92,107.92,0,0,1-18.34-.49m-19.19-28.48c-19.2-.67-38.36-1.71-57.34-4.92,19.16,1.05,38.26,2.81,57.34,4.92m51.78,3.61a31.58,31.58,0,0,0-4.79-.77,33.24,33.24,0,0,1,7.16-.63c10.43,0,20-3.42,29.61-6.74a236.59,236.59,0,0,1,30.59-8.61c.94-.19,1.91-.28,1.65,1.12-.79,4.29-1.16,8.66-2.43,12.87-1,3.26-3.82,4.57-6.39,5.84-6.61,3.25-13.78,4.94-20.85,6.9-11.21,3.12-22.64,5.48-33.47,9.88,1-2.5,2.85-4.51,4.26-6.78,4.69-7.52,2.37-11.14-5.34-13.08m-131.9-8.09c-4.57,1.7-9.86-.48-9.82-5.92,0-1,0-1.48,1.47-1.22a180.84,180.84,0,0,0,19.86,2.21c8,.6,16,1.35,24,1.85,3,.19,6.06.29,9.09.5,4.19.28,8.4.29,12.59.53,7.33.41,14.65.94,22,1.31,1.47.07,2.95,0,4.44.08,16.64.7,33.29.6,49.94.42a26.13,26.13,0,0,0,11.42-2.27c5.68-2.77,6-6.67,2.08-11-2.06-2.3-4.27-4.46-6.34-6.76-1.2-1.33-.78-1.65.47-2.24,4.76-2.27,9.88-3.35,15-4.42,5.89-1.23,11.8-2.42,17.76-3.24,7.69-1.05,15.38-2.14,23.15-2.52,2.08-.1,2.73.76,2.27,2.69-1.37,5.76-2.92,11.48-2.72,17.48,0,.8-.06,1.29-1.1,1.39-7.21.66-14,3-20.91,5-9.6,2.74-18.83,6.63-28.54,9-3.38.84-6.85.82-10.26,1.26-6.32.81-12.74.1-19,.63-8.6.73-16.9-1.19-25.32-2-5.49-.53-11-.93-16.47-1.48-5.71-.57-11.39-1.5-17.11-1.81-4.85-.26-9.67-.77-14.52-1.08-8.06-.51-16.1-1.27-24.16-1.83a37.57,37.57,0,0,0-6.79.15c-.71.08-2.13.06-2.07,1.48.06,1.13,1,1.65,1.9,1.88,2.48.66,5,1.21,7.53,1.69,6.06,1.16,12.2,1.8,18.31,2.76-7.2-.15-14.39-.2-21.57-.73-2.84-.22-5.69-.41-8.54-.55a4,4,0,0,1-3.74-1.89c-.85-1.33-1.77-2.25-4.22-1.34m-25.51.54a62.9,62.9,0,0,0-7.55-.23c-9.95.3-19.89-.36-29.83-.62-6.51-.16-13-.22-19.54-.24-2.24,0-4.76-.21-6.86,1.89.23-5.74-.3-11.23-.55-16.74-.38-8.69-.77-17.4-1.48-26.07-.48-5.95-.78-11.93-1.44-17.86s-.79-11.76-1.76-17.6c-.63-3.79-.61-7.69-1.06-11.53-.79-6.85-1.4-13.73-2.65-20.52-.35-1.92-.68-3.83-1.07-5.74-.59-2.88-2.66-3.67-5-4.2a131.09,131.09,0,0,0-19.36-2.48c-5.14-.39-10.27-.65-15.41-1-7.52-.44-15.06-.53-22.56-1-6.93-.45-13.86.15-20.74-.44-6.2-.53-12.39-.18-18.61-.46,3.2-2.28,6.63-.82,10-.7.55,0,1.08.27,1.62.27,9.87-.07,19.74,1,29.6.43,8.35-.49,16.72-.42,25.07-.92,1.56-.09,3.1-.44,4.65-.67,1.27-.19,1.8-1,1.4-2.14-1.09-3.24-.11-6.41.32-9.58a10.07,10.07,0,0,1,.41-2.62c1.11,2.5.94,5.06,1.71,7.38.44,1.33.86,2.67,1.24,4,1.2,4.2,5.47,4.73,8.39,4.54a12.56,12.56,0,0,0,4.31-.94c2.78-1.26,4.88-1.31,6.72,1.66,1,1.56,3.06,1.4,4.8,1.21a8.87,8.87,0,0,0,2.25-.63c1.84-.75,3.1-.83,4.45,1.29,1.84,2.87,5.23,4,8.34,5a121.42,121.42,0,0,0,22,4.13c-1.1,4.42-2.32,8.81-3.23,13.27a15.3,15.3,0,0,0-.41,6.45c.41,1.89,1,3.05,2.93,3.71a4.47,4.47,0,0,0,4.86-1.35c3.25-3.18,4.5-7.44,5.7-11.66.77-2.69,1.39-5.44,1.91-8.19.22-1.15.94-1,1.57-.88,3.58.45,7.16.93,10.73,1.5,1.78.29,1.95,1.39,1.28,2.94-2.19,5.07-5.4,9.49-8.68,13.85q-8.47,11.28-17.13,22.41A198.35,198.35,0,0,0,362,363.74c-2,3.32-4.24,6.66-4.84,10.58a19.07,19.07,0,0,0,2.68,13.22c1.07,1.72,3.3,2.18,5.34,1.55,1.27-.39,2.61-.09,3.91-1.13a3.21,3.21,0,0,1-1.23,2c-.49.58-1.49,1.13-.81,1.95a1.87,1.87,0,0,0,2.52.34c3.67-1.94,7.08-4.28,10.59-6.47,15.13-9.44,29.95-19.35,44.72-29.33.24-.16.58-.16,1.25.18-1.87,1.79-3.65,3.68-5.65,5.31-.84.68-1.62,1.46-2.53,2.1-1.43,1-.93,2.63.75,3.28,1.85.72,3.71.43,5.59.21,4.06-.47,8.11-.9,12.37-1.37-1.5,5.13-2.88,10-4.35,14.81-.2.67-.46,1.37-1.66.77-1.66-.82-3.59-1.06-5.3-1.79-1.27-.54-1.85.17-2.31,1s.26,1.54.91,1.93c1.67,1,3.4,1.93,5.14,2.82,1.1.55,1.57,1,1.16,2.5C428.93,393,427.41,398,427,403c-.36,4.46-.75,9.29,2.47,13.64-5.32-.34-10.4.16-15.55-.31m-10.13,5.06c-4.9,3.75-10.5,6.25-16,8.9-6,2.88-12.08,5.51-18.17,8.16-6.53,2.84-12.93,5.95-19.58,9.3,1.06-10,.22-19.67.61-29.58,1,1,2.21.82,3.36.82,13.14,0,26.27-.8,39.42-.49a35.83,35.83,0,0,1,10,1.36c.4.12,1.07-.14,1.17.51s-.43.73-.81,1m-123.55-211c-2.9,1.38-6.07,1.23-9.11,1.59,3-1.25,6.09-1,9.11-1.59m-66.46,80.75c-3.86-.33-7.73.3-11.63-.39-2.4-.42-2.77-1.67-2.39-3.45a72.08,72.08,0,0,1,4.54-13.49c5.72-13.25,11.22-26.56,15.18-40.5,2.31-8.15,4.9-16.25,7.4-24.36,1.88-6.1,3.16-12.38,5.35-18.4A172.57,172.57,0,0,0,238.12,172c.9-3.73,1.87-7.49,1.77-11.34-.18-6.53.42-13,.57-19.54a12.15,12.15,0,0,1,1.7-6.26c1.5-2.38,3.15-2.43,5-.14a30.21,30.21,0,0,1,4.26,8,41.9,41.9,0,0,1,2.81,19.45c-.32,3.34-.91,6.83-4,9.11-.61.46-1,1.08-.53,1.85s1.08.81,2,.51a15,15,0,0,1,4.32-.88c6.09-.16,12.26-.42,18.21,1,3.3.81,6.85,1.72,8.94,5,.91,1.45,1.3,3,.5,4.45a3.65,3.65,0,0,1-4.23,1.9c-7.41-1.64-14.92-.73-22.39-1a8.3,8.3,0,0,0-3.22.55c-.58.22-1.36.53-1.11,1.45.2.7.5,1.29,1.4,1.37,3.37.29,6.73.64,10.1,1,2.76.26,5.5.51,8.29.54a27.63,27.63,0,0,0,6.58-.63c3.34-.8,6,.51,8.52,2.18,1.29.84,1.77,2.19.17,3.5a11.28,11.28,0,0,1-7.44,3,75.39,75.39,0,0,0-18.76,1.9c-.46.11-.9.34-1.32.41-1.15.2-2.15.68-2,1.87s1.24,1.62,2.5,1.59A83.93,83.93,0,0,0,280,200.33c2.88-.75,5.29.29,7.51,1.71a2.88,2.88,0,0,1,.86,4c-.76,1.5-1.6,1.92-3.43,1.78a50.26,50.26,0,0,0-19.47,2.79,2,2,0,0,0-1.62,2c0,1.26,1,1.27,1.82,1.46a29.15,29.15,0,0,0,9,.15,36.2,36.2,0,0,0,11.74-3,1.19,1.19,0,0,1,1.67.37c.44.65,0,1.1-.33,1.69-1.61,2.89-4.41,4.54-7,6.24a118.27,118.27,0,0,1-26.11,13.53c-3.85,1.35-4.59,4.81-5.12,8.16-1,6.19-1.35,12.49-2.54,18.63a82.16,82.16,0,0,0-1.86,16.38c0,1.62.63,3.1.31,4.87-.84,4.81-3.87,6.59-8.23,7.61a88.25,88.25,0,0,1-23.46,2.32m54.8-24.32c6.7-8.46,12.84-17.36,19.66-25.76a72.77,72.77,0,0,1,11.51-11.89c1.23-.95,2.76-2.61,4.32-1.37s3,2.91,2.58,5.75c-.83,5.52.52,11,2.42,16.16a26.19,26.19,0,0,1,1.35,7.85c.41,7.66-.86,15.07-2.33,22.52-.4,2-1,4.21-.53,6.33.27,1.21-.24,1.37-1.15,1.36-3.12,0-6.23.39-9.35.55-13.21.69-26.42.28-39.63.43a37.57,37.57,0,0,1-9-.71c8.91-5,14-13.57,20.1-21.22m43.55-16.83a41.9,41.9,0,0,1-3-12.11c1.71,3.86,2.3,8,3,12.11m-.43-22.24c2.5-3.3,6.21-4.86,9.81-6.33,11.89-4.88,24-9.22,36.22-13.19.13-.31.31-.45.56-.4a.67.67,0,0,1,.27.13l-.48.64C351,223.46,344.84,238.79,339,254.25a152.17,152.17,0,0,0-7.45,25.06,32.75,32.75,0,0,0-.55,6.33c0,.89-.16,1.32-.89,1.51-3.19.82-6.34,1.83-9.73,1.55a3.48,3.48,0,0,1-3.28-2.21c-1.68-3.91-2.18-8.1-3-12.23a59.84,59.84,0,0,1-.76-7.25c-.25-3.61-.32-7.37,1.24-10.85,1.26-2.8.27-5.66-.15-8.37a60.19,60.19,0,0,0-4.16-15c-.95-2.18.26-3.56,1.4-5.06m31.82,60.94c.1.9-.84.75-1.39,1a16.59,16.59,0,0,1-5.16,1.25c-1.49.24-2.34-.92-2.62-2.48,2.44-.57,4.78-1.4,7.34-1.21,1.05.07,1.73.44,1.83,1.42m32.07,12c-8.42-1.44-17.06-1.9-24.94-5.7-.29-.13-.55-.31-.83-.44-1.36-.67-2.85-1.64-3.15-2.92-.41-1.77,1.76-1.81,2.84-2.55a184.32,184.32,0,0,0,15.2-11.8,39.22,39.22,0,0,1,7.68-5.34c4.48-2.25,6.11-.21,7.35,3.66a9.72,9.72,0,0,1,.6,4.42c-.17,7.21-2,13.37-3.43,19.61-.17.73-.59,1.19-1.32,1.06m-1.14,20c.38-5.51,2.11-10.77,3.63-16.08a1.32,1.32,0,0,1,1.56-1.06c1.56.15,3.07.69,4.68.53.84-.08.79.56.64,1.15-1.29,5.2-2.21,10.51-4.77,15.31a10.1,10.1,0,0,1-1.34,1.91c-.88,1-1.79,2.23-3.37,1.65s-.63-2.22-1-3.41M362.81,206.33c1.09-1.31,3.12-1,4.46-2.59.23,3.06-.34,5.63-.51,8.18-.33,5-.85,10-.87,15.09,0,10.69,4.42,19,12.84,25.5,2.73,2.1,5.6,4,8.25,6.22,1.93,1.61,2.24,3.23.72,5.46a16.12,16.12,0,0,0-2.74,7.87c-.1,1,.08,1.75.9,2.14s1.54-.39,1.94-1c1.85-2.8,3.56-5.7,5.43-8.49,3.23-4.82,7-8.84,12.64-11.2,7.49-3.13,12.95-8.92,18-15.24,6.19-7.8,12-15.89,17.65-24a40.46,40.46,0,0,0,5.61-11.3,13.68,13.68,0,0,0-.76-10.73,6.67,6.67,0,0,1-.31-.66,6.9,6.9,0,0,1-1-1.48,2,2,0,0,1-.24-.43l-.18-.32,0-.65s.62,0,1.27,2.1a42.66,42.66,0,0,1,5,10.8c2.24,7.22,4.1,14.58,3.51,22.19a126.73,126.73,0,0,1-4,21.89c-2.77,10.66-6.73,20.91-10.41,31.25-1.19,3.34-2.64,3.56-5.54,1.68-2.75-1.79-4.51-4.44-6.56-6.79a16.5,16.5,0,0,0-11.65-5.59c-6.88-.56-13.35,1.16-19.7,3.73-4.65,1.88-5.83,5.82-6.71,10-1.39,6.57-2.7,13.16-3.79,19.78-.3,1.85-1.13,2.08-2.51,1.88a12.76,12.76,0,0,0-3.26-.46c-1.12.11-1.18-.72-1-1.41a71,71,0,0,0,3-13.93c.47-4.29,1-8.67-.88-12.84s-5-5.84-9.89-3.61c-3.75,1.7-6.78,4.48-9.94,7-4.51,3.65-8.8,7.57-13.84,10.51-.78.45-1.46,1.49-2.36-.4-.78-1.65-3-2.16-4.94-2a21.51,21.51,0,0,0-5.24,1.13c-1.34.45-1.5-.05-1.51-1.15a46.88,46.88,0,0,1,2.27-13.15c4.08-14.37,9.79-28.13,15.59-41.85,2.07-4.88,4-9.83,6.13-14.68a35,35,0,0,1,5-8.41m63.95,148.85c0-.09.17-.26.28-.29s.25.09.38.15c-.07.12-.1.26-.2.33s-.42.07-.46-.19M368.69,222.6c.45-2.8.26-5.68.47-8.53.54-7.39,1.37-14.75,2-22.12.11-1.32,0-2.66,0-4.35,2.24,1.62,4.15,3.08,6.13,4.43a48.9,48.9,0,0,0,15.87,7.31c5.63,1.4,10.75.31,15.83-2.3a63.71,63.71,0,0,0,17.71-14c8.35-9.15,14.51-19.55,17.22-31.78.17-.77.11-1.59.24-2.36a6.47,6.47,0,0,1,.68-2c-.33,3.52-.26,7-.44,10.56-.37,7,1.95,13.27,4.56,19.52,2.41,5.78,5.57,11.19,8.48,16.73,2.7,5.12,3.84,10.85,5.21,16.45a165,165,0,0,1,3.9,24.33,124.69,124.69,0,0,1-.15,24.59c-1.33,12.23-6.17,23.3-12.11,34-4.37,7.86-9.05,15.54-13.4,23.4-1.16,2.1-2.33,4.25-2.22,6.85.1,2.14,1,3.11,3.17,3.22,5.52.29,10.39-2.08,15.46-3.58,4.48-1.33,8.75-3.3,13.56-4.41a52.31,52.31,0,0,1-3.14,10.74c-2.91,7.12-8.4,11.26-15.6,13.6-3.78,1.23-7.94,2.35-9.72,6.55a47.76,47.76,0,0,0-3.53,10.15c-.53,3-2,4.15-4.64,4.25-4.1.15-8.12,1.28-12.26,1-.17.4-.44.53-.83.27l.48-.65a76.4,76.4,0,0,0,8.19-8.2,14.7,14.7,0,0,0,1.81-2.73c.42-.88.66-1.65-.13-2.36A2.05,2.05,0,0,0,429,351c-4.4,2.29-8.29,5.35-12.42,8.06-8.61,5.66-17.13,11.48-25.91,16.91a74.39,74.39,0,0,0-6.21,4.21,25.57,25.57,0,0,1-13.24,5.33,57,57,0,0,0-6.42,1.28c-1.9.42-3.2.08-3.67-2.12s-1.56-4.48-1.78-6.78c-.31-3.2,1.16-6.1,2.69-8.84,6.81-12.16,15.69-22.83,24.14-33.83,4.85-6.33,10-12.46,14.13-19.32,1.36-2.27,2.86-4.45,3.55-7.09.75-2.87-.07-4.7-2.93-5.18-3.63-.62-7.29-1.11-10.95-1.45-1.33-.12-1.72-.56-1.49-1.71,1.31-6.75,2.68-13.48,4-20.24.85-4.49,3-7.54,7.7-8.89,4.46-1.27,8.87-2.66,13.51-2.69,5.47-.05,10.23,1.5,13.68,6.33a24.52,24.52,0,0,0,6.32,6.11c3.64,2.41,6.82,1.68,8.36-2.31a314.27,314.27,0,0,0,11.16-33.21,125.85,125.85,0,0,0,3.66-18.84,51.24,51.24,0,0,0-.86-16.55,75.83,75.83,0,0,0-7.32-20.45c-.82-1.49-1.63-3.09-3.2-4-2.1-1.21-3.94-.18-3.76,2.19a6.42,6.42,0,0,0,1.05,3.3c3.78,4.84,2.81,9.71.5,14.75-2.93,6.4-7.29,11.84-11.36,17.48-3.71,5.14-7.33,10.39-11.49,15.15-4.83,5.51-9.93,10.78-17.21,13.35-4.24,1.5-7.2,4.92-9.92,8.43l-1.69,2.18c-.34-4.72-4-6.61-7.2-8.88-5.47-3.93-10.82-8-13.45-14.48a30.62,30.62,0,0,1-2.19-16.56m74.84-110.5c.31-4.77-1.59-8.75-4.34-12.33-4.48-5.83-9.57-11.14-14.52-16.57-3.64-4-7.43-7.94-9.93-12.81-1.08-2.11-2.24-4.35-.72-6.87a2.11,2.11,0,0,0-.41-2.82c-1-.87-1.73-.43-2.73.17-4.81,2.86-8.83,6.76-13.22,10.15-5.41,4.18-11.45,6.17-18,7.4A56.33,56.33,0,0,0,360,85.55c-5.26,3.26-7.21,8.23-8,13.94a199.65,199.65,0,0,0-2,26.2c0,2.22-.22,4.54-.47,7.39-1.16-2.65-2.1-4.69-3-6.76A3.46,3.46,0,0,0,344,124c-4.12-.59-4.81-3.64-4.92-6.87a121,121,0,0,1,6.69-44.75,37.14,37.14,0,0,1,6.68-11c7-8.51,15.83-14.49,25.71-19a56.78,56.78,0,0,1,18.35-5.32,27.08,27.08,0,0,1,8.32.63c3.9.83,5.48,2.85,5.57,7,0,1.14-.1,2.32,1.11,2.91s2.1-.15,3-.8,1.82-1.23,2.67-1.91c3.66-2.91,7.47-3,11.64-1,11.11,5.33,19.75,13,23.86,24.93a32.7,32.7,0,0,1,1.42,15.79c-.95,6.28-3.34,12.19-4.27,18.45-.64,4.26-1.16,8.54-2.13,12.73-.82,3.55-1.86,7-2.54,10.92a48.84,48.84,0,0,1-1.68-14.51M351,150.41c.64,3,1.05,6,1.4,9a9.22,9.22,0,0,1-.64,5.5c-6.24-8-11.48-24.81-10.63-34.15,2.07,1.27,3,3.45,4.62,5,4.19,4,4.14,9.54,5.25,14.64M451.29,139.5c-2.19-1.91-3.27-3.81-2.71-7.13a63.27,63.27,0,0,0,1.18-12.52c2.15,2.1,3.27,16.66,1.53,19.65m-9.93,225.85c1.23.38.81,1.45.54,2.15-1.11,2.86-1.47,5.9-2.17,8.85a7.36,7.36,0,0,0,0,2.39,2.84,2.84,0,0,0,1.76,2.56c1.17.49,2-.1,2.77-.7,3-2.36,4.08-6.11,2.8-10.12-.54-1.7-1.19-3.36-1.83-5.16a122.12,122.12,0,0,1,16.17.91c.71.08,1.44,0,2.15,0,10.39.28,20.75,1.13,31.11,1.87,2.84.21,5.69.24,8.53.46,8.81.69,17.65,1,26.44,1.94,4.71.49,9.46.56,14.18,1,5.39.53,10.76,1.24,16.13,1.93,2.61.33,3.08,2.63,3.25,4.51a29.87,29.87,0,0,1-.74,10.33,3.88,3.88,0,0,1-4,3.31c-15.27.95-30.56.51-45.84.28-3.52-.05-7-.14-10.56-.3-8.69-.39-17.39-.78-26.06-1.48-5.17-.41-10.36-.82-15.52-1.41a198.65,198.65,0,0,1-20.46-2.9c-1.71-.37-3.24-1.53-4.89-2.25-.86-.37-.64-.84-.43-1.5,1.56-5.15,3.07-10.31,4.61-15.46a1.58,1.58,0,0,1,2.12-1.27m2.78,4.16c1.08,3.23,1.36,6-.76,8.54-.25.3-.48.7-.94.55a.58.58,0,0,1-.32-.51c.61-2.75.64-5.64,2-8.58M565.74,378c-.73-4.52-2.2-6.65-6.76-7.33-4.89-.73-9.84-1.06-14.77-1.53-6.82-.65-13.63-1.3-20.45-1.88-2.35-.2-4.72-.23-7.09-.44-6.22-.55-12.48-.56-18.7-1.08-5.23-.44-10.47-.6-15.7-1-6-.41-11.9-.94-17.88-.89-1,0-1.68-.8-2.62-.92,5,1.11,10-.14,15,.82a12.36,12.36,0,0,0,3,.07c5.49-.33,10.94.43,16.42.56,8.93.21,17.87.77,26.79,1.41,5.28.39,10.58.48,15.84,1,7.51.73,15.07.81,22.56,1.75a37.45,37.45,0,0,0,5.4.57c1.58,0,2.32.77,2.29,2.34a31.93,31.93,0,0,1-1.85,8.91c-.38,1.24-.8,2.47-1.33,4.1-.48-2.43.26-4.41-.08-6.49M431,405.08c-.45.31-1,.7-1.52.35s.1-.82.12-1.24c.24-5.12,2-9.94,3-14.91.32-1.61,1-2.21,2.94-1.75a16.37,16.37,0,0,1,5.88,2.75,2.28,2.28,0,0,1,.94,1.44c-.62,4.16-2.91,6.79-5.43,9.14a52.09,52.09,0,0,1-5.9,4.22m13.66-15.73c2.45.13,5.29.58,8.08,1,3.73.59,7.49.86,11.23,1.24,8,.81,16,1.54,24,1.87,4.19.17,8.38.59,12.59.61,6.83.05,13.69.15,20.5.57,8.6.53,17.19.43,25.77.21,4.38-.11,8.86.15,13.21-.84,1.48-.34,3.11-.57,3.86-2.44,2.53,3.21,5.72,1.51,8.64,1.38a30.77,30.77,0,0,0,4.58-.87c.18-.4.44-.53.84-.27l-.49.65c-1.66,2.12-.31,3.61,1.06,5.11,2.25,2.46,5,4.48,6.82,7.3s1.67,3.56-1,5.48c-2.34,1.67-5.08,2.09-7.74,2.3-11.68.95-23.4.7-35.08.41-4.27-.11-8.57-.11-12.84-.35-8.36-.48-16.72-.7-25.09-1-5.84-.24-11.68-.67-17.52-.94-7.65-.35-15.29-1-22.94-1.47-5.81-.34-11.64-.79-17.43-1.4-3.79-.41-7.63-.52-11.4-1.52,5-4.7,11.43-8.44,10.35-17m5.91-30.27c6.73-.34,13.45-1,20.17-1.24,6.2-.21,12.4-.55,18.6-.76q11.88-.39,23.74-.95c9.38-.44,18.77-.58,28.14-1,5.89-.27,11.77,0,17.63-.39,15.84-1,31.7-.41,47.55-.32,6.16,0,12.45.18,18.54,1.72a2.67,2.67,0,0,1,2.1,1.65c1.27,3,2.65,6,3.81,9,1.05,2.77.34,4.48-2.3,5.8a137.05,137.05,0,0,1-15.22,6,356.5,356.5,0,0,1-36.74,10.87,36,36,0,0,1-7.89,1.2c-1.47,0-1.81-.48-1.4-1.84,1.32-4.48,2.58-9,3.88-13.46a15.36,15.36,0,0,0,.19-5.69c-.16-2-2.34-3.27-5.5-3.46-7.17-.44-14.31-1.15-21.49-1.52-5.21-.27-10.42-.54-15.62-.93-8.77-.67-17.54-1-26.32-1.46-6.56-.32-13.13-.59-19.68-1-4.37-.28-8.79.21-13.07-.45-4.87-.76-9.63,0-14.43.14-2.64.07-5.27.62-8.18,1a3.47,3.47,0,0,1,3.49-2.94M139.1,456.81c5.83,0,11.67-.35,17.47.05,13.11.93,26.23-.17,39.32.64,6,.37,11.89.28,17.82.22,15.22-.16,30.42.46,45.63.67,8.35.12,16.72-.22,25,.41,7.16.54,14.34-.13,21.45.49,5.15.46,10.3.07,15.4.65-3.9,0-7.73.7-11.61.74-9.76.13-19.5.81-29.26,1-3.7.09-7.44.22-11.16.33-21.27.67-42.55.68-63.82.4-9.88-.13-19.77-.41-29.65-.9-6.25-.31-12.52-.71-18.73-1.47-6.5-.79-13.06-1.33-19.46-3,.43-.57,1.05-.28,1.56-.28M486.29,146.12a19.46,19.46,0,0,1,8.32,4.27l.46.64a2.78,2.78,0,0,1-.83-.27c-3.14-.87-5.46-2.81-7.95-4.64m-.67,29.65a3.33,3.33,0,0,1,.37-.05h0c.82-.06,2.91.07,5.14,2.41a1.1,1.1,0,0,1,.62.69.93.93,0,0,1-.51,0h-.08c-.76-.13-2.37-.74-5.55-3m60.1,109.06A76.39,76.39,0,0,1,556,297.11c2,3,3.9,6,4.62,9.64a5.14,5.14,0,0,1-.16,2.47c-.52,2-1.35,1.79-2.61.63-4-3.65-6.4-8.33-8.42-13.19a54.74,54.74,0,0,1-3.7-11.83m-71,28.8c2.2-8.88,3.41-17.95,5.1-26.92,1.38-7.3,3.26-14.47,4.66-21.74a38.05,38.05,0,0,0-.29-13.74,166.75,166.75,0,0,0-7.63-27.47c-2.48-6.87-5.13-13.69-7.8-20.78a19.2,19.2,0,0,1,6.81,1.45c12.39,4.67,24.4,10.15,35.38,17.65,3,2.08,5.34,4.58,5,8.76-.11,1.4-.88,2-1.55,2.89-2.26,3-3.42,6.51-4.91,9.86-2,4.63-3.81,9.39-5.62,14.13-.41,1.1-1.8,2.65-.16,3.44,2,1,2.09-1.31,2.6-2.41,2.81-6.19,6.11-12.13,9.29-18.46a13.12,13.12,0,0,1,.56,6.39,18.19,18.19,0,0,0-.28,3.51c-.05,11.45-1.13,22.73-5.27,33.55-.38,1-1.31,2.18.2,3.08s2-.51,2.69-1.31c3.06-3.49,5.91-7.12,9.52-10.17,3.41-2.88,6.54-2.09,9.77-.44a62.33,62.33,0,0,1,8.15,5.51c1.69,1.23,1.83,3,2.2,4.75a63.85,63.85,0,0,0,9.15,22.15,15,15,0,0,0,4.59,5c3.3,2,6.13.54,6.41-3.37s-1.48-7.15-3.3-10.36a70,70,0,0,0-13.35-16.19A8.47,8.47,0,0,1,544.1,278c-3.15-13-7.9-25.43-12.93-37.79-2.36-5.79-5.1-11.41-7.61-17.13-3.45-7.85-9.49-12.9-16.8-16.82-5.49-2.94-11.46-5-16.58-8.59q-6.33-4.45-12.45-9.21a16.53,16.53,0,0,1-4-5c-2.69-4.66,1-8.55,5.42-9.15,1.22-.16,2.07,1.26,3.06,2a38.93,38.93,0,0,0,9.92,5.68c1.39.49,2.57.57,3.32-.73s.12-2.17-.82-3.16a18.48,18.48,0,0,0-11.24-5.85c-4.63-.62-6.47-4.19-8.28-7.78a3.94,3.94,0,0,1,.94-5.11c1.22-1.08,2.26-1.74,3.92-.26,4.19,3.69,9.33,5.58,14.67,6.89.78.2,1.85.35,2.36-.64a1.35,1.35,0,0,0-.73-1.81c-4.61-2.76-8.85-6.22-14.21-7.55-3.58-.88-5-3.52-3.61-7,1.16-3,3.55-3.53,5.83-1.33,3.15,3,6.64,5.4,11.15,6.08a2.51,2.51,0,0,0,2.59-.94,1.91,1.91,0,0,0-.17-2.55c-2.76-3.69-6.71-5.45-11-6.71a9.59,9.59,0,0,0-2.52-.48c-1.36,0-1.48-1-1.6-1.91a1.58,1.58,0,0,1,1.18-2,14.21,14.21,0,0,1,6.59-.36,85.11,85.11,0,0,1,19.11,4.48,3.64,3.64,0,0,1,2.52,2.42c.73,2.1,1.9,4.07,4.63,4a2,2,0,0,0,2-3,5.38,5.38,0,0,0-3.19-3.58c-2.2-.73-2-2.4-1.7-3.94,1.56-7.83,4.9-14.94,9-21.76a48.38,48.38,0,0,1,8.65-10.58c.65-.6,1.41-1.33,2.23-1.07,1,.34.77,1.5.67,2.32-.51,4.12-1.1,8.23-1.64,12.35-.69,5.2-1.65,10.36-2.21,15.59-1.47,13.63,3,26.17,6.88,38.81C539,179.55,540,184.24,541,189c1.32,6.49,5,11.9,8.9,17.11,3.61,4.8,7.73,9.17,11.66,13.7,6.07,7,13.27,12.79,19.63,19.46a89.7,89.7,0,0,1,18,28.47c4.59,11.22,7.59,23,10.25,34.73,2.19,9.69,1.39,19.34-5.07,27.57-4.8,6.11-11,8.6-19.09,7.69a195.68,195.68,0,0,1-20-3.12c-9.84-2.13-19.56-4.71-28.69-9.14a10.54,10.54,0,0,1-6.27-9c-.19-2.2,1.34-4.26,2.1-6.38,2.36-6.54,5-13,6.95-19.65a7.66,7.66,0,0,0,.39-2.05c0-.79-.15-1.45-1-1.61a1.54,1.54,0,0,0-1.8.8c-4.59,8.32-8.87,16.75-9.14,26.57,0,2-1.23,3.68-1.85,5.52a.81.81,0,0,1-.88.6c-6,.07-12,.09-17.29-3.37-3.35-2.2-4.79-5.88-6.32-9.41A17.77,17.77,0,0,1,500,299c.09-1.27,0-2.55,0-3.83s-.28-2.91-1.68-2.89-1.72,1.61-1.67,2.94c.14,3.95.51,7.91.43,11.86a157.48,157.48,0,0,1-2.72,24.58A67.64,67.64,0,0,1,490.91,345c-1,2.42-2.09,5.76-4.64,5.67s-3.25-3.7-3.9-6.11a80,80,0,0,1-2.55-17.43c-.11-2.52-.29-5.05-.42-7.58a4,4,0,0,0-3.49-3.91c-1.54-.25-1.43-1.09-1.22-2M769.88,433.34c-.64,0-1.28,0-1.92,0-28.7.3-57.41-.44-86.12.4-15.24.44-30.5.1-45.74.11-.18.41-.45.53-.84.27l.48-.64a17.23,17.23,0,0,0,4.23-5.09,38.3,38.3,0,0,0,4.28-17.63c.1-5,.06-5.43-4.54-6.57-1-.25-1.36-.53-1.26-1.48.31-2.81.46-5.64.93-8.42s1.32-5.62,1.91-8.45a4.38,4.38,0,0,0-4.24-5.22,52.46,52.46,0,0,0-9.72.57c-7.35.92-14.73,1.71-22,3.08,3.36-1.34,6.81-2.42,10.19-3.67,4.74-1.77,9.61-3.26,14.1-5.65,3.9-2.07,4.62-4.15,3.7-8.51-.68-3.28-3-5.84-3.63-9.12a4.46,4.46,0,0,0-3.63-3.55A62.33,62.33,0,0,0,610.61,352c-8-.16-16.05-.71-24.09-.68-4.85,0-9.67.47-14.51.57-6.75.15-13.5-.12-20.27.32-6.56.43-13.18.44-19.77.57-7.69.16-15.37.67-23.05.9-9,.27-17.93.79-26.9,1.07-4.77.15-9.54.47-14.32.62-6.06.19-12.09.9-18.15,1.25a4.42,4.42,0,0,0-4.25,2.79c-.85,2.07-1.95,3.6-4.57,3.23.65-3.78,2.53-7.16,3.49-10.82a7.17,7.17,0,0,1,4.57-5c1.44-.6,2.9-1.16,4.38-1.65,8.74-2.85,15-8.15,17.74-17.25.9-3,1.71-6,2.68-8.95.21-.65.26-1.19,1.14-1.14.65.05,1.23,0,1.5.8s.83,1.34.8,2.19A101.14,101.14,0,0,0,478.49,339,30.17,30.17,0,0,0,482,350.11c2.6,4.39,5.21,4,8.05,1.11,3.48-3.57,4.51-8.18,5.66-12.68,2.31-9.12,3.06-18.5,4-27.85.79.29.84,1.1,1.17,1.67,2.86,5,6.49,8.53,12.6,9.56,3.42.57,6.87.54,10.27,1.12,1.78.31,4.09.14,4.81-2.54a17.68,17.68,0,0,0,3.8,5.18c3,2.48,6.6,3.84,10.19,5.13a174.13,174.13,0,0,0,25.25,6.88c7,1.37,14,2.63,21.22,2.75a19.92,19.92,0,0,0,16.14-7.35c7.26-8.56,9.27-18.69,7.15-29.59-.92-4.73-2.31-9.37-3.56-14-2.67-10-5.57-20-10.16-29.34A89.55,89.55,0,0,0,585,239.61c-3-3.37-6.37-6.37-9.58-9.53-6.28-6.18-12.71-12.22-18.27-19.12-6.29-7.82-12.78-15.36-14.22-26-.92-6.85-3.81-13.31-5.78-20-2.14-7.22-4.12-14.47-4-22.1a56.8,56.8,0,0,1,.44-9.48c.86-4.78,1.55-9.58,2.2-14.39.58-4.21,1.47-8.4,1.2-12.69a4.09,4.09,0,0,0-2-3.31c-1.22-.76-2.48.07-3.46.76a28.39,28.39,0,0,0-6.06,5.93c-7.18,9.32-12.35,19.5-14.17,31.32-.64-.2-1.37-.42-2.1-.66-7.73-2.5-15.53-4.48-23.76-4.07-4.22.21-5.83,2.13-4.93,6.13.13.61.41,1.08-.4,1.54-4,2.3-5.5,6.26-3.81,10.29.46,1.11.32,1.58-.72,2.26a6.7,6.7,0,0,0-3.2,7.12,11.57,11.57,0,0,0,3.62,6.7c1.36,1.26,1.17,1.73-.48,2.49a8.45,8.45,0,0,0-4.6,4.85c-1.48,4.14.42,7.35,3,10.23,4,4.49,9.05,7.78,13.94,11.21,6.38,4.47,13.83,6.94,20.45,11,5,3,9.25,6.66,11.92,11.95a328,328,0,0,1,16.74,40.45c1.64,4.74,3,9.58,4.68,15-2.57-1.72-4.44-3.15-6.47-4.29-3.72-2.1-7.68-3.69-11.76-1.21a23.37,23.37,0,0,0-7.65,6.9l-.65.46c-.24-.39-.12-.65.28-.83a8.52,8.52,0,0,1,.09-1.43,98,98,0,0,0,2.84-24.3,18.43,18.43,0,0,1,.19-3.79,27.66,27.66,0,0,0,.16-8.32c-.35-3.33-1.22-6.59,0-9.91a4,4,0,0,0-.09-1.88c-.64-4.17-3.06-7-6.53-9.27a160.94,160.94,0,0,0-39.68-18.81c-1.81-.57-4-1.05-5.44.21-1.63,1.46-.25,3.53.35,5.2,2.24,6.23,4.66,12.4,6.93,18.62a153.21,153.21,0,0,1,7.55,27.72c.75,4.62,1.15,9.38-.14,14-2.15,7.68-3.52,15.52-5,23.33s-2.89,15.5-4.31,23.26a3.34,3.34,0,0,1-2.69,3c-4.41,1.28-8.73,2.89-13.09,4.33s-8.67,3.14-13.29,3.62c-1.67.17-2.39,0-1.75-2.2,1-3.55,2.94-6.6,4.73-9.66,5.46-9.31,11-18.54,15.6-28.33,6.71-14.24,8.56-29.14,7.69-44.67a171.08,171.08,0,0,0-3-23.59c-1.45-7.27-3.05-14.53-6-21.34-2.73-6.22-6.49-11.93-9.09-18.24-2.49-6-4.85-12.14-4.46-18.79.32-5.59.21-11.2,1-16.75.38-.13.56.17.81.36,2.72,2.08,4.66,1.49,5.57-1.8.82-2.92.59-5.84.29-8.87-.52-5.34-1.08-10.58-3.66-15.41a1.84,1.84,0,0,1-.21-1.12c1.23-6.35,1.93-12.8,3.73-19,2-7.07,3.58-14.14,2-21.6a41.74,41.74,0,0,0-9.92-19.64,52.91,52.91,0,0,0-14.87-11.07c-4.67-2.47-9.41-3.88-14.35-.7-1.46,1-2.87,2-4.49,3.11a8.48,8.48,0,0,0-2.42-6.92c-2.73-2.72-6.2-3.3-9.7-3.46-8.27-.4-15.94,2.16-23.34,5.51a75.88,75.88,0,0,0-18.26,11.43C353.63,56,348.52,61,345.3,67.59c-5.64,11.49-7.57,23.94-8.55,36.53-.37,4.68-.1,9.42-.05,14.13,0,3.26,1.13,6.42,4.29,7.38s4,3,4.84,5.41c.4.18.53.45.27.84l-.65-.49a16.46,16.46,0,0,0-2.13-2.48c-2.48-2-4.5-1.1-4.67,2.12a39.62,39.62,0,0,0,.76,10.84A108.9,108.9,0,0,0,345,158.72a26.93,26.93,0,0,0,4.54,7.66c.9,1,1.92,1.87,3.39,1.53s1.42-1.76,1.84-2.8a5.12,5.12,0,0,0,.08-1.67c.25-6.74-1.2-13.27-2.55-19.82-.42-2.05-1.79-4.08-1.2-6.16,1.89-6.71,1.29-13.62,1.69-20.42a185.67,185.67,0,0,1,2.11-19.72A12.63,12.63,0,0,1,361,88a50,50,0,0,1,12-5.3c4.44-1.25,9-2.05,13.46-3.07,7-1.59,12.24-6.11,17.66-10.37,2.19-1.71,4.19-3.71,6.73-5.11.4,1.94,0,3.65.65,5.39,2,5,5.61,8.84,9,12.82,5.13,6,10.9,11.46,15.71,17.74,2.58,3.35,4.63,6.82,4.62,11.51A63.75,63.75,0,0,0,443,128.7c.62,2.27,1.65,4.49,1.06,7.05a93,93,0,0,0-1.9,10.6c-1.18,10.4-5.54,19.54-11.48,27.87a69.91,69.91,0,0,1-19.33,18.6c-7.1,4.55-14.26,5.78-22.27,2.55A61.93,61.93,0,0,1,371,183.79c-.58-.52-1.06-1.31-2-.85a1.31,1.31,0,0,0-.63,1.66c1.22,3.39-.08,6.75-.16,10.1-.06,2.44-.21,5-.45,7.89-1.52-1.87-2.87-1.3-4.11-.41a17.54,17.54,0,0,1-4.21,2.57c-13.24,4.65-26.58,9.08-39.52,14.54-4.6,1.94-9.27,4-11.68,9-3.1-5-6.09-3.73-9.65-1.68a21.39,21.39,0,0,0-4.14,3.55c-6.61,6.58-12.12,14.05-17.7,21.48-6,8-12.07,16-18.27,23.93-3.17,4-6.5,8-11.84,10.31,1.45-2.5,1.47-4.91,1.49-7.34,0-3.91-.68-7.9.2-11.73,1.85-8.12,2.61-16.39,3.67-24.62.32-2.5.57-5.57,3.35-6.58A126.25,126.25,0,0,0,277,225.06c4.33-2.56,8.63-5.24,11.94-9.12,1.22-1.44,2.68-3.08,1.63-5.17a3,3,0,0,1,.1-3.4,4.62,4.62,0,0,0,.59-2c.46-3.7-2-5.45-4.81-7.1l1.74-1c4-2.33,4.15-6.62.28-9.09A23.78,23.78,0,0,0,286.1,187c-.83-.41-1.46-.64-.53-1.83a5.09,5.09,0,0,0,1.08-4.36c-1-4.92-4.6-7.13-8.84-8.51a50.64,50.64,0,0,0-21.23-2c-1.52.16-1.88-.2-1.35-1.73a29.34,29.34,0,0,0,1.56-13.85c-.93-7.07-2.62-13.81-6.39-19.89-1.14-1.83-2.62-3.7-4.92-4.24-2.7-.63-5.33,1.29-6.46,4.7a34,34,0,0,0-1.44,9.5c-.17,4.54.1,9.1-.09,13.64a62,62,0,0,1-2,13.7c-2,7.32-5,14.29-7,21.57-4.62,16.43-9.51,32.77-14.47,49.1-3.62,11.91-9.5,22.91-13.86,34.53-1.64,4.36-3.45,8.7-2.64,13.68h-1.7c-27.36,0-54.71-.15-82.06.48-.4,0-.8,0-1.19,0-2.66.28-3.3,1.08-3.39,3.77-.27,7.71.64,15.36,1,23,.22,4.4.68,8.78,1,13.17.47,6.92,1.23,13.81,1.85,20.71.35,3.85.62,7.71,1,11.55.59,5.95,1.41,11.88,1.82,17.83.27,3.94.87,7.83,1.11,11.78.33,5.38,1.4,10.71,1.76,16.09s1.26,10.63,1.61,16c.42,6.41,1.36,12.8,2.34,19.15.49,3.13.25,6.42,1.81,9.29H122c-16.56.09-33.12-.23-49.67-.42-20.52-.24-41-.06-61.55-.05-.93,0-2.15-.23-2.16,1.18s1.2,1.19,2.14,1.21c13.21.28,26.44-.38,39.66.4,7.5.44,15,.05,22.56.08,18,.07,36-.31,54,.48a4.81,4.81,0,0,1,1.85.27c7.06,3,14.63,3.95,22.14,4.93,7.16.93,14.38,1.44,21.59,1.95,8.07.56,16.18.85,24.24.87,22.72,0,45.45.7,68.17-.34,7.3-.34,14.62,0,21.94-.36,6.5-.32,13-.87,19.54-.63a21.65,21.65,0,0,0,3.63-.18c4-.59,8-.28,12-.65,3.61-.33,7.25-.66,10.91-.71,2,0,4.09-.22,6.13-.42,1.05-.1,2.28-.39,2.25-1.91,0-1.22-1.06-1.24-1.86-1.37-4.77-.76-9.62-.36-14.42-.91-4.25-.49-8.55,0-12.85-.44-5.84-.56-11.73-.09-17.62-.5-8.57-.59-17.17.16-25.78-.48s-17.17-.09-25.77-.44c-12.18-.48-24.4-.14-36.6-.57-11.7-.42-23.4.13-35.12-.4-13.83-.62-27.71.23-41.57-.53-2.31-.12-3.52-1.21-3.81-3.1-.83-5.27-1.43-10.58-2-15.88-.56-4.84-1-9.71-1.49-14.56q-.92-8.55-1.89-17.1c-.41-3.52-.74-7-1-10.58-.47-6.12-1.22-12.21-1.84-18.32-.59-5.7-1.18-11.4-1.59-17.13-.56-7.88-1.54-15.73-2.22-23.6-.45-5.12-.41-10.29-1.1-15.37-.34-2.53-.27-5-.5-7.55-.45-5-.57-10-.81-15,0-.84.38-1.46,1.25-1.39,2,.16,3.93-.45,5.9-.5,11.54-.3,23.09-.13,34.64-.33,17.75-.31,35.53-.55,53.31.24,14.08.63,28.2-.37,42.3.51,7.85.5,15.73,0,23.62.38,6.73.35,13.5.5,20.25.73,3.71.13,7.44.2,11.15.5,7.27.59,14.54,1.1,21.8,1.83a46.19,46.19,0,0,1,9.87,1.91,2.64,2.64,0,0,1,2.07,2.19c1.33,5.91,1.91,11.91,2.74,17.88,1,7.31,1.72,14.67,2.42,22,.73,7.77,1.35,15.55,1.92,23.33.46,6.36.91,12.71,1.4,19.07.7,9.08,1,18.18,1.49,27.27.22,4.36.08,8.72.36,13.09a142.78,142.78,0,0,1-.42,22.17c-.13,1.41-.16,3.13-2,4-.47.22-1.66,1.07-1,2.28.45.85.83,1.75,2,1.85s1.78-.79,2.23-1.76a6.55,6.55,0,0,1,3-3.48c12.32-6.16,25-11.51,37.5-17.28a91.79,91.79,0,0,0,15.05-8.22c1.66-1.18,3.89-2.45,2.79-5.18h23.95a15.46,15.46,0,0,1,6,.83c1.84.74,4.45.19,5.7,1.6s.51,4,.75,6a10.44,10.44,0,0,1-5.35,10.33c-3.58,2.12-7.53,2.46-11.41,3.21-1.34.26-3.21.14-2.81,2s2.58,1.17,3.7.86c5.74-1.58,11.47-1.36,17.35-.94,7.71.55,15.4,1.23,23.09,2s15.49,1.53,23.23,2.4c8.05.91,16.11,1.74,24.19,2.39,6.53.52,13,1.23,19.6,1.59,2.84.15,5.7.14,8.53.43a103.73,103.73,0,0,0,19,.05c2.62-.22,5.06-1.41,7.85-.92a30.21,30.21,0,0,0,10.6-.1c15.31-2.78,30.17-7.3,45.2-11.2,5.12-1.32,10-3.48,15.54-3.29,7.81.27,15.65,0,23.47.08,34.46.28,68.91-.83,103.37-.49.4,0,.8,0,1.19,0a1.18,1.18,0,1,0,0-2.36"/></svg>