<?xml version="1.0" encoding="utf-8"?>
<!-- Generator: Adobe Illustrator 25.3.1, SVG Export Plug-In . SVG Version: 6.00 Build 0)  -->
<svg version="1.1" id="Layer_1" xmlns="http://www.w3.org/2000/svg" xmlns:xlink="http://www.w3.org/1999/xlink" x="0px" y="0px"
	 width="120px" height="120px" viewBox="0 0 120 120" style="enable-background:new 0 0 120 120;" xml:space="preserve">
<g>
	<path d="M18.8,75.8c0.4-0.6,1-0.8,1.7-0.8c3.9,0,7.7,0,11.6,0c0.7,0,1.2-0.2,1.6-0.8c3.1-4.1,6.3-8.1,9.5-12.2
		c0.1-0.1,0.2-0.3,0.4-0.5c-0.4,0-0.7,0-0.9,0c-5.6,0-11.2,0-16.8,0c-1.5,0-2.8-0.5-3.6-1.9c-1.2-2-0.4-4.5,1.7-5.4
		c0.5-0.2,0.7-0.5,0.9-0.9c1.3-3.3,2.9-6.3,4.9-9.2c0.4-0.5,0.8-1,1.5-0.7c0.8,0.3,1.1,1.1,0.5,2c-0.9,1.5-1.9,2.9-2.7,4.5
		c-0.6,1.1-1.1,2.2-1.6,3.4c-0.2,0.5-0.1,0.7,0.4,0.6c0.2,0,0.5,0,0.7,0c21.9,0,43.7,0,65.6,0c0.2,0,0.4,0,0.6,0
		c0.7,0.1,0.7-0.2,0.5-0.8c-2.1-4.7-4.8-9-8.4-12.7c-4.7-4.9-10.4-8.2-17.1-9.7c-7.7-1.7-15.2-1.2-22.5,1.7c-4.2,1.7-7.8,4.2-11,7.4
		c-0.6,0.6-1.1,1.2-1.7,1.7c-0.5,0.5-1.1,0.4-1.6,0c-0.5-0.5-0.6-1.1-0.1-1.6c0.8-0.9,1.7-1.8,2.6-2.7c5.2-4.8,11.2-8,18.2-9.2
		c0.6-0.1,0.9-0.3,1.1-1c0.6-3.2,3.4-5.3,6.6-5.3c3.2,0,6,2.3,6.5,5.4c0.1,0.7,0.5,0.8,1,0.9c5.2,1,10,2.9,14.3,6
		c5.5,4,9.7,9.1,12.8,15.1c0.7,1.4,1.4,2.8,1.9,4.3c0.1,0.3,0.3,0.5,0.6,0.6c1.8,0.7,2.7,2.4,2.4,4.2c-0.3,1.8-1.9,3.1-3.8,3.1
		c-3.3,0-6.5,0-9.8,0c-2,0-4,0-6.1,0c1,2.3,0.2,4.1-1.4,5.7c-4.6,5-9.2,10.1-13.7,15.1c-0.8,0.9-1.7,1.4-2.8,1.7
		c-9.3,2.3-18.5,4.6-27.8,6.9c-0.6,0.1-0.8,0.4-0.7,1c0,1.2,0,2.4,0,3.5c0,0.8-0.4,1.3-1.2,1.4c-2.6,0.3-5.2,0.6-7.7,0.9
		c-1.6,0.2-3.3,0.4-4.9,0.6c-0.9,0.1-1.7,0.2-2.2-0.7C18.8,90.2,18.8,83,18.8,75.8z M52.6,76.1c-2.7,0-5.5,0-8.2,0
		c-0.6,0-1.2-0.1-1.5-0.8c-0.3-0.6,0-1,0.3-1.4c2-3,3.9-6,5.9-9c0.4-0.5,0.7-1.1,0.6-1.8c-0.2-0.9-0.7-1.4-1.5-1.6
		c-0.8-0.2-1.5,0-2,0.7c-3.6,4.7-7.2,9.3-10.9,14c-0.3,0.3-0.3,0.7-0.3,1c0,3.5,0,7,0,10.5c0,0.6,0.1,0.8,0.8,0.6
		c9.1-2.3,18.2-4.5,27.3-6.8c0.6-0.1,1.1-0.4,1.5-0.9c3.6-4,7.3-8.1,11-12.1c1.2-1.3,2.3-2.5,3.4-3.8c0.6-0.7,0.7-1.8,0.1-2.5
		c-0.5-0.7-1.5-1-2.4-0.6c-0.4,0.2-0.7,0.5-1,0.8c-4.4,4.3-8.8,8.7-13.1,13c-0.5,0.5-1.1,0.8-1.9,0.8C58,76.1,55.3,76.1,52.6,76.1z
		 M61.4,56.3c-11.9,0-23.7,0-35.6,0c-1,0-1.6,0.4-1.6,1.3c0,0.9,0.5,1.4,1.6,1.4c0.1,0,0.3,0,0.4,0c23.5,0,47.1,0,70.6,0
		c1.3,0,2-0.5,2-1.4c0-0.9-0.7-1.3-2-1.3C84.9,56.3,73.1,56.3,61.4,56.3z M21.2,86.5c0,2.8,0,5.7,0,8.5c0,0.4,0,0.7,0.6,0.6
		c3.3-0.4,6.7-0.8,10-1.2c0.5-0.1,0.7-0.2,0.7-0.7c0-5.2,0-10.5,0-15.7c0-0.6-0.1-0.7-0.7-0.7c-3.3,0-6.5,0-9.8,0
		c-0.7,0-0.8,0.2-0.8,0.8C21.3,81,21.2,83.7,21.2,86.5z M57,73.7c1.2,0,2.2,0,3.2,0c0.4,0,0.7-0.1,1-0.4c3.4-3.4,6.9-6.8,10.3-10.2
		c0.5-0.5,0.4-0.8-0.1-1.2c-0.9-0.7-2-0.6-2.9,0.4c-3.7,3.6-7.3,7.2-10.9,10.9C57.4,73.3,57.2,73.4,57,73.7z M49.8,73.5
		c0,0.1,0.1,0.1,0.1,0.2c1.1,0,2.2,0,3.3,0c0.3,0,0.5-0.2,0.7-0.4c3.5-3.4,6.9-6.9,10.4-10.3c0.5-0.5,0.4-0.7,0-1.1
		c-0.9-0.8-2-0.7-3.1,0.4c-3.1,3.1-6.2,6.1-9.2,9.2C51.2,72.2,50.5,72.8,49.8,73.5z M46.8,72.9c0,0,0.1,0.1,0.1,0.1
		c3.8-3.9,7.5-7.7,11.2-11.5c-2,0-4.2,0-6.4,0c0.5,3,0.5,3-1.2,5.7c-1,1.6-2,3.1-3.1,4.7C47.3,72.2,47,72.5,46.8,72.9z M61.4,27.4
		c1.2,0,2.4,0,3.6,0c0.5,0,0.6-0.1,0.4-0.5c-0.6-1.6-2.3-2.8-4.1-2.8c-1.8,0-3.5,1.2-4.1,2.8c-0.2,0.4-0.1,0.5,0.4,0.5
		C59,27.4,60.2,27.4,61.4,27.4z"/>
</g>
</svg>
