<?xml version="1.0" encoding="utf-8"?>
<!-- Generator: Adobe Illustrator 25.3.1, SVG Export Plug-In . SVG Version: 6.00 Build 0)  -->
<svg version="1.1" id="Layer_1" xmlns="http://www.w3.org/2000/svg" xmlns:xlink="http://www.w3.org/1999/xlink" x="0px" y="0px"
	 width="120px" height="120px" viewBox="0 0 120 120" style="enable-background:new 0 0 120 120;" xml:space="preserve">
<g>
	<path d="M102.3,90c0-1.7-0.7-2.4-2.3-2.4c-1.2,0-2.4,0-3.6,0c0.3-0.9,0.4-1.7,0.4-2.5c0-10.9,0-21.8,0-32.6c0-0.3,0-0.6-0.1-0.9
		c-0.2-0.6-0.6-0.9-1.2-0.9c-0.6,0-1,0.3-1.2,0.9c-0.1,0.4-0.1,0.8-0.1,1.1c0,10.8,0,21.5,0,32.3c0,1.9-0.7,2.6-2.6,2.6
		c-21.1,0-42.3,0-63.4,0c-1.9,0-2.6-0.7-2.6-2.6c0-13.9,0-27.9,0-41.8c0-2,0.6-2.6,2.6-2.6c10.4,0,20.8,0,31.2,0
		c0.7,0,1.2,0,0.8,0.9c-0.1,0.2-0.1,0.5,0,0.7c0.2,0.8-0.2,0.9-0.8,0.9c-9.8,0-19.7,0-29.5,0c-1.4,0-1.8,0.4-1.8,1.8
		c0,8.4,0,16.7,0,25.1c0,1.2,0.4,1.8,1.3,1.8c0.8,0,1.3-0.6,1.3-1.8c0-0.2,0-0.4,0-0.6c0-7.6,0-15.2,0-22.8c0-0.8,0.2-1,1-1
		c6.1,0,12.2,0,18.3,0c0.2,0,0.4,0,0.6,0c0.2,0,0.4,0,0.3,0.3c-0.1,0.7,0,1.5-0.5,2c-0.5,0.6-1.3,0.9-2,1.2
		c-0.4,0.2-0.8-0.1-1.3-0.2c-0.5-0.2-1.1-0.3-1.6-0.5c-1.2-0.3-2.4,0.1-3.1,1.2c-0.5,0.7-0.9,1.5-1.3,2.2c-0.6,1.2-0.4,2.3,0.5,3.3
		c0.5,0.5,1.1,1,1.6,1.5c0.2,0.1,0.4,0.3,0.4,0.5c0,1.2,0.5,2.6-1,3.5c-0.4,0.3-0.8,0.7-1.1,1.1c-0.8,0.9-1,2-0.4,3.1
		c0.4,0.8,0.9,1.6,1.4,2.4c0.7,1,1.8,1.4,3,1.1c0.5-0.1,0.9-0.2,1.3-0.4c1-0.5,1.8-0.3,2.6,0.3c0.1,0.1,0.2,0.1,0.4,0.2
		c0.5,0.2,0.8,0.5,0.8,1.1c0.1,0.7,0.3,1.3,0.4,1.9c0.4,1.2,1.2,2,2.5,2.1c1,0.1,1.9,0.1,2.9,0c1.2-0.1,2-0.8,2.4-2
		c0.2-0.7,0.4-1.4,0.5-2.2c0.1-0.3,0.2-0.6,0.5-0.8c1.1-0.8,2.3-1.4,3.7-0.6c0.3,0.2,0.6,0.2,0.9,0.3c1.2,0.3,2.3-0.1,3-1.1
		c0.5-0.7,0.9-1.5,1.3-2.2c0.6-1.2,0.4-2.4-0.5-3.3c-0.5-0.5-1.1-1-1.6-1.5c-0.2-0.1-0.4-0.3-0.4-0.5c0.1-1.2-0.5-2.6,0.9-3.5
		c0.8-0.5,1.6-1.3,1.8-2.3c0.4-1.7-1.5-4.9-3.2-5.4c-0.8-0.2-1.7-0.1-2.4,0.3c-1.3,0.6-2.3,0.4-3.3-0.4c-0.5-0.3-0.7-0.6-0.8-1.2
		c-0.2-1.5-0.3-1.4,1.2-1.5c0.8,0,1.5,0,2.1,0.6c0.6,0.6,1.5,0.7,2.3,0.5c0.6-0.2,1.1-0.3,1.7-0.5c1.5-0.5,3.2,0.5,3.5,2
		c0.1,0.6,0.3,1.2,0.4,1.8c0.4,1.2,1.2,1.8,2.4,2c0.9,0.1,1.9,0.1,2.8,0c1.3-0.1,2.2-0.9,2.6-2.2c0.2-0.7,0.3-1.4,0.5-2.1
		c0.1-0.3,0.2-0.5,0.4-0.7c1.1-0.7,2.3-1.5,3.7-0.6c0.3,0.2,0.7,0.2,1,0.3c0.8,0.2,1.7,0.1,2.2-0.5c0.7-0.7,1.4-0.6,2.2-0.7
		c0.8-0.1,0.9,0.2,0.9,1c0,11.7,0,23.5,0,35.2c0,0.8-0.3,1-1,1c-14.7,0-29.3,0-44,0c-4.2,0-8.4,0-12.6,0c-1.2,0-1.1,0.2-1.1-1.1
		c0-1.7,0-3.4,0-5.1c0-0.3,0-0.7-0.1-1c-0.2-0.6-0.6-0.9-1.2-0.9c-0.6,0-1,0.3-1.2,0.9c-0.1,0.3-0.1,0.6-0.1,1c0,2.3,0,4.5,0,6.8
		c0,1.7,0.3,2,2,2c19.9,0,39.8,0,59.7,0c1.7,0,2-0.3,2-2c0-12.7,0-25.4,0-38.1c0-0.2,0-0.4,0-0.6c0-1-0.5-1.4-1.5-1.5
		c-0.5,0-1,0-1.5,0c-0.2,0-0.5,0-0.4-0.3c0.2-0.7,0-1.3-0.1-2c0.1,0,0.2-0.1,0.3-0.1c1.2,0,2.3,0,3.5,0c1.4,0,2.1,0.8,2.2,2.1
		c0,1.2,0,2.4,0,3.6c0,1,0.5,1.6,1.3,1.6c0.8,0,1.2-0.5,1.2-1.5c0-1.1,0-2.2,0-3.3c0-3.1-1.9-5-5.1-5c-1.8,0-3.6,0-5.4,0
		c-0.2,0-0.5,0.1-0.7-0.2c-0.3-0.6,0.1-2.5,0.6-3c0.5-0.4,1-0.9,1.4-1.4c0.9-1,1.1-2.1,0.5-3.3c-0.4-0.7-0.8-1.5-1.2-2.1
		c-0.7-1.1-1.9-1.6-3.2-1.2c-0.7,0.2-1.4,0.4-2,0.6c-0.3,0.1-0.6,0.1-0.9,0c-1.3-0.6-2.3-1.3-2.3-2.9c0-0.1,0-0.1,0-0.2
		c-0.5-2.2-1.4-2.9-3.6-2.9c-3.4,0-4,0.5-4.7,3.8c-0.3,1.5-2,2.5-3.5,2c-1-0.3-2-0.8-3-0.5c-1.7,0.4-3.6,3.8-3.2,5.5
		c0.2,0.9,0.9,1.6,1.6,2.1c1,0.7,1.3,1.6,1.2,2.7c0,0.8-0.2,1-1,1c-11.3,0-22.5,0-33.8,0c-3.4,0-5.2,1.8-5.2,5.2
		c0,13.9,0,27.8,0,41.6c0,0.7,0,1.5,0.3,2.2c0.1,0.4,0.1,0.5-0.4,0.5c-0.9,0-1.8,0-2.7,0c-1.2-0.1-2.1,0.3-2.7,1.3c0,1.7,0,3.3,0,5
		c0,0.1,0.1,0.1,0.1,0.2c0.9,3,2.8,4.4,5.9,4.4c18.9,0,37.9,0,56.8,0c0.3,0,0.6,0,0.9-0.1c0.6-0.2,0.9-0.6,0.9-1.2
		c0-0.6-0.3-1-0.9-1.1c-0.3-0.1-0.7-0.1-1.1-0.1c-18.7,0-37.5,0-56.2,0c-0.4,0-0.8,0-1.2,0c-1.3-0.1-2.4-0.9-2.7-2.2
		c-0.2-0.9-0.1-1.8-0.1-2.7c0-0.6,0.1-0.8,0.7-0.8c9.8,0,19.7,0,29.5,0c0.5,0,0.7,0.1,0.8,0.7c0.1,1.9,1.3,3.2,3.3,3.2
		c3.7,0.1,7.4,0.1,11.2,0c1.9,0,3.2-1.2,3.3-3.1c0-0.8,0.4-0.9,1-0.9c9.3,0,18.6,0,27.8,0c0.7,0,1.6-0.3,2,0.1
		c0.4,0.4,0.1,1.3,0.1,2c0,2.4-1.1,3.6-3.6,3.6c-3.1,0-6.3,0-9.4,0c-1,0-1.5,0.4-1.6,1.2c0,0.8,0.5,1.3,1.5,1.3c3.3,0,6.6,0,9.8,0
		c2.9,0,5.1-1.8,5.6-4.6C102.4,92.6,102.3,91.3,102.3,90z M60.3,51.2c0.8,0.5,1.7,0.6,2.5,0.2c0.1,0,0.3-0.1,0.4-0.1
		c2.6-0.8,1.8-1,3.2,1.2c0.3,0.4,0.3,0.7-0.1,1c-0.4,0.4-0.8,0.8-1.3,1.2c-0.8,0.7-1.3,1.5-1.2,2.6c0,0.2,0,0.3,0,0.5
		c-0.3,2,0.4,3.6,2.1,4.9c1.2,0.8,0.9,0.7,0.3,1.8c-0.2,0.3-0.4,0.6-0.5,0.9c-0.1,0.2-0.2,0.4-0.6,0.3c-0.6-0.2-1.3-0.4-2-0.6
		c-1-0.4-1.9-0.3-2.8,0.3c-0.2,0.1-0.4,0.2-0.6,0.3c-1.8,0.7-2.7,2-2.9,4c-0.2,1.4,0,1.2-1.6,1.3c-1.6,0-1.6,0-1.9-1.5
		c-0.4-2.3-2.5-4.2-4.8-4.6c-0.5-0.1-0.9,0.1-1.4,0.2c-0.6,0.2-1.2,0.4-1.7,0.6c-0.5,0.2-0.8,0-1.1-0.5c-1-1.8-1.1-1.8,0.6-3.2
		c1-0.8,1.5-1.8,1.4-3c0-0.5,0-1,0-1.5c0-1.2-0.4-2.1-1.3-2.8c0,0-0.1-0.1-0.1-0.1C43,53,43,53,44.4,51.1c0.2-0.3,0.4-0.4,0.7-0.2
		c0.6,0.2,1.3,0.4,2,0.6c0.9,0.3,1.8,0.2,2.6-0.2c0.1-0.1,0.2-0.1,0.3-0.2c2-0.8,3.3-2.2,3.4-4.5c0-0.8,0.4-1,1.2-1
		c2.2,0.1,1.8-0.4,2.2,1.8c0.3,1.5,1,2.5,2.3,3.2C59.5,50.7,59.9,51,60.3,51.2z M63.1,41.5c0.5-0.5,1-0.9,1.5-1.4
		c0.7-0.6,1-1.3,1-2.2c0-0.2,0-0.4,0-0.6c0.3-2.1-0.3-3.9-2.2-5c-0.7-0.5-0.8-1-0.3-1.7c0.3-0.3,0.4-0.7,0.6-1.1
		c0.1-0.2,0.2-0.4,0.6-0.3c0.6,0.2,1.3,0.4,2,0.6c1,0.4,1.9,0.3,2.8-0.2c0.2-0.1,0.4-0.3,0.6-0.4c1.8-0.7,2.7-2,2.9-3.9
		c0.2-1.5,0-1.3,1.6-1.3c1.6,0,1.6,0,1.9,1.5c0.2,0.9,0.2,1.9,1,2.5c1.1,0.8,2.3,1.7,3.8,2c0.8,0.2,1.5-0.2,2.1-0.5
		c1.6-0.5,1.6-0.5,2.5,0.9c0.5,0.8,0.5,1.3-0.3,1.8c-0.3,0.2-0.6,0.5-0.9,0.8c-0.2,0.2-0.4,0.4-0.6,0.6c-1.2,1.5-0.9,5.2,0.5,6.4
		c0.1,0.1,0.2,0.1,0.2,0.2c2,1.8,1.7,1,0.4,3.4c-0.2,0.3-0.4,0.4-0.7,0.3c-0.6-0.2-1.3-0.4-2-0.6c-0.9-0.3-1.7-0.2-2.5,0.2
		c-0.1,0.1-0.2,0.1-0.4,0.2c-2,0.8-3.3,2.2-3.4,4.5c0,0.8-0.4,1-1.2,1c-2,0-2,0-2.3-1.9c-0.2-1.4-0.8-2.4-2.1-2.9
		c-0.4-0.2-0.8-0.4-1.1-0.7c-1-0.7-2-0.8-3.1-0.3c-0.1,0-0.2,0.1-0.2,0.1c-2,0.7-2.3,0.5-3.1-1.5C62.7,41.9,62.9,41.7,63.1,41.5z
		 M65.7,91.6c-0.2,0-0.3,0-0.5,0c-3.5,0-6.9,0-10.4,0c-0.3,0-0.7,0.1-0.9-0.2c-0.3-0.3-0.2-0.6-0.2-0.9c0.1-0.4,0.4-0.2,0.7-0.2
		c1.9,0,3.7,0,5.6,0s3.7,0,5.6,0c0.3,0,0.7-0.2,0.7,0.4C66.3,91.1,66.3,91.5,65.7,91.6z"/>
	<path d="M48.2,58.3c0,3.7,3,6.7,6.8,6.7c3.7,0,6.8-3.1,6.8-6.8c0-3.7-3.1-6.8-6.8-6.7C51.2,51.5,48.2,54.5,48.2,58.3z M59.2,58.3
		c0,2.4-1.9,4.2-4.2,4.2c-2.4,0-4.3-1.9-4.3-4.3c0-2.3,1.9-4.2,4.3-4.2C57.4,54,59.2,55.9,59.2,58.3z"/>
	<path d="M74.4,43.6c3.8,0,6.8-3,6.8-6.7c0-3.7-3-6.8-6.7-6.8c-3.7,0-6.8,3-6.8,6.7C67.6,40.5,70.7,43.5,74.4,43.6z M74.4,32.4
		c2.4,0,4.4,2,4.4,4.4c0,2.4-2,4.4-4.4,4.4s-4.4-2-4.4-4.4C70,34.4,72,32.4,74.4,32.4z"/>
</g>
</svg>
