<?xml version="1.0" encoding="utf-8"?>
<!-- Generator: Adobe Illustrator 25.3.1, SVG Export Plug-In . SVG Version: 6.00 Build 0)  -->
<svg version="1.1" id="Layer_1" xmlns="http://www.w3.org/2000/svg" xmlns:xlink="http://www.w3.org/1999/xlink" x="0px" y="0px"
	 width="573.7px" height="100.1px" viewBox="0 0 573.7 100.1" style="enable-background:new 0 0 573.7 100.1;" xml:space="preserve"
	>
<style type="text/css">
	.st0{fill:#FFFFFF;}
</style>
<g>
	<g>
		<g>
			<g>
				<path class="st0" d="M74.7,38.8c-9.5,0-22.5-2.9-38.8-8.7c-16.8-6-31.2-13-31.3-13c-1.2-0.6-1.7-2.1-1.1-3.3
					c0.6-1.2,2.1-1.7,3.3-1.1c0.1,0.1,14.3,7,30.8,12.8c21.5,7.6,37.2,10.1,45.4,7.2c20.7-7.4,41.5-23.6,41.7-23.7
					c1.1-0.8,2.6-0.7,3.5,0.4c0.8,1.1,0.7,2.6-0.4,3.5c-0.9,0.7-21.6,16.8-43.1,24.5C81.9,38.4,78.6,38.8,74.7,38.8z"/>
			</g>
			<g>
				<path class="st0" d="M74.8,56.5c-8.7,0-20.6-2.9-35.4-8.7c-15.3-6-28.4-13-28.5-13.1c-1.2-0.6-1.7-2.1-1-3.3
					c0.6-1.2,2.1-1.7,3.3-1c0.1,0.1,13,7,28,12.8c19.4,7.6,33.6,10.1,40.9,7.2c18.8-7.4,37.7-23.5,37.8-23.7c1-0.9,2.6-0.8,3.5,0.3
					c0.9,1,0.8,2.6-0.3,3.5c-0.8,0.7-19.7,16.8-39.3,24.5C81.5,56,78.4,56.5,74.8,56.5z"/>
			</g>
			<g>
				<path class="st0" d="M76.3,91.3c-8.5,0-19.8-2.3-33.8-6.9c-15.2-5-28.2-11.1-28.3-11.2c-1.2-0.6-1.8-2-1.2-3.3
					c0.6-1.2,2-1.8,3.3-1.2c0.1,0.1,12.9,6,27.8,11C63.4,86.1,77.6,87.9,85,85c18.9-7.4,45.5-25.7,45.8-25.9
					c1.1-0.8,2.7-0.5,3.4,0.6s0.5,2.7-0.6,3.4C132.4,64,106.2,82,86.8,89.6C83.9,90.7,80.4,91.3,76.3,91.3z"/>
			</g>
			<g>
				<path class="st0" d="M75.5,74.5c-9.3,0-22.6-3.2-39.6-9.7c-17.2-6.5-32.3-14-32.4-14.1c-1.2-0.6-1.7-2.1-1.1-3.3
					c0.6-1.2,2.1-1.7,3.3-1.1c16.3,8.2,61.8,28.1,76.9,22.2c18.9-7.4,50.4-32.1,50.8-32.3c1.1-0.8,2.6-0.7,3.5,0.4
					c0.8,1.1,0.7,2.6-0.4,3.5c-1.3,1-32.5,25.3-52,33C82,74,79,74.5,75.5,74.5z"/>
			</g>
		</g>
	</g>
	<g>
		<g>
			<circle class="st0" cx="69.6" cy="12.5" r="11.3"/>
		</g>
	</g>
	<g>
		<g>
			<path class="st0" d="M133.7,98.4H5.6c-1.4,0-2.5-1.1-2.5-2.5s1.1-2.5,2.5-2.5h128.2c1.4,0,2.5,1.1,2.5,2.5S135.1,98.4,133.7,98.4
				z"/>
		</g>
	</g>
	<g>
		<path class="st0" d="M186.3,30.6c0,9,0.2,12.9,1.3,14c1,1,2.6,1.4,7.3,1.4c3.2,0,5.9-0.1,7.4-1.8c0.8-1,1.4-2.5,1.6-3.7
			c0.1-0.5,0.2-0.8,0.5-0.8c0.3,0,0.4,0.2,0.4,0.9c0,0.7-0.4,4.3-0.9,6.1c-0.4,1.4-0.6,1.6-3.8,1.6c-5.2,0-10.4-0.4-16.3-0.4
			c-1.9,0-3.7,0.2-6,0.2c-0.7,0-1-0.1-1-0.5c0-0.2,0.1-0.4,0.5-0.4c0.5,0,1.3-0.1,1.8-0.2c1.2-0.2,1.5-1.6,1.8-3.4
			c0.3-2.6,0.3-7.4,0.3-13.2V19.7c0-9.5,0-11.2-0.1-13.2c-0.1-2.1-0.6-3-2.6-3.5c-0.5-0.1-1.5-0.2-2.1-0.2c-0.2,0-0.5-0.1-0.5-0.4
			c0-0.4,0.3-0.5,1-0.5c2.7,0,6.6,0.2,6.9,0.2c0.3,0,4.8-0.2,6.6-0.2c0.7,0,1,0.1,1,0.5c0,0.2-0.2,0.4-0.5,0.4c-0.4,0-1.3,0.1-2,0.2
			c-1.8,0.3-2.3,1.3-2.4,3.5c-0.1,2-0.1,3.7-0.1,13.2V30.6z"/>
		<path class="st0" d="M222.9,30.2c-0.3,0-0.5,0.2-0.6,0.5l-3.7,10.8c-0.5,1.5-0.9,3-0.9,4.1c0,1.2,1.2,1.8,2.2,1.8
			c0.2,0,0.4,0,0.5,0c0.6,0,0.8,0.1,0.8,0.4c0,0.4-0.5,0.5-1.1,0.5c-1.5,0-3.9-0.2-4.6-0.2c-0.7,0-4,0.2-6.9,0.2
			c-0.8,0-1.2-0.1-1.2-0.5c0-0.2,0.3-0.4,0.9-0.4c0.4,0,1-0.1,1.5-0.1c2.8-0.4,4-2.7,5.1-5.7l13.8-37.9c0.7-2,1-2.4,1.3-2.4
			c0.4,0,0.6,0.3,1.3,2.2c0.9,2.3,10.5,27.5,14.2,36.8c2.2,5.4,4,6.4,5.2,6.8c0.9,0.3,1.9,0.4,2.4,0.4c0.4,0,0.7,0.1,0.7,0.4
			c0,0.4-0.5,0.5-1.2,0.5c-0.9,0-5.4,0-9.6-0.1c-1.2-0.1-1.8-0.1-1.8-0.4c0-0.2,0.2-0.4,0.4-0.4c0.4-0.1,0.7-0.7,0.4-1.6l-5.7-15
			c-0.1-0.2-0.2-0.4-0.5-0.4H222.9z M235.3,28c0.3,0,0.3-0.2,0.2-0.4l-5.8-16.5c-0.3-0.9-0.6-0.9-0.9,0l-5.4,16.5
			c-0.1,0.3,0,0.4,0.2,0.4H235.3z"/>
		<path class="st0" d="M260.2,30.2c0-22,0.1-14.1,0.1-25.9c0-2.4,0.2-3.1,0.7-3.1c0.5,0,1.5,1.3,2.1,2c0.9,1,10,10.9,19.4,20.9
			c6,6.5,12.7,13.9,14.6,15.9l-0.7-31c-0.1-4-0.5-5.3-2.4-5.8c-1.1-0.2-2.1-0.3-2.6-0.3c-0.7,0-0.9-0.2-0.9-0.4
			c0-0.4,0.5-0.4,1.2-0.4c2.7,0,5.7,0.2,6.3,0.2s2.7-0.2,5.2-0.2c0.7,0,1.1,0.1,1.1,0.4c0,0.2-0.2,0.4-0.7,0.4
			c-0.5,0.1-0.9,0.1-1.6,0.2c-1.7,0.4-2.1,1.3-2.1,5.5l-0.1,35.6c0,4-0.1,4.3-0.5,4.3c-0.5,0-1.2-0.7-4.5-3.9
			c-0.7-0.6-9.5-9.6-15.9-16.5c-7.1-7.6-14-15.3-15.9-17.5l0.8,29.2c0.1,5,0.7,6.6,2.4,7.1c1.2,0.3,2.5,0.4,3.1,0.4
			c0.3,0,0.5,0.1,0.5,0.4c0,0.4-0.4,0.5-1.1,0.5c-3.5,0-5.9-0.2-6.5-0.2s-3.1,0.2-5.9,0.2c-0.6,0-1-0.1-1-0.5c0-0.2,0.2-0.4,0.5-0.4
			c0.5,0,1.6-0.1,2.5-0.4c1.5-0.4,1.8-2.2,1.8-7.7V30.2z"/>
		<path class="st0" d="M320,18.9c0-9.5,0-11.2-0.1-13.2c-0.1-2.1-0.4-3-2.4-3.5c-0.5-0.1-1.5-0.2-2.1-0.2c-0.4,0-0.7-0.1-0.7-0.4
			c0-0.4,0.3-0.5,1-0.5c2.7,0,6.6,0.2,6.9,0.2c0.7,0,4.6-0.2,8.2-0.2c6,0,17.2-0.5,24.5,7c3,3.2,5.9,8.2,5.9,15.5
			c0,7.7-3.2,13.6-6.6,17.2c-2.6,2.7-8.1,7-18.5,7c-2.6,0-5.9-0.2-8.5-0.4c-2.7-0.2-4.8-0.4-5.1-0.4c-0.1,0-1.2,0-2.4,0.1
			c-1.2,0-2.6,0.1-3.5,0.1c-0.7,0-1-0.1-1-0.5c0-0.2,0.1-0.4,0.6-0.4c0.7-0.1,1.2-0.1,1.7-0.2c1.2-0.2,1.5-1.6,1.8-3.4
			c0.3-2.6,0.3-7.4,0.3-13.2V18.9z M325.1,25.5c0,6.5,0.1,12.1,0.1,13.2c0.1,1.5,0.2,4,0.7,4.6c0.8,1.2,3.2,2.4,10.4,2.4
			c5.7,0,10.9-2.1,14.5-5.7c3.2-3.1,4.9-9,4.9-14.6c0-7.7-3.4-12.8-5.9-15.4c-5.7-6-12.7-6.9-19.9-6.9c-1.2,0-3.5,0.2-4,0.4
			c-0.5,0.2-0.7,0.5-0.7,1.2c-0.1,2.1-0.1,8.3-0.1,13V25.5z"/>
		<path class="st0" d="M421.3,40.3c0.2,2.2,0.7,5.6,3.3,6.5c1.8,0.5,3.2,0.5,3.8,0.5c0.3,0,0.7,0.1,0.7,0.4c0,0.4-0.2,0.5-0.9,0.5
			c-1.3,0-8.3-0.2-10.6-0.4c-1.4-0.1-1.7-0.3-1.7-0.6c0-0.2,0.1-0.3,0.4-0.4c0.4-0.2,0.4-1.1,0.2-2.2l-2.9-31.8l-15.1,32.1
			c-1.3,2.7-1.5,3.2-2,3.2c-0.4,0-0.7-0.6-1.9-2.8c-1.6-3-6.8-13.5-7.1-14.2c-0.5-1.1-7.6-16.2-8.2-17.8L376.7,42
			c-0.1,1-0.1,1.8-0.1,2.9c0,1.5,0.7,2,1.6,2.2c1,0.2,1.8,0.2,2.2,0.2s0.6,0.1,0.6,0.3c0,0.4-0.3,0.5-0.9,0.5
			c-2.3,0-5.4-0.2-5.9-0.2c-0.5,0-3.5,0.2-5.1,0.2c-0.6,0-1-0.1-1-0.5c0-0.2,0.3-0.4,0.6-0.4c0.5,0,0.9,0,1.8-0.2
			c2-0.4,2.1-2.6,2.4-5.1l4.4-39.7c0.1-0.7,0.3-1.2,0.7-1.2s0.6,0.2,0.9,0.9l18.7,38.4l17.9-38.3c0.2-0.5,0.5-1,0.9-1
			s0.6,0.5,0.7,1.6L421.3,40.3z"/>
		<path class="st0" d="M446.4,30.2c-0.3,0-0.5,0.2-0.6,0.5l-3.7,10.8c-0.5,1.5-0.9,3-0.9,4.1c0,1.2,1.2,1.8,2.2,1.8
			c0.2,0,0.4,0,0.5,0c0.6,0,0.8,0.1,0.8,0.4c0,0.4-0.5,0.5-1.1,0.5c-1.5,0-3.9-0.2-4.6-0.2s-4,0.2-6.9,0.2c-0.8,0-1.2-0.1-1.2-0.5
			c0-0.2,0.3-0.4,0.9-0.4c0.4,0,1-0.1,1.5-0.1c2.8-0.4,4-2.7,5.1-5.7l13.8-37.9c0.7-2,1-2.4,1.3-2.4s0.6,0.3,1.3,2.2
			c0.9,2.3,10.5,27.5,14.2,36.8c2.2,5.4,4,6.4,5.2,6.8c0.9,0.3,1.9,0.4,2.4,0.4c0.4,0,0.7,0.1,0.7,0.4c0,0.4-0.5,0.5-1.2,0.5
			c-0.9,0-5.4,0-9.6-0.1c-1.2-0.1-1.8-0.1-1.8-0.4c0-0.2,0.2-0.4,0.4-0.4c0.4-0.1,0.7-0.7,0.4-1.6l-5.7-15c-0.1-0.2-0.2-0.4-0.5-0.4
			H446.4z M458.7,28c0.3,0,0.3-0.2,0.2-0.4l-5.8-16.5c-0.3-0.9-0.6-0.9-0.9,0l-5.4,16.5c-0.1,0.3,0,0.4,0.2,0.4H458.7z"/>
		<path class="st0" d="M485.3,19.7c0-9.5,0-11.2-0.1-13.2c-0.1-2.1-0.6-3-2.6-3.5c-0.5-0.1-1.5-0.2-2.1-0.2c-0.2,0-0.5-0.1-0.5-0.4
			c0-0.4,0.3-0.5,1-0.5c2.7,0,6.6,0.2,6.9,0.2c0.7,0,5.3-0.2,7.2-0.2c3.8,0,7.9,0.4,11.2,2.7c1.5,1.1,4.2,4.1,4.2,8.3
			c0,4.5-1.9,9-7.4,14.1c5,6.4,9.2,11.8,12.7,15.6c3.3,3.5,5.9,4.1,7.4,4.4c1.2,0.2,2,0.2,2.4,0.2c0.3,0,0.5,0.2,0.5,0.4
			c0,0.4-0.4,0.5-1.5,0.5h-4.3c-3.4,0-4.9-0.3-6.5-1.2c-2.6-1.4-4.8-4.4-8.2-9c-2.6-3.4-5.4-7.4-6.6-9c-0.2-0.2-0.4-0.4-0.8-0.4
			l-7.5-0.1c-0.3,0-0.4,0.2-0.4,0.5v1.5c0,5.9,0,10.7,0.3,13.2c0.2,1.8,0.5,3.1,2.4,3.4c0.9,0.1,2.2,0.2,2.7,0.2
			c0.4,0,0.5,0.2,0.5,0.4c0,0.3-0.3,0.5-1,0.5c-3.4,0-7.2-0.2-7.5-0.2c-0.1,0-3.9,0.2-5.7,0.2c-0.7,0-1-0.1-1-0.5
			c0-0.2,0.1-0.4,0.5-0.4c0.5,0,1.3-0.1,1.8-0.2c1.2-0.2,1.5-1.6,1.8-3.4c0.3-2.6,0.3-7.4,0.3-13.2V19.7z M490.2,25
			c0,0.3,0.1,0.5,0.4,0.7c0.9,0.5,3.7,1,6.4,1c1.5,0,3.2-0.2,4.6-1.2c2.1-1.5,3.7-4.8,3.7-9.4c0-7.6-4-12.2-10.6-12.2
			c-1.8,0-3.5,0.2-4.1,0.4c-0.3,0.1-0.5,0.4-0.5,0.7V25z"/>
		<path class="st0" d="M537.2,23.6c1.9-1.8,10.2-10.6,13.9-14.4c3.7-3.8,3.9-4.4,3.9-5.1c0-0.5-0.3-1-0.8-1.2
			c-0.4-0.2-0.5-0.3-0.5-0.5c0-0.2,0.4-0.4,0.9-0.4c1.8,0,1.6,0.2,3.7,0.2c1.9,0,5.5-0.2,6.5-0.2c0.9,0,1,0.2,1,0.4
			c0,0.2-0.1,0.4-0.7,0.4c-1.2,0.1-2.3,0.4-3.1,0.7c-1.5,0.6-2.7,1.3-6.3,4.9c-5.4,5.2-12.3,12.1-13.9,13.8
			c3.8,4.2,14.9,15.5,17.8,18.2c5,4.7,7.1,6,10.1,6.6c0.5,0.1,1.2,0.2,1.8,0.2c0.5,0,0.9,0.1,0.9,0.4c0,0.3-0.2,0.4-0.9,0.4h-4.5
			c-5.3,0-6.7-0.7-9.6-2.9c-3.7-2.9-14.6-14.6-20-21v6.3c0,5.9,0,10.7,0.3,13.2c0.2,1.8,0.5,3.1,2.4,3.4c0.9,0.1,2.1,0.2,2.4,0.2
			c0.5,0,0.7,0.2,0.7,0.4c0,0.3-0.2,0.4-0.9,0.4c-3.4,0-7.2-0.2-7.5-0.2c-0.3,0-3.9,0.2-5.7,0.2c-0.7,0-1-0.1-1-0.4
			c0-0.2,0.1-0.4,0.7-0.4c0.4,0,1-0.1,1.6-0.2c1.2-0.2,1.6-1.6,1.8-3.4c0.3-2.6,0.3-7.4,0.3-13.2V19.7c0-9.5,0-11.2-0.1-13.2
			c-0.1-2.1-0.7-3.1-2.1-3.4c-0.7-0.2-1.8-0.2-2.2-0.2c-0.5,0-0.7-0.1-0.7-0.4c0-0.4,0.3-0.5,1-0.5c2,0,6.1,0.2,6.4,0.2
			c0.3,0,4.1-0.2,6-0.2c0.7,0,1,0.1,1,0.4c0,0.2-0.1,0.4-0.7,0.4c-0.7,0.1-0.7,0.1-1.3,0.1c-1.6,0.2-2.1,1.4-2.3,3.5
			c-0.1,2-0.1,3.7-0.1,13.2V23.6z"/>
	</g>
	<g>
		<path class="st0" d="M179.5,79.5c0-6.3,0-7.4-0.1-8.7c-0.1-1.4-0.4-2-1.7-2.3c-0.3-0.1-0.8-0.1-1.2-0.1c-0.3,0-0.5-0.1-0.5-0.2
			c0-0.2,0.2-0.3,0.6-0.3c0.9,0,2,0,4.6,0.1c0.3,0,8.3,0,9.3,0c0.9,0,1.6-0.1,1.9-0.2c0.2-0.1,0.3-0.2,0.4-0.2
			c0.1,0,0.2,0.2,0.2,0.4c0,0.3-0.2,0.8-0.3,1.9c0,0.6-0.1,1.4-0.2,2.4c0,0.4-0.2,0.7-0.3,0.7c-0.2,0-0.3-0.2-0.3-0.5
			c0-0.5-0.1-1-0.2-1.3c-0.3-0.9-1.1-1.3-2.9-1.5c-0.7-0.1-5.1-0.1-5.5-0.1c-0.2,0-0.2,0.1-0.2,0.4v11.2c0,0.3,0,0.4,0.2,0.4
			c0.5,0,5.5,0,6.4-0.1c1.1-0.1,1.6-0.2,2-0.7c0.2-0.2,0.3-0.4,0.5-0.4c0.1,0,0.2,0.1,0.2,0.3s-0.2,0.9-0.3,2.3
			c-0.1,1.3-0.1,2.2-0.2,2.8c0,0.4-0.1,0.6-0.3,0.6c-0.2,0-0.3-0.3-0.3-0.6c0-0.4,0-0.8-0.2-1.1c-0.2-0.6-0.6-1.2-2.1-1.3
			c-1.1-0.1-5.1-0.2-5.8-0.2c-0.2,0-0.3,0.1-0.3,0.3v3.6c0,1.4,0,6.1,0,6.9c0.1,1.7,0.3,2.5,1.3,3c0.7,0.3,1.8,0.4,3.4,0.4
			c1.2,0,2.5,0,3.6-0.4c1.3-0.4,1.7-1.3,2.1-3c0.1-0.4,0.2-0.6,0.4-0.6c0.2,0,0.2,0.3,0.2,0.6c0,0.3-0.3,3.1-0.5,3.9
			c-0.3,1.1-0.6,1.1-2.2,1.1c-3,0-4.3-0.1-5.9-0.1c-1.6,0-3.5-0.1-5.1-0.1c-1,0-1.9,0.2-3,0.1c-0.4,0-0.6-0.1-0.6-0.3
			c0-0.1,0.2-0.2,0.4-0.2c0.4,0,0.6,0,0.9-0.1c0.8-0.2,1.4-0.8,1.5-3.8c0-1.6,0.1-3.6,0.1-7.2V79.5z"/>
		<path class="st0" d="M203.3,79.5c0-6.3,0-7.4-0.1-8.7c-0.1-1.4-0.3-2-1.6-2.3c-0.3-0.1-1-0.1-1.4-0.1c-0.3,0-0.4-0.1-0.4-0.2
			c0-0.2,0.2-0.3,0.6-0.3c1.8,0,4.4,0.1,4.6,0.1c0.5,0,3-0.1,5.5-0.1c4,0,11.4-0.4,16.2,4.6c2,2.1,3.9,5.5,3.9,10.3
			c0,5.1-2.1,9-4.4,11.4c-1.7,1.8-5.4,4.7-12.3,4.7c-1.7,0-3.9-0.1-5.6-0.2c-1.8-0.1-3.2-0.2-3.4-0.2c-0.1,0-0.8,0-1.6,0
			c-0.8,0-1.7,0.1-2.3,0.1c-0.4,0-0.6-0.1-0.6-0.3c0-0.1,0.1-0.2,0.4-0.2c0.4,0,0.8-0.1,1.1-0.2c0.8-0.2,1-1.1,1.2-2.2
			c0.2-1.7,0.2-4.9,0.2-8.8V79.5z M206.7,83.9c0,4.3,0,8,0.1,8.8c0,1,0.1,2.6,0.4,3.1c0.5,0.8,2.1,1.6,6.9,1.6
			c3.8,0,7.2-1.4,9.6-3.8c2.1-2.1,3.2-5.9,3.2-9.7c0-5.1-2.2-8.5-3.9-10.2c-3.8-4-8.4-4.6-13.2-4.6c-0.8,0-2.3,0.1-2.6,0.3
			c-0.4,0.2-0.5,0.4-0.5,0.8c0,1.4,0,5.5,0,8.6V83.9z"/>
		<path class="st0" d="M241.9,85.1c0,5.8,1.3,8.3,3,10c2,1.9,3.8,2.2,6.1,2.2c2.5,0,4.9-1.2,6.4-2.9c1.9-2.3,2.3-5.7,2.3-9.9v-5.1
			c0-6.3,0-7.4-0.1-8.7c-0.1-1.4-0.4-2-1.7-2.3c-0.3-0.1-1-0.1-1.4-0.1c-0.2,0-0.3-0.1-0.3-0.2c0-0.2,0.2-0.3,0.6-0.3
			c1.8,0,4,0.1,4.3,0.1c0.3,0,2.2-0.1,3.4-0.1c0.4,0,0.6,0.1,0.6,0.3c0,0.2-0.2,0.2-0.3,0.2c-0.3,0-0.5,0-1,0.1
			c-1.1,0.2-1.4,0.9-1.5,2.3c-0.1,1.3-0.1,2.4-0.1,8.7v4.3c0,4.4-0.5,9.2-3.7,12.1c-2.9,2.6-5.9,3-8.3,3c-1.4,0-5.5-0.2-8.3-2.9
			c-2-1.9-3.5-4.7-3.5-10.6v-5.9c0-6.3,0-7.4-0.1-8.7c-0.1-1.4-0.4-2-1.7-2.3c-0.3-0.1-1-0.1-1.4-0.1c-0.2,0-0.3-0.1-0.3-0.2
			c0-0.2,0.2-0.3,0.6-0.3c1.8,0,4.3,0.1,4.7,0.1c0.4,0,2.8-0.1,4-0.1c0.4,0,0.6,0.1,0.6,0.3c0,0.2-0.2,0.2-0.3,0.2
			c-0.3,0-0.5,0-1,0.1c-1.1,0.2-1.4,0.9-1.5,2.3c-0.1,1.3-0.1,2.4-0.1,8.7V85.1z"/>
		<path class="st0" d="M274.6,94.5c-3.9-3.5-4.9-8.1-4.9-12c0-2.7,0.9-7.4,4.5-11c2.4-2.4,6.1-4.3,12.3-4.3c1.6,0,3.9,0.1,5.9,0.5
			c1.5,0.3,2.8,0.4,4.3,0.6c0.3,0,0.4,0.2,0.4,0.4c0,0.3-0.1,0.8-0.2,2.3c-0.1,1.3-0.1,3.6-0.1,4.2s-0.1,0.8-0.4,0.8
			c-0.3,0-0.3-0.3-0.3-0.8c0-1.6-0.6-3.2-1.7-4.1c-1.4-1.2-4.5-2.3-8.1-2.3c-5.4,0-7.9,1.6-9.3,3c-3,2.8-3.6,6.4-3.6,10.6
			c0,7.7,5.9,14.8,14.6,14.8c3,0,5.4-0.4,7-2c0.8-0.9,1.4-2.7,1.5-3.4c0.1-0.4,0.2-0.6,0.4-0.6c0.2,0,0.3,0.3,0.3,0.6
			c0,0.3-0.5,3.8-0.9,5.2c-0.2,0.8-0.3,0.8-1.1,1.2c-1.6,0.6-4.7,0.9-7.3,0.9C281.9,98.9,277.8,97.4,274.6,94.5z"/>
		<path class="st0" d="M309.6,86.4c-0.2,0-0.3,0.1-0.4,0.3l-2.4,7.2c-0.4,1-0.6,2-0.6,2.7c0,0.8,0.8,1.2,1.5,1.2c0.1,0,0.2,0,0.4,0
			c0.4,0,0.5,0.1,0.5,0.2c0,0.2-0.4,0.3-0.7,0.3c-1,0-2.6-0.1-3-0.1s-2.7,0.1-4.6,0.1c-0.5,0-0.8-0.1-0.8-0.3c0-0.2,0.2-0.2,0.6-0.2
			c0.3,0,0.6,0,1-0.1c1.9-0.2,2.7-1.8,3.4-3.8l9.2-25.1c0.5-1.3,0.6-1.6,0.9-1.6c0.2,0,0.4,0.2,0.9,1.5c0.6,1.5,7,18.2,9.4,24.4
			c1.5,3.6,2.6,4.2,3.5,4.5c0.6,0.2,1.3,0.2,1.6,0.2c0.2,0,0.4,0,0.4,0.2c0,0.2-0.4,0.3-0.8,0.3c-0.6,0-3.6,0-6.4-0.1
			c-0.8,0-1.2,0-1.2-0.3c0-0.2,0.1-0.2,0.3-0.3c0.2-0.1,0.5-0.4,0.2-1.1l-3.8-10c-0.1-0.2-0.2-0.2-0.4-0.2H309.6z M317.7,84.9
			c0.2,0,0.2-0.1,0.2-0.3l-3.8-10.9c-0.2-0.6-0.4-0.6-0.6,0l-3.6,10.9c-0.1,0.2,0,0.3,0.1,0.3H317.7z"/>
		<path class="st0" d="M341.8,86.6c0,3.9,0,7.1,0.2,8.8c0.1,1.2,0.4,2.1,1.6,2.2c0.6,0.1,1.5,0.2,1.8,0.2c0.2,0,0.3,0.1,0.3,0.2
			c0,0.2-0.2,0.3-0.6,0.3c-2.2,0-4.8-0.1-5-0.1s-2.8,0.1-4,0.1c-0.4,0-0.6-0.1-0.6-0.3c0-0.1,0.1-0.2,0.3-0.2c0.4,0,0.8-0.1,1.2-0.2
			c0.8-0.2,1-1.1,1.2-2.2c0.2-1.7,0.2-4.9,0.2-8.8V69.5c-2,0-4,0-6,0.1c-2.5,0-3.5,0.3-4.1,1.3c-0.4,0.7-0.6,1-0.7,1.3
			c-0.1,0.3-0.2,0.4-0.4,0.4c-0.1,0-0.2-0.1-0.2-0.4c0-0.4,0.8-3.9,0.9-4.2c0.1-0.2,0.2-0.8,0.4-0.8c0.3,0,0.7,0.4,1.8,0.5
			c1.2,0.1,2.7,0.2,3.2,0.2h15.2c1.3,0,2.2-0.1,2.9-0.2c0.6-0.1,1-0.2,1.1-0.2c0.2,0,0.2,0.2,0.2,0.5c0,1.2-0.1,4-0.1,4.4
			c0,0.4-0.1,0.5-0.3,0.5c-0.2,0-0.3-0.1-0.3-0.7c0-0.2,0-0.3,0-0.4c-0.1-1.2-1.1-2.1-5-2.2c-1.7,0-3.4,0-5.1-0.1V86.6z"/>
		<path class="st0" d="M361.1,79.5c0-6.3,0-7.4-0.1-8.7c-0.1-1.4-0.5-2.1-1.4-2.3c-0.4-0.1-1-0.2-1.3-0.2c-0.2,0-0.3-0.1-0.3-0.2
			c0-0.2,0.2-0.3,0.6-0.3c1.3,0,3.9,0.1,4.1,0.1s2.8-0.1,4-0.1c0.4,0,0.6,0.1,0.6,0.3c0,0.2-0.2,0.2-0.3,0.2c-0.3,0-0.5,0-1,0.1
			c-1.1,0.2-1.4,0.9-1.5,2.3c-0.1,1.3-0.1,2.4-0.1,8.7v7.1c0,3.9,0,7.1,0.2,8.8c0.1,1.2,0.4,2.1,1.6,2.2c0.6,0.1,1.4,0.2,1.7,0.2
			c0.4,0,0.5,0.1,0.5,0.2c0,0.2-0.2,0.3-0.6,0.3c-2.2,0-4.8-0.1-5-0.1s-2.8,0.1-4,0.1c-0.4,0-0.6-0.1-0.6-0.3c0-0.1,0.1-0.2,0.4-0.2
			c0.2,0,0.7,0,1.1-0.1c0.8-0.2,1.1-1.1,1.2-2.3c0.2-1.7,0.2-4.9,0.2-8.8V79.5z"/>
		<path class="st0" d="M373.7,83c0-6.6,4.8-15.8,15.9-15.8c9.1,0,15.9,5.7,15.9,15.2c0,9.1-6.4,16.5-16.1,16.5
			C378.3,98.9,373.7,90.3,373.7,83z M401.7,83.5c0-9.7-5.9-14.9-12.3-14.9c-6.8,0-11.8,4.4-11.8,13.3c0,9.4,5.7,15.5,12.9,15.5
			C394.2,97.4,401.7,95.3,401.7,83.5z"/>
		<path class="st0" d="M413.6,86.4c0-14.6,0.1-9.3,0-17.2c0-1.6,0.1-2,0.4-2c0.3,0,1,0.9,1.4,1.3c0.6,0.7,6.6,7.2,12.9,13.9
			c4,4.3,8.4,9.2,9.7,10.6l-0.4-20.5c0-2.6-0.3-3.5-1.6-3.8c-0.7-0.2-1.4-0.2-1.7-0.2c-0.4,0-0.6-0.1-0.6-0.3c0-0.2,0.3-0.3,0.8-0.3
			c1.8,0,3.8,0.1,4.2,0.1c0.4,0,1.8-0.1,3.4-0.1c0.4,0,0.7,0,0.7,0.3c0,0.2-0.2,0.2-0.4,0.3c-0.3,0-0.6,0.1-1.1,0.2
			c-1.1,0.2-1.4,0.8-1.4,3.6l-0.1,23.6c0,2.7-0.1,2.9-0.4,2.9c-0.3,0-0.8-0.4-3-2.6c-0.4-0.4-6.3-6.4-10.6-11
			c-4.7-5.1-9.3-10.2-10.6-11.6l0.5,19.4c0.1,3.3,0.5,4.4,1.6,4.7c0.8,0.2,1.7,0.2,2,0.2c0.2,0,0.3,0.1,0.3,0.2
			c0,0.2-0.2,0.3-0.7,0.3c-2.3,0-3.9-0.1-4.3-0.1s-2.1,0.1-3.9,0.1c-0.4,0-0.6,0-0.6-0.3c0-0.2,0.1-0.2,0.3-0.2c0.3,0,1.1,0,1.7-0.2
			c1-0.3,1.2-1.5,1.2-5.1V86.4z"/>
	</g>
</g>
</svg>
