<?xml version="1.0" encoding="utf-8"?>
<!-- Generator: Adobe Illustrator 24.0.2, SVG Export Plug-In . SVG Version: 6.00 Build 0)  -->
<svg version="1.1" xmlns="http://www.w3.org/2000/svg" xmlns:xlink="http://www.w3.org/1999/xlink" x="0px" y="0px"
	 viewBox="0 0 1920 440" style="enable-background:new 0 0 1920 440;" xml:space="preserve">
<style type="text/css">
	.st0{display:none;}
	.st1{display:inline;fill:#00B0AF;}
	.st2{display:inline;fill:none;stroke:#00B0AF;stroke-width:2.5;}
	.st3{display:inline;fill:#FFFFFF;}
	.st4{display:inline;fill:none;stroke:#FFFFFF;stroke-width:2.3;}
	.st5{display:inline;fill:none;}
	.st6{fill:#FFC261;}
</style>
<g id="Layer_1" class="st0">
	<path class="st1" d="M1002.7,120.3c3,8.2,8,13.7,16.2,17.9C1013.8,131.9,1008.4,126,1002.7,120.3 M887.8,160.2
		c15.4-3.3,26.2-13.2,35.1-25.7C912.6,144.8,901.7,154.4,887.8,160.2 M792,350.8c9.4-3.9,12.8-11.1,15.6-20.2
		C800.5,336.3,794.5,341.6,792,350.8 M1001.8,178.5c6.7,9.7,13,19,18.3,29.1c1.8-4.4,2-9,0.5-10.7
		C1014.7,190.7,1009,184.2,1001.8,178.5 M1071,221.6c0.5-26.9-0.6-38-4.3-42.8C1064.9,193.7,1068,207.6,1071,221.6 M977.3,293.1
		c0.4,0.4,0.9,0.7,1.3,1c12.3,5.2,24.7,10.3,37.1,15.5c1.8,0.8,3,0.1,4.2-1.5c-8.6-4.3-17.1-8.3-25.2-12.8c-5.4-3-10.6-4.9-16.6-2.5
		C977.9,292.7,977.8,292.8,977.3,293.1 M1024,251.5c-2.1-0.4-4.3,0.4-6.6,0.8c-6.1,1.1-11.7,3.7-16.5,7.6c-1.1,0.9-2.4,2-1.9,3.4
		s2.2,1,3.4,0.9c8.3-0.8,16.5-2.4,23.7-6.9c2-1.2,5.7-2.4,5-4.4C1030.6,251.1,1026.7,251.5,1024,251.5 M1162.1,274c5.3,0,9.6,0,14,0
		c1.4,0,1.9-1.2,2.4-2.2c3.3-6.3,6.6-12.5,9.7-18.9c0.5-1,2.4-2.3,0.3-3.4c-1.8-1-3.8-1.3-5.4,0.5c-1.2,1.4-2.4,2.8-3.6,4.2
		C1173.9,260.5,1168.4,266.8,1162.1,274 M734.1,315.3c-18.4,5.7-36.1,25.2-36.1,39.9C712.1,343.6,722.5,329.3,734.1,315.3
		 M951.6,60.3c-0.3,0.4-0.5,0.9-0.8,1.4c-0.3,0.7-0.5,1.5-0.7,2.3c-0.7,8.6-4.5,16.1-8.6,23.5c-3.3,6-4.9,12.5-2.9,19.4
		c0.6,2.3,1.5,3.1,3.5,1.1c2.6-2.6,5.1-5.1,6.6-8.8C954,86.8,955,74.1,951.6,60.3 M1170.6,211.3c2.7-1,5.1-1.9,7.4-2.6
		c0.8-0.3,1.9-0.6,2.5,0.6c0.5,1-0.3,1.5-0.8,2.1c-1.7,2.1-3.4,4.2-5.4,6.6c4.3,0.7,7.6,0.8,10-3.3s5.3-8.4,10-10.4
		c1.7-0.7,2.9-2.3,3.1-4.1c1.4-7.1-3-14-10-15.7c-4.4-1.2-9-0.4-13.5-0.5c-4.2-0.1-4.2,0.1-3.6,4.3c0.6,4.9,1.8,9.9,1,14.8
		C1170.8,205.7,1171,208.3,1170.6,211.3 M1202.5,274.1c3.6,0,7.2,0,10.8,0c1.4,0.2,2.8-0.6,3.2-2c3.8-9.2,7.7-18.3,11.5-27.5
		c0.9-2,0.4-2.9-2-2.9c-5.9,0.1-11.8,0.1-17.7,0c-1.6-0.1-3.2,0.8-3.8,2.3c-4.8,9.1-9.7,18.2-14.6,27.2c-1,1.8-0.8,2.8,1.5,2.8
		C1195.1,274,1198.8,274,1202.5,274.1 M1251.8,187.3c-8.7,5.7-16.5,11-24.5,16.2c-1.5,1-2.8,2.4-3.6,4.1c-5,9.6-10.1,19.3-15.4,28.8
		c-1.2,2.2-0.8,2.8,1.6,2.8c5.8-0.1,11.6-0.1,17.4,0c2.1,0,3-0.8,3.8-2.7c3.3-8.3,6.9-16.4,10.3-24.6
		C1244.9,204,1248.1,196.1,1251.8,187.3 M996.8,24.5c-9.1,3.3-16.4,8.8-21.1,17.3c-0.9,1.6-2,2-3.7,1.5c-4.4-1.1-8.6-0.8-12.5,2.2
		c-4.7,3.8-6.5,8.7-5.2,14.5c2.5,10.4,3,20.9-0.1,31.1c-2.3,7.6-4.4,15.5-12,20c-1.4,0.8-1.5,1.8-0.6,3.1c1.6,2.5,3.4,5,5.3,7.3
		c3.8,4.2,9.6,6.8,16.3,3.2c3.3-1.8,6.5-4,9.5-6.4c2.3-1.8,2.6-3.3,0.9-6c-4.1-6.3-7-13.1-6.2-20.9c1-9.8,2-19.5,3.2-29.2
		c0.3-2-0.1-4.2,0.9-6.1C978,44.2,985.2,32.6,996.8,24.5 M1050.1,49c-5.4-8.8-12.3-16.5-21.2-21.9c-12-7.3-23.6-6-34.7,2.8
		c-8.1,6.5-13.4,15-18.5,23.7c-1.4,2.5-2.3,5.3-2.5,8.2c-0.7,8.9-1.4,17.8-2.9,26.5c-1.6,9,1.6,16.3,5.9,23.7
		c0.7,1.2,1.5,1.8,2.6,0.3c2.2-3,4.4-6,6.6-8.9c1.3-1.6,0.9-2.5-0.9-3.2c-1.8-0.7-3.2-2-4.1-3.7c-3-6-5-12.3-3.8-19.1
		c0.7-4.2,3.1-7.7,7.4-8.9c3.8-1.1,6.6,1.3,9.1,3.9c0.6,0.5,1.2,1.1,1.7,1.8c1,1.8,2.4,1.8,4.1,1.1c2.7-1.1,5.4-2,8.2-2.9
		c6.4-2.2,6.2-2.1,5-8.8c-1-6.1-2.4-5.5,4-7.5c0.2,0,0.3-0.3,0.5-0.6l-2.5-1.8c-4-2.8-3.9-6.7,0.4-8.9c4.3-2.4,9.1-3.7,14-3.7
		C1036.4,41.4,1043.4,44.5,1050.1,49 M1067.6,409.7c-76.9-0.1-153.8,0.4-230.6-0.7c8.4,1.2,16.7,2.1,25.1,3c9.3,1,18.6,2,27.9,3
		c9.8,1.1,19.5,2.2,29.3,3.3c9.3,1,18.6,1.9,27.9,3c9.5,1.1,19,2.3,28.5,3.3c11.6,1.3,23.2,2.4,34.8,3.7s22.9,2.7,34.4,4
		c1.5,0.2,2.9,0.2,4.1-1.2c5.6-6.2,11.4-12.2,17.1-18.3C1067.1,412,1067.6,410.9,1067.6,409.7 M1166,180.7
		c-3.1-10.7-8.8-19-17.8-24.9c-0.7-0.5-1.9-0.8-1.7-1.9s1.4-1,2.3-1.1c6.7-0.7,12-4.2,16.2-9.1c8.8-10.3,13.6-22.5,17.1-35.3
		c1.7-6.2-0.1-11.7-3.6-16.7c-3-4.4-7.3-7.8-11.2-11.3c-1.2-1.2-3.1-1.4-4.5-0.5c-8.8,4.2-17,9.4-24.6,15.6c-1.7,1.4-2.8,4.1-5,4.1
		c-2.8,0.1-2.3-3.3-3.5-5c-2.2-3.2-4.2-3.3-6.3,0c-2.2,3.7-3.8,7.7-4.9,11.9c-0.8,2.7,0.2,5.5,2.6,7c1.2,0.7,2,1.9,2.1,3.3
		c0.3,5,1,9.9,2.2,14.7c1.3,5.9,3.2,11.5,8.5,15.4c3.4,2.4,5.6,6.1,8,9.5c3.6,5,5.7,10.9,9.1,16S1159.3,180.2,1166,180.7
		 M1070.6,343.5c0.5,0.3,1.1,0.6,1.7,0.8l73.5,0.1c1.8,0,2.9-0.9,3.7-2.5c6.5-12.4,13.1-24.8,19.7-37.2c4.5-8.5,9-17,13.5-25.5
		c1.2-2.3,0.5-2.7-1.8-2.7c-2.9,0.1-3.3,2.4-4,4.2c-1.3,3.3-3.4,4.4-6.9,4.3c-12.4-0.2-24.8,0-37.3-0.1c-2.4-0.1-4.8,0.9-6.4,2.7
		c-13.3,13.6-26.6,27.2-40,40.7C1081.4,333.3,1076.1,338.2,1070.6,343.5 M1239.4,274c5.8,0,11.6-0.1,17.4,0.1
		c2.5,0.1,3.8-0.9,4.7-3.1c6.9-17.8,13.9-35.6,20.7-53.4c7.9-20.5,15.6-41.1,23.7-61.6c1.2-3,0.2-3.6-2.2-4.1
		c-6.2-1.2-12.5-2.5-18.7-3.6c-5.9-1.1-5.9-1-8,4.4c-10.7,27.4-21.3,54.8-32,82.2c-3.1,8.1-1.8,6.8-10,6.8c-2.1,0-3.3,0.6-4.2,2.6
		c-3.6,8.9-7.3,17.8-11.1,26.6c-1,2.3-0.8,3.3,2,3.2C1227.5,273.9,1233.4,274,1239.4,274 M1106.1,299.4c-0.9-3.4-3.5-4.7-5.4-6.3
		c-8.4-6.8-16.5-14.4-28.1-15.6c-5.6-0.6-11-2.7-16.7-1.8c-10.7,1.7-20.7,5.9-30.8,9.7c-1.8,0.7-3.5,1.5-5.6,1.4
		c-13-0.7-26.1-2.2-39.1-2.6c-5-0.1-9.9-1-14.9-1.2c-3.5-0.1-3.8-2.1-3.6-4.9c0.7-8.6,1.4-17.3,2-25.9c0.6-9.1,0.6-18.3,1.6-27.4
		c0.5-5.1,0.1-10.2,1.1-15.2c0.9-4.8,0-9-4.8-11.9c-4.3-2.7-8.9-5-13.6-6.9c-9.1-3.5-18.5-6.1-28.1-7.7c-1.8-0.3-3.9-0.6-3.5-3.3
		c0.8-5.6,1.8-11.2,5.4-15.9c2-2.6,4.5-4.1,7.8-3.4c2.6,0.6,5.1,1.4,7.6,2.5c6.7,3.1,12.8,7.4,19.1,11.2c-2.9-3.6-6.2-6.8-9.9-9.5
		c-4.7-3.3-9.7-6.3-14.9-9c-2.4-1.3-2.7-2.7-0.6-4.5s4-3.5,6-5.3c8.3-7.4,18.1-13.1,28.7-16.6c11.4-3.6,18.9-1.6,25.2,6.6
		c3.8,4.8,7,10.1,9.4,15.8c1.8,4.1,3.9,8.2,5.9,12.2c0.5,1,1.2,2.2,2.6,1.8c1.1-0.4,1.9-1.5,1.8-2.7c0.3-2.2,0.1-4.4-0.6-6.5
		c-1.7-4.4-4.4-8.1-7.3-11.7c-7.4-9.1-17.4-15.8-24.4-25.2c-1-1.3-1.8-1.1-2.8-0.2c-1.8,1.8-3.7,3.5-5.8,5c-5,3.5-10.3,6.3-16.8,4.3
		c-5.2-1.6-8.4-5.6-11.4-9.7c-3.1-4.3-3.1-4.4-8.3-2.5c-1.7,0.6-3.1,0.7-3-1.7c0.4-5.6,1.2-11.3,1.4-16.9c0.3-7,0.1-14,0.1-21
		c-1.5,2-2.6,4.1-3.5,6.4c-1.6,4.1-3.1,8.2-4.7,12.3c-0.4,1.1-0.7,2.7-2.5,2.4c-1.5-0.2-1.5-1.5-1.8-2.7c-0.8-3-1.2-6.1-1.3-9.2
		c0.1-5.1-0.3-10.2,0.6-15.3c-1.2,1.5-2,3.1-3.1,4.6c-2.2,3.2-3.3,3.2-5.2-0.4c-3.6-6.6-7.2-13.2-11.1-20.3c-0.4,2.7-0.7,4.7-1,6.7
		c-0.3,2.5-1.2,2.9-3.4,1.6c-2-1.2-3.5-3.2-5.9-3.8c-0.5,1.2,0.2,2,0.5,2.8c1,2.7,0.5,4.2-2.6,4.4c-2.1,0.2-4.1,1-6.1,1.1
		c-2.8,0.1-4.1,1.4-5,3.9c-0.8,2.4-1.6,5.3-3.4,6.7c-2.8,2-6.7,1.5-10.1,2c-2,0.3-3-1.5-4.2-2.7c-3.1-2.8-4.9-2.7-7.3,0.9
		c-2.9,4.4-4,9.4-4.6,14.4c-0.5,4.5-0.3,9.4,4.7,11.2c4.1,1.5,4.9,3.6,3.6,7.2c-0.2,0.8-0.4,1.6-0.4,2.4c-0.5,4.8-2.5,9.4-1.9,14.3
		c1.3,11,7.2,19.6,14.2,27.7c2.5,3.1,6.4,4.7,10.4,4.3c9.3-0.5,17-4.9,24.5-9.9c10.6-7.2,19.4-16.5,28-25.9c0.7-0.8,1.3-2.4,2.7-1.5
		s0.5,2.3-0.2,3.4c-1.3,2.2-2.5,4.4-3.9,6.6c-8.2,12.6-18.1,23.1-32.6,28.4c-7.7,2.8-15.8,4.4-23.5,1.7c-4.5-1.6-5.7,0.2-7.9,2.7
		c-5.2,6-10.8,11.5-18,15c-4.8,2.4-8.2,1.7-12-1.9c-4.3-4-7.4-9-10.4-14c2.6,7.9,7.7,14.1,13.5,19.8c5.3,5.2,9.6,5.9,16.3,2.7
		c8.1-3.8,14.3-9.8,19.8-16.5c2-2.5,4-3.7,7.5-2.6c16.2,5.4,26.9,16.4,32.4,32.4c7.9,22.6,13.7,45.9,19.6,69.1
		c0.4,2.2,1.7,4.1,3.6,5.1c8.2,4.5,16.9,8.2,25.4,12.3c6.3,3,12.5,5.1,19.6,2.7c3.4-1.3,7.2-0.9,10.4,0.9c3.3,1.9,6.8,3.6,10.2,5.3
		c6.8,3.5,13.6,7,20.4,10.5c1,0.5,2.8,0.8,2,2.6c-1,2.2-6.4,4.2-8.8,3.3c-13.7-5.7-27.4-11.3-41-17.2c-3.2-1.4-5.9-0.1-8.8-0.1
		c-1.1,0-1.4,1-1.5,2c-0.2,2.9-0.5,5.8-0.6,8.6c-0.2,5.9,0,11.8-0.5,17.7c-0.6,7-0.3,14.1,0.9,21.1c1.2-0.8,2.2-2,2.6-3.4
		c3.2-6.8,5.3-14.1,6.3-21.6c1.3-8.3,1.3-8.3,8.3-3.9c1.4,0.9,2.9,1.5,2.6,3.6c-0.8,6.2-1.7,12.4-2.4,18.5
		c-0.5,4.8-0.5,9.7-0.1,14.6c0,1.2,0.7,2.3,1.8,2.8c1.3,0.5,2-0.5,2.6-1.3c2.2-2.5,4.3-5.2,4.7-8.7c0.6-4.7,1.3-9.4,2-14.1
		c0.7-4.8,1.5-9.6,2.3-14.4c0.2-0.9,0.5-2.3,2-1.9c1.2,0.3,1,1.4,0.8,2.4c-0.3,1.5-0.6,2.9-0.8,4.4c-1.1,7.3-2.1,14.6-3.1,22
		c-0.2,1.4-0.1,2.9,2,2.9c1.7,0,3.4,0.4,3.9-2.3c1-5.3,2.2-10.6,3.4-15.9c1-4.4,2-8.8,3.1-13.2c0.2-0.8,0.4-2,1.8-1.6
		c0.7,0.2,1.1,0.9,0.9,1.6c0,0,0,0,0,0c-0.1,0.6-0.3,1.1-0.4,1.7c-1.8,8.9-4.2,17.8-5.3,26.9c-0.3,2-1.3,5.1,0.7,5.7
		c2.2,0.6,2.8-2.5,3.6-4.3c2.6-6.8,5.2-13.6,7.8-20.4c0.3-0.9,0.7-2.3,2-1.9s0.9,1.6,0.6,2.7c-0.5,1.5-1,3.1-1.3,4.7
		c-0.8,4-2.5,7.9-1.5,12.7c1.1-1.9,1.9-3.3,2.7-4.7c4.7-8.2,7.1-17.3,9.7-26.3c0.9-3.2,4.6-7,7.1-6.7c12.2,1.3,24.3-0.1,36.3-1.9
		c3.4-0.7,6.9,0.1,9.8,2c3.2,2.1,6.5,4.2,10.7,4.8c-0.7-1.4-1.7-2.7-2.9-3.8c-5.6-4.9-11.5-9.4-17.7-13.5c-0.9-0.6-2.4-1.5-1.6-2.7
		s2.1-0.3,3.1,0.3c3.8,2.3,7.5,4.6,11.3,6.9c5.1,3.1,10.2,6.1,16.4,8.1c-0.2-0.5-0.5-1-0.8-1.4c-4.9-5.8-10.9-10.3-16.8-15.1
		c-0.8-0.7-2.4-1.2-1.3-2.6c0.9-1.1,1.9-0.2,2.7,0.4c2.7,1.7,5.4,3.6,8.2,5.2C1095.9,294.5,1100.6,297.5,1106.1,299.4 M789.6,324.5
		c3-2.1,5.6-4.4,8.5-6.2c1.8-1.2,3.8-2.2,5.8-3c5.2-1.8,8.8,1,8.3,6.5c-0.6,6.2-0.6,6,5.5,7.4c11.3,2.5,22.5,5.1,33.8,7.9
		c1.8,0.5,3.7,0,5-1.4c8.6-7.8,18.6-13.4,28.8-18.8c2-1,2-2,1.1-3.7c-5.9-11.4-11.8-22.8-17.7-34.3c-4.5-8.8-8.9-17.6-13.5-26.3
		c-1.3-2.5-0.7-3.8,1.7-4.9c6.4-2.8,6.3-2.8,9.6,3.5c10,19.2,20.2,38.4,30.2,57.6c1.4,2.8,3.9,4.9,6.8,5.8
		c12.8,4.2,25.3,9.1,37.5,14.7c2.3,0.9,4.3,2.3,6.1,3.9c2.5,2.5,2.3,4-0.7,6.1c-1.5,1-3.3,1.2-5,2.1c1.8,1.7,4.1,2.6,5.8,4.4
		c4,4.3,3.1,7.9-2.5,9.4c-0.4,0.1-0.8,0.2-1.3,0.3c2.5,6,0.2,9.6-6.4,10.1c-2,0.1-3.9,0.1-5.9,0c-1.9-0.1-3.8-0.3-6.1-0.5
		c2.1,2,4.2,3.4,5.1,5.9s0.1,4-2.2,5c-3.4,1.3-6.9,1.1-10.3,0.7c-9.7-1.2-19.4-3-29.2-4.1c-5.1-0.4-10.1-0.4-15.2,0.2
		c-8.8,0.7-17.6,1.1-26.4,1.4c-2.7,0.1-2.5-1.7-2.3-3.3c0.5-5.6,1.1-11.3,1.8-16.9c0.5-3,0.1-6.2-1.2-9c-2.3,2.7-3.1,5.7-3.7,8.7
		c-1.1,5.1-1.9,10.2-2.2,15.4c-0.2,4.5-0.7,5-5.2,4.8c-8.8-0.4-17.5-1.2-26.3-1.4c-4.3-0.1-8.5,0.9-12.4,2.9
		c-11.3,5.3-23.3,7.4-35.6,8.5c-4.1,0.5-8.3,0.5-12.4,0c-5.1-0.8-9.4-2.7-11.8-7.5c-1.7-3.4-4.4-4-7.8-3.4
		c-5.1,0.9-9.9,3.2-15.2,3.2c-10.3,0-16.3-5-17.8-15.1c-0.1-1.5-0.8-2.9-1.8-3.9c-2.5-2.3-2.8-5.6-2.3-8.7
		c1.1-7.2,1.5-14.6,1.3-21.9c-0.2-5.6-1.5-10.5-7.7-12.7c-3.5-1.3-4.7-4.5-4.9-8.1c-0.3-7.6,1.6-14.9,3.5-22.2
		c5.8-22.1,9.9-44.7,16-66.8c3.1-12,7.4-23.6,12.8-34.8c6.1-12.3,15.2-21.7,26.2-29.6c19.3-14,40.9-23,63.8-29.1
		c12.4-3.3,21.3-10.8,27.5-21.8c5-9,8-18.7,10.6-28.5c4.6-17,11.6-32.8,24.4-45.3C882,10.4,908.6,8.5,929,21.3
		c11.1,6.7,19.1,17.5,22.3,30c2.2-2.2,3.2-4.7,5.2-6.5c4.2-3.7,8.8-6,14.5-4.4c1.6,0.4,2.6,0.1,3.6-1.5
		c7.1-11.8,18.1-17.5,31.4-19.4c12.6-1.8,24.8-0.5,36,5.7c11.9,6.5,18.3,17,19.8,30.1c2.3,19.7,0.4,39.3-4.2,58.6
		c-2.1,8.9-5.1,17.6-10.9,24.9c-3.3,4.2-7.3,6.6-12.9,5.3c-2-0.4-4.2,0.2-6.2-0.7c-0.6-0.3-1.3,0.1-1.1,0.8
		c2.1,7.3-3.7,11.4-6.8,16.6c-1.9,3.2-3.8,6.4-4.8,10c-1.3,4.9-0.3,6.5,4.6,7.6c2.6,0.6,5.3,0.3,7.8,1.5s3.6,3,2.8,5.9
		c-0.8,3.1-2.8,5.6-4.2,8.3c-1.1,2.2-1,3.9,0.7,5.9c6.2,7.8,11.8,16,15.4,25.4c3.1,8.1,2,15.4-2.8,22.4c-2.1,3.1-1.9,3.7,1.9,4.2
		c9.5,1.2,18.2-0.7,25.8-6.9c4.6-3.8,4-9.3,3.2-13.8c-1.7-9.9-4.4-19.6-5.6-29.6c-0.9-7.7-1.8-15.4-0.3-23.2
		c0.3-1.6,0.8-3.1,2.6-3.2s2.6,1.2,3.3,2.6c1.9,3.9,2.4,8.3,2.8,12.5c1.1,12.4,1.6,24.8,0.2,37.2c-0.2,2.4,0,4.9,0.7,7.2
		c1.9,7.2,3.8,14.3,5.7,21.5c0.4,1.6,1,2.7,3.1,3c13.6,1.6,26.5-1,39.1-5.6c3.5-1.3,6.8-2.9,10.3-4.3c7.5-3.2,16-3.7,23.8-1.2
		c2.8,0.8,5.7,1.4,9,2.1c-1-3.5-3.8-4.4-5.7-6.1c-1.7-1.4-3.5-2.6-5.3-3.9c-0.6-0.5-1.6-0.8-1.2-1.8s1.5-1.1,2.4-0.9
		c2.9,0.6,5.8,1.7,8.5,3l9.2,4.6c-0.8-2.7-2.7-5-5.3-6.2c-3.3-1.8-6.9-2.5-10.6-3.2c-1-0.2-2.4-0.4-2.3-1.6c0.1-1.5,1.6-0.9,2.6-0.9
		c4.3-0.1,8.1,1.8,12.1,2.8c1.4,0.4,2.9,0.8,4.7,1.2c0-1.9-1.1-2.7-2.3-3.6c-5.7-4.5-12.5-5.8-19.4-6.8c-2.2-0.2-4.1-1.5-5.2-3.4
		c-6.7-9.9-13.4-19.7-20.2-29.5c-0.4-0.6-0.7-1.2-1.2-1.7s-1-1.1-1.7-0.5s-0.3,1,0,1.5c0.8,1.3,1.6,2.6,2.4,3.8
		c5.9,9.3,11.9,18.5,17.8,27.8c2,3.2,1.6,4.2-1.8,6.2c-5.6,3.1-11.7,5.1-18,6c-8.7,1.3-17.5,1.9-26.3,1.5c-4.1-0.1-4.4-0.6-3.4-4.6
		c2.9-12.3,4.8-24.7,5.6-37.3c0.7-10.7-0.1-21.3,1.2-32c0.6-5.1-0.3-10.2-0.7-15.3c-0.4-5.9-5-10.5-11.7-12.3
		c-4.3-1.2-9.6,1.2-12.9,5.7c-4.7,6.5-7.4,13.8-9.4,21.5c-0.3,1.2-0.1,3.4-1.9,3.3s-1.8-2.2-1.7-3.7c0-5.9-0.2-11.8,0.9-17.7
		c2.1-10.8,8.2-18.9,17.2-24.6c12.5-8,20.4-19.4,26.6-32.6c5.1-10.9,11.2-21.4,19.4-30.4c14.7-15.9,31.8-17.7,50.8-4.6
		c12.7,8.8,20.2,21.3,22.3,37c1.1,7.9,0.5,16-1.8,23.7c-2.4,8.3-1.4,16.1,3.4,23.2c4.4,6.5,9.2,12.8,13.9,19.1
		c9.1,12.2,9.7,25.3,4.9,39.2c-3.7,10.9-9.3,20.8-20.3,25.2c-7.7,3.1-10.2,9.9-14.6,15.5c-0.9,1.1-0.3,1.7,1,1.7
		c5.2,0,10.4,0,15.7,0c1.8,0,2.3-1.5,2.9-2.7c5.2-9.7,10.3-19.4,15.4-29.2c1.3-2.6,3.2-4.8,5.7-6.4c8.4-5.5,16.8-11.1,25.2-16.7
		c1-0.7,2.2-1.9,3.4-1.1c1.5,1.1,0.2,2.6-0.3,3.8c-6.6,16.1-13.3,32.1-20,48.1c-0.5,1.3-2.4,2.9,0,4.1s5.8,0,6.6-2
		c4.3-10.9,8.5-21.8,12.7-32.7c7.4-19,14.8-37.9,22.1-57c1-2.6,2.1-3.1,4.9-2.5c8.4,1.9,17,3.4,25.5,5c3.8,0.7,4,1.2,2.6,4.8
		c-7.5,19.4-15.1,38.9-22.6,58.3c-7.7,20-15.5,39.9-23,59.9c-1,2.7-2.4,3.7-5.3,3.7c-12.4-0.1-24.9,0-37.3-0.1c-2.8,0-4.1,1-5.1,3.5
		c-3.3,8-8.9,14.6-13.6,21.7c-11.5,17.1-23.2,34.1-34.8,51.1c-1.4,2.1-3,4.1-4.3,6.3c-1,1.8-2.6,1.9-4.2,1.6
		c-10.4-1.4-20.9-2.7-31.2-4.4c-3.7-0.6-6.2-0.1-8.8,2.8c-14.4,15.8-29.1,31.5-43.8,47.4c1.4,0.8,2.7,0.5,3.9,0.5
		c45.7,0.1,91.3-0.3,137,0.2c100.4,1.1,589.4,0.1,689.8,0.5c4.1,0,8.1,0.3,12.2,0.5c0.8,0,2.2-0.2,2.2,1.1c0,1.1-1.3,1.3-2.2,1.3
		c-2.8,0.1-5.6,0.2-8.4,0.1c-10.9-0.2-21.8-0.5-32.7-0.5c-86.7-0.1-562,0.3-648.7-0.2c-50.4-0.3-100.8-0.5-151.3-0.6
		c-2.8-0.2-5.5,1-7.3,3.1c-5.9,6.6-12,12.9-17.9,19.5c-1.5,1.9-4,2.9-6.4,2.6c-9.3-1-18.6-2-27.9-3c-7.6-0.8-15.2-1.7-22.7-2.6
		c-9.3-1-18.6-2-27.9-3.1l-22.4-2.5c-9.9-1.1-19.8-2.2-29.6-3.3c-9.4-1-18.8-2-28.3-3c-9.6-1-19.3-2.1-28.9-3.2l-21.4-2.4
		c-7.5-0.8-14.9-1.5-22.4-2.5c-0.9-0.1-2.8,0.1-2.7-1.5c0.1-1.8,1.9-1.4,3-1.4c11.3,0,22.5,0,33.8,0c29.3,0.1,58.6-0.2,87.8,0.3
		c43.8,0.8,87.6,0.1,131.4,0.5c2.7,0.2,5.3-0.9,7-3c11.7-13,23.6-25.9,35.4-38.8c2.9-3.2,6.1-6.1,8.6-9.5s5.8-2.7,9-2.3
		c10.5,1.4,21,3,31.5,4.6c2,0.3,2.6-1.1,3.4-2.3c8.2-12.1,16.4-24.2,24.6-36.2c7.8-11.5,15.8-22.9,23.7-34.4c1.7-2.5,4.3-5.5,3.1-8
		c-1-2-4.9-0.6-7.5-0.7c-5.3-0.1-10.7,0-16-0.1c-1.7-0.1-3.4,0.9-4,2.5c-11.2,21.3-22.6,42.6-33.8,63.9c-1.5,2.9-3.3,4.1-6.7,4.1
		c-24.6-0.1-49.3-0.1-73.9-0.1h-2.4c-1,0-1.9-0.2-2.3-1.2c-0.3-0.9,0.1-1.9,0.9-2.5c19.3-19.4,38.7-38.8,58-58.3
		c1.6-1.8,4-2.8,6.4-2.7c12.6,0.1,25.1,0.1,37.6,0c1.3,0,2.7,0.4,3.7-0.7s2.3-2.8,2-4.3c-0.4-1.6-2.4-0.8-3.7-0.8
		c-3.6-0.1-7.2,0-10.8-0.1c-0.9,0-2,0.1-2.4-1c-0.2-0.9,0.1-1.9,0.9-2.5c5.6-6.3,11.2-12.7,16.8-19c1.6-1.8,3.2-3.7,4.8-5.5
		c2.5-2.7,8.2-3.4,11.2-1.3c1.9,1.3,0.6,2.7,0,4c-3.2,6.3-6.5,12.6-9.7,18.9c-0.6,1.1-2.3,2.7-0.8,3.5c1.7,1,3.8,0.6,5-1.7
		c4.9-9.3,9.9-18.6,14.9-27.9c1.1-2,0.2-2.4-1.6-2.4c-5.2,0.1-10.5,0.1-15.7,0c-3.3-0.1-3.7-0.9-1.8-3.7c2.1-3.2,4.2-6.4,6.3-9.6
		c0.5-0.8,1.3-1.8-0.4-2c-4.3-0.5-2.1-2.7-1.1-4.2c3.2-4.5,5.9-9.5,8-14.7c-3.3,1-4.8,2.1-8.6,8.7c-2.1,3.8-4.8,5-8.7,4.6
		c-1.6-0.2-3.3,0-4.9-0.1c-1-0.1-2.3,0.4-2.8-0.8c-0.4-1.1,0.6-1.9,1.2-2.8c0.8-1.2,2.3-1.9,2.8-3.4c-0.2-0.2-0.4-0.5-0.5-0.4
		c-5.9,1.3-5.9,1.3-5.4-4.8c0.7-7.1,0.5-14.3-0.6-21.4c-0.4-2.5-1.6-3.5-3.7-3.8c-8.4-1.2-13.9-6.1-17.3-13.5
		c-4.2-9.1-9.6-17.1-17.2-23.8c-5-4.4-5.7-11-7.2-17c-0.8-3.6-1.3-7.3-1.5-11c-0.1-1.4-0.9-2.7-2-3.5c-2.9-2.3-3.5-5.5-2.7-8.8
		c1-4.7,2.8-9.1,5.5-13.1c3.3-4.7,7.2-4.8,10.2,0.1c1.8,2.9,2.9,2.6,5.1,0.6c7.9-7.2,17.1-12.3,26.6-16.8c1.1-0.7,2.6-0.6,3.6,0.2
		c7.3,6,14.6,11.9,17.6,21.5c1.1,3.8,1.1,7.9-0.2,11.7c-3.3,11.3-7.4,22.2-14.5,31.8c-4.6,6.1-10,11.1-18,13.5
		c7.9,6.2,13.7,14.7,16.5,24.4c0.5,1.8,1.8,1.9,3.2,1.9h11.2c11.8,0,18.9,8.7,16.7,20.2c-0.2,0.9-0.5,2-0.2,2.7
		c2.8,5.8-0.4,10.5-2.7,15.4c-0.2,0.4-0.3,0.8-0.6,1.7c8.4-3.5,14.1-9.3,18.3-16.8c3.9-7.1,6.2-15.1,6.6-23.2
		c0.5-8.3-2.8-15.7-7.6-22.3c-4.2-5.8-8.7-11.4-12.8-17.3c-6-8.6-7.9-17.9-4.6-28.3c7.6-24.5-5.2-51.9-28.5-61.8
		c-14.3-6.1-27.9-2.6-38.3,9.1c-9,10.2-15.1,22.2-21.4,34.1c-4.1,7.8-8,15.8-15.1,21.5c-4.3,3.5-8.6,7-13.1,10.3
		c-10.7,7.6-14.1,18.5-14.3,31.5c1.7-3.8,3-7.1,4.6-10.2c1.4-2.9,3.2-5.6,5.5-8c4.7-4.9,10-6.6,16.7-4.2c7.1,2.6,10.2,7.7,11.1,14.9
		c1.8,13.8,0,27.6-0.3,41.4s-1.6,27.7-5.4,41.2c-0.5,1.9-0.8,3.3,2.1,3.3c11.7,0,23.4-0.8,34.7-4.2c9-2.7,9.1-3.3,4.2-11.1
		c-4.4-6.9-9.1-13.6-13-20.9c-1.1-2.1-3-3.8-4.3-5.8c-2-3,0.3-4,2.2-5.4c2.2-1.6,3.2,0,4.1,1.4c6.1,8.9,12.5,17.6,18.1,26.8
		c3.4,5.6,7.8,8.1,14,8.9c5.6,0.6,10.8,3,14.9,6.9c1.2,1.1,2.1,2.5,2.7,4c1.2,3.2,0.6,4.1-3.1,3.9c0.6,1.6,1.2,3.1,1.8,4.7
		c0.4,1.1,0.8,2.4-0.1,3.3c-1,1.1-2.2,0-3.2-0.4c-3-1.2-5.5-3.4-8.9-4.2c1.5,2.1,3.8,3.4,4.7,5.7c0.4,0.9,1.3,1.9,0.5,2.9
		s-2.1,0.7-3.2,0.5c-5-1.1-10-2.1-14.9-3.3c-7.7-1.8-14.8,0.4-21.5,3.6c-14.4,6.8-29.5,9.4-45.2,8.9c-3.6-0.1-6.2-1.1-7-5.4
		c-1-5.3-2.8-10.5-4.4-15.8c-0.8,3.6-3.5,5.6-6.1,7.4c-8.5,6-17.9,8.4-28.2,5.5c-1.9-0.7-4.1-0.2-5.5,1.4
		c-6.7,6.4-15.3,8.9-24.2,10.4c-2.7,0.6-5.5,0.8-8.3,0.7c-1.6-0.2-3.4-0.4-4.1-2.1c-0.6-1.7-0.2-3.6,1.1-4.8
		c5.3-5.9,12.2-8.6,19.7-10.2c4.8-1.1,9.7-1.1,14.5,0c2.5,0.7,3.6-0.4,5-2.3c5.6-7.5,5.8-15.2,1.9-23.6c-3.8-8.2-8.8-15.8-14.8-22.7
		c-0.3,6.9-0.8,13,1.2,18.9c0.7,1.9,1.9,5.1,0.1,5.6c-2.5,0.6-2.2-2.7-2.7-4.6c-3.5-12.8-10.8-23.5-18-34.3
		c-3.3-4.9-7.1-9.5-10.6-14.2c-0.7-1-2.2-2.1-1.3-3.3c1.3-1.5,2.6,0.3,3.5,1c8.8,6.7,17.1,13.9,24.2,22.4c1.9,2.3,2.8,2.5,3.9-0.5
		c0.8-2,2.1-3.8,3.2-5.8s0.7-3.6-1.8-4.1c-2.2-0.4-4.3-0.8-6.5-1.2c-7.5-1.2-7.7-4.8-6.5-10.7c1-5.1,4-9.3,7-13.5
		c1.6-2,3-4.1,4.1-6.4c1.7-4.1,0.6-7.1-3.6-8.9c-10.7-4.4-17.5-12.2-20.6-23.3c-0.4-1.3-1.2-2.9,0.4-3.8s2.2,0.8,3.1,1.6
		c6.8,6.9,13.3,14.2,19.3,21.8c1.2,1.4,2.8,2.4,4.6,2.8c3.5,1,7.1,0.9,10.7,0.9c4.4,0,6.7-3.5,8.8-6.6c5.7-8.3,8.3-17.8,10.3-27.5
		c3-14.6,3.8-29.4,3.6-44.2c-0.1-11-3.3-21.1-10.8-29.3c-5.7-6.3-13.2-9.6-22.4-11.4c3,1.9,5.4,3.2,7.6,4.9c2.2,1.7,4.3,3.5,6.3,5.5
		c6.7,6.4,11.9,13.9,16.6,21.8c0.6,1,1.8,2.3,0.3,3.3c-1.3,0.9-2.1-0.5-2.8-1.3c-6.5-6.5-14-11.1-23-12.8c-5.7-1-11.1,0.4-16.1,3.1
		c-2.4,1.3-2.4,2.9,0,4.5c1.8,1.1,3.6,2,5.6,2.7c0.7,0.3,1.3,0.6,1.3,1.5s-0.7,1.1-1.3,1.5c-0.3,0.1-0.7,0.3-1,0.3
		c-6.3,2.3-6.3,2.3-4.7,8.9c1.3,5.1,1.3,5.1-3.7,6.9c-4.7,1.7-9.4,3.4-14,5.2c-2.2,0.9-3.8,0.6-4.8-1.7c-0.6-1.4-1.5-2.6-2.7-3.6
		c-4.6-3.6-8.7-2.5-10.7,3.1c-1.8,4.9-0.3,9.6,1,14.3c1.2,4,3.2,7.2,7.6,8.2c2.8,0.7,1.5,2.4,0.7,3.7c-2.4,4.1-5.3,7.9-8.5,11.4
		c-1.3,1.4-1.4,2.3-0.2,3.8c3.4,4.4,7.2,8.5,11.3,12.2c7,6.2,13.9,12.7,18.7,21c2.2,3.8,3.6,7.8,2.8,12.3c-0.4,2.5-1.6,4.4-4.1,5.1
		c-2.7,0.7-4.2-1.3-5.2-3.2c-1.7-3-3.1-6.2-4.6-9.4c-3-6.5-6.1-13.1-11-18.4c-7.2-7.9-12.5-9.1-22.7-5.4
		c-11.3,4.2-21.7,10.6-30.5,19c-2.4,2.3-1.4,2.7,0.8,3.9c7.4,3.8,14.3,8.7,20.3,14.5c1.9,1.7,3.3,3.9,4.2,6.3
		c0.4,1.2,1.9,2.6,0.3,3.7c-1.2,0.9-2.3-0.3-3.4-1c-4.2-2.8-8.5-5.7-12.7-8.5c-4.4-2.8-9.2-5-14.1-6.5c-3-1-4.9,0.1-6.6,2.2
		c-2.9,3.7-3.7,8.2-4.6,12.6c-0.3,1.7,1,2,2.4,2.3c10,2,19.9,4.4,29.3,8.4c4.6,2.1,9.1,4.5,13.4,7.3c5.6,3.5,5.6,8.9,4.8,14.1
		c-0.8,4.9-0.5,9.9-1,14.9c-1,9.7-1,19.4-1.6,29.1c-0.5,7.9-1.1,15.7-1.9,23.5c-0.2,2.3,0.8,2.8,2.7,2.9c4.3,0.3,8.6,0.3,12.8,0.6
		c11.4,0.8,22.9,1.3,34.3,2.3c4.7,0.3,9.5-0.6,13.8-2.5c8.7-3.6,17.7-6.3,26.8-8.3c4.7-0.9,8.9,0.8,13.4,1.1
		c2.9,0.3,5.7,1.2,8.5,1.6c8.2,1.2,14.1,6.7,20.4,11.3c3.6,2.5,7,5.4,10,8.6c1.3,1.4,2.7,3,1.5,4.9c-1.3,2.1-3.5,1.3-5.4,0.8
		s-3.2-1.8-5.2-1.9c1,1.3,1.9,2.5,2.8,3.9s1.3,2.6,0.3,3.9s-2.6,1-3.9,0.6c-2.3-0.8-4.5-1.8-6.8-2.7c0,0.1,0,0.4,0.1,0.5
		c1.4,1.8,3.6,3.7,1.9,6.1s-4.3,0.9-6.4,0s-4.5-1.6-6.2-3.1c-3.6-3.2-7.6-3.3-12-2.5c-10.3,1.7-20.7,2.4-31.2,2.1
		c-5.9-0.1-7.1,0.9-8.6,6.8c-2.2,8.3-4.7,16.5-8.9,24c-0.8,1.5-1.7,3-2.7,4.4c-1,1.3-2,3.3-4,2.8c-2.3-0.6-1.3-2.9-1.7-4.6
		c-1.3,1.5-1.6,3.3-2.1,4.9c-0.9,2.4-2.5,4.5-4.6,6c-1.5,1.1-2.9,1-4.3-0.5c-3.5-3.8-7.7-3.5-10.6,0.8c-0.7,1.2-1.6,2.3-2.5,3.3
		c-1.4,1.4-3,2.7-5.2,2c-2.2-0.6-3.7-2.6-3.8-4.9c-0.3-5.2-0.2-10.5,0.1-15.7c0.5-5.7,1.5-11.4,2.3-17.1c0.4-2.7-2-3.1-3.5-3.5
		c-2.3-0.7-1.8,1.8-1.9,2.7c-0.9,7.4-2.9,14.5-6,21.3c-0.9,2-2,3.9-3.3,5.7c-0.7,1-1.7,2.1-3.1,1.8c-1.7-0.4-2-1.9-2.1-3.3
		c-0.5-3.2-0.7-6.5-0.8-9.7c0.1-10.9,0.4-21.8,0.7-32.7c0.1-2.4,0.7-4.8,0.7-7.3c0-3.5,3.3-2.2,5.1-3.4c-10.3-4.8-20.8-9-30.7-14.5
		c-3-1.5-5.2-4.2-5.9-7.5c-5.9-23-11.5-46-19.4-68.4c-5.1-14.5-14.4-24.9-29-30.3c-2.7-1-4.5-0.9-6.8,1.6
		c-6.1,6.8-12.4,13.5-21.1,17.2c-7.3,3-12.4,2-18.1-3.4c-7.3-6.9-13.3-14.5-15.8-24.5c-0.5-2-0.9-4.1-1.1-6.1
		c-0.2-1.1-0.1-2.5,1.4-2.9s1.8,0.9,2.2,1.9c2.1,5,4.7,9.9,7.6,14.4c1.6,2.6,3.5,4.9,5.6,7c3.2,3.1,5.3,3.4,9.5,1.6
		c5.7-2.5,9.8-6.9,14.1-11.1c1.8-1.8,3.4-3.8,5.3-5.6s1.6-3.2-0.1-5c-7.4-7.8-12.6-16.8-14.5-27.6c-0.5-3,0.4-5.7,0.7-8.6
		c0.2-1.6,0.7-3.2,1-4.8c0.6-4.2,2.6-8.4-3.7-10.8c-3.5-1.4-4.5-6.1-4.3-9.7c0.2-6.2,1.8-12.2,4.8-17.6c3.2-5.6,7.8-6.1,12.6-1.7
		c2.8,2.6,9.8,1.1,11.3-2.4c0.1-0.1,0.1-0.2,0.2-0.3c1.5-6,5.3-9,11.7-8.9c2.2,0.1,3.7-0.8,2.5-3.6c-0.7-1.7-1.9-4.2-0.1-5.5
		s3.5,1.1,5.1,2c1.4,0.8,2.7,1.7,4,2.7c0.9-1.9,1.4-4.1,1.3-6.2c0.1-1.5,0.4-3.3,2.2-3.5c1.6-0.3,1.8,1.5,2.4,2.6
		c3.5,6.4,7.1,12.8,10.6,19.2c1.2,2.3,2.1,2.1,3.1-0.1c1.8-4,3.7-8,5.7-11.9c0.6-1.2,0.8-3.5,2.9-2.7c1.5,0.6,0.7,2.4,0.3,3.8
		c-2.2,7.9-3.3,16.1-3,24.4c0.1,2.4,0,4.9,1.2,7.6c1.2-3,2.2-5.8,3.3-8.5c0.9-2.4,1.8-4.8,2.9-7c0.9-1.8,1.6-4.4,4.2-4.1
		c2.7,0.3,2.3,3,2.5,5c1.1,10.1-0.5,20.1-1.2,30.1c-0.1,0.8-0.2,1.6-0.2,2.4c0.1,0.8-0.7,2.6,1.1,2.2c1.3-0.3,3.4-0.6,2.6-2.8
		c-3.7-10.6-0.3-19.9,5.1-28.7c4.9-8,5.2-17.2,7.9-25.8c0.8-2.6-1.4-5.3-2.4-7.8c-7-18.5-21.2-28.5-40-31.5
		c-14.7-2.3-28.2,1.8-39.5,12C852.8,42,845.9,60,841,79.1c-2.8,11-6.8,21.5-13.8,30.5c-5.9,7.6-13.1,13.2-22.7,15.8
		c-20.5,5.5-40,13.2-58.1,24.5C725.1,163,712.2,182,705,205.7c-7.3,24.2-12,48.9-18.1,73.4c-2.1,8.5-4.8,16.9-4.9,25.8
		c0,3.7,1.5,6,4.7,7.4c5.1,2.3,7.5,6.6,7.9,11.8c0.6,8.3,0.2,16.7-1.2,24.9c-0.3,2,0.5,3.6,0.9,6.5c1.1-3.8,1.7-6.7,2.7-9.5
		c3.2-8.9,9.2-16.6,17-21.9c5.4-3.8,11-7.4,16.7-10.7c1-0.6,2.1-1.1,3.2-1.5c1-0.4,2.1-0.6,2.9,0.4c0.6,0.9,0.7,2.1,0.1,3
		c-1.3,2.5-2.8,4.8-4.7,6.9c-8.3,10.1-16.6,20.2-25.9,29.5c-2,2.1-4.3,3.9-6.8,5.3c-1.4,0.6-2.2,2.2-1.8,3.7
		c1.5,9.9,8.8,14.8,18.6,12.5c3.7-0.9,7.4-1.9,11.1-2.8c4.6-1.1,7.9,0.1,10.4,4.2c3,4.9,7.4,6.6,12.9,6.7
		c16.7,0.4,32.7-2.5,47.8-9.8c3.5-1.7,7.3-2.2,11.1-1.6c5.2,0.8,10.6,0.7,16,0.9c2.1,0,4.2,0.2,6.2,0.5c4,0.8,5-0.2,5.4-4.4
		c0.6-6.2,1.3-12.4,3.4-18.4c1-2.7,1.8-6.3,5.3-6c3.9,0.3,3.3,4.5,3.4,7c0.4,6.4-0.6,12.7-1.5,19c-0.4,2.6,0.5,3.1,2.6,3
		c7.3-0.2,14.6-0.7,21.8-1.3c9.4-0.9,19-0.4,28.3,1.5c7.6,1.6,15.3,2.5,23.1,2.5c1.6,0,3.6,0.2,4.1-1.8c0.5-1.8-1-3-2.4-3.9
		c-6.7-4.7-14.5-6.5-22.3-8.4c-2.7-0.7-5.4-1.4-8-2.3c-0.9-0.3-2.1-1.1-1.6-2.3s1.4-0.3,2.1-0.2c4.3,0.5,8.4,1.5,12.5,2.9
		c8.6,2.9,17.5,4.6,26.5,4.9c1.7,0,3.5-0.3,5.1-0.8c1.2-0.4,2.6-0.7,2.7-2.3c0-1.3-0.6-2.5-1.7-3.3c-1.7-1.4-3.8-2.3-5.9-2.8
		c-9.1-2.3-18-5.3-26.6-9c-0.4-0.2-0.9-0.4-1.3-0.6c-0.7-0.5-2-0.7-1.5-1.9s1.5-0.9,2.4-0.6c5.1,1.4,10.3,2.6,15.4,4.2
		c4.8,1.6,9.7,3.1,14.2,5.5c1.9,1,4,1.4,6.1,1.2c1.4-0.1,3-0.4,3.5-1.8s-0.6-2.6-1.7-3.5c-3.2-2.5-6.8-4.5-10.5-6
		c-4.9-2.2-10.2-3-15.2-5c-0.8-0.2-1.5-0.5-2.3-0.8c-1-0.5-2.7-0.8-2.3-2.2c0.5-1.6,2.2-1,3.3-0.7c5,1.5,9.9,3.1,14.9,4.8
		c3.1,1,6.2,0.5,9.3,0.5c1.3,0,2.7-0.4,3.1-1.8c0.5-1.5-1.1-1.9-2-2.4c-7.5-4.5-15.7-7.4-23.8-10.5c-6.4-2.5-12.8-4.7-19.3-7
		c-2.2-0.7-4-2.3-5-4.5c-10.7-20.3-21.4-40.6-32.1-60.9c-1.1-2.1-2.2-2-4.1-1.2c-2.5,1.1-1.1,2.3-0.5,3.6c10,19.8,20,39.5,30,59.2
		c2.2,4.3,2.2,4.3-2,6.5c-10.7,5.6-21.2,11.5-30,19.9c-1.5,1.4-3,1.4-4.8,0.9c-12.2-2.9-24.3-5.9-36.5-8.5c-5.8-1.3-4.4-2.4-6.6,3.6
		c-2.5,6.8-5.7,12.9-12.3,16.7c-1.9,1.1-4.2,2.5-6.2,1.1c-2.2-1.4-0.5-3.9-0.1-5.8c0.9-3.3,2.6-6.3,4.9-8.7
		c3.7-3.9,7.4-7.7,11.8-10.8c1.8-1.2,2.8-7.5,1.6-9.3c-0.9-1.3-2-1.1-3.4-0.8c-4.9,1.5-8.8,4.7-12.5,8c-2.3,2.1-4.5,4.4-6.6,6.7
		c-0.6,0.6-1.1,1.8-2.2,1.1s-0.5-1.8-0.1-2.8c2.4-5.5,4.6-11.1,7.2-16.6c1.3-2.7,0.9-3.9-2.2-4.8c-10.4-3.1-20.9-5.9-31.6-8.2
		c-5.2-1.1-6.2-3.7-3.1-8.2c2.6-3.8,6.4-6.7,8.8-10.7c2-3.4,2.7-6.9,1.3-10.6c-3.7-10.2-4.3-20.5,0.8-30.3
		c3.2-6.2,2.4-12.3,0.9-18.5c-0.9-3.7-2-7.4-2.9-11.1c-0.3-1.2-0.1-2.5,1.4-2.7c1.1-0.2,1.5,1,1.6,1.9c0.4,6.5,3.2,12.5,3.9,19
		c0.5,3.3,0,6.7-1.4,9.7c-4.8,9.6-5.9,19.5-2.2,29.6c2.8,7.4,0.6,13.3-4.3,18.8c-1.9,2.2-3.9,4.3-5.8,6.5s-1.5,3.4,1.4,4
		c11.6,2.4,23,5.4,34.2,9c4.2,1.3,4.2,1.5,2.4,5.6C792.7,316.8,791.1,320.6,789.6,324.5"/>
	<path class="st2" d="M765.2,211.4c0,0-24.8-59.6-91.7-16.1c-50.8,33,25.3,143.6-71,195.7S7.3,410,1,410"/>
	<path class="st3" d="M772.3-373.7c2.7,7.4,7.2,12.4,14.5,16.1C782-363.6,777.5-368.6,772.3-373.7 M668.9-337.8
		c13.8-3,23.6-11.9,31.6-23.1C691.2-351.7,681.3-343.1,668.9-337.8 M582.6-166.2c8.5-3.5,11.5-10,14-18.2
		C590.2-179.2,584.8-174.4,582.6-166.2 M771.5-321.3c6,8.7,11.7,17.1,16.5,26.2c1.6-3.9,1.8-8.1,0.4-9.6
		C783.1-310.4,778-316.2,771.5-321.3 M833.8-282.5c0.5-24.3-0.5-34.3-3.8-38.5C828.3-307.7,831.1-295.1,833.8-282.5 M749.4-218.1
		c11.1,5.7,23.1,9.7,34.6,14.8c1.6,0.7,2.7,0.1,3.8-1.3C776-208.6,761.4-223.1,749.4-218.1 M791.5-255.6c-7.4,0-15,2.9-20.8,7.6
		c-2.8,1.7-2,4.9,1.4,3.9C777.3-242.7,812.4-255.7,791.5-255.6 M915.9-235.4c4.7-0.8,12.9,2.1,14.8-2c0.8-2.8,12-20,9-20.1
		c-3.6-2.5-6,1.9-8.1,4.2C926.5-247.5,921.5-241.8,915.9-235.4 M530.4-198.2c-16.6,5.2-32.5,22.7-32.5,36
		C510.7-172.7,520-185.5,530.4-198.2 M726.3-427.8c-2.6,8.4-3.9,16.9-9,24.5C703.4-364.2,736.2-392,726.3-427.8 M923.5-291.9
		c11.9-4.8,10.7-2.2,3.4,6c9.7,3.1,10.2-9.7,18-12.3c1.9-0.8,2.4-2.1,2.8-3.7c2.4-12.6-11.3-16.1-21.1-14.6
		c-3.8-0.1-3.7,0.1-3.3,3.9C924.8-305.6,924.1-299,923.5-291.9 M952.2-235.3c3.9-0.8,10.1,2,12.6-1.8c0.3-3.6,15.2-29.5,8.5-27.3
		c-5.5,1.2-16-2.4-19.4,2.1c-4.3,8.2-8.7,16.3-13.1,24.5C938-233.2,949.7-236.1,952.2-235.3 M996.5-313.4
		c-28.2,17.4-24,16-39.1,44.2c-1.1,2-0.8,2.5,1.4,2.5c5.1-1.1,16.8,2.6,19.1-2.4C984.2-284.2,990.1-297.9,996.5-313.4 M767-460
		c-8.2,2.9-14.7,7.9-19,15.6c-0.8,1.4-1.8,1.8-3.3,1.4c-8.9-3-18.6,5.9-15.9,15.1c3.4,15.4,2.7,35.6-10.8,46.1c-3.1,2.3,3,7,4.2,9.4
		c3.4,3.7,8.6,6.1,14.6,2.9c3.5-2.7,12.9-5.5,9.3-11.1c-9.9-13.2-3.6-30.1-2.7-45.2C745.4-439.1,756.5-451.7,767-460 M815-438
		c-20.7-33.8-49.6-30.2-66.9,4.2c-4.3,9.6-2.3,21.1-4.9,31.2c-2.2,3.5,3.9,25.7,7.6,21.6c0.9-2.7,9.6-9.2,5.1-10.9
		c-6.5-3.8-7.9-13.5-7.1-20.5c1.7-9.5,11.3-10.7,16.3-2.9c2.7,3.6,7.6-1.3,11.1-1.6c5.7-2,5.6-1.9,4.5-7.9c-1.5-6.7-1.2-4.3,4-7.3
		C767.6-443.1,801.4-450.6,815-438 M830.7-113.1c-69.3-0.1-138.5,0.3-207.7-0.7c41.6,5.2,83.3,9.1,125,14
		c20.8,2.1,41.6,4.4,62.3,6.9c5.8,0.2,13.9-13.6,19.1-17.6C830.1-111.1,830.8-111.8,830.7-113.1 M919.4-319.4
		c-4.2-19-23.7-24.5-15.5-25.2c17.2-0.5,38.3-41.7,26.8-55.1c-3.3-3.4-9-12.4-14.1-10.7c-9.9,4.2-18.5,11.4-26.6,17.7
		c-2.5,0.1-2.1-2.9-3.2-4.5c-2-2.9-3.8-3-5.7,0c-2.3,4.9-7.7,12.8-2.1,17c1.1,0.8,1.8,1.5,1.9,3c1.1,9.5,1.5,20.6,9.7,27.1
		C902.4-341.5,902.3-320.3,919.4-319.4 M833.5-172.7c22.2,2,45.2,0.1,67.7,0.8c1.7,0,2.6-0.8,3.4-2.3c9.9-18.8,19.9-37.6,29.9-56.4
		c1.1-2,0.5-2.4-1.6-2.4c-5.1,0.8-2.3,8.4-9.8,7.6c-9.5,1-33.1-2.9-39.3,2.3C867-206.1,850.9-189.3,833.5-172.7 M985.4-235.3
		c5.4-1.2,17.4,2.9,19.9-2.8c13.5-34.4,26.6-69,40-103.5c3.9-5.3-15.5-5.3-18.8-6.9c-5.4-1-5.3-0.9-7.2,4
		c-9.6,24.7-19.3,49.3-28.8,74c-2.8,7.3-1.6,6.1-9,6.1c-5.3-0.9-10.4,21.3-13.8,26.3C963.7-232.8,982.5-236.3,985.4-235.3
		 M865.5-212.5c-4.4-7.7-20.9-19-30.2-19.7c-14.8-4.6-29.1,1.7-42.8,7c-12.9,3.2-27-1.6-40.3-1c-25-0.9-14.9-1.6-14.8-28.8
		c0.7-12.8,1.1-25.6,2.4-38.4c0.8-4.3,0-8.1-4.4-10.7c-11.4-7-24.4-10.9-37.5-13.2c-7.1-0.2-0.7-14,1.6-17.3
		c8.2-9.3,22.8,5.4,31.1,9.2c-5.8-7.4-14.1-12.3-22.3-16.6c-2.1-1.2-2.4-2.4-0.5-4.1c21.7-19.4,48.4-35.7,62.4,0.4
		c2.1,3,4.1,12.3,7.6,12.6c2.8-1.3,1.7-5.9,1.1-8.3c-5.7-14-19.8-21.6-28.6-33.2c-2.6-2.6-5.2,3.5-7.7,4.3
		c-22.8,15.4-22.9-13.3-32.9-7.2c-5.7,2.7-0.5-13.6-1.4-16.8c0.2-6.3,0.1-12.6,0.1-19c-4.2,4-5.5,17.8-9.7,19
		c-4.4-4.7-2.6-18-2.2-24.5c-2.2,2.5-4.7,9.9-7.5,3.8c-3.3-5.9-6.5-11.8-10-18.3c-1.4,11.4-1.1,8.5-9.3,4c-0.5,1.1,0.1,1.8,0.4,2.5
		c2.4,4.9-4.9,4.1-7.9,4.9c-5.4-0.2-4.3,7.2-7.6,9.5c-2.5,1.8-6,1.3-9.1,1.8c-4.3-0.3-6.2-8.2-10.4-1.6
		c-13.4,28.6,7.5,19.2,3.4,29.6c-4.9,14.7,0.1,29.2,10.7,40c17.5,14.5,45.1-16.2,56.6-28.3c1.6-3.2,4.2-0.8,2.2,1.8
		c-10,19-30.8,39.1-54,33.1c-4-1.4-5.1,0.2-7.1,2.5c-14.6,16.4-24.5,22-36.4-0.8c4.2,10,14,27,26.9,20.3c7.3-3.4,12.9-8.8,17.9-14.9
		c1.8-2.2,3.6-3.3,6.7-2.3c37,12.8,35.8,59.8,46.9,91.3c3.1,8.3,18.7,10.9,26.1,15.7c5.7,2.7,11.3,4.6,17.7,2.4
		c6.7-2.6,12.6,3.1,18.5,5.6c3,2.4,21.5,9.2,20.1,11.9c-0.9,2-5.8,3.8-7.9,2.9c-7.2-1.7-44.8-22.7-46.2-13.7
		c-0.6,14.3-2.4,28.5-0.3,42.8c5.5-5.9,6.5-14.8,8.1-22.5c1.1-7.5,1.2-7.5,7.4-3.5c5.1,1.9-0.2,15.1,0.1,20c0.1,4.9-2.1,12,1.6,15.7
		c9.8-3.2,7.5-25.6,10.5-34.6c0-2.5,3.3-2.2,2.5,0.4c-1.5,7.9-2.4,15.8-3.5,23.8c-1.1,3.2,4.8,4,5.3,0.6c1.7-8.8,3.7-17.5,5.8-26.2
		c7.3-9.6-6.8,30.4-2.1,30.8c4,1.6,8.5-24.3,12.1-24c2.5,2.3-4,12.8-1.9,18c5.7-8.7,8.5-18.1,11.2-27.9c0.8-2.9,4.2-6.3,6.4-6
		c12.9,3,32.1-4.9,41.5,0.1c2.9,1.9,5.9,3.8,9.7,4.4c-4.6-6.8-12.1-10.7-18.5-15.5c-3-1.4-1.3-4.3,1.3-2.1
		c8.3,4.9,15.4,10.3,24.9,13.5c-1.5-5.1-18.7-15.1-16.9-17.3c0.8-1,1.7-0.2,2.5,0.3C851.4-219.8,857.6-215.3,865.5-212.5
		 M580.4-189.9c5.1-4.2,20.2-16.1,20.4-2.5c-0.6,5.5-0.5,5.5,5,6.7c46.4,10.8,22.1,9.4,60.8-11c1.8-0.9,1.8-1.8,1-3.4
		c-9.5-18.1-18.6-36.4-28.1-54.5c-1.2-2.3-0.6-3.4,1.5-4.4c5.7-2.5,5.7-2.5,8.7,3.2c9.1,17.3,18.2,34.6,27.2,51.9
		c1.4,2.6,3.2,4.2,6.2,5.2c6.3,3.1,58,16.7,34.2,24.2c5.8,3.4,12.1,10.7,1.8,12.7c4.8,10.9-9.7,9.6-16.5,8.7
		c19.2,18.6-25.3,6.9-33,6.8c-12.4-0.8-24.9,1.4-37.4,1.4c-5.9-0.3,2.8-21-1.5-26.3c-4.5,6.4-4.4,14.3-5.3,21.8
		c2.6,10.4-29.8-1.7-39.6,5.6c-12.7,5.2-45.2,15-53.8,0.8c-4.6-7.7-14,0.6-20.8-0.2c-9.3,0-14.7-4.5-16-13.6
		c-0.2-1.4-0.5-2.5-1.7-3.5c-5.3-6.6,0.8-19.1-1-27.5c-2-20.3-18.6-1.6-8.1-38.7c18.3-77.8,18.9-121,107-144.4
		c39.4-10.9,28.4-63.1,56.3-86.2c24.5-24.9,70-12.6,78.4,21.2c4.3-6,9.6-12,17.7-9.8c1.4,0.4,2.3,0.1,3.2-1.4
		c17.9-29.7,75.6-22.2,78.6,14.8c2.3,17.5,0.1,81.9-25.2,80c-1.8-0.4-3.8,0.2-5.6-0.6c-0.5-0.2-1.2,0.1-1,0.7
		c1.9,10-8.9,14.8-10.4,24c-4.3,11.2,15.9,3.3,13.7,13.5c-0.8,4.5-7,8.4-3.2,12.9c8.9,11.8,22,28.6,11.4,43.1
		c-1.9,2.8-1.7,3.4,1.7,3.8c38.5,0.6,24.1-20.4,21.1-45.3c-0.8-6.9-1.7-13.9-0.3-20.9c4-9.9,8.2,7,7.8,10.7
		c2.1,13.3-0.5,26.8,0.9,40c1.7,6.5,3.4,12.9,5.2,19.3c3.8,7.8,31.1,0.2,38-2.3c12.8-6.9,25-7.8,38.8-3.1c-2.1-4.8-6.4-5.9-9.9-9
		c-5.6-7,15.1,3.2,17,4.5c-2.4-8.7-13.8-6.3-16.4-9.9c2.7-3,13.2,2.4,17.4,2.9c-2.8-7.2-12.9-8.1-19.6-9.4
		c-5.9,0.8-20.9-31.5-25.5-31.7c4,10.1,12.7,19.9,18.2,29.8c1.8,2.9,1.5,3.8-1.6,5.6c-12.1,6.7-26.4,6.9-40,6.8
		c-3.7-0.1-3.9-0.6-3.1-4.1c5.5-24.8,6.5-50.8,5.3-76.2c-0.6-9.9-15.6-16.2-22.1-5.9c-4.2,5.8-6.7,12.4-8.5,19.4
		c-0.3,1.1-0.1,3.1-1.7,2.9c-1.5-0.1-1.6-2-1.6-3.3c-1.1-14.7,2.8-30.5,16.3-38.1c11.3-7.2,18.4-17.5,24-29.3
		c10.6-25.1,34.6-53.4,63.2-31.5c17.5,11.5,24.5,34.8,18.5,54.6c-7.5,28.8,34.3,38.3,20,73.5c-3.3,9.8-8.4,18.7-18.2,22.7
		c-6.9,2.8-9.2,8.9-13.1,13.9c-2,3.2,12.7,0.8,15,1.5c1.6,0,2-1.3,2.6-2.4c4.6-8.8,9.3-17.5,13.9-26.3c6.6-9.5,18.9-13.6,27.8-20.8
		c0.9-0.6,2-1.7,3.1-1c1.4,1,0.2,2.4-0.2,3.4c-6,14.5-12,28.9-18,43.3c-0.5,1.1-2.2,2.6,0,3.7c2.1,1,5.2,0,5.9-1.8
		c3.8-9.8,7.6-19.6,11.4-29.4c6.6-17.1,13.3-34.2,19.9-51.3c0.9-2.3,1.9-2.8,4.4-2.2c7.6,1.7,15.3,3,23,4.5c3.4,0.7,3.6,1.1,2.4,4.4
		c-6.8,17.5-13.6,35-20.4,52.5c-4.6,7.9-19.5,60.5-25.5,57.3c-46.8,1.7-27.9-9.2-50.5,22.6c-11.5,17.4-23.5,34.4-35.1,51.7
		c-2.8,4.2-25.8-2.5-31.9-2.5c-3.3-0.6-5.6-0.1-7.9,2.5c-13,14.3-26.2,28.3-39.5,42.7c167.5,4.8,597.8-4.6,759,3.8
		c-185.6,1.7-582.7-5-763.9,1.7c-21.8,24.4-14.8,20.6-47,17.2c-48-5.4-96-10.6-144-15.9c-13.1-1.5-26.3-2.8-39.4-4.4
		c-0.8-0.1-2.5,0.1-2.5-1.3c0.1-1.7,1.7-1.2,2.7-1.2c76-0.3,151.9,0.7,227.9,0.7c2.6,0,4.5-0.7,6.3-2.7c13-14.6,26.7-28.8,39.6-43.5
		c3.2-7.6,37.9,6.7,39.6,0c14.4-21.2,28.9-42.5,43.5-63.6c1.5-2.2,3.9-4.9,2.8-7.2c-0.9-1.8-4.4-0.6-6.7-0.6
		c-5.2,0.9-15-2.4-18.1,2.2c-6.6,9-29.3,64-36.5,61.3c-22.2-0.1-44.4-0.1-66.5-0.1c-2.2,0.4-6.2-0.7-3.5-3.4
		c17.4-17.5,34.8-34.9,52.2-52.5c1.7-1.7,3.4-2.4,5.8-2.4c12.3-0.4,25.3,1.1,37.2-0.6c2.4-2.4,2.9-5.6-1.5-4.6
		c-2.5-0.8-15.2,2.2-11.1-3.2c7.4-6,19.5-29.6,29.6-23.2c1.7,1.2,0.5,2.5,0,3.6c-2.9,5.7-5.9,11.3-8.7,17c-0.5,1-2,2.4-0.7,3.2
		c1.5,0.9,3.4,0.5,4.5-1.5c4.4-8.4,8.9-16.8,13.4-25.1c2.7-4.4-13.1-1.2-15.6-2.2c-8.7,0.8,7.9-12.8,3.7-13.7
		c-3.8-0.4-1.9-2.4-1-3.8c2.9-4.1,5.3-8.5,7.2-13.2c-5.5-0.1-7.8,13.8-15.7,12c-8.3,0-8.8,0.4-3.3-6.4c-0.2-0.2-0.4-0.4-0.5-0.4
		c-5.3,1.2-5.3,1.2-4.8-4.4c0.5-6.4,0.5-12.9-0.5-19.3c-1-6.2-13.3-1.5-18.9-15.6c-9.3-20.9-22.6-20-23.2-46.6
		c-0.1-1.4-0.8-2.4-1.8-3.1c-7.8-4.9,4.1-31.6,11.6-19.6c1.6,2.6,2.6,2.3,4.6,0.5c5.5-4.5,20.7-16.5,27.3-15
		c6.5,5.4,13.2,10.7,15.8,19.3c2.6,16.4-12.3,46.6-29.4,51.3c7.4,6,12.3,13.2,14.9,22c0.5,1.6,1.6,1.7,2.9,1.7
		c12.9-1.4,28.3,1.9,25.1,18.2c-0.2,0.8-0.5,1.8-0.2,2.5c2.8,5.9-1.2,10.2-3,15.4c14.5-6,21.4-21.3,22.4-36
		c1.3-23.5-31.7-36.2-22.5-61.1c13.1-33.6-31.5-79.3-60.1-47.4c-8.1,9.2-13.6,20-19.2,30.7c-9.9,26.7-39.2,25.8-38.3,57
		c2.8-6.2,4.5-11.6,9-16.4c8.3-10,24.7-2.8,25,9.6c1.1,24.8,0.8,50.1-5.1,74.3c-3.7,7.1,29.6,0.4,33.1-0.8c8.1-2.5,8.2-2.9,3.7-10
		c-3.9-6.2-8.2-12.2-11.7-18.8c-1.8-3.4-7.8-7.4-2-10.1c2-1.5,2.8,0,3.7,1.3c5.5,8,11.3,15.8,16.3,24.1c5.4,10.6,18.7,5.9,26.1,14.2
		c2.2,2.1,5.4,7.9-0.4,7.1c5.9,13.1-2.7,5.2-9.3,3.1c13.2,13.5-4,6.6-11.6,5.3c-6.9-1.6-13.3,0.4-19.3,3.3
		c-12.9,6.1-26.5,8.4-40.7,8c-8.9,0.2-7-13.1-10.3-19.1c-5.3,10.9-19.7,14.6-30.9,11.6c-2-0.6-3.4-0.3-5,1.2
		c-7.9,7.2-18.8,9.8-29.2,10c-3.6,0.3-5.3-3.8-2.6-6.3c7.7-8.1,20-11.4,30.8-9.1c2.2,0.6,3.3-0.3,4.5-2.1
		c10.7-14.3-2.4-29.7-11.6-41.6c-0.2,6.2-0.7,11.7,1.1,17.1c0.6,1.7,1.7,4.6,0.1,5.1c-2.2,0.6-2-2.4-2.5-4.1
		c-3.1-11.5-9.7-21.2-16.3-30.8c-2-4.2-10.8-12.1-10.7-15.7c3.5-1.9,21.9,17.3,25,21c1.7,2.1,2.5,2.2,3.5-0.5
		c14.4-19.8-27,3.3-4.3-31.7c3.3-4,7.6-11.2,0.4-13.8c-9.6-4-15.8-11-18.5-21c-0.3-1.2-1-2.6,0.3-3.4c1.3-0.7,2,0.7,2.8,1.5
		c6.3,6.1,12,12.8,17.5,19.6c19.9,13.5,28-11.9,30.9-27.4c4.9-27.4,10.3-70.8-26.6-76.4c5,3,8.6,5.4,12.5,9.3
		c2,0.6,23.6,28.7,12.7,21.4c-8.9-9.1-23.2-15.9-35.2-8.7c-5.6,3.9,5.2,5.1,6.2,7.8c0,1-1.3,1.3-2.1,1.6
		c-12.2,2.6,2.9,11.8-7.6,14.3c-4.3,0.5-14.6,8.3-16.9,3.1c-0.5-1.2-1.3-2.3-2.4-3.2c-14.1-9.3-12.7,21.6-1.9,23
		c5,0.9-5.6,11.5-7,13.6c-4.3,5.7,24.1,24.1,26.8,33.3c2.6,4.4,5.1,13.3-1.2,15.6c-5.7,0.5-6.3-7.6-8.8-11.3
		c-5.4-12.2-14.6-29-30.3-21.4c-10.3,3.8-19.4,9.5-27.4,17.1c-2.2,2.1-1.3,2.4,0.7,3.5c6.6,3.9,24.1,13.5,22.4,22.1
		c-1.1,0.8-2.1-0.3-3.1-0.9c-7.7-5.1-15.2-10.9-24.2-13.5c-7.4-1.8-9,8.2-10.1,13.3c-0.3,1.5,0.9,1.8,2.1,2.1
		c13.5,2.7,26.9,6.4,38.4,14.2c8.8,6.3,2.5,17.4,3.3,26.1c-1.3,15.8-1.4,31.7-3.1,47.4c-0.2,2.1,0.7,2.5,2.5,2.6
		c14.2,0.7,28.3,1.5,42.4,2.6c12.8,0.2,23.9-8.1,36.6-9.7c13.7-0.3,27.9,3.2,38.1,12.6c3.4,3.3,11.5,6.8,10.4,12.2
		c-2.7,3.3-6.4-0.8-9.6-1c7.6,9,0.2,9-6.8,5c0.7,2,3.6,3.5,1.7,5.9c-2.6,3-8.6-1.3-11.3-2.8c-6.5-6-27.8,1.6-38.8-0.4
		c-5.4-0.1-6.4,0.8-7.8,6.1c-1.9,7.5-4.3,14.8-8,21.7c-1.6,3.9-7.7,11.4-7.6,2.3c-9.1,22.7-10.3-1-19.5,10.1
		c-15.9,18.9-9.7-21.8-8.3-29.2c0.3-2.4-1.8-2.8-3.1-3.2c-2.1-0.7-1.6,1.6-1.7,2.5c0.4,3.8-8.6,35.6-13,23
		c-1.4-14.8-0.4-29.9,0.6-44.7c0-3.2,3-2,4.6-3.1c-9.2-5.7-29.3-9.2-33-19.8c-10.4-29.6-10-76-43.6-88.9c-2.5-0.9-4.1-0.8-6.1,1.5
		c-8.2,9.2-23.4,24.5-35.3,12.4c-6.6-6.2-12-13.1-14.2-22c-0.2-2.4-2.6-6.7,0.2-8.1c1.2-0.3,1.6,0.8,1.9,1.7
		c3.9,7.1,9.9,25.4,20.4,20.8c3.6-1.4,22.6-16.1,17.3-19.5c-25.3-26-2.8-41.8-14.8-46.5c-3.2-1.2-4-5.5-3.9-8.8
		c0.1-7.9,5.1-26.8,15.7-17.4c2.5,2.3,8.8,1,10.2-2.2c2.3-12.3,15.4-5,12.9-11.5c-0.6-1.5-1.7-3.8-0.1-4.9c2.4-1.3,5.9,3.2,8.2,4.3
		c2.1-2.7-0.3-7.5,3.1-8.8c1.4-0.2,1.7,1.4,2.2,2.3c3.2,5.7,6.4,11.5,9.5,17.3c2.5,5.5,6.1-9.1,7.9-10.8c0.5-1.1,0.7-3.2,2.6-2.4
		c1.3,0.6,0.6,2.2,0.3,3.4c-2.2,9.4-4.2,19.2-1.7,28.8c13.8-39.7,12.7-3.4,10.5,13.9c0.1,1.1-1.2,4.6,0.9,4.2
		c6.6-0.5-5.2-11.2,6.9-28.4c25.5-42.6-33.9-78.2-66.7-47.8c-23,18.9-20.1,50.7-36.6,73.3c-5.3,6.8-11.8,11.9-20.4,14.2
		c-18.4,4.9-36,11.9-52.3,22c-40.8,24.2-42.3,75.3-53.6,116.4c-1.9,7.7-4.3,15.2-4.4,23.3c0,3.3,1.3,5.4,4.2,6.6
		c14.2,7.9,3.6,26.4,6.8,38.9c2.5-11.8,7.7-21.5,17.7-28.2c2.9-1.2,22.5-17.8,20.6-7.9c-9.7,13.5-20.5,27.4-33.7,37.5
		c-1.4,0.8-1.9,1.8-1.7,3.3c1.4,8.9,7.9,13.3,16.8,11.3c24.5-8.7,13.4,5.9,30.9,7.3c15,0.3,29.4-2.3,43.1-8.8
		c7.5-3.5,16.3-0.1,24.4-0.6c16.5,2.8,7.4-4.3,13.6-20.1c1.7-7.8,8.8-7,7.8,0.9c1.6,4-4.4,21.4,1,19.8c15.1-0.3,30.1-3.3,45.1,0.2
		c6.8,1.5,13.8,2.2,20.8,2.3c3.9,0.7,5.1-3.3,1.5-5.2c-5.9-6.1-28.3-7.2-28.7-11.7c0.4-1,1.3-0.2,1.9-0.2c3.9,0.4,7.6,1.4,11.2,2.6
		c7.1,1.9,26.3,8.2,30.9,1.6c1.2-6.8-31.4-9.7-33.3-15.9c2.5-2,12.3,2.7,16,3.2c6.5,0.6,15.9,9.7,21.4,4.4
		c-2.3-8.5-19.4-10.4-26.7-13.8c-3.6-0.9-2-3.9,0.9-2.6c7.6,1.5,17.8,8.4,24.6,3.1c-2.1-4.9-17.8-9.1-23.2-11.7
		c-6.9-3.8-17.2-3.5-21.8-10.3c-9.6-18.3-19.3-36.5-28.9-54.8c-1-1.9-2-1.8-3.7-1.1c-2.3,1-1,2.1-0.4,3.2c9,17.8,18,35.6,27.1,53.3
		c2,3.8,2,3.9-1.8,5.9c-9.6,5.1-19.1,10.3-27,17.9c-1.3,1.3-2.8,1.2-4.3,0.8c-10.9-2.6-21.9-5.3-32.9-7.7c-5.3-1.2-4-2.1-5.9,3.3
		c-2.5,6.8-8.2,17.5-16.6,16c-3.6-7.9,9.3-18.2,15-22.7c2.1-1.7,3.6-11.1-1.6-9.1c-7.1,2.3-12.2,8-17.2,13.2
		c-1.3,2.4-3.5,0.6-2.1-1.5c10.8-25.1,11.9-16.5-23.9-26.6c-11.2-2.8,2.7-12.1,5.1-17c5.6-10.8-7.3-21.2,1.9-36.9
		c6.6-8.8-5-26.8-0.6-29.1c1-0.1,1.4,0.9,1.4,1.7c0.3,5.9,2.9,11.3,3.5,17.1c0.4,3.2,0.1,6-1.3,8.8c-12.3,22.5,10.5,30.2-11.1,49.4
		c-1.7,2-1.4,3,1.3,3.6c10.4,2.1,20.7,4.9,30.8,8.1c3.8,1.2,3.8,1.3,2.1,5C583.3-196.8,581.9-193.3,580.4-189.9"/>
	<path class="st4" d="M557.9-292.9c0,0-22.3-53.5-82.3-14.5c-45.6,29.6,22.7,129-63.8,175.7c-86.5,46.8-534.3,17-540,17"/>
	<rect id="SVGID_3_" x="-49.6" y="-435.1" class="st5" width="1683.8" height="595.3"/>
</g>
<g id="Layer_2">
	<path class="st6" d="M1479.5,84c-3.4-1.3-7-1.2-10.6-1.4C1472.2,84.7,1475.9,84.4,1479.5,84 M1158.4,350.9c-4.1-1.2-8-3.8-12.6-2.5
		c-1.5,0.4-3,1.2-2.8,2.8c0.3,1.8,2.2,1.6,3.6,1.5C1150.5,352.5,1154.5,352.2,1158.4,350.9 M1406,214.4c3.6-3.8,9.7-6,7.1-13
		C1406.5,204.3,1404.1,208.7,1406,214.4 M1723.8,383.7c-5.8-1.2-11.7-1.2-17.5-1.6c-2.7-0.2-5.4,0-8-0.1c-0.8,0-1.5-0.3-1.7,0.9
		c-0.1,1,0.4,1.4,1.3,1.6c0.5,0.1,1.1,0.3,1.6,0.3C1707.5,384.7,1715.7,385.2,1723.8,383.7 M1426.9,191c-4.3,1.6-7.3,4.5-10.4,7
		c-2.2,1.8-0.5,4.6-1,7C1419.9,202.6,1425.6,195.7,1426.9,191 M1469.1,278.2c0.6,1-0.9,2.7,1.1,3c1.5,0.3,5.6-2.5,5.7-3.8
		c0.2-3.3-0.7-6.3-2.6-9c-1.2-1.7-2.2-0.9-2.8,0.6C1469.5,272,1469.9,275.2,1469.1,278.2 M1482,170.8c0-5.3-1.6-7.2-6.2-7.3
		c-1.7-0.1-2.6,0.6-2.3,2.3c0.8,3.7,2.4,7.1,5,9.8c0.6,0.7,1.4,1.7,2.5,1.2c1-0.5,1-1.6,0.9-2.6C1482,173.1,1482,172,1482,170.8
		 M1405.4,204.2c0.4,0,0.5,0.1,0.6,0c6.3-3.7,8.8-9.2,7.5-16.4c-0.2-1.3,0-2.7,0-4c0-5.8,0-5.8-5.5-4.8c-1.9,0.3-2.7,1.1-2.6,3.3
		C1405.5,189.5,1405.4,196.8,1405.4,204.2 M1413.2,429.9c-3.7-2.8-7.6-2.8-11.2-3.3c-9.8-1.2-19.6-1-29.5-0.9
		c-0.7,0-1.9-0.2-1.8,0.8c0,0.9-0.2,2.4,1.3,2.7c2.2,0.4,4.3,1.1,6.5,1.2c10,0.6,20,2.2,30.1,0.8c0.5-0.1,1.1,0,1.7-0.2
		C1411.1,430.7,1411.9,430.4,1413.2,429.9 M1475.2,43.9c-2.4,6.3-3.5,12.5-4.6,18.8c-0.6,3.4-0.9,6.8-1.6,10.1c-0.4,1.7,0.2,2,1.6,2
		c2.8,0,5.5,0.1,8.3,0.6c3.1,0.5,3.8-0.3,3.1-3.4c-1.4-6.3-2.9-12.6-4.4-18.8C1476.8,50,1476,47,1475.2,43.9 M1421.1,99.7
		c-2-13.7-3.7-26.7-7.2-39.4c-1.9,11.3-3.4,22.6-4.5,34c-0.2,2.2,0.3,2.8,2.6,2.9C1414.9,97.2,1417.9,97.5,1421.1,99.7
		 M1609.4,195.4c-16.4-8-32.5-15.9-48.6-23.6c-12-5.7-24.1-11.3-36.2-16.9c-1-0.5-2-0.9-3-1.3c-1.7-0.7-2.5-0.4-2.6,1.8
		c-0.2,3.7,1,7.2,1,11.2c1-4,3.4-3.3,6.2-2.5c18.7,5.8,36.5,13.7,54.7,20.7c8.9,3.5,17.7,7.1,26.5,10.7
		C1607.8,195.6,1608.2,195.9,1609.4,195.4 M1780.8,336.3c-4.2-1-6.2,1.1-7.7,4.6c-1.2,2.9-2.8,5.5-4.2,8.3c-1.8,3.6-0.3,6.2,3.6,5.9
		c2.8-0.2,5.5-0.7,8.2-1.3c2.6-0.6,2.6-3,3.3-4.9c0.6-1.7-0.1-4.6,1.9-4.8c2.1-0.2,2.6,2.7,3.6,4.4c1.1,1.8,1.1,4.6,3.1,5.2
		c3.2,1,6.6,0.2,10,0.1c1.2,0,1.4-1.4,1.5-2.3c0.1-1.3,0.3-2.6,0.7-3.9c0.3-0.9-0.1-2.3,1.3-2.3c1.2,0,1.5,1.2,1.9,2.1
		c0.7,1.9,1.1,3.8,1.6,5.7c0.2,0.8,0.8,1.1,1.5,0.8c0.7-0.2,0.6-0.9,0.4-1.4c-1.7-4.6-3.5-9.2-5.2-13.9c-0.5-1.4-1.6-0.9-2.5-1.1
		C1796.1,336.4,1788.3,337.6,1780.8,336.3 M1561.3,398.5c5.9-2.9,11.7-5.2,17.6-6.9c19.1-5.7,38-5.8,56.9,0.9
		c10.3,3.6,20.4,7.8,30.4,12.3c0.8,0.4,1.7,1.4,2.8,0.7c1.1-0.8,0.7-2.1,0.5-3.1c-0.8-3.8-0.9-7.7-1.6-11.5
		c-0.5-2.6-1.9-3.1-3.8-3.2c-9.8-0.8-19.6-1.6-29.4-2.1c-13.9-0.7-27.8-1.8-41.8-2.5c-9.4-0.4-18.8-0.8-28.1-1.5
		c-2.2-0.2-2.7,0.6-2.7,2.7C1562,388.7,1561.6,393.4,1561.3,398.5 M1804.1,396.7c-1.1-8.6-1-16.9-2.7-25.6
		c-3.5,3.8-6.2,7.6-9.9,10.6c-8.9,7.3-23.8,7.3-32.1-3.2c-12.1-15.2-20.6-32.3-29-49.6c-6.9-14.2-13.3-28.7-19.1-43.3
		c-0.1-0.4-0.4-0.7-1.3-0.8c0.8,14,1.6,28,2.4,41.9c0.4,0,0.7,0,1.1,0c0-5.6,0-11.3,0-16.9c0-1.3-0.5-3.1,1.1-3.6
		c1.8-0.6,2,1.4,2.5,2.5c5.8,12.7,11.8,25.3,15.5,38.8c1.7,6.3,0.8,12.9,1.6,19.3c0.1,1.1,0,2.2,0.6,3.3c0.6-3.6,1-7,1.7-10.3
		c0.4-2,1.4-2.9,3-0.9c5,6.1,9.4,12.7,12.7,19.9c0.8,1.8,0.4,4.2,0.3,6.3c-0.1,1.9,0.4,2.8,2.5,3.1c7.1,1,14.3,2.1,21.4,3.2
		C1785.4,393,1794.8,393.7,1804.1,396.7 M1638.3,362.6c2-6,0.5-12.3,1.8-18.3c0.8-3.7,0.6-7.5,1.2-11.3c0.5-3.6,2.5-5.1,5.6-6.2
		c4.2-1.4,8.6-1.3,12.9-1.6c-3-0.5-6-1.2-9-1.5c-3.2-0.3-4.2-2.5-4.4-5c-0.8-7.4-0.7-14.7-0.1-22.1c0.2-2.2,1.9-3,3.6-3.3
		c5-0.8,10.1-1.5,15.2-2c1.9-0.2,2.5-1.1,2.7-2.7c1.2-8.5,0.7-17,0-25.4c-0.1-0.9-0.3-1.5-1.3-1.6c-0.9-0.1-1.7-0.5-2.6-0.5
		c-9.4-0.1-18.7,0.5-28,1.8c-1.4,0.2-1.7,0.8-1.6,1.9c0.2,11.3,0.4,22.6,1.1,33.8c0.4,6,0.2,12.1,0.6,18.1c0.8,11.1,1,22.3,1.5,33.5
		C1637.6,354.4,1638.3,358.5,1638.3,362.6 M1794.2,396.3c-6.2-0.9-12.4-1.8-18.6-2.8c-7.6-1.1-15.1-2.3-22.7-3.4
		c-1.7-0.3-2.7-1.5-2.5-3.1c1.3-9.6-5.4-15.8-9.8-23c-0.5-0.9-0.9-2.1-2.4-2.7c-0.9,2.6-1,5.4-1.3,8c-0.7,5.5-1.3,11.1-1.9,16.6
		c-0.1,0.8-0.3,1.8-1.1,1.8c-0.8,0-1-0.9-1.1-1.8c-0.1-2.8-0.5-5.5-0.5-8.3c-0.1-9.1-0.4-18.1-1.4-27.1c-0.7-6.6-3.6-12.5-6-18.6
		c-2.7-7-5.6-13.8-8.9-20.5c-0.3,0-0.7,0.1-1,0.1c0,5.5-0.2,11,0,16.5c0.6,13.8,0.3,27.5,0.4,41.3c0,3,0.2,6,0.3,9.1
		c0,1.7,0.6,2.2,2.4,2.3c3.4,0.2,6.8,0.8,10.3,1.2c1.1,0.1,2.5,0.4,2.4,1.7c-0.1,1.2-1.4,1.6-2.5,1.7c-5.3,0.8-10.6,1.4-16,1.3
		c-4.3,0-8.5,0.1-12.8,0c-2.4-0.1-5.2,0-5-3.7c0.1-1.4-1.3-1.5-2.2-1.5c-4-0.1-8.1-0.1-12.1-0.1c-2.3,0-2.7,1.9-3,3.4
		c-0.7,4-0.9,8-0.6,12c0.6,9.7,2,19.3,1.8,29.1c0,1.8,0.4,2.5,2.4,2.6c15.4,1.2,30.8,1.8,46.2,0.3c4.6-0.5,9.3,0.2,14.1,1.5
		c-0.1-8.3-0.1-16.3,0.5-24.3c0.2-3.3,0.6-6.7,0.7-10c0.1-2.2,1.1-2.6,3-2.4c15.7,1.5,31.4,2.9,47.1,3.3c0.6,0,1.2-0.1,1.9-0.2
		C1794.2,396.6,1794.2,396.4,1794.2,396.3 M1185.9,336.2c7.7-0.3,14.8-2.6,21.9-4.9c33.7-11,66.2-24.9,97.8-40.8
		c11.3-5.7,21.2-13.5,30.6-21.8c18.8-16.6,36.9-33.8,55.1-51c3.4-3.2,6.9-6.3,10.3-9.5c1-0.9,1.7-1.8,1.7-3.4
		c-0.1-7.3-0.1-14.6,0-21.8c0-2.9-1.2-2.2-2.8-1.4c-5.1,2.7-9.2,6.7-13.6,10.2c-18.3,14.9-36.6,29.8-54.8,44.8
		c-18.7,15.4-37.7,30.5-56.9,45.3c-20.5,15.8-41,31.4-64.3,42.8C1202.7,328.7,1194.3,332.3,1185.9,336.2 M1451.2,429.5
		c4.6-0.3,9.2-0.7,13.7-0.7c14.6-0.2,29.1,0.1,43.7-0.4c14.2-0.5,28.4-0.5,42.6-0.4c0.1,0,0.2,0,0.3,0c2.1-0.4,4.9,1.9,6.2-0.2
		c0.9-1.4-0.2-4.1-0.4-6.1c-0.8-7.4-1-14.9-1.4-22.4c-0.4-7.4-0.7-14.9-1.9-22.2c-0.4-2.4-1.2-3.6-4.2-3.8c-14.5-0.7-29-1-43.6-1.3
		c-17-0.4-34-0.8-51-1.2c-4-0.1-4.1-0.6-3.7,4.1c0.6,7.5-0.1,15,0.6,22.5c0.8,8.3-0.4,16.5-0.3,24.7
		C1451.8,424.5,1450.5,426.9,1451.2,429.5 M1472.1,15.3c-2.6,1.8-3.6,4.5-4.8,6.9c-6.6,12.8-12.5,26-17.9,39.4
		c-2.2,5.6,1.5,11.8,7.4,12.4c2.7,0.3,5.4,0.2,8,0.4c2.2,0.2,2-1.7,2.2-2.7c0.6-5.6,1.8-11.1,2.9-16.6c0.9-4.6,1.6-9.3,3.3-13.7
		c0.4-1.1,0.4-2.4,1.9-2.3c1.2,0,1.4,1.2,1.6,2.2c2.9,11.1,6,22.2,7.7,33.7c0.2,1.6,0.5,3.5-2.8,2.8c-3.7-0.8-7.5-1.1-11.3-1
		c-1.6,0-1.7,0.9-2,2c-0.5,1.7,0.8,1.4,1.7,1.6c4.1,0.6,8.3,1.2,12.4,2c0.9,0.2,2.1,0.5,2.2,1.7c0.2,1.3-1,1.6-1.9,1.9
		c-4.9,1.3-9.8,1.1-14.6-0.8c-1.4-0.5-1.9-1.8-2.9-3.2c-1.2,3.4-1.2,6.6-1.3,9.7c-0.1,4.2,0.5,8.5-0.6,12.7
		c-0.3,1.1,0.2,2.6-1.5,2.9c-1.7,0.3-2-1.3-2.5-2.3c-3.7-7.2-6.5-14.9-9.6-22.4c-1.8-4.4-3.8-8.8-5.9-13.7c-3,3.6-4.5,7.5-6.2,11.2
		c-5.4,11.9-9.9,24.2-14.6,36.4c-0.4,0.9-0.3,2.3-1.5,2.2c-1.5-0.1-1.2-1.6-1.3-2.6c-0.1-2.9-0.1-5.8-0.3-8.7
		c-0.1-1.8-0.8-2.9-3.1-2.7c-2.5,0.2-5.1,0.3-7.7-0.4c-2.2-0.6-3.1,0.3-3.2,2.8c-0.8,20.5-0.6,41-0.6,61.5c0,3,0,6,0,9.2
		c2.3-0.3,4.4-0.8,6.6-0.9c1.6-0.1,1.4-1,1.5-2c0.2-8.3,0.5-16.5,0.6-24.8c0.1-5.2,0.8-6.3,5.7-8.1c7-2.6,14.4-4.1,21.7-5.4
		c11.6-2.1,23.3-4,34.9-6c2.1-0.4,3.8-0.3,4.1,2.5c0.9,7.6,2,15.2,2.8,22.7c0.3,2.6,1.1,5.2,0.7,8c-0.1,0.8,0.4,1.3,1,1.6
		c8.8,3.8,16.9,9.1,26,12.4c2.5,0.9,2.8-0.3,3.2-2c1.5-6,0.1-12-0.2-18c-0.2-4.4-1.3-8.8-1.8-13.1c-0.2-1.5-0.8-2.4-2-3.1
		c-9.4-5.3-19.1-10-28.6-15c-3.6-1.9-7-1.2-10.3-0.6c-11.4,2-22.8,4.3-34.2,6.4c-7.3,1.3-14.6,2.4-21.9,3.6c-0.5,0.1-1.1,0.1-1.7,0
		c-0.9-0.1-2.1,0.4-2.3-1.1c-0.2-1.2,0.6-1.8,1.6-2.2c3.6-1.7,7.3-3,11.1-4.3c15.7-5.3,31.5-10.3,47.7-14.1c4.1-1,7.8-0.5,11.5,1.1
		c10,4.5,19.4,10.1,29.6,14.2c0.8,0.3,1.6,0.8,2.4,1c3.2,0.8,4.3-0.3,4.6-3.6c0.4-5.8-0.7-11.5-1.3-17.2c-0.2-2-1.7-2.1-3-2.6
		c-3.8-1.2-7.7-2.1-11.4-3.5c-1.5-0.6-4.3-1.2-3.7-3.5c0.7-2.3,3.4-1.2,5.1-1c3.7,0.5,7.4,1.4,11,2.3c1.4,0.3,2,0,1.8-1.3
		c-1.6-10-3.1-20.1-4.9-30c-0.7-4-1.2-8-2.7-12.2c-2.2,6.1-3.1,12.2-4.3,18.2c-0.6,2.9-0.9,5.9-1.4,8.8c-0.1,0.8-0.6,1.5-1.5,1.5
		c-0.8,0-0.9-0.6-1.2-1.3c-1.3-3.7-2.9-7.3-4.2-11c-0.8-2.3-1.6-1.9-2.8-0.4c-0.8,1-1.7,2.1-2.4,3.2c-0.4,0.7-0.6,1.6-1.5,1.4
		c-0.8-0.1-1-1-1.2-1.8c-2-7.1-4-14.1-6-21.1C1480.3,41.4,1476.6,28.4,1472.1,15.3 M1454.6,176.5c-3.7-0.8-7.2,0.4-10.7,0.4
		c-8.9,0-17.9-0.3-26.9,0.7c-1.4,0.2-1.6,0.8-1.6,2c0,5.1,0,10.3,0,15.5c1.6,0.3,2.3-0.8,3.2-1.5c1.9-1.5,3.9-2.9,6.1-4
		c1.2-0.6,2.4-0.9,3.4,0c1.2,1,0.9,2.4,0.3,3.7c-2,4.9-5.6,8.6-9.4,12c-2.8,2.5-3.9,5.1-3.8,8.8c0.4,16.1,0.2,32.2,0.9,48.3
		c0.3,7.4,0.2,14.9,1.7,22.3c0.3,1.5,0.7,2.1,2.2,2c9.7-0.2,19.4-0.8,29-1.9c5.1-0.6,10.1-1.4,15.1-2.1c2.5-0.3,2.9-1.3,2.8-3.4
		c-0.2-3.6,0.4-7,1.3-10.5c0.4-1.7,1.4-3.2,3.1-3.5c1.6-0.3,2.9,1,3.8,2.3c2.1,3.1,3.2,6.6,2.6,10.3c-0.5,3.1-3.3,3.9-5.8,4.6
		c-2.2,0.6-3.1,1.5-3,4c0.2,10.4-0.2,20.8,0.2,31.2c0.3,8.1,0.5,16.2,1.9,24.3c0.3,1.6,0.8,2.1,2.4,2.5c3.5,1,7,1.2,10.5,1.5
		c10.4,1,20.9,1.8,31.4,0.4c2.3-0.3,2.9-1.2,2.9-3.4c-0.1-14.7,0.5-29.4-0.2-44c-0.8-16,0-32-0.8-47.9c-0.6-11.3-0.7-22.6-1-33.9
		c0-1.7,0.2-3.6-2.1-3.9c-2.4-0.3-2.3,1.7-2.7,3.3c-1.2,4.6,0.8,8.7,1.7,12.9c0.8,4.3-0.6,5.8-4.8,5c-5.6-1.2-10-4.5-14.5-7.7
		c-5-3.5-10.2-6.8-16.6-6c-6.2,0.8-12.3,2.4-18.4,3.7c-10.9,2.2-21.7,4.5-32.6,6.7c-0.5,0.1-1.1,0.4-1.4-0.3
		c-0.3-0.8-0.1-1.4,0.3-2.2c3.1-5.4,6-10.9,9.1-16.4C1441,200.5,1447.8,188.6,1454.6,176.5 M1400.7,367.1c7.5,0.1,14.9,0.2,22.4,0.3
		c0.4,0.1,0.8,0.2,1.1,0.3c7.2,0.1,14.5,0.1,21.7,0.5c2.6,0.1,3.2-0.3,3.2-2.9c-0.1-7.5,1.9-6.9,7.7-8.1c0.8-0.2,1.5-0.1,2.3-0.2
		c0.3-0.1,0.5-0.3,0.8-0.4c13.2,0,26.5,0,39.7,0.1c0.4,0.1,0.7,0.2,1.1,0.3c0.7,0,1.4,0,2.1,0l0.3,0.1l0.3-0.1
		c16,0.7,31.9,2,47.8,3.5c8.3,0.8,8.6,0.9,10.2,8.7c0.3,1.3,0.7,2,2.3,2.2c6.2,0.5,12.4,1.5,18.6,1.8c10.4,0.5,20.6,2.3,30.9,3
		c9.9,0.6,19.7,2.2,29.6,2.6c2.3,1.1,4.7,0.3,7,0.6c3.1,1.1,6.3,0.5,9.5,0.1c-2.9-0.3-5.8-0.5-8.7-0.8c-2.2-0.2-4.5-0.4-6.7-0.6
		c-3.3-0.4-6.6-3.7-7-7.2c-1.4-10.7-1.7-21.6-2.3-32.4c-0.4-7-0.7-14-1-21c-0.1-0.3-0.2-0.7-0.3-1c-0.3-10.6-0.6-21.3-1-31.9
		c0.1-0.2,0.1-0.4-0.1-0.6c-0.1-6.4-0.3-12.7-0.4-19.1c0-2.2,0.4-3.6,3.2-4c7.4-1.1,14.9-1.3,22.3-1.8c3.1-0.2,6.2-0.1,9.3,0.6
		c1.7,0.4,2.7,1.3,2.8,2.8c0.7,8.9,1.3,17.9,0,26.8c-0.3,2.3-1.4,4-4.3,4.2c-5,0.4-9.9,1.3-14.8,1.9c-1.3,0.2-2.2,0.6-2.3,2.2
		c-0.3,6.9-0.8,13.8,0.1,20.7c0.3,1.9,1,3.3,3.2,3.6c2.6,0.3,5.3,0.7,7.9,1c3.5,0.5,7.1,0.9,10.6,1.4c1,0.1,2.2,0.7,2.1,1.8
		c-0.1,1.4-1.3,1.5-2.6,1.5c-4.8,0-9.6,0-14.5,0c-2.8,0-5.5,0.5-8.2,1.4c-2,0.6-3.1,1.8-3.5,4.2c-1.6,9.1-1.9,18.2-2.5,27.3
		c-0.2,3-0.1,6.1,0.2,9.1c0.4,3.5,3.1,1.2,4.8,1.7c1.9,0.5,1.7-0.9,1.8-2.2c0.4-6.1,0.7-12.3,1.3-18.4c0.4-3.9,2.1-7.2,5.7-9.3
		c8.4-4.9,19.2-1.1,22.4,8.2c1.4,4,2.2,8.2,3.4,12.9c1.1-2.4,0.1-4.1,0.1-5.8c0-23.8-1.3-47.6-2.5-71.4c-0.5-10.5-1.1-21-2.1-31.4
		c-0.2-2.4-1.1-2.8-3-2.6c-3.9,0.4-7.8,0.5-11.6,0.9c-7.3,0.8-14.5,1.9-21.8,2.5c-4.5,0.4-9.2,1.6-13.7-0.5
		c-1.9-0.9-3.9-1.5-5.8-2.3c-18.7-7.5-37.4-14.9-55.9-22.7c-14.3-6.1-28.6-12-42.3-19.3c-2-1.1-3.1-2.7-3.1-4.6
		c-0.1-5.6-0.3-11.2,0.2-16.8c0.4-4.6,1.4-9.4,0.6-13.9c-1.1-6.5-2.1-12.9-2.3-19.4c-0.1-4.2,1.4-5.2,5.2-3.5
		c21.4,9.3,42.3,19.5,63.2,29.7c12.7,6.2,25.5,12.3,37.8,19.1c1.1,0.6,3.4,1,2.5,2.9c-0.7,1.4-2.3,0.3-3.5-0.1
		c-12.1-4-23.7-9.2-35.5-13.9c-19.6-7.7-38.9-16-58.9-22.7c-5.2-1.8-4.9-1.7-5.5,3.8c-0.3,2.9,0.7,4.2,3.1,5.2
		c3.9,1.6,7.7,3.6,11.6,5.3c15.7,6.9,31.5,13.8,47.3,20.6c31.9,13.7,63.9,27.3,96.2,40.1c4.6,1.8,4.6,1.8,4.1-3.3
		c-0.1-1.4-0.1-2.9-0.1-4.4c-0.1-3.3-1.1-5.8-4.6-7c-3.4-1.2-6.6-2.9-9.9-4.4c-12.4-5.4-24.8-10.8-37.2-16.1
		c-2.7-1.1-3.7-2.8-3.5-5.6c0.6-8.3,2.5-16.5,3.3-24.8c0.1-0.9-0.1-2,1-2.2c1.2-0.2,1.7,0.9,2.1,1.8c0.4,1,0.7,2.1,1,3.1
		c2,7.1,4,14.2,6,21.3c0.3,1.2,0.6,3,2.2,2.8c1.4-0.1,2.6-0.7,3.2-2.7c2.7-8.9,5.7-17.6,8.6-26.4c2.7-8.3,5.3-16.6,7.9-24.9
		c0.3-0.9,0.3-2.2,1.6-2.2c1.1,0,1.6,1,2.1,1.9c0.2,0.4,0.5,0.8,0.6,1.2c4.5,13.1,8.3,26.5,11.2,39.9c0.7-0.7,0.7-1.8,0.9-2.9
		c1.1-5.6,2.3-11.3,3.6-16.9c0.3-1.1,0.1-3.2,1.9-3c1.3,0.2,1.6,1.8,1.9,3.2c1.3,8.4,2.1,16.7,2.6,25.2c0.3,4.4,1.6,6.2,5.1,5.7
		c2.9-0.4,2-3.3,2.2-5.3c0.9-6.4,0.7-12.9,0.7-19.3c0-0.8-0.5-2,0.8-2.2c1.6-0.2,1.7,1.2,1.8,2.2c3.1,17.7,6.9,35.4,6.7,53.6
		c-0.1,9.6,0.6,19.3-0.6,28.9c-0.2,1.9-0.7,3.3-2.8,3.4c-3.6,0.1-10-5-10.5-8.6c-0.4-2.9-0.6-5.8-0.8-8.7c-0.5-5.5-1-11-1.5-16.5
		c-0.4,16.5,0.3,32.9,0.7,49.3c0.6,23.6,1.2,47.2,2.2,70.8c0.3,9.1,0.7,18.1,0.9,27.2c0.1,3,1.1,4.4,4.4,4.2
		c3.3-0.2,6.8-0.4,10.1,0.2c2.9,0.5,3-0.6,2.9-2.7c-0.5-8.2-1-16.3-1.4-24.5c-0.9-14.4-1.7-28.8-2.6-43.2c-0.6-10-1.3-20.1-1.8-30.1
		c-0.1-1.5-1-3.8,0.7-4.3c1.9-0.5,1.9,2.1,2.4,3.3c9.5,23.6,19.8,46.8,31.8,69.3c5.5,10.3,11.2,20.5,18.9,29.4
		c7.4,8.5,17.7,9.9,27.3,3.9c4.7-2.9,7.7-7.4,11.2-11.4c0.6-0.7,1.2-1.8,2.4-1.4c1,0.4,1.2,1.3,1.5,2.4c1.2,5.9,1.4,11.9,2,17.9
		c0.5,5.7,0.9,11.5,1.4,17.2c0.6-1.2,0.6-2.4,0.6-3.7c0.2-13-0.8-26-1.4-38.9c-0.2-3.5,1.1-5,4.5-4.9c0.8,0,2.1,0.4,2.1-0.9
		c0-0.9-0.9-1.5-1.9-1.5c-2.4,0-3.5-1.1-3.3-3.5c0-0.5-0.5-0.9-1.1-2c-0.3,4.8-3,5.7-6.6,5.4c-1.6-0.1-3.1-0.1-4.7,0.1
		c-3,0.2-5.1-0.8-6.1-3.9c-0.5-1.5-1.4-2.9-2.5-5.3c-0.8,5.7-2.7,9.4-8,9.6c-4.1,0.2-8.7,3-12-2c-0.6,0.8-1.2,1.5-1.7,2.2
		c-0.7,0.8-1.3,0.6-1.9-0.1c-0.8-1.1,1.4-8.7,2.4-8.4c3,0.8,2.7-1.8,3.5-3.1c1.5-2.6,2.9-5.2,4.2-7.9c1-2.1,2.5-2.8,4.8-2.7
		c7.6,0.3,15.2,0.5,22.8,0.7c6.7,0.2,6.7,0.1,9,6.3c1.5,4,3,8,4.6,12.3c1.5-1.9,1.5-3.7,2-5.4c0.4-1.1,0.4-2.9,1.7-2.9
		c1.7,0,1.1,2.1,1.8,3.2c0.1,0.2,0,0.4,0.1,0.7c0.5,7.5,0.6,15,1.5,22.4c0.7,5.9,0.5,11.8,0.9,17.7c0.6,7.8,0.9,15.7-0.2,23.5
		c-0.4,2.9,0.5,3.6,3.1,3.5c5.2-0.1,82.8,1,87.9,1.4c0.9,0.1,2,0.3,1.9,1.3c-0.1,1.1-1.3,0.7-1.9,0.7c-3.2-0.3-79-1-82.2-1
		c-3.9,0-8.4-2.6-11.3,2.5c-0.7,1.2-2.4,0.6-3.6-0.2c-1.2-0.8-2.3-1.7-2-3.2c0.3-1.5,1.7-1.5,3-1.5c2.1,0,3.3-0.8,3.1-3.2
		c-0.1-1.2,0.5-2.4,0.5-3.6c0.4-14.7-0.7-29.3-1.6-43.9c-0.2-4.2,0.4-8.6-1.5-12.7c0,1.9-2.7,2.1-2.4,3.7c0.7,3.5-1.1,4.2-3.9,4.1
		c-2.3,0-2.8,1-2.7,3.1c0.4,6,0.4,12.1,0.9,18.1c0.8,10.5,0.6,21,0.5,31.5c0,1.3-0.4,2.7-1.7,2.9c-1.4,0.2-1.5-1.2-1.8-2.4
		c-1.4-5-1-10.3-2.2-15.3c-2.7,0.5-5.3,0.7-8,0.6c-16.3-0.4-32.6-2-48.8-3.1c-2.4-0.2-2.7,0.6-2.9,2.6c-0.9,9.6-1.3,19.2-1.1,28.8
		c0,1.7,0.2,3.6,1.7,4.9c0.5,0.5,1.5,1,0.6,1.9c-0.6,0.6-1.6,0.5-2.2,0c-4.7-3.9-10.4-3.4-15.9-3.3c-8.4,0.1-16.8,1.3-25.2,0.8
		c-6.9-0.4-13.8-0.9-20.7-1.2c-1.3-0.1-2.7-0.6-4,0.8c-2.5,2.7-6.8,2.5-9.3-0.3c-1.2-1.3-0.5-2.3,1-2.6c1.4-0.2,2.9-0.2,4.4-0.1
		c2.4,0.2,3.1-0.8,3.1-3c-0.1-5.7-0.8-11.4-1.1-17.1c-0.5-7.8-1.7-15.6-0.4-23.4c0.7-4.1,2.2-5.5,6.5-5.5c3.7,0,7.4,0,11.1,0
		c1.2,0,1.9-0.1,1.7-1.6c-0.9-5.9-0.6-11.8-0.9-17.7c-0.8-17-1-34-1.6-51c-0.3-10.6-0.8-21.2-1.1-31.8c-0.2-8.6,0.1-17.2-0.4-25.7
		c-0.8-15.3-0.3-30.7-0.6-46c0-1.3,0.1-3.1,2.3-2.9c1.7,8.9,1.9,17.9,2.7,26.9c0.7,8,1.4,16,2.1,24c0.2,2.3,5.9,7,8.2,7
		c1.7,0,1.2-1.3,1.3-2.1c0.6-6.9,0.6-13.8,0.4-20.7c-0.2-10-0.1-20.1-1.4-30.1c-0.8-6.6-2.3-13-3.5-20.3c-1.4,4.4-0.7,8.4-1.5,12.1
		c-1.1,4.9-1.2,5.1-6.1,3.8c-0.7-0.2-1.3-0.9-2.2-0.5c-1.4-1.6-2.5-3.3-2.6-5.5c-0.2-3.7-0.5-7.4-0.8-11c-0.3-4.4-0.8-8.7-2-13.1
		c-1.3,4.3-2.3,8.5-3,12.8c-1.1,6.4-3.2,12.7-1.8,19.4c0.9,4.2,1.1,8.6,0.8,13c-0.1,1.5-0.4,3.3-2,3.5c-1.9,0.3-1.8-1.7-2.2-3.1
		c-0.9-3.3-0.3-6.7-0.5-10c-0.5-9.8,1.2-19.6-2-29.3c-1.5-4.6-2.2-9.5-3.8-14.1c-1.7-4.8-2.6-10-5.3-15.1c-1.6,4.9-3,9.2-4.4,13.6
		c-4,12.5-8.1,24.9-12.1,37.4c-0.8,2.6-2.7,3.8-5.1,3.9c-2.6,0.1-3.6-2-4.2-4c-0.8-2.6-1.4-5.3-2.2-8c-1.4-4.4-2.1-9.1-4.3-14.3
		c-1.1,7.7-2,14.5-3,21.2c-0.4,2.4,0.5,3.9,2.8,4.9c7.5,3.1,14.9,6.4,22.3,9.6c8.7,3.8,17.6,7.3,26.1,11.5c2,1,3.4,2.1,3.5,4.7
		c0.1,4.1,0.6,8.2,1,12.3c0.3,2.4-1.1,2.6-2.9,2.3c-0.8-0.2-1.6-0.6-2.4-1c-16.1-6.6-32.3-13.1-48.3-19.8
		c-26.5-11.1-52.9-22.4-79.3-33.7c-10.8-4.6-21.4-9.7-32.4-14.6c-1,8.6-1.5,17.1-1.6,25.7c0,3.8,1.2,5.9,4.6,7.5
		c9.2,4.3,18.5,8.5,27.8,12.6c22.9,10.1,46.1,19.6,69.5,28.6c3.2,1.2,6.3,3.1,10,2.7c3.3-0.3,6.6-0.7,9.9-1.1c5-0.5,10-1,14.9-1.6
		c5.9-0.7,11.7-1.3,17.6-1.3c2.1,0,2.9,1,3.1,3c0.4,4.4,1,8.9,1.3,13.3c1,17.7,1.9,35.5,2.6,53.3c0.6,13.2,0.9,26.4,1.2,39.6
		c0.1,4.7,0.4,9.4-0.3,14.1c-0.1,0.7,0,1.4-0.9,1.5c-0.8,0.1-1.3-0.5-1.5-1.1c-0.4-1.4-0.8-2.8-1-4.2c-1.4-7.2-1.9-14.5-5.3-21.2
		c-3-6-8.5-6.2-14.1-5.8c-4.4,0.3-7.3,3-8.5,8.1c-0.5,1.9-0.8,4-0.8,5.9c0,5.5-2,11.1,0.4,16.5c0.4,0.8,0.1,1.6-0.5,2.1
		c-0.6,0.5-1.2,0.4-1.7-0.2c-1.4-1.5-3.2-0.7-4.7-0.7c-0.8,0-2.4-0.2-2.3,1.2c0,1.2,1.3,1.2,2.3,1.3c4.8,0.4,9.6,0.8,14.3,1.4
		c3.5,0.5,7.1,0.7,10.5,1.8c1.3,0.4,3,0.6,2.9,2.2c-0.1,2-2,1.3-3.2,1.3c-10.9,0.1-21.6-1.4-32.4-2.2c-12.4-1-24.8-2.6-37.2-3.8
		c-11.5-1.1-23.1-2.1-34.6-3.2c-1-0.1-2.3-0.5-1.9,1.2c0.4,1.6-1.6,4.1,1.4,4.6c3.2,0.5,6.5,0.6,9.7,0.7c12,0.6,24.1,1.3,36.1,1.9
		c13.1,0.6,26.1,1.4,39.2,2.2c6,0.3,12,1.2,18,1.8c1.1,0.1,2.2,0.2,2.6,1.6c1.6,5.6,2.5,11.3,2.2,17.1c-0.3,4.2-0.6,4.2-4.7,2.4
		c-11.5-5-23-10.2-35.1-13.8c-14.1-4.3-28.3-5-42.8-1.9c-9.2,2-18.1,4.9-26.5,9.2c-2.2,1.1-3,0.7-2.8-1.8c0.2-3.1,0.2-6.2,0.4-9.3
		c0.2-3.3,2-7.4-2.3-9.8c-0.3-0.2-0.3-0.8-0.4-1.3c-0.1-2.6-0.6-5.1,2-7.3c2.2-1.8-0.4-7.4-3.3-7.7c-10.2-1.2-20.3-2.2-30.5-2.8
		c-9-0.6-18-1.4-27-1.3c-0.2-0.3-0.4-0.5-0.8-0.4c-12.1-0.4-24.3-0.4-36.4,0c-0.4-0.2-0.6,0.1-0.7,0.4c-0.5,0-1.1,0-1.6,0
		c-7.8,0.4-7.9,1.7-7.5,8.1c-0.1,0.5,0.1,0.6,0.5,0.6c0.5,0.8,1.4,0.7,2.1,0.7c16.5,0.3,33,0.5,49.5,0.8c0.2,0.3,0.4,0.6,0.8,0.4
		c8.4,0.1,16.8,0.2,25.2,0.4c0.4,0.1,0.7,0.2,1.1,0.3c6.1,0.1,12.3,0.2,18.4,0.3c0.4,0.1,0.7,0.2,1.1,0.3c4.9,0.5,4.9,0.5,6.5,7.9
		c0.7,8.3,1.5,16.6,1.7,25c0.2,6.9,0.7,13.8,1.4,20.7c0.2,1.6,0,3.6,1.8,4.8c0.4,0.3,1.1,0.9,0.4,1.7c-0.6,0.6-1.3,1.1-2.1,0.5
		c-3.1-2-6.6-1.5-10-1.6c-12.5-0.3-25.1-0.1-37.6,0.3c-18.8,0.5-37.6,0.6-56.4,0.9c-2.7,0-5.5,0.1-7.2,2.9c-0.3,0.4-0.8,0.9-1.3,1
		c-2.1,0.2-5.2,1.4-6-1.1c-1-2.9,2.3-2.9,4.2-3.2c1.9-0.4,3.4-1.1,3.7-3.1c0.3-2.2,0.7-4.4,0.7-6.6c0.2-16.2,0.4-32.5-0.5-48.7
		c-0.1-1.5-0.4-2.1-2.1-2.1c-19.9-0.4-39.8-1-59.7-1.4c-7.1-0.2-14.3,0.2-21.4-0.3c-10.9-0.9-21.9-0.1-32.8-1
		c-5.3-0.4-10.8-0.1-16.1-0.3c-23.5-0.8-47-1.8-70.4-2.5c-10.3-0.3-20.5-1-30.8-1.5c-7.6-0.4-7.6-0.6-9.3-6.4
		c-1.5-5.2,0.3-7.6,5.9-7.6c5.8,0,11.6,0.5,17.4,0.5c15.7-0.1,31.3,0.9,47,0.8c2.5,0,4.9-0.1,7.4,0.1c24.4,1.3,48.8,0.7,73.1,1.9
		c10.7,0.5,21.5-0.1,32.2,0.1c21.9,0.4,43.9,1,65.8,0c3.2-0.1,4.9-0.7,5-4.4c0-9.3-0.7-18.4-2.9-27.4c-1.2-5-3.1-9.8-6.2-14
		c-4.7-6.4-14.4-7.4-18.8-1.7c-1.8,2.3-3.2,4.9-4.3,7.8c-4,11-4.1,22.6-5.2,34c-0.2,2.4-1.2,3.5-3.3,3.6c-3.5,0.2-7,0.3-10.4-0.1
		c-2.2-0.2-4.6-0.6-4.6-4c0-7.9-0.5-15.9-0.6-23.8c-0.3-16.3,0.1-32.7-0.4-49c-0.5-16.5-0.2-32.9-0.3-49.4c0-1.1,0.5-2.4-0.6-3.6
		c-6.9,6.8-12.6,13.7-12.3,24.2c0.2,7.3-0.8,14.7-1.3,22.1c-0.9,12.7-1.7,25.4-2.6,38.1c-0.4,5.8-0.8,11.6-1.4,17.3
		c-0.3,2.6-0.8,5.2-1.4,7.8c-0.1,0.6-0.7,1.3-1.4,1.2c-0.7-0.1-1-0.6-1.2-1.3c-0.4-1.6-0.6-3.3-0.6-5c0-16.1,0.4-32.3-0.7-48.3
		c-0.3-4.9-0.7-10-2.6-14.7c-1-2.4-2.2-3-4.6-1.5c-5.7,3.4-11.1,7.3-16.3,11.3c-11.1,8.7-22.1,17.4-31.2,28.3
		c-2.5,3-3.9,6.1-3.8,10.3c0.2,9.7,0.9,19.5-0.4,29.2c-0.2,1.5-0.5,3.1-1.8,3.2c-1.7,0.2-2.1-1.7-2.3-3.1c-0.9-4.9-1.8-9.8-2.7-14.7
		c-0.9-5.1-1.7-10.2-3.3-15.2c-0.8-2.6-2-3.3-4.5-2.3c-2.5,1-5.2,1.7-7.8,2.6c-10.8,3.8-21.7,7.2-32.1,12.1
		c-2.5,1.2-3.5,2.7-3.6,5.6c-0.1,4.5-0.4,9.1-1.7,13.6c-0.4,1.4-0.9,2.7-2.3,2.9c-1.6,0.2-2.1-1.3-2.7-2.5
		c-1.7-3.8-2.5-7.8-3.2-11.8c-0.4-2-1-2.2-2.6-1.5c-20,9.4-41.2,14.6-62.8,18.8c-6.6,1.3-13.1,3-20.3,4.7c0.9,0.6,1.2,0.8,1.6,1
		c6.4,3.1,12.8,6.2,19.2,9.3c8.2,4,16.5,7.8,25.7,8.4c15.6,1,31.2,1.9,46.8,2.6c9.8,0.5,19.7,0.5,29.5,0.9
		c16.2,0.8,32.4,1.5,48.6,2.7c8.1,0.6,16.2,1.2,24.1,3.2c3.5,0.9,5.8,2.6,6.2,6.3c0.3,2.4,0.5,4.9,0.8,7.3
		c1.1,9.2,0.6,18.4,0.7,27.5c0,1.4-0.1,2.6,2.1,2.4c7.5-0.8,15,0.2,22.5,0.4c5.2,0.2,10.4,0.6,15.5,2.3c2.1,0.7,4.7,1.3,4.6,3.7
		c-0.1,2.7-3.1,3-5.2,3.2c-12.4,1.5-24.8,0.1-37.1-1.5c-2.4-0.3-4.2-1.4-4.3-4.1c-0.1-1.5-0.7-1.7-2-1.8c-9.9-0.1-19.7,0.6-29.3,2.3
		c-14.4,2.5-28.8,4.5-43.5,4c-17.8-0.7-1270.9-0.5-1288.7-0.6c-1,0-2,0.1-3,0c-0.6,0-1.2-0.2-1.2-0.9c-0.1-0.8,0.6-0.9,1.1-0.9
		c0.6-0.1,1.1-0.1,1.7-0.1c18.3,0.1,1271.8-0.1,1290.1,0.4c10.2,0.3,20.3,0,30.3-1.7c13.6-2.4,27.3-4.5,41.2-4.5
		c2.8,0,3.7-1,3.4-3.7c-0.2-2.3-0.1-4.7,0-7.1c0.1-8.5-0.2-16.9-1.3-25.4c-0.4-3-1.6-4.9-4.9-5.7c-5.3-1.3-10.7-2-16.1-2.5
		c-14-1.2-28.1-2.1-42.1-2.8c-10.3-0.5-20.6-1-30.8-1.3c-17-0.4-34-1.3-51-2.2c-8.6-0.5-17.2-1.4-25.4-4.9
		c-10.9-4.6-21.3-10.4-32-15.2c-1-0.5-1.9-0.6-3.1-0.4c-5.4,1-10.7,2-16.2,1.6c-2.2-0.2-4.3-0.5-4.8-2.8c-0.4-2.2,1.5-3.5,3.1-4.7
		c1-0.7,2.1-0.6,3.2-0.7c5.1-0.4,9.8,1.3,14.4,3.2c1,0.4,1.9,1.1,3.2,0.8c16.6-3.7,33.3-7.1,49.8-11.1c12.8-3.1,24.8-8.3,36.9-13.4
		c1.7-0.7,2.9-1.2,3,1.4c0,0.8,0.4,1.5,0.5,2.2c0.9,4.2,1.5,8.4,3.8,12.8c1.7-4.7,2.1-9.2,2-13.4c-0.2-5.3,2.4-7.6,6.6-9.4
		c11.5-5,23.3-8.9,35.2-12.8c8.4-2.7,8.9-2.5,11.2,6c0.1,0.5,0.2,1.1,0.3,1.6c1.4,7.8,2.8,15.6,4.3,23.6c1.5-1.1,1-2.4,1-3.5
		c0.1-8.2,0.2-16.4-0.1-24.5c-0.2-4.1,1.1-7.4,3.7-10.3c14-16.1,30.6-29.2,48.5-40.6c4.3-2.7,6.3-1.7,8.1,3.2c1.7,4.5,2,9.3,2.4,14
		c1,13,0.8,26,0.7,38.9c0,1.8,0,3.6,0,5.3c0.3-2,1.2-3.9,1.3-5.9c0.9-12.9,1.9-25.8,2.7-38.7c0.8-11.7,1.3-23.4,2.1-35.1
		c0.3-4.2,1.4-8.2,4.1-11.7c2.2-2.8,4.1-5.9,6.9-8.1c3.8-2.9,4.5-6.5,3.5-10.9c-3.5,2.5-6.2,5.6-9.2,8.4
		c-17.5,16.2-34.9,32.3-52.4,48.4c-11.2,10.3-23.2,19.6-36.9,26.5c-22.4,11.3-45.3,21.3-68.7,30.2c-16.7,6.3-33.2,13.1-51.1,15.2
		c-2,0.2-4.9,1.5-5.6-0.9c-0.6-2,2.4-2.4,4.1-3.1c25.7-10.1,49.7-23.4,71.8-40.1c16.1-12.1,32-24.4,47.8-36.9
		c13.7-10.9,27.2-22,40.8-33.1c14.4-11.8,28.8-23.6,43.2-35.3c4.4-3.6,8.4-7.9,13.7-10c2.5-1,3.1-2.3,3.1-4.8
		c0-22.8-0.5-45.7,0.6-68.5c0.2-3.8,1.2-4.9,5-4.2c2.5,0.4,4.9,0.7,7.3,0.5c0.8,0,2.3,0.7,2.4-0.8c0.1-1.4-1.4-1.7-2.4-1.8
		c-2.4-0.2-4.8-1.1-7.3-0.7c-1.6,0.2-2.6-0.4-2.3-2.3c1.6-12.3,3-24.7,4.8-37c0.2-1.5-0.4-4.3,2-4.4c2-0.1,2.2,2.5,2.6,4.1
		c2.8,10.5,4.2,21.2,6,31.9c0.6,3.4,1.9,7.1,0.6,10.2c-1.4,3.3,0.1,6-0.2,9c1.7-3.4,3-6.9,4.4-10.3c4-10.1,7.9-20.3,13-29.9
		c0.8-1.5,1.4-3.8,3.8-3.8c2.4,0,2.5,2.3,3.2,3.7c3.6,8.3,6.9,16.6,10.4,24.9c1.1,2.6,2.1,5.3,4.1,8.1c0.2-1,0.4-1.4,0.4-1.8
		c0.1-4.8-0.2-9.7,0.4-14.4c0.3-2.5-1.2-6.4,3.4-7.2c0.4-0.1,0.8-1.8,0.8-2.7c0-0.9-1.1-0.9-1.9-0.9c-2.4-0.1-4.7-0.1-7.1-0.2
		c-7.9-0.5-12.7-8.1-9.7-15.5c3.3-8,6.7-16,10.3-23.9c3.4-7.4,6.6-14.8,11.3-21.6c0.8-1.1,1.3-2.4,2.9-2.4c1.9,0,1.9,1.7,2.3,2.8
		c2.2,6.7,4.4,13.4,6.4,20.1c3.7,12.5,7.3,25,11.1,37.8c0.8-0.8,1.3-1.4,1.8-1.9c3.6-3.7,4.4-3.6,6.5,1.3c1,2.4,1.5,5,3.2,7.1
		c1.5-8.1,2.9-16,5.2-23.7c0.4-1.2,0.7-3.2,2.6-3c1.6,0.1,1.7,1.9,1.9,3.1c3.1,14.2,5.1,28.7,7.4,43c0.6,3.5-0.4,4.2-3.9,3.4
		c-3.5-0.8-7-2-10.8-1.7c3.4,1.2,6.9,2.1,10.3,3.2c1.9,0.6,4,1.2,4.3,3.5c0.7,6.2,2,12.3,1.5,18.6c-0.4,4.3-2.2,7.1-7.7,5.1
		c-9.2-3.3-17.6-8.3-26.4-12.4c-4.9-2.3-9.5-5.1-15.7-3.6c-13.1,3.3-26,7.3-39,11.2c-5.1,1.6-10.1,3.5-15.8,5.6
		c2.4,0.5,3.9-0.1,5.4-0.3c16-2.4,31.9-5.9,47.9-8.6c2.9-0.5,6-1.7,9.1-0.3c11.1,4.9,21.8,10.5,32.3,16.6c1.5,0.9,2.3,2.1,2.5,4
		c0.8,6.3,1.7,12.5,2.2,18.8c0.3,4.5,0.5,8.9-0.2,13.3c-0.6,3.5-2.4,4.5-5.8,3.5c-3.6-1.1-6.9-2.9-10.2-4.5
		c-5.3-2.6-10.5-5.4-15.8-8c0.9,3.1-0.6,5.7-0.5,8.3c0.1,1.7-0.3,3.3-2.1,4c-1.8,0.8-3.2-0.3-4.4-1.5c-2.8-2.9-4.9-6.2-5.7-10.2
		c-0.9-4.2,0.8-6.3,4.9-5.8c1.7,0.2,3.6,2.2,4.9,1c1.4-1.3-0.3-3.5-0.3-5.4c-0.2-7.9-1.8-15.6-2.7-23.4c-0.2-1.5-0.9-1.7-2.5-1.4
		c-10.1,1.8-20.3,3.2-30.5,5c-8.9,1.6-17.8,3-26.2,6.5c-2.4,1-3.4,2.3-3.4,5c0.1,6.9,0.2,13.9-0.3,20.8c-0.5,6.6-0.8,6.5,5.5,5.5
		c1.4-0.2,2.9-0.2,4.4-0.2c4.7-0.1,9.4-0.1,14.1-0.2l0.3,0.1l0.3-0.1c4.1,0.8,8.2-0.7,12.3-0.5c2.2,0.1,4.1-0.3,5.4-2.4
		c0.5-0.8,1.3-1.5,2.2-0.6c0.6,0.7,0.6,1.7-0.1,2.4c-1,1.1-2.3,1.9-3.1,3.3c-2.7,4.9-5.8,9.6-8.6,14.4c-6.8,12-13.8,23.9-20.1,36.2
		c-0.2,0.2-0.5,0.7-0.4,0.7c0.4,0.4,0.9,0.4,1.3-0.1c9.8-2,19.6-4,29.4-6c6-1.2,12-2.6,18.1-3.6c7.1-1.2,12.5,3.2,18.1,6.4
		c4.5,2.6,8.5,6.2,13.9,7.2c1.9,0.3,3.2,0.7,2.4-2.4c-1.2-4.7-3.3-9.4-1.6-14.6c0.8-2.6,1.8-4.6,5-4.1c3,0.4,3.9,2.3,3.9,5.2
		c0.2,8.4,0.5,16.7,0.8,25.1c-0.1,0.2-0.1,0.4,0,0.6c-0.9,3.6,0.1,7.3,0.3,10.9c0.6,13.2,0.1,26.3,0.6,39.5c0.7,17,0.1,34,0.3,51.1
		c0,3-1.4,4.2-3.9,4.8c-2.7,0.7-5.5,0.7-8.3,0.8c-0.9,0-1.8,0-2.7,0c-2.6,0-5.1,0-7.7-0.1c-8.5-0.4-17-1-25.5-2.6
		c-2-0.4-2.9-1.5-3.1-3.2c-0.7-4.8-1-9.7-1.5-14.5c-0.6-6.7-0.3-13.3-0.7-20c0.1-0.2,0.1-0.4-0.1-0.6c0.1-7.2,0-14.3,0.2-21.5
		c0.1-2.4-1.2-2.3-2.7-2c-4.7,0.9-9.4,1.6-14.1,2.1c-10.2,1.1-20.4,1.9-30.7,1.9c-2.2,0-3.3-0.7-3.8-3.1c-1.5-7.2-1.6-14.6-1.7-21.9
		c-0.3-16.5-1.3-33.1-0.9-49.6c0-1,0.5-2.2-0.4-3.1c-2.2,2-4.3,4-6.5,5.9c-0.9,0.8-1.1,1.6-1.1,2.6c0.1,15.2,0.2,30.4,0.3,45.7
		c0,0.4,0,0.7,0,1.1c0.1,1.5,0.4,3.1,0.4,4.6c0.1,22.3-0.1,44.5,0.6,66.7c0.4,11.5,0.1,11.5,11.7,10.8c0.1,0,0.2,0,0.3,0
		c1.5,0.1,2.1-0.6,2.2-2.2c0.6-6.9,1.1-13.8,2-20.6c0.9-6.3,2.3-12.6,5.5-18.2c2.6-4.4,5.8-8,11.6-8.2c7.5-0.2,11.9,4,15.1,9.9
		c6.1,11.1,7,23.4,7.3,35.6c0.2,9.9,0.2,9.6-9.4,9.7c-0.7,0-1.3,0.1-2,0.2c-0.2-0.1-0.4-0.1-0.6,0.1c-1.1,0-2.3,0-3.4,0
		c-0.4,0.1-0.8,0.1-1.1,0.2c-15.1,0-30.3,0-45.4,0c-0.4-0.1-0.8-0.1-1.1-0.2c-14.4-0.5-28.7,0.1-43.1-0.7c-0.3,0.1-0.6,0.2-0.9,0.4
		c-0.7,0-1.4,0-2.2,0c-0.3-0.1-0.6-0.2-0.9-0.3c-14.4-0.3-28.7-0.5-43.1-0.8c-0.4,0-0.9,0-1.3,0c-8.1-0.1-16.3-0.2-24.4-0.3
		c-0.4-0.1-0.7-0.2-1.1-0.3c-11.1-0.5-22.1-0.2-33.2-0.7c-12.5-0.6-25-0.4-37.5-0.5c-0.4,0-0.8,0-1.2,0.1c-1.7,0.1-2.9,1-2.4,2.7
		c0.7,2.3,0.2,5.4,3.2,6.3c1.8,0.6,3.7,0.6,5.6,0.7c12.2,0.6,24.3,1.3,36.5,1.8c12.8,0.5,25.7,0.7,38.5,1.1c0.4,0.1,0.7,0.2,1.1,0.3
		c0.7,0,1.4,0,2.1,0c0.4,0,0.9,0,1.3,0c7.6,0.2,15.3,0.4,22.9,0.6l0.3,0.1l0.3-0.1c1.3,0.1,2.7,0.2,4,0.2
		c12.6,0.3,25.3,0.6,37.9,0.9c12.5,0.3,25,0.7,37.5,1H1400.7z"/>
</g>
</svg>
