<?xml version="1.0" encoding="utf-8"?>
<!-- Generator: Adobe Illustrator 25.3.1, SVG Export Plug-In . SVG Version: 6.00 Build 0)  -->
<svg version="1.1" id="Layer_1" xmlns="http://www.w3.org/2000/svg" xmlns:xlink="http://www.w3.org/1999/xlink" x="0px" y="0px"
	 width="120px" height="120px" viewBox="0 0 120 120" style="enable-background:new 0 0 120 120;" xml:space="preserve">
<g>
	<g>
		<path d="M60,101.4c-9.7,0-19.1-3.4-26.5-9.6c-0.7-0.6-0.8-1.6-0.2-2.3c0.6-0.7,1.6-0.8,2.3-0.2c6.8,5.7,15.5,8.8,24.4,8.8
			C81,98.1,98.1,81,98.1,60C98.1,39,81,21.9,60,21.9S21.9,39,21.9,60c0,8.7,2.8,16.8,8.2,23.6c0.6,0.7,0.4,1.7-0.3,2.3
			c-0.7,0.6-1.7,0.4-2.3-0.3c-5.8-7.4-8.9-16.2-8.9-25.6c0-22.8,18.6-41.4,41.4-41.4c22.8,0,41.4,18.6,41.4,41.4
			S82.8,101.4,60,101.4z"/>
	</g>
	<g>
		<g>
			<path d="M72.6,61.6H36.7c-0.9,0-1.6-0.7-1.6-1.6c0-0.9,0.7-1.6,1.6-1.6h35.9c0.9,0,1.6,0.7,1.6,1.6
				C74.2,60.9,73.5,61.6,72.6,61.6z"/>
		</g>
		<g>
			<path d="M66.3,78.6c-0.5,0-0.9-0.2-1.2-0.6c-0.6-0.7-0.5-1.6,0.2-2.3C67.7,73.3,77,64,80.1,61c0.5-0.5,0.5-1.4,0-1.9L65.2,44.2
				c-0.6-0.6-0.7-1.5-0.2-2.1c0.6-0.8,1.8-0.9,2.5-0.2L84.6,59c0.5,0.5,0.5,1.4,0,1.9L67.4,78.2C67.1,78.5,66.7,78.6,66.3,78.6z"/>
		</g>
	</g>
</g>
</svg>
