<?xml version="1.0" encoding="utf-8"?>
<!-- Generator: Adobe Illustrator 25.3.1, SVG Export Plug-In . SVG Version: 6.00 Build 0)  -->
<svg version="1.1" id="Layer_1" xmlns="http://www.w3.org/2000/svg" xmlns:xlink="http://www.w3.org/1999/xlink" x="0px" y="0px"
	 width="120px" height="120px" viewBox="0 0 120 120" style="enable-background:new 0 0 120 120;" xml:space="preserve">
<g>
	<path d="M25.6,103.6c-0.5-0.3-1.1-0.4-1.6-0.8c-1.2-1-1.5-2.4-1.3-3.9c0.4-2.3,0.8-4.6,1.2-6.9c0.2-1,0.8-1.5,1.6-1.3
		c0.7,0.1,1.1,0.7,0.9,1.7c-0.4,2.3-0.8,4.5-1.1,6.8c-0.2,1.3,0.2,1.9,1.5,1.9c2.2,0,4.4,0,6.6,0c0.7,0,0.9-0.2,1-0.8
		c0.6-3.4,1.2-6.9,1.7-10.3c0-0.3,0.1-0.6,0.2-0.8c0.2-0.9,0.8-1.4,1.5-1.3c0.8,0.1,1.2,0.8,1,1.8c-0.2,1.4-0.5,2.8-0.7,4.3
		c-0.4,2.4-0.8,4.7-1.2,7.2c0.4,0,0.7,0,1,0c14.8,0,29.5,0,44.3,0c0.8,0,1-0.2,0.8-1c-0.6-3.5-1.2-6.9-1.8-10.4
		c-0.1-0.6-0.1-1.2,0.4-1.6c0.4-0.3,0.9-0.4,1.4-0.1c0.5,0.2,0.7,0.7,0.7,1.2c0.6,3.2,1.1,6.5,1.7,9.7c0.4,2.2,0.3,2.2,2.5,2.2
		c1.8,0,3.6,0,5.4,0c1.2,0,1.6-0.6,1.5-1.7c-1.2-7-2.4-13.9-3.6-20.9c-0.3-1.9-1.4-3.1-3.3-3.7c-5.2-1.5-10.4-3.1-15.5-4.7
		c-0.6-0.2-0.9-0.1-1.2,0.5c-2.5,5-5,10-7.6,15c-1.1,2.2-3.6,3-5.6,1.8c-0.8-0.5-1.3-1.2-1.7-2c-2.5-4.9-4.9-9.8-7.4-14.7
		c-0.3-0.7-0.6-0.8-1.3-0.6c-5.1,1.6-10.3,3.2-15.4,4.7c-2,0.6-3,1.8-3.3,3.8c-0.4,2.4-0.8,4.9-1.2,7.3c-0.2,0.9-0.7,1.4-1.5,1.2
		c-0.7-0.1-1.2-0.7-1-1.6c0.5-2.9,0.9-5.7,1.5-8.5c0.5-2.3,2.1-3.8,4.3-4.5c5.5-1.7,10.9-3.3,16.4-5c0.6-0.2,1.3-0.3,1.9,0
		c0.4,0.2,0.6,0,0.8-0.3c0.4-0.6,0.6-1.1,0.6-1.8c0-1.1,0-2.1,0-3.2c0-1.2,0-1.2-1.2-1.2c-1.8,0-3.4-0.3-5-1.2
		c-2.5-1.5-3.8-3.7-3.9-6.6c-0.1-3.5,0.4-7,0.6-10.5c0.1-2.2,0.3-4.5,0.4-6.7c0.2-4.6,1.9-8.3,5.7-11c0.5-0.3,0.4-0.6,0.3-1.1
		c-0.4-1-1-2-0.7-3.2c0.3-1.2,0.9-2.1,2.1-2.4c3.6-0.8,7.3-1.8,11-2c2.9-0.1,5.6,0.8,8.4,1.3c0.9,0.2,1.8,0.3,2.7,0.6
		c2.1,0.5,3,2.3,2.3,4.3c-0.2,0.5-0.3,1-0.6,1.5c-0.3,0.5-0.1,0.8,0.3,1.1c1.6,1.2,2.9,2.7,3.8,4.5c0.5,0.9,0.4,1.6-0.3,2
		c-0.7,0.4-1.4,0.2-1.9-0.8c-0.7-1.3-1.5-2.4-2.6-3.3c-0.3-0.3-0.5-0.3-0.7,0.1c-0.8,1.5-2.1,2.3-3.8,2.3c-4.9,0-9.7,0-14.6,0
		c-2,0-3.3-1.1-4.2-3c-2.1,1.5-3.4,3.4-4.1,5.8c-0.6,2-0.4,4-0.6,6c-0.1,0.6-0.1,1.2-0.1,1.9c0,0.2-0.1,0.5,0.2,0.5
		c0.3,0,0.4-0.2,0.4-0.5c0.1-1.5,0.4-3,1.2-4.4c1.3-2.2,3.1-3.8,5.5-4.6c0.9-0.3,1.8-0.3,2.5,0.5c3.8,4.1,8.7,6.1,14,7
		c1.7,0.3,3.5,0.6,5.2,0.7c0.7,0.1,1.4,0.3,1.9,0.8c0.3,0.3,0.7,0.4,1.1,0.3c0.4-0.1,0.1-0.5,0.1-0.8c-0.1-1.2-0.2-2.4-0.2-3.6
		c0-1,0.4-1.5,1.2-1.6c0.8,0,1.3,0.4,1.4,1.4c0.3,4.2,0.6,8.4,0.8,12.6c0.1,1.1,0.2,2.3,0.2,3.4c0.1,4.7-3.5,8.3-8.1,8.4
		c-1.9,0-1.9,0-1.9,2c0,0.8,0,1.6,0,2.5c0,0.6,0.2,1.1,0.4,1.5c0.3,0.5,0.5,0.8,1.2,0.5c0.6-0.3,1.2-0.1,1.8,0.1
		c5.3,1.6,10.6,3.2,15.9,4.8c2.8,0.8,4.4,2.7,4.9,5.6c1.2,7,2.4,14,3.6,20.9c0.4,2.3-0.4,3.6-2.8,4.8
		C71.5,103.6,48.5,103.6,25.6,103.6z M76.4,46.5c0-0.2,0-0.5,0-0.7c0-1.8-0.2-2-2-2.1c-0.6,0-1.1-0.2-1.4-0.7
		c-0.2-0.4-0.5-0.4-0.8-0.5c-1.6-0.2-3.3-0.4-4.9-0.7c-5.7-1-10.9-3-14.9-7.3c-0.4-0.4-0.7-0.3-1-0.1c-1.8,0.9-3.2,2.3-3.9,4.3
		c-0.4,1-0.4,2.1-0.4,3.2c0,1.3-0.5,1.7-1.7,1.8c-0.1,0-0.2,0-0.3,0c-1,0-1.4,0.5-1.4,1.5c0,0.7,0,1.5,0,2.2c0,1.2,0.4,1.6,1.6,1.7
		c1.4,0,1.8,0.4,2,1.8c0.1,1.1,0.4,2.1,0.9,3.1c1.7,3.3,4.2,5.8,7.4,7.5c2.9,1.6,6.2,1.7,9.1,0c4.2-2.5,7.7-5.7,8.3-11
		c0.1-0.9,0.6-1.3,1.5-1.3c1.9-0.1,2-0.2,2-2.2C76.4,46.8,76.4,46.7,76.4,46.5z M60.2,27.5c2.3,0,4.7,0,7,0c1.1,0,1.6-0.3,2.1-1.4
		c0.5-1.3,1-2.7,1.5-4c0.4-1,0.2-1.2-0.8-1.4c-1.6-0.3-3.2-0.7-4.7-1c-2.3-0.4-4.5-0.9-6.8-0.6c-2.8,0.4-5.5,1.1-8.3,1.6
		c-0.7,0.1-0.8,0.6-0.6,1.2c0.6,1.4,1.1,2.9,1.6,4.3c0.4,0.9,1,1.4,2,1.3C55.5,27.5,57.8,27.5,60.2,27.5z M59.9,71.6
		c2.4,0,4.8,0,7.2,0c0.5,0,0.7-0.1,0.9-0.6c0.1-0.3,0.3-0.7,0.5-1c0.1-0.2,0.2-0.4,0-0.6c-1.5-1.5-1.9-3.3-1.8-5.3
		c0-0.9,0-0.9-0.8-0.4c-3.8,1.9-7.7,1.9-11.6,0.2c-1.2-0.5-1.2-0.6-1.2,0.8c0,1.7-0.3,3.2-1.5,4.5c-0.2,0.3-0.7,0.5-0.3,1
		c0.4,0.5,0.3,1.5,1.4,1.5C55.2,71.6,57.6,71.6,59.9,71.6z M60,74.2c-1.9,0-3.9,0-5.8,0c-0.5,0-0.8,0-0.4,0.6
		c1.6,3.2,3.3,6.4,4.9,9.6c0.3,0.5,0.7,0.9,1.3,0.9c0.7,0,1.1-0.4,1.4-1c1.6-3.2,3.2-6.3,4.8-9.5c0.3-0.7,0.1-0.7-0.5-0.7
		C63.8,74.2,61.9,74.2,60,74.2z M47.7,58.2c-0.4-0.5-0.7-1-1-1.5c-0.9-1.4-1.6-2.9-1.9-4.6c-0.2-0.8-0.9-0.5-1.3-0.7
		c-0.2-0.1-0.3,0.2-0.3,0.4C42.6,54.7,44.8,57.8,47.7,58.2z M72.3,58.2c2.9-0.5,4.7-2.9,4.6-6c0-0.3,0.1-0.8-0.3-0.7
		c-0.4,0.1-1.1-0.2-1.3,0.6C74.8,54.4,73.7,56.3,72.3,58.2z"/>
	<path d="M60,19.6c0.7,0,1.3,0.5,1.3,1.4c0,0.6,0.2,0.9,0.8,0.9c0.8,0,1.4,0.6,1.4,1.3c0,0.7-0.6,1.3-1.4,1.2
		c-0.7,0-0.8,0.2-0.8,0.8c0,0.9-0.5,1.4-1.3,1.4c-0.8,0-1.3-0.5-1.3-1.5c0-0.7-0.3-0.8-0.8-0.8c-0.9,0-1.4-0.6-1.4-1.3
		c0-0.7,0.6-1.3,1.4-1.3c0.6,0,0.8-0.2,0.8-0.8C58.7,20.1,59.2,19.6,60,19.6z"/>
</g>
</svg>
