<?xml version="1.0" encoding="utf-8"?>
<!-- Generator: Adobe Illustrator 25.3.1, SVG Export Plug-In . SVG Version: 6.00 Build 0)  -->
<svg version="1.1" id="Layer_1" xmlns="http://www.w3.org/2000/svg" xmlns:xlink="http://www.w3.org/1999/xlink" x="0px" y="0px"
	 width="120px" height="120px" viewBox="0 0 120 120" style="enable-background:new 0 0 120 120;" xml:space="preserve">
<g>
	<path d="M83.7,16.1c9.4,2.6,12.5,14.2,5.6,21.2c-2.6,2.6-5.2,5.2-7.8,7.8c-3.5,3.5-7,7-10.5,10.5c-1.1,1.1-1.4,1.1-2.5,0
		c-2.3-2.3-4.5-4.5-6.8-6.8c-0.3-0.3-0.6-0.6-0.7-1.1c0-0.6,0.2-1.1,0.7-1.3c0.7-0.3,1.2,0,1.6,0.4c1.9,1.9,3.8,3.8,5.7,5.7
		c0.5,0.5,0.8,0.6,1.3,0c5.6-5.7,11.3-11.3,16.9-16.9c2.8-2.8,3.8-6.3,2.6-10.1c-1.1-3.7-3.7-6-7.5-6.9c-4.4-1.1-9.2,1.3-11.2,5.4
		c-0.1,0.2-0.2,0.4-0.2,0.6c-0.3,0.5-0.6,0.9-1.3,0.9c-0.6,0-1-0.3-1.3-0.9c-0.6-1.5-1.5-2.8-2.8-3.8c-3.2-2.6-6.8-3.2-10.6-1.5
		c-3.8,1.7-5.8,4.8-5.9,8.9c-0.1,2.6,0.7,4.9,2.5,6.8c2.3,2.4,4.7,4.8,7.1,7.1c0.2,0.2,0.5,0.4,0.6,0.7c0.4,0.6,0.3,1.2-0.2,1.7
		c-0.5,0.5-1.1,0.4-1.7,0.1c-0.2-0.1-0.3-0.3-0.4-0.4c-2.2-2.2-4.5-4.5-6.7-6.7c-3.6-3.7-4.7-8-3.2-12.9c1.6-4.8,5-7.7,10.1-8.7
		c0.1,0,2.4-0.2,4.1,0c3.3,0.5,6,2.2,8.1,4.8c0.1,0.2,0.2,0.4,0.5,0.5c1.8-2.5,4.1-4.3,7.1-5C78.5,15.7,81.5,15.4,83.7,16.1z"/>
	<path d="M51.8,84.6c0.6,0.6,1.2,1.1,1.8,1.7c1.3,1.3,1.3,1.7,0,3c-0.6,0.6-1.2,1.2-1.8,1.8c-0.3,0.3-0.3,0.5,0,0.8
		c0.7,0.7,1.4,1.4,2.1,2.1c0.8,0.8,0.8,1.5,0,2.3c-2.5,2.5-4.9,4.9-7.4,7.4c-0.8,0.8-1.4,0.8-2.2,0C39.1,98.6,34,93.4,28.8,88.3
		c-0.7-0.7-0.8-1.5-0.2-2.1c0.6-0.6,1.3-0.5,2.1,0.2c4.7,4.7,9.4,9.4,14.1,14.1c0.5,0.5,0.8,0.6,1.3,0c1.6-1.6,3.2-3.3,4.8-4.8
		c0.4-0.3,0.4-0.5,0-0.9c-7.4-7.3-14.7-14.7-22-22c-0.3-0.3-0.5-0.5-0.9-0.1c-1.6,1.7-3.3,3.4-5,5c-0.4,0.4-0.4,0.6,0,1
		c1.1,1.1,2.2,2.2,3.2,3.2c0.8,0.8,0.9,1.5,0.3,2.1c-0.6,0.6-1.4,0.5-2.1-0.2c-1.5-1.5-3-3-4.5-4.5c-0.8-0.8-0.8-1.4,0-2.2
		c2.5-2.5,4.9-4.9,7.4-7.4c0.8-0.8,1.5-0.8,2.3,0c1.2,1.2,1.2,1.2,2.4,0c0.5-0.5,1-1,1.5-1.5c0.7-0.7,1.4-0.7,2.1,0
		c0.7,0.6,1.3,1.2,1.9,1.9c0.4,0.5,0.6,0.4,0.9-0.1c1.6-2.4,3.5-4.6,5.8-6.3c5.2-3.9,10.8-4.4,16.7-2c2.5,1,5,1.4,7.6,1.3
		c1.5-0.1,3.1-0.2,4.7,0.1c1.6,0.3,2.8,1.2,3.4,2.7c0.3,0.6,0.5,0.6,1,0.3c5.3-3.1,10.5-6.1,15.8-9.1c3-1.7,6.5-0.3,7.2,3
		c0.5,2.1-0.4,3.7-2,4.9c-2.5,2-5.1,4-7.7,6c-4.7,3.6-9.3,7.3-14,10.9c-2.1,1.7-4.5,2.6-7.2,2.5c-1.5,0-3.1,0-4.6,0
		c-1.2,0-1.7-0.4-1.7-1.3c0-0.9,0.5-1.3,1.8-1.3c1.9,0,3.9,0,5.8-0.1c1.5,0,2.7-0.6,3.9-1.5c7.3-5.7,14.6-11.4,21.9-17.1
		c0.8-0.6,1.4-1.4,1.1-2.5c-0.4-1.5-1.9-2-3.3-1.2c-5,2.9-10.1,5.8-15.1,8.7c-0.4,0.2-0.9,0.5-1.3,0.7c-0.8,0.5-1.6,0.9-2.1,1.8
		c-0.9,1.4-2.3,1.9-3.9,1.9c-5.1,0-10.2,0-15.3,0c-1.1,0-1.7-0.5-1.6-1.4c0-0.8,0.6-1.3,1.7-1.3c4.9,0,9.8,0,14.6,0c0.3,0,0.6,0,1,0
		c1.2-0.1,1.9-0.8,2-1.9c0-1.2-0.7-2.2-1.9-2.3c-2.1-0.1-4.3-0.1-6.4-0.1c-1.6,0-3.1-0.2-4.6-0.9c-2.2-1-4.4-1.7-6.8-1.8
		c-3.6-0.2-6.7,1-9.5,3.3c-2,1.6-3.7,3.6-5.1,5.9c-0.2,0.4-0.2,0.6,0.1,0.9c2.8,2.8,5.6,5.5,8.3,8.3c0.3,0.3,0.7,0.4,1.2,0.4
		c2.8,0,5.5,0,8.3,0c0.2,0,0.5,0,0.7,0c1,0,1.6,0.5,1.6,1.3c0,0.8-0.6,1.3-1.6,1.3c-2,0-4,0-6,0c-0.3,0-0.6,0-0.8,0
		C51.9,84.5,51.9,84.6,51.8,84.6z M51.6,88c-0.4-0.4-0.6-0.6-0.7-0.8c-5-5-10.1-10.1-15.1-15.1c-1.2-1.2-1.2-1.2-2.5,0
		c-0.5,0.5-0.5,0.7,0,1.2c5.1,5.1,10.2,10.2,15.3,15.3c1.1,1.1,1.1,1.1,2.2,0C50.9,88.4,51.2,88.2,51.6,88z"/>
	<path d="M79.4,35.9c0,0.8,0,1.7,0,2.5c0,1-0.5,1.5-1.5,1.5c-1.1,0-2.1,0-3.2,0c-0.5,0-0.7,0.1-0.7,0.7c0,1.1,0,2.1,0,3.2
		c0,1.1-0.5,1.5-1.5,1.5c-1.7,0-3.3,0-5,0c-1,0-1.4-0.5-1.5-1.4c0-1.1,0-2.2,0-3.3c0-0.5-0.2-0.7-0.7-0.7c-1.1,0-2.1,0-3.2,0
		c-1,0-1.5-0.5-1.5-1.5c0-1.7,0-3.4,0-5.1c0-0.9,0.5-1.4,1.5-1.5c1.1,0,2.2,0,3.3,0c0.5,0,0.7-0.2,0.7-0.6c0-1.1,0-2.1,0-3.2
		c0-1.1,0.5-1.6,1.6-1.6c1.6,0,3.2,0,4.8,0c1.1,0,1.6,0.5,1.6,1.6c0,1,0,2.1,0,3.1c0,0.5,0.1,0.7,0.7,0.7c1,0,2.1,0,3.1,0
		c1.2,0,1.6,0.5,1.6,1.6C79.4,34.3,79.4,35.1,79.4,35.9z M74.5,37.3c2.5,0,2.5,0,2.4-2.2c0-0.5-0.2-0.6-0.6-0.6c-1,0-2.1,0-3.1,0
		c-1.2,0-1.7-0.5-1.7-1.7c0-0.6,0-1.2,0-1.7c0-2.1,0-2.1-2.1-2c-0.6,0-0.7,0.2-0.7,0.7c0,1,0,2,0,3c0,1.2-0.5,1.7-1.7,1.7
		c-0.5,0-1.1,0-1.6,0c-2.2,0-2.2,0-2.1,2.1c0,0.5,0.2,0.6,0.7,0.6c1.1,0,2.2,0,3.3,0c0.9,0,1.4,0.5,1.4,1.5c0,0.6,0,1.3,0,1.9
		c0,2.1,0,2.1,2.1,2.1c0.5,0,0.6-0.2,0.6-0.6c0-1.2,0-2.3,0-3.5c0-0.8,0.5-1.3,1.3-1.3C73.3,37.2,73.9,37.3,74.5,37.3z"/>
</g>
</svg>
