<?xml version="1.0" encoding="utf-8"?>
<!-- Generator: Adobe Illustrator 24.0.2, SVG Export Plug-In . SVG Version: 6.00 Build 0)  -->
<svg version="1.1" id="Layer_1" xmlns="http://www.w3.org/2000/svg" xmlns:xlink="http://www.w3.org/1999/xlink" x="0px" y="0px"
	 viewBox="0 0 435.8 72.1" style="enable-background:new 0 0 435.8 72.1;" xml:space="preserve">
<style type="text/css">
	.st0{fill:#FDC162;}
</style>
<g>
	<path class="st0" d="M57.7,70.1c-0.6,0-1.7,0-2.2-0.6L39.7,58.1c-1.3-0.9-3-0.9-4.2,0L19.6,69.5c-1.1,1.1-2.8,1.1-3.9,0
		c-1.1-1.1-1.7-2.2-1.1-3.9l5.9-18.8c0.5-1.5-0.1-3.1-1.3-4L3.4,31.4c-1.1-1.1-1.7-2.2-1.1-3.9c0.6-1.7,1.7-2.2,3.4-2.2h19.8
		c1.6,0,3-1,3.4-2.5L34.8,4c0.6-1.7,1.7-2.2,3.4-2.2s2.8,1.1,3.4,2.2l5.9,18.8c0.5,1.5,1.9,2.5,3.4,2.5h19.8c1.7,0,2.8,1.1,3.4,2.2
		c0.5,1,0.1,2.5-0.9,3.6c-0.2,0.2-0.4,0.4-0.6,0.5L57,42.8c-1.3,0.9-1.8,2.5-1.3,4l5.9,18.8c0.3,1,0.3,1.8-0.1,2.5
		c-0.4,0.9-1.3,1.5-2.2,1.7C58.5,70.1,58.1,70.1,57.7,70.1L57.7,70.1z"/>
	<path class="st0" d="M147.3,70.1c-0.6,0-1.7,0-2.2-0.6l-15.8-11.3c-1.3-0.9-3-0.9-4.3,0l-15.8,11.3c-1.1,1.1-2.8,1.1-3.9,0
		c-1.1-1.1-1.7-2.2-1.1-3.9l5.9-18.7c0.5-1.5-0.1-3.2-1.4-4.1L93,31.4c-1.1-1.1-1.7-2.2-1.1-3.9c0.6-1.7,1.7-2.2,3.4-2.2h19.7
		c1.6,0,3-1,3.5-2.6L124.4,4c1.1-2.8,5.6-2.8,6.7,0l5.9,18.7c0.5,1.5,1.9,2.6,3.5,2.6h19.7c1.4,0,2.3,0.7,3,1.6
		c0.3,0.4,0.5,1,0.6,1.5c0.1,1.2-0.4,2.2-1.3,3.1l-15.7,11.3c-1.3,0.9-1.9,2.6-1.4,4.1l5.9,18.7c0.3,0.8,0.3,1.5,0.1,2.2
		c-0.4,1.3-1.8,2.2-3.2,2.3C147.9,70.1,147.6,70.1,147.3,70.1L147.3,70.1z"/>
	<path class="st0" d="M197.2,70.1c-0.6,0-1.7,0-2.2-0.6c-1.1-1.1-1.7-2.2-1.1-3.9l5.6-17.6c0.7-2.2-0.1-4.6-2-5.9l-14.8-10.6
		c-1.1-1.1-1.7-2.2-1.1-3.9c0.6-1.7,1.7-2.2,3.4-2.2h18.5c2.3,0,4.4-1.5,5.1-3.7L214,4c1.1-2.8,5.6-2.8,6.7,0l5.5,17.6
		c0.7,2.2,2.7,3.7,5.1,3.7h18.5c1.7,0,2.8,1.1,3.4,2.2c0.4,0.8,0.2,1.8-0.3,2.8c-0.3,0.6-0.9,1.1-1.4,1.6l-14.2,10.2
		c-1.9,1.3-2.7,3.7-2,5.9l5.6,17.6c0.6,1.7,0,2.8-1.1,3.9s-2.8,1.1-3.9,0l-15.4-10.7c-1.8-1.3-4.3-1.3-6.1,0l-14.9,10.7
		C198.8,70.1,197.7,70.1,197.2,70.1L197.2,70.1z"/>
	<path class="st0" d="M327.1,70.1c-0.6,0-1.7,0-2.2-0.6l-15.7-11.3c-1.3-1-3.2-1-4.5,0L289,69.5c-1.1,1.1-2.8,1.1-3.9,0
		s-1.7-2.2-1.1-3.9l5.9-18.6c0.5-1.6-0.1-3.3-1.4-4.3l-15.6-11.2c-1.1-1.1-1.7-2.2-1.1-3.9c0.6-1.7,1.7-2.2,3.4-2.2h19.6
		c1.7,0,3.2-1.1,3.7-2.7L304.1,4c1.1-2.8,5.6-2.8,6.7,0l5.9,18.6c0.5,1.6,2,2.7,3.7,2.7h19.6c1.2,0,2.1,0.6,2.7,1.3
		c0.6,0.6,0.9,1.5,0.8,2.3c0,1-0.6,1.8-1.3,2.5l-16.1,11.3c-1.4,1-2,2.7-1.5,4.3l5.9,18.6c0.6,1.7,0,2.8-1.1,3.9
		C328.8,70.1,328.2,70.1,327.1,70.1L327.1,70.1z"/>
	<path class="st0" d="M417.2,70.1c-0.6,0-1.7,0-2.2-0.6l-15-10.7c-1.8-1.3-4.2-1.3-5.9,0l-15,10.7c-1.1,1.1-2.8,1.1-3.9,0
		s-1.7-2.2-1.1-3.9l5.6-17.8c0.7-2.1-0.1-4.4-1.9-5.7l-14.9-10.7c-1.1-1.1-1.7-2.2-1.1-3.9c0.6-1.7,1.7-2.2,3.4-2.2h18.7
		c2.2,0,4.2-1.4,4.8-3.6L394.3,4c1.1-2.8,5.6-2.8,6.7,0l5.6,17.7c0.7,2.1,2.6,3.6,4.8,3.6h18.7c1.7,0,2.8,1.1,3.4,2.2
		c0.3,0.7,0.3,1.5-0.1,2.4c-0.3,0.8-1,1.5-1.7,2l-15.2,10.3c-1.9,1.3-2.7,3.6-2,5.7l5.6,17.7c0.6,1.7,0,2.8-1.1,3.9
		C418.4,70.1,417.8,70.1,417.2,70.1L417.2,70.1z"/>
</g>
</svg>
