<?xml version="1.0" encoding="utf-8"?>
<!-- Generator: Adobe Illustrator 24.0.2, SVG Export Plug-In . SVG Version: 6.00 Build 0)  -->
<svg version="1.1" id="Layer_1" xmlns="http://www.w3.org/2000/svg" xmlns:xlink="http://www.w3.org/1999/xlink" x="0px" y="0px"
	 viewBox="0 0 1930.9 430.5" style="enable-background:new 0 0 1930.9 430.5;" xml:space="preserve">
<style type="text/css">
	.st0{display:none;fill:#FDBB4C;}
	.st1{fill:#FFFFFF;stroke:#FFFFFF;}
</style>
<path class="st0" d="M1917.5,350.7c-1.3-1-2.8-1.7-4.4-2.3c-4.7-1.6-9.5-2-14.4-1.8c-7.3,0.2-14.6,1.1-21.9,2.2
	c-6,0.9-12,1.9-18,2.9c-5,0.9-10,1.8-14.9,2.8c-8.9,1.9-17.8,3.4-26.8,4.5c-3.8,0.5-7.6,0.8-11.4,1c-3.5,0.2-6.9,0-9.7-2.9
	c-1.9-2-4.1-3.7-6.1-5.8c-13.2-13.8-18.2-30.3-16-49c0.8-6.8,2.6-13.4,4.4-19.9c2.8-10,5.8-20,7.6-30.3c1-5.7,1.5-11.5,1.9-17.2
	c0.4-5.1,0-10.1-0.3-15.2c-0.3-5.3-1.1-10.5-2.3-15.6c-1.6-7.3-4-14.4-7-21.2c-5-11.2-11.5-21.5-19.5-30.8
	c-6-6.9-12.5-13.2-19.8-18.7c-14.3-10.8-30.4-18.1-47.4-23.2c-9.4-2.8-19-5.1-28.7-6.3c-5.7-0.7-11.5-1.5-17.3-1.7
	c-7.1-0.3-14.3-0.3-21.4,0.3c-9.9,0.8-19.7,2.3-29.4,4.3c-16.5,3.3-32.6,8.6-48.9,12.7c-6.9,1.7-13.8,3.3-21.1,2.6
	c-5.2-0.6-9.2-2.9-11.7-7.6c-1.9-3.5-2.8-7.3-3.7-11.1c-1.4-5.6-2.2-11.4-4.2-16.8c-0.8-2.2-1-4.4-0.9-6.7
	c0.4-6.7-0.5-13.2-3.4-19.3c-0.9-1.9-0.9-1.9,0.9-3c8.6-5.2,15.5-12,21.5-20c4.2-5.6,7.7-11.6,10.2-18c0.9-2.3,1.7-4.7,1.3-7.3
	c-0.3-2.1-1.7-3.7-3.8-3.9c-2-0.2-4.1-0.4-6.2,0.2c-4.5,1.2-8.9,2.7-13.2,4.4c-6.8,2.7-13.5,5.8-20,9.3c-5.6,3.1-11.2,6.3-16.3,10.2
	c-1.9,1.5-3.6,3.1-5.3,4.7c-2.1,2-2.2,1.9-3.5-0.5c0-0.1-0.1-0.2-0.1-0.3c-4.8-10-11.8-18.2-20.1-25.4c-2.8-2.5-5.8-4.8-9.3-6.1
	c-6-2.3-9.2,0.1-9.4,5.6c0,0.2,0,0.4,0,0.6c-0.4,5,1.3,9.6,3.5,14c3.9,7.9,9.5,14.5,15.1,21.2c1.7,2.1,3.4,4.1,5.2,6.1
	c0.5,0.6,1.3,1.3,2.1,0.5c0.7-0.6,0.5-1.5,0.1-2.3c-0.3-0.4-0.7-0.8-1-1.2c-3.5-4.2-7.1-8.4-10.5-12.7c-3.9-5-7.6-10.1-9.9-16.1
	c-1.3-3.4-2.4-6.9-1.9-10.6c0.4-3.1,2-4.1,5-3.1c2.1,0.7,3.9,1.8,5.7,3.1c2.6,1.9,4.9,4.1,7.2,6.3c7,6.6,12.6,14.2,16.7,22.9
	c0.7,1.4,0.5,2.5-0.3,3.7c-1,1.5-1.8,3-2.3,4.8c-0.6,2.4,0.4,4.7,2.4,5.3s3.9-0.7,4.7-3c0.7-1.9,0.4-3.7-0.1-5.5
	c-0.6-1.9,0-3.3,1.4-4.7c4.3-4.4,9.3-8,14.5-11.1c11.3-6.7,23.1-12.5,35.7-16.5c2.3-0.8,4.8-1.3,7.2-1.6c2.9-0.4,4.3,1.2,3.8,4
	c-0.1,0.8-0.4,1.6-0.7,2.4c-3.2,8.9-8.4,16.6-14.4,23.8c-4.7,5.7-10.4,10.3-16.7,14.2c-1.4,0.9-2.5,1.1-3.9,0
	c-3.9-2.9-8.3-2.9-12.7-1.6c-1.2,0.3-2.3,1-3.2,1.9c-1.6,1.6-1.6,3.6,0.2,5.1c1.4,1.2,3,1.7,4.9,1.8c3.4,0.3,6.6-0.5,9.7-1.6
	c2.2-0.7,2.3-0.7,3.3,1.3c2.2,4.4,3,9.2,3.1,14.1c0,0.6,0.1,1.3-0.5,1.5c-0.5,0.2-0.8-0.1-0.9-0.3c-3.3-3.7-7.6-5.3-12.3-5.9
	c-6.1-0.8-12.2-0.3-17.9,2c-1,0.4-1.8,0.3-2.5-0.5c-0.5-0.5-1-1-1.6-1.5c-5.1-4.4-10.8-7.8-17.4-9.1s-10.6,1.9-12.1,7.7
	c-0.7,2.7-1.1,5.5-1.1,8.3c0.1,5.6-1.8,10.3-6.6,13.6c-1.2,0.8-2.3,1.7-3.5,2.5c-3.1,2.2-5.9,4.6-7.6,8c-1.1,2.2-1.7,4.5-0.5,6.8
	c0.6,1.1,0.4,2.1,0.2,3.3c-0.3,2-0.5,4.1,0.4,6.1c1.5,3.5,4.6,4.5,8,4.8c1.3,0.1,1.8,0.3,1.5,1.9c-0.6,3.4,0.6,5.2,3.9,6.4
	c1.6,0.6,3.2,0.5,4.9,0.1c5.1-1.1,9-4,12.3-7.9c2.1-2.4,4.1-4.9,6.4-7.2c3.3-3.3,7.1-3.9,11.4-2.4c3.5,1.2,7,2.7,10.7,3.3
	c9.1,1.5,13.7,0,18.5-6.7c4-5.5,6-12,7.3-18.6c0.1-0.6-0.1-1.3,0.9-1.4c1.3,2.5,1.5,5.3,2.1,8c1.4,5.8,2.4,11.7,5.4,17.1
	c2.1,3.8,5.2,6.4,9.3,7.7c5.5,1.8,11.1,1.3,16.6,0.4c10.2-1.7,20.1-4.9,30-7.6c14.2-3.9,28.5-7.7,43.2-9.8
	c10.3-1.4,20.7-2.3,31.2-1.8c6.1,0.3,12.2,0.5,18.2,1.2c9.4,1.2,18.5,3.1,27.6,5.6c12.5,3.4,24.5,8.3,35.9,14.5
	c8.8,4.8,16.8,10.6,24.1,17.4c8.2,7.6,15.3,16.2,21.2,25.9c12.5,20.7,18.6,42.9,16.9,67.2c-0.8,11.3-3,22.3-6,33.2
	c-2.8,10.3-6.1,20.4-7.6,31c-1.2,8.3-1.2,16.5,0.9,24.6c3.2,12.4,9.7,22.8,19.1,31.4c0.5,0.4,1.2,0.8,0.7,1.7
	c-5.6-0.7-10.6-2.7-14.7-6c-7-5.5-11.2-12.9-14.3-21.1c-5.4-14.2-7.9-29.1-8.9-44.2c-0.2-3.4-0.7-6.8-0.6-10.2
	c0-1.4,0.5-2.3,1.8-2.8s2.7-1.1,3.9-1.8c3.8-2.3,6.9-5.3,7.9-9.9c1.1-5.1-0.8-10.8-4.6-13.4c-2.7-1.8-5.4-1.3-7.3,1.3
	c-1.3,1.8-2.2,3.7-2.7,5.9c-1.1,4.6-1.7,9.3-1.9,14.1c-0.1,2.4-0.1,2.5-2.5,3.2c-0.9,0.3-1.8,0.5-2.7,0.6c-4.8,0.9-9.6,1.6-14.4,2.2
	c-8.8,1-17.7,1.1-26.5,2.1c-1.9,0.2-2.3-0.1-2.6-2.1c-1.1-6.9-2.1-13.9-3.1-20.8c-1.1-8.5-2.5-17-3.2-25.5
	c-0.7-7.2-1.6-14.4-1.6-21.6c0-3,0-3.1,3.2-3.1c6.9,0,13.6-1,20.2-3c5.6-1.8,10.7-4.5,14.8-8.8c5.1-5.4,7.4-11.8,7.1-19.2
	c-0.4-8.3-3.5-15.3-10-20.5c-4.5-3.6-9.6-4.2-14.9-1.8c-3.4,1.5-6.1,3.9-8.5,6.7c-4.3,4.9-7.4,10.5-9.6,16.6
	c-2.2,6-3.9,12.2-4.3,18.7c-0.1,2.3-0.6,4.5-0.7,6.8c-0.1,1.5-0.8,2.1-2.2,1.9c-4.5-0.7-9-1.1-13.5-2c-14.8-3.2-28.6-9-42.1-15.7
	c-14.5-7.2-28.5-15.3-42.6-23.2c-14.7-8.2-29.5-16.4-45.2-22.5c-12.9-5-26.2-8.2-40.2-6.7c-9.5,1-18.2,4-25.5,10.3
	c-3.8,3.2-6.3,7.3-7.8,12.1c-2.2,7.1-1.2,13.9,1.2,20.7c3.1,8.7,8.3,16.1,14.3,23.1c6,7.1,12.3,14,17.5,21.7
	c3.6,5.5,6.5,11.3,8.4,17.6c0.4,1.2,0.3,2.2-0.1,3.3c-1.1,3.3-2.2,6.7-3.1,10.1c-2.5,9.2-3.9,18.6-5.2,28c-1,7.9-1.7,15.8-2.2,23.7
	c-0.3,5.9-0.2,11.8,0,17.7c0.2,5.2,0.7,10.3,2.4,15.3c1,3,2.3,5.8,4.7,7.9c2.7,2.3,5.9,2,8-0.9c1.5-1.9,2.3-4.1,2.9-6.5
	c1.5-6.2,2-12.4,2.2-18.7c0.3-9.6,0.2-19.2-0.3-28.9c-0.4-7.5-0.7-15.1-1.3-22.6c-0.7-8.2-1.9-16.2-3.9-24.1
	c-0.4-1.8-0.4-3.2,0.4-4.7c0.3-0.6,0.6-1.3,1-1.9c3.2-6,7.1-11.4,13.1-15c7-4.2,12.6-2.7,16.6,4.5c2.2,4,3.2,8.3,4.3,12.6
	c0.2,1-0.1,1.8-0.5,2.7c-1.1,2.7-2.1,5.4-3.1,8.1c-3.4,10-5.8,20.3-7.5,30.7c-1.9,10.9-2.8,21.9-3,33c0,2.1,0.4,4.1,0.5,6.2
	c0.1,5.8,1.3,11.5,3.3,17c0.8,2.2,2,4.3,3.5,6.2c2.1,2.6,6.7,3.5,8.9-0.8c1.2-2.3,1.9-4.8,2.5-7.3c2.1-9.5,2.4-19.1,2.5-28.7
	c0.2-14.1,0.1-28.2-1.2-42.2c-0.7-7.2-1.3-14.4-2.6-21.5c-0.2-1.2-0.1-2.2,0.5-3.3c0.7-1.3,1.3-2.6,2-3.9c2.7-4.9,5.7-9.6,10-13.4
	c2.5-2.2,5.2-3.7,8.7-3.3c2.9,0.3,5.2,1.9,7.3,3.8c4.7,4.2,8,9.5,11.3,14.7c5.2,8.4,9.9,17.3,15.4,25.5c3.2,4.8,6.3,9.9,11.1,13.2
	c3.1,2.1,4.2,4.1,3.6,8c-1.1,7.1-1.5,14.4-1.9,21.6c-0.6,9.8-1.1,19.6-1.2,29.4c-0.1,12-0.6,24,0.4,36c0.4,4.6,0.7,9.3,2.2,13.7
	c0.7,2,1.8,3.7,3.3,5.1c2.8,2.5,5.5,2.6,8.3,0.1c2.2-2,3.4-4.7,4.3-7.4c2.1-6.2,2.9-12.7,3.6-19.1c1-9.2,1.6-18.5,2.6-27.8
	c0.7-7,1.5-14,3.2-20.8c0.7-2.8,1.5-5.5,3.2-8.4c0.5,0.7,0.7,0.9,0.8,1.2c1.5,4.9,3,9.9,4.6,14.8c4.4,13.2,5.9,26.8,6.1,40.6
	c0.2,9.1-0.3,18.3,0.3,27.4c0.3,4.2-0.6,6.4-4.4,8c-2.8,1.1-5,3.3-6.9,5.7c-2.5,3.3-1.9,6.2,1.6,8.3c1.2,0.7,2.6,1.3,4,1.7
	c7.2,1.9,14.5,2.3,21.8,1.1c5.7-0.9,8.5-4,9.5-9.9c0.4-2.6,0.1-5.1-0.1-7.7c-0.4-6.6-1.1-13.2-1.6-19.8c-0.5-7.2-0.9-14.4-1.5-21.6
	c-0.3-3.7,0-7.5-0.3-11.2c-0.5-7.3-1-14.6-1-22c0-8-0.2-15.9,1.1-23.9c0.6-3.7,1.4-7.3,3.4-10.6c1.5-2.4,3.7-3.8,6.3-4.7
	c1.4-0.5,1.9,0.1,2.1,1.4c0.9,7.4,1.9,14.8,2.6,22.1c0.7,7.3,1.3,14.6,2.1,21.9c1,10,1.6,20,2,30c0.5,9.9,0.7,19.9-0.3,29.8
	c-0.6,5.6-1.4,11.1-3.7,16.3c-2.3,5.1-5.7,9.1-10.9,11.3c-4.6,2-9.5,2.7-14.5,2.8c-8.7,0.3-17.3-1-25.9-2.3c-13.4-2-26.6-5-39.8-7.7
	c-6.5-1.4-12.9-2.8-19.4-4.2c-5.9-1.2-11.7-2.5-17.6-3.6c-5.7-1.1-11.4-2.2-17.1-3c-5.9-0.9-11.8-1.9-17.8-2.6
	c-6.7-0.8-13.3-1.9-20-2.4c-4.7-0.4-9.5-0.6-14.2-1c-10.7-1-21.5-1.1-32.2-1.5c-7.2-0.2-14.5-0.1-21.7,0.2
	c-9.8,0.5-19.6,0.6-29.4,1.3c-7.9,0.5-15.9,0.8-23.8,1.6c-3.7,0.4-7.4,0.3-11.1,0.6c-7.6,0.7-15.2,1.5-22.8,2.3
	c-5.6,0.6-11.3,1.2-16.9,1.8c-6.3,0.7-12.5,1.3-18.8,2c-5,0.5-10.1,1-15.1,1.6c-7.9,0.9-15.8,1.9-23.7,2.9c-5.3,0.6-10.7,1.3-16,1.9
	v-0.1c-23,2.7-44.1,3.6-62.7,2.8c-43.4-1.9-85.9-4.9-127-7.8c-125.1-8.8-243.2-17.1-365.4,4.3c-172.4,30.2-520.8-14-599.9-33.5
	C40.1,352-6.9,359.1-7.4,359.2L-7,362c0.5-0.1,47-7.1,125.3,12.3c40.2,9.9,146.4,25.7,263.9,35.5c74.6,6.2,135.6,8.5,185.3,8.5
	c72.3,0,120.6-5,151.9-10.5c121.9-21.3,239.8-13.1,364.7-4.3c41.1,2.9,83.7,5.9,127.1,7.8c18.6,0.8,39.6-0.1,62.5-2.7h0.1
	c0.5,0.1,1-0.1,1.5-0.2c4.2-0.5,8.4-1.1,12.6-1.6c6.1-0.7,12.1-1.3,18.2-2c5.6-0.7,11.2-1.5,16.9-2.1c9.1-1,18.3-1.7,27.4-2.8
	c10.3-1.2,20.5-2.2,30.8-3c9-0.7,17.9-1.7,26.8-2.3c6.7-0.5,13.4-0.9,20.1-1.2c10.5-0.5,21.1-0.8,31.7-0.8
	c9.7-0.1,19.5-0.1,29.2,0.5c7.4,0.4,14.9,0.8,22.3,1.3c9.3,0.6,18.5,1.9,27.7,2.9c8.1,0.9,16.1,2.3,24.2,3.7
	c13.7,2.4,27.4,5.3,41,8.2c10.4,2.2,20.8,4.4,31.2,6.6c8.3,1.8,16.6,3.1,25.1,4.1c9,1.1,18.1,1.7,27.2-0.3
	c8.5-1.9,14.5-6.9,17.9-14.8c2.6-6.2,3.6-12.7,3.9-19.4c0.4-11.6,0.4-23.2-0.3-34.8c-0.4-7.4-0.9-14.9-1.5-22.3
	c-0.5-6.2-1.3-12.3-1.8-18.5c-0.4-5-1-10.1-1.7-15.1c-0.5-3.7-0.9-7.4-1.3-11.1c-0.2-2.1,0.1-2.3,2.2-2.4c6.1-0.4,12.2-0.6,18.3-1.1
	c4.8-0.4,9.7-1,14.5-1.7c3.6-0.5,7.1-1.2,10.7-2c2.1-0.5,2.3-0.2,2.3,1.9c0,1.7,0.3,3.3,0.4,4.9c0.6,8.9,1.6,17.7,3.2,26.4
	c1.8,9.9,4.5,19.5,8.8,28.7c2.5,5.3,5.7,10.1,9.9,14.2c6.4,6,14.1,8.9,22.7,9.6c1.7,0.1,3.2,0.7,4.6,1.6c3.5,2.5,7.4,4.2,11.2,6
	c10.6,4.8,22,6.4,33.5,7.2c7.4,0.5,14.9,0.4,22.3-0.3c9.1-0.8,18.1-1.8,26.9-4c5.2-1.3,10.4-2.7,15.3-5.1c3.6-1.7,7-3.6,9.5-6.8
	C1921.6,357.5,1921.2,353.4,1917.5,350.7z M1466.6,49.7c-0.2,0.4-0.5,0.7-1,0.6c-0.5-0.1-0.6-0.5-0.6-0.9c-0.1-1.3,0.3-2.4,1.6-3.6
	C1467.1,47.4,1467.2,48.5,1466.6,49.7z M1493.3,58.4c-1.4,0.6-4.2,1.2-6.6,1.2c-1.1,0.1-2.5,0-3.6-0.8c-1.1-0.7-1.1-1.4,0-2.1
	c2.3-1.6,8-1.7,10.4-0.2c0.4,0.2,0.7,0.4,0.8,0.9C1494.3,58,1493.8,58.2,1493.3,58.4z M1468.1,78.5c0.4-0.2,0.7,0,0.9,0.3
	c1.2,1.4,1.8,3.1,2.7,4.8c0.1,0.2,0,0.6-0.2,0.8c-0.2,0.2-0.6,0.2-0.8,0c-1.4-1.4-2.5-3-3-4.9C1467.6,79.1,1467.7,78.7,1468.1,78.5z
	 M1500.8,87.3c-1.1,6.1-2.6,12.1-5.3,17.8c-1,2.2-2.2,4.2-3.8,6c-3.3,3.7-7.4,5.1-12.3,4.5c-4.6-0.6-8.7-2.5-13.1-3.7
	c-5.3-1.5-9.9-0.8-13.9,3.4c-2.6,2.7-4.9,5.6-7.4,8.3c-2.3,2.5-4.9,4.4-8.1,5.5c-1.5,0.5-3.1,0.5-4.6,0.3s-2.6-1.4-2.6-2.7
	c0-1.4,1.1-2.6,2.6-3c2.4-0.6,4.9-0.8,7.2-1.9c1.3-0.7,2.4-1.6,3-3c0.7-1.9-0.4-3.6-2.4-3.8c-1.2-0.1-2.5,0-3.6,0.6
	c-1.4,0.7-2.9,1.4-3.8,2.6c-2.2,2.8-5.1,2.8-8.2,2.5c-3.1-0.2-5.3-3.4-4.7-6.5c0.2-1.1,1-1.3,1.8-1.1c2.2,0.3,3.5-0.9,4.7-2.5
	c1-1.4,1-3.3,0-4.3c-1.1-1.2-2.5-1.3-4.3-0.6c-0.8,0.4-1.4,1.3-2.8,1c0.8-4.5,3.7-7.2,7-9.6c2.2-1.7,4.7-3.1,6.6-5.1
	c2.8-2.8,4.4-6.2,4.8-10.2c0.2-2.7,0.5-5.3,0.8-8c0.2-1.8,0.5-3.5,1.3-5.1c1.5-3.1,4.3-4.6,7.6-4c5.7,1.1,10.6,3.9,15.2,7.4
	c0.4,0.3,0.7,0.8,1.2,1c1.9,1.1,2.9,2.5,1.5,4.7c-0.5,0.9-0.2,2,0.2,3c1,2.6,2.6,4.7,4.7,6.4c1.1,0.9,2.4,1.4,3.7,0.5
	c1.2-0.9,1.2-2.2,0.9-3.7c-0.6-2.2-1.6-4.3-2.8-6.2c-1.1-1.7-0.9-2.4,1-2.9c6.3-1.5,12.6-2.1,19,0c3,1,5.3,2.7,7.2,5.1
	C1500.7,82.4,1501.3,84.6,1500.8,87.3z M1435.3,120.2c0.4-1.3,1.2-1.6,1.8-2c0.6-0.4,1.5-1.1,2.1-0.1c0.4,0.7-0.5,1.2-1.1,1.5
	C1437.2,119.9,1436.4,120.3,1435.3,120.2z M1421.6,109.6c0.4-0.8,1-1.2,1.9-1.1c0.1,0,0.4,0.6,0.3,0.7c-0.5,0.9-1.2,1.3-2.2,0.7
	C1421.6,109.8,1421.6,109.6,1421.6,109.6z M1694.6,197.4c0.7-9.5,2.9-18.6,7-27.1c2.6-5.5,6.3-10.2,11.2-13.9
	c5.4-4.1,11.7-3.7,16.5,1.1c7.7,7.5,10.4,20.8,3.8,30.8c-3.7,5.6-9.1,9-15.2,11.2s-12.4,3.1-17.3,3.3
	C1694.1,202.7,1694.2,202.7,1694.6,197.4z M1519.3,269.3c0.7,8.9,1.1,17.7,1.5,26.6c0.3,7.2,0.4,14.5-0.2,21.7
	c-0.4,5.2-0.8,10.3-1.4,15.4c-0.3,2.3-1,4.4-1.9,6.5c-0.2,0.6-0.6,1.1-1,1.6c-1.7,2.1-3.4,2.2-5.1,0c-1.8-2.3-3-4.9-3.7-7.8
	c-1.2-5.5-1.8-11-1.9-16.6c-0.2-14.1,1.1-28.1,3-42c1.3-9.2,3-18.3,5.7-27.3c0.2-0.6,0.2-1.5,1.5-1.9
	C1517.5,253.5,1518.7,261.3,1519.3,269.3z M1557.3,277.7c0.6,11.1,0.6,22.2,0.2,33.2c-0.3,7.4-0.8,14.8-2.4,22.1c-0.4,2-1,4-2,5.9
	c-1.4,2.5-3,2.7-4.8,0.5c-1.8-2.1-2.8-4.6-3.6-7.1c-1.8-5.8-2.5-11.7-2.6-17.7c-0.4-16.1,1.7-32,5.2-47.7c1.5-6.9,3.5-13.6,5.9-20.2
	c0.2-0.5,0.2-1,1.4-1.1c0.4,3.5,1.1,7,1.3,10.5C1556.3,263.3,1556.9,270.5,1557.3,277.7z M1655.4,271.4c0.8-4,1.8-8.1,5.1-11
	c3.4-2.9,8.7-2.1,10.8,1.9c1.2,2.2,1.8,4.6,1.3,7.2c-1.5,8.2-5.2,15.4-11,21.4c-1.7,1.8-3.4,3.8-5.9,5.4
	C1653.9,287.8,1653.7,279.6,1655.4,271.4z M1696.4,280.1c-5.7,2.1-8.5,6.7-9.8,12.3c-1.4,6.4-2.2,12.8-2.1,19.4
	c0.1,7.5-0.1,14.9,0.3,22.4c0.5,8.8,0.8,17.5,1.5,26.3c0.4,5.5,0.6,10.9,1,16.4c0.4,5.8,0.8,11.5,1.4,17.3c0.3,2.8,0.5,5.6,0.4,8.4
	c-0.2,5-2.2,7.4-7.2,8.2c-6.8,1.2-13.6,0.9-20.3-0.8c-0.3-0.1-0.6-0.2-0.9-0.3c-1.8-0.8-4.2-1.1-4.4-3.4c-0.2-2,1.5-3.3,3-4.5
	c1.9-1.5,3.9-2.8,5.9-3.9c1.3-0.7,1.9-0.4,2.4,0.8c0.3,0.7,0.5,1.4,0.8,2c1.5,3,4.1,4.5,6.3,3.8c2.8-0.9,4.8-4.4,4.4-7.4
	c-0.4-3.1-2.8-4.7-6.3-4.6c-1.2,0-2.4,1.3-3.5,0c-0.8-0.9-0.2-2.2-0.3-3.3c-0.9-8.3-0.3-16.6-0.4-24.8c-0.1-10.2-0.7-20.3-2.7-30.2
	c-1.3-6.7-3.4-13.2-5.4-19.7c-1.2-3.8-2.5-7.5-3.4-11.3c-0.4-1.8-0.3-3.1,1-4.5c1.8-2,3.7-3.9,5.6-5.8c5.9-6.2,9.9-13.5,11.4-22
	c0.5-3,0.3-6-1-8.8c-1.7-3.7-4.6-5.7-8.4-6c-3.8-0.3-7,1.4-9.1,4.8c-3.8,6-4.6,12.7-5,19.6c-0.3,6.1,0.4,12.2,1.6,18.2
	c0.2,1.2,0,2.2-0.5,3.2c-2.7,5.1-4.2,10.5-5.2,16.2c-2,11.6-2.8,23.4-4,35.1c-0.8,8.3-1.5,16.7-3.6,24.8c-0.7,2.8-1.6,5.6-3.6,7.8
	c-2,2.4-3.9,2.4-5.9,0.1c-1.3-1.4-2-3.1-2.4-5c-1.1-4.7-1.8-9.6-1.8-14.4c-0.1-12.8-0.2-25.5,0-38.3c0.1-8.6,0.9-17.1,1.3-25.7
	c0.3-7,1.1-14,1.8-21c0.2-2.4,0.5-2.6,2.8-2.2c8.8,1.5,16.6-5.5,16-14.4c-0.4-5-1.6-9.6-5.3-13.2c-3.2-3.1-6.7-2.7-9.2,0.9
	c-2.3,3.4-3.4,7.3-4.3,11.2c-0.7,2.9-1.1,5.9-1.7,8.8c-0.3,1.5-0.7,1.7-2,0.8c-2-1.5-3.7-3.3-5.3-5.2c-6-7.1-10.5-15.1-15.2-23.1
	c-4.4-7.4-8.5-14.9-14-21.6c-1.6-1.9-3.3-3.8-5.2-5.3c-5.6-4.6-11.3-5.9-18.4,0.1c-4.7,4-7.9,9-10.9,14.2c-0.3,0.5-0.4,1.2-1.1,1.4
	c-1.1-0.8-0.9-2.2-1.4-3.4c-1.5-4.1-3-8.1-6.2-11.3c-3.7-3.7-7.9-4.3-12.5-2.8c-4.5,1.4-8.4,4-11.4,7.7c-2.6,3.1-5.1,6.3-6.9,9.9
	c-0.2,0.3-0.5,0.6-0.7,0.8c-0.7,0-0.9-0.3-1-0.7c-2.7-7.9-7.2-14.8-12.3-21.5c-5.3-6.9-11.3-13.2-16.6-20.1
	c-5.3-6.7-9.5-14-11.6-22.5c-2.8-11.4,1.3-22.2,11.1-28.1c7.6-4.6,15.8-6.6,24.5-7c10.1-0.4,19.7,1.6,29.2,4.9
	c14,4.8,27,11.6,39.9,18.6c14.6,7.9,28.8,16.4,43.5,24.1c11.8,6.2,23.8,12,36.5,16.4c9.4,3.3,19.1,5.4,29,6.3
	c2.9,0.3,2.8,0.3,2.9,3.2c0.2,9.9,1.1,19.8,2.4,29.6c1.1,8.2,2.2,16.4,3.3,24.6c0.6,4.4,1.3,8.8,1.9,13.2
	C1699.4,278.9,1699.3,279,1696.4,280.1z M1670.8,395.7c0.8-0.2,1.6-0.4,2-0.5c2.2,0,3.6,1.1,3.8,2.5c0.2,1.3-1.2,3.5-2.5,3.9
	c-0.8,0.3-1.4-0.1-1.9-0.6c-1.2-1.1-1.7-2.6-2.2-4C1669.8,396.5,1670.1,395.9,1670.8,395.7z M1630.2,273.8
	c0.9-5.3,1.7-10.6,3.5-15.6c0.6-1.7,1.3-3.3,2.5-4.6c1.5-1.6,2.5-1.7,4.3-0.3c0.2,0.2,0.5,0.4,0.7,0.6c3.9,3.6,5.3,13,2.6,17.6
	c-2.1,3.6-5.4,5.3-9.6,5c-0.7,0-1.5,0.1-2.2,0C1630.5,276.1,1629.9,275.4,1630.2,273.8z M1753.7,268c0.6-3.6,0.7-7.7,1.8-11.6
	c0.4-1.4,1-2.7,1.8-3.9c1.5-2.1,2.5-2.1,4.5-0.4c2,1.7,2.7,4.1,2.9,6.6c0.4,3.8-1.3,6.8-4,9.3c-1.1,1-2.4,1.9-3.8,2.6
	C1753.7,272.2,1753.5,272.1,1753.7,268z M1916.8,359.1c-2.5,3.3-6.1,4.9-9.7,6.5c-7.7,3.4-15.9,5-24.2,6.4
	c-7.1,1.2-14.3,1.7-21.6,2.2c-5.9,0.4-11.8,0-17.6-0.2c-8.4-0.3-16.6-1.9-24.6-4.4c-4.4-1.4-8.5-3.2-12.6-5.3
	c-0.4-0.2-1-0.4-1.1-1.4c6.2-0.6,12.3-0.8,18.3-1.8c6.4-1.1,12.8-2.2,19.2-3.5c6.4-1.3,12.8-2.3,19.2-3.5c4.3-0.8,8.5-1.6,12.8-2.3
	c9.9-1.4,19.9-2.7,30-2.2c3,0.1,6,0.7,8.8,1.9c1,0.4,1.9,0.9,2.6,1.6C1918.3,355,1918.5,356.9,1916.8,359.1z"/>
<path class="st1" d="M1838.6,174.6c0.9,0.1,1.8,0.2,2.5,0.9c-0.8-0.1-1.7-0.2-2.5-0.3C1838.6,175,1838.6,174.8,1838.6,174.6"/>
<path class="st1" d="M1796.4,192c0.1-0.3,0.3-0.7,0.4-1.1c0.3,0.4,0.3,0.7,0.1,1C1796.7,191.9,1796.5,192,1796.4,192"/>
<path class="st1" d="M1791.8,119.9c-0.1,0-0.3-0.1-0.2-0.3c0.1-0.1,0.3,0,0.3,0.1"/>
<path class="st1" d="M1924.9,380.6c-0.1-0.4-0.4-0.7-0.9-0.6c-0.3,0-0.5,0.1-0.8,0.2c-4.4,0.8-8.7,1.7-13.1,2.8
	c-9.4,2.3-51.3,13.3-60.3,16.7c-6.2,2.4-12.3,5.3-17.7,9.2c-4.5,3.2-8.7,6.8-12.9,10.3c-1.4,1.2-2.9,2.3-4.6,3.1
	c-1.7,0.8-2.2,0.5-2.6-1.3c-0.4-1.9-0.3-3.8-0.1-5.7c0.5-6.3,1.9-12.4,1.9-18.8c0-0.9,0.5-1.4,1-2c3.5-4.1,6.9-8.4,9.5-13.2
	c1.5-2.7,2.8-5.5,3-8.6c0.3-3.2-0.3-6.3-0.8-9.4c-1.6-9.4-3.8-18.7-5-28.2c-0.7-5.6-1.2-11.2-1.1-16.8c0.2-5.7,1.4-11.1,3.9-16.3
	c3.6-7.5,5.5-15.4,5.1-23.8c-0.1-1.8-0.4-3.6-0.8-5.4c-0.3-1.2-1-2-2.2-2.2c-1.2-0.2-1.8,0.6-2.4,1.4c-0.4,0.6-0.7,1.3-1,1.9
	c-1.7,4.4-2.4,8.9-3.1,13.5c0.1,0.6,0.1,1.2-0.5,1.9c-0.3-0.8-0.3-1.4-0.2-2c-0.2-1.8-0.3-3.5-0.6-5.3c-1.3-7.3-2.7-14.7-4-22
	c-0.4-2-1-4-0.7-6.1c0.6,0,0.9,0.4,1.1,0.8c5.2,7.1,11.3,13.3,17.7,19.2c1,1,2.1,1.9,3.4,2.6c1,0.5,1.6,0.3,2.1-0.7
	c0.3-0.7,0.5-1.5,0.7-2.2c0.4-1.7,0.7-3.4,1-5.2c0.7,0.3,0.8,0.9,1.1,1.3c0.7,1,1.4,2.1,2.1,3c0.4,0.5,1,1,1.7,0.7
	c0.8-0.3,0.7-1,0.7-1.7c-0.1-0.9-0.2-1.8-0.2-2.6c0.3,0,0.4,0,0.5,0c0.7,0.4,1.3,1.1,2.1,0.5c0.8-0.6,0.7-1.5,0.6-2.3
	c-0.1-0.7-0.2-1.3-0.3-1.9c0-0.3-0.3-0.7,0.3-1c0.4,0.3,0.7,0.7,1.1,1c1,0.7,1.9,0.2,1.9-0.9c0-0.6-0.1-1.3-0.3-1.9
	c-0.5-2.2-1.3-4.4-2.1-6.5c-0.3-0.9-0.3-1.6,0.3-2.3c0.8-1,1.5-2,2.2-3c0.9-1.3,1-1.7,0-3c-0.9-1.2-1.9-2.4-2.9-3.4
	c-6.3-6.3-13-12.2-20-17.7c-3.1-2.4-3.2-2.4-5.6,0.8c-2.3,3-4.4,6.2-6.5,9.4c-1.3,2-2.6,4-3.9,6c-0.5-0.2-0.3-0.5-0.4-0.7
	c-0.7-5.8-1.6-11.5-3.1-17.2c-1.1-4.4-2.6-8.8-4.7-12.9c-3.1-6.1-7.3-11.3-12.4-15.9c-1.6-1.5-3.3-2.8-5.1-4
	c-1.1-0.8-1.6-0.6-1.9,0.8c-0.1,0.3-0.1,0.5-0.1,0.8c-0.5,2-1.1,3.9-2.3,5.6c-2.1,3-5.1,3.6-8.2,1.5c-1.2-0.8-2.2-1.8-3.1-3
	c-3.3-4.4-5.4-9.2-6.7-14.5c-0.2-1-0.3-2.1,0-3.3c0.3,0.3,0.5,0.4,0.5,0.6c2,4.1,4.8,7.7,8,10.9c1.2,1.2,2.5,2.4,4,3.2
	c2.4,1.3,3.7,0.7,4.7-1.8c0.9-2.4,1.3-5,1.5-7.5c0.2-2,0.6-3.7,2.1-5.1c0.7-0.7,1.2-1.7,1.8-2.6c1.9-3.2,3.3-6.7,3.6-10.5
	c0.2-2.8-0.5-5.3-2.5-7.4c-0.4-0.4-0.8-0.8-1.4-0.6c-0.6,0.2-0.5,0.8-0.5,1.4c-0.1,2.4-0.1,4.9-0.2,7.3c-0.1,1.5-0.3,1.8-1.6,2.3
	c-1.6,0.5-1.6,0.5-1.7,2.1c-0.1,2.5-0.2,5-0.4,7.5c0,0.8,0.1,1.6-0.7,2.2c-1.4,1-2.8,1.6-4.6,1c-1.6-0.6-3-1.6-4.1-2.9
	c-3.3-3.7-5.6-8.1-7.3-12.7c-0.6-1.5-0.9-3.2-0.8-4.8c0.1-1.8,0.8-3,2.6-3.7c4.6-1.9,9.1-4,13.1-7.2c2.4,4.2,6.2,6.5,10.4,8.4
	c1.4,0.6,1.7,0.5,2.1-0.9c0.5-2,1-3.9,1-6c0-0.9,0.1-1.9,0.1-2.9c1,0.1,1.7,0.1,2.4,0.2c5.8,0.4,11.6,0.8,17.5,1.1
	c0.9,0,2.3,0.9,2.5-0.5c0.2-1.3-1.4-1.1-2.2-1.3c-4.3-1.2-8.6-2.3-12.9-3.4c-0.4-0.1-0.9,0-1-0.7c6.7-2,13.3-4,19.9-6
	c0.8-0.2,2.2-0.1,2-1.4c-0.3-1.1-1.4-0.5-2.2-0.3c-5.5,0.9-11,1.8-16.4,2.8c-1.9,0.3-3.9,0.6-5.8,1c-0.9,0.2-1.2-0.3-1.5-0.9
	c-0.4-0.7,0.1-0.9,0.5-1.3c4.5-4.2,9.1-8.4,13.6-12.5c1.7-1.6,3.5-3.2,5.2-4.8c0.4-0.4,1-0.8,0.6-1.5c-0.5-0.7-1-0.2-1.5,0.1
	c-1.7,1.1-3.4,2.2-5.1,3.3c-5.7,3.7-11.4,7.5-17.1,11.2c-0.3,0.2-0.6,0.6-1,0.3c-1.7-1-3.7-1.2-5.6-1.6c-0.8-0.1-0.9-0.5-0.8-1.3
	c0.2-1.7,0.4-3.4,0.5-5.1c0.4-5.5,0.9-11,1.3-16.5c0-0.5,0.1-0.9,0.1-1.4c0-0.5-0.1-1-0.7-1c-0.5-0.1-0.7,0.2-0.8,0.7
	c-0.1,0.5-0.4,1-0.5,1.5c-1.1,4-2.2,7.9-3.4,11.9c-0.9,3-1.7,6-2.6,9.1c-0.3,1-0.7,1.4-1.8,1.2c-1.9-0.2-3.8,0.1-5.6,0.8
	c-0.8,0.3-1.1,0.2-1.5-0.6c-1.7-3.6-3.4-7.1-5.1-10.6c-1.2-2.4-2.3-4.8-3.5-7.3c-0.2-0.5-0.4-1.1-1.1-0.9c-0.7,0.2-0.6,0.9-0.5,1.5
	c0,0.1,0.1,0.3,0.1,0.4c1.4,6.4,2.9,12.9,4.4,19.3c0.2,0.7,0.2,1.2-0.5,1.7c-3.1,2.3-4.6,5.6-5.7,9.2c-0.4,1.5-0.8,3-0.9,4.6
	c0,0.5,0,1.1-0.6,1.1c-0.7,0-0.3-0.7-0.3-1.1c0-0.1,0-0.3,0.1-0.4c0.2-2.3,0.5-4.7,0.6-7.1c0.3-7.7-0.5-15.5-0.9-23.2
	c-0.4-6.5-0.7-13-0.9-19.4c0-0.8,0.1-1.6,0.4-2.3c1.7-4.1,2.9-8.4,3.7-12.8c1-6,1.4-11.9-1.7-17.6c1.4-0.9,2.7-1.9,3-3.6
	c0.3-1.7-0.2-3.2-1.4-4.6c1.7-0.4,3.2-0.5,4.5-1.3c3.1-1.8,5.1-6.5,4.1-10.1c0-0.1,0-0.3-0.1-0.4c-0.9-0.9-2-0.4-3-0.5
	c-0.6-0.1-1.4-0.2-1.7,0.6c-0.2,0.7-0.3,1.3-1.1,1.4c-0.7,0.1-1.3,0-2-0.4c1-1.6,1.9-3,2.7-4.4c2.4-4,3.5-8.2,3.1-12.9
	c-0.3-4-1.5-7.7-3-11.3c-1.7-3.9-2.6-7.8-2.1-12c0.1-0.5,0.1-1,0.2-1.6c0.1-0.5-0.1-0.8-0.5-1c-0.3-0.1-0.6,0-0.9,0.3
	c-0.2,0.3-0.5,0.6-0.7,0.9c-1.7,2.3-3.3,4.5-5.1,6.8c-1.5,2-3,4.1-4.9,6c-0.2-1.2,0-2.2,0.5-3c0.3-0.6,0.7-1.1,1.1-1.6
	c0.3-0.4,0.3-0.7,0-1c-0.4-0.3-0.7-0.2-1,0c-0.3,0.3-0.6,0.5-0.9,0.8c-2.6,2.4-4.8,5-6.7,7.9c-2.2,3.4-3.9,7-4.2,11.1
	c-0.5,6.7,4.3,13.8,12.5,13.6c1.6,0,3.3-0.4,4.9-0.4c0.3,0,0.6-0.1,0.7,0.2c0.2,0.3,0.1,0.7-0.2,0.9c-0.6,0.7-1.5,0.9-2.3,0.8
	c-2.3-0.2-4.6,0-6.9,0.1c-0.9,0.1-1.6-0.1-1.9-1c-0.2-0.5-0.6-0.9-1.2-0.9c-1.7,0-3.4,0-5.1,0c-0.6,0-0.9,0.3-1,0.9
	c-0.5,3.9,1,8.8,6.1,10.4c0.8,0.2,1.7,0.1,2.6,0.7c-2.9,3-2,5.6,0.7,8.1c-1.2,0.7-2.2,1.3-3.2,1.9c-0.3,0.2-0.7,0.5-0.6,0.9
	c0.1,0.6,0.6,0.6,1.1,0.6c0.3,0,0.5,0,0.8,0c1.8,0.1,3.5,0.2,5.3,0.6c1.8,0.5,3.5,1.1,4.5,2.8c0.3,0.5,0.7,1.2,0.3,1.6
	c-0.5,0.6-1.1,0-1.6-0.2c-1.5-0.7-3-1.5-4.7-2.1c-0.6-0.2-1.3-0.3-1.9-0.1c-0.7,0.3-0.8,1-0.2,1.4c0.7,0.5,1.5,0.8,2.2,1.2
	c1.9,1,3.8,2,5.2,3.7c0.2,0.2,0.6,0.4,0.3,0.7c-0.3,0.3-0.6-0.1-0.9-0.2c-1.3-0.6-2.6-1.2-4-1.7c-0.9-0.3-1.9-0.6-2.8-0.8
	c-0.5-0.1-1.1,0-1.3,0.6c-0.2,0.7,0.4,0.9,0.8,1.1c1.3,0.7,2.6,1.3,3.8,2c0.4,0.3,1.1,0.4,1,1.2c-0.3,0.3-0.5,0.1-0.7,0
	c-0.9-0.3-1.7-0.7-2.6-0.8c-0.6,0-1.4-0.2-1.7,0.6c-0.2,0.7,0.5,1,0.9,1.3c1,0.8,2.1,1.6,3.1,2.4c0.3,0.2,0.5,0.5,0.4,0.8
	c-0.2,0.4-0.6,0.2-0.9,0.1c-1-0.4-2-1-3.1-1.2c-2.4-0.5-3.2,0-3.8,2.4c-0.7,2.5-0.5,4.9-0.4,7.4c0.2,3.9-0.2,7.7-1.3,11.5
	c-1.8,6.3-2.7,12.7-3,19.2c-0.3,7-0.2,14,1.6,20.9c0.8,3,1,6.1,2,9c1.3,3.8,2.9,4.6,6.6,3.5c2.1-0.6,3.9-1.7,6-2.8
	c0,2.2-0.7,4-1.3,5.9c-1.8,6.3-4.1,12.3-7.9,17.7c-1.2,1.8-3.4,2.4-5.3,1.4c-1.5-0.8-2.6-2-3.2-3.6c-0.7-1.9-0.9-3.8-0.6-5.8
	c0.4-2.7,1.1-5.4,1.9-8c0.7-2.2,1.6-4.4,1.8-6.8c0.1-0.9,0.1-1.9-0.9-2.4c-1-0.4-1.8,0.1-2.5,0.7c-1,0.9-1.9,1.8-2.6,2.9
	c-3.5,4.8-6,10.1-7.6,15.8c-0.7,2.6-1,5.2-0.8,8c0.4,5.1,5.9,10.4,12.6,6.9c2.1-1.1,3.8-2.6,5.4-4.2c1.1-1.1,1.9-2.5,3.2-3.5
	c1.7-1.3,3.2-2.9,4.5-4.7c2.3-3.1,4.3-6.4,6.1-9.8c0.2-0.4,0.3-0.8,0.5-1.2c0.4,0.5,0.3,0.8,0.1,1.2c-1.2,6.2-4,11.7-8,16.6
	c-4.6,5.5-10.2,9.5-16.2,13.2c-0.7,0.4-1.6,0.7-2.4,0.9c-1.6,0.4-2.7-0.4-3-2c-0.2-0.8-0.2-1.6-0.1-2.3c0.1-0.9,0.2-1.8,0.2-2.7
	c0-0.5,0-1-0.6-1.1c-0.5-0.1-0.6,0.3-0.8,0.7c-0.2,0.3-0.3,0.6-0.5,0.9c-1.2,2.7-2.4,5.4-3.1,8.3c-0.3,1.2-0.5,2.4-0.5,3.7
	c0.1,2.9,2,4.4,4.8,3.9c2.4-0.4,4.5-1.4,6.5-2.6c7.2-4.3,13.3-10,18.6-16.4c1.5-1.8,2.8-3.8,4.2-5.7c0.4-0.5,0.6-1.3,1.6-1.2
	c-0.4,1.9-1.5,3.5-2.3,5.1c-3.2,6.4-6.7,12.6-11.3,18.1c-1.9,2.3-4,4.5-6.7,5.9c-1.4,0.7-2.8,1.4-4.5,0.6c-0.6-0.3-1.1-0.1-1.3,0.5
	c-0.9,1.9-1.8,3.8-2.1,5.9c-0.3,2.2,1,3.3,3.3,2.8c1.2-0.3,2.3-0.8,3.4-1.5c3.1-1.9,6-4,8.8-6.2c0.3-0.3,0.7-0.8,1.1-0.4
	c0.6,0.5-0.1,0.9-0.4,1.3c-1.4,1.6-2.8,3.1-4.5,4.4c-4.2,3.4-8.7,6-14.5,5.2c-0.8-0.1-1.1,0.4-1.1,1c-0.1,1.3-0.2,2.6-0.2,3.9
	c0,1.8,0.1,3.5,0.8,5.2c0.9,2.3,2.5,3,4.9,2.4c1.4-0.4,2.6-1.2,3.7-2.1c4.8-3.8,8.6-8.4,12.3-13.2c2.6-3.4,5.1-6.8,7.7-10.2
	c0.1-0.1,0.1-0.2,0.2-0.3c0.2-0.5,0.4-1.1,1.1-1.3c0.2,0.8-0.3,1.3-0.7,1.8c-0.1,0.2-0.2,0.4-0.2,0.5c-0.1,0.2-0.1,0.4-0.2,0.6
	c-3.9,8.1-7.9,16.2-11.8,24.4c-2.1,4.4-4.3,8.8-6.2,13.4c-0.8,2.1-1.4,4.2-1.9,6.4c-0.2,1.1-0.1,2.1,0.8,2.9c0.9,0.8,2,0.4,3,0
	c0.2-0.1,0.5-0.2,0.7-0.4c2.8-1.5,5.1-3.6,7.4-5.8c9.1-8.7,17.3-18.3,25-28.2c3-3.8,5.8-7.8,8.8-11.6c0.4-0.5,0.6-1.5,1.6-1.4
	c0.4,0.3,0.1,0.5,0,0.7c-1.9,4-4.2,7.7-6.7,11.3c-7.5,10.6-15.9,20.5-24.9,29.9c-4.2,4.3-8.4,8.6-13.2,12.3c-1.2,1-2.5,1.9-3.9,2.6
	c-1.3,0.6-1.9,0.3-2.2-1.2c-0.1-0.5-0.2-1-0.2-1.6c-0.1-2.2,0.1-4.5,0.5-6.7c1-6.2,2.7-12.2,4.5-18.3c0.2-0.7,0.8-1.6-0.1-2.1
	c-0.9-0.5-1.3,0.6-1.7,1.2c-7.4,10.2-10.5,21.5-8.9,34.1c0.4,3.4,1.1,6.7,2.4,9.9c1.7,4.1,5,6.4,9.9,4.8c2.2-0.7,4.2-1.7,6.1-3
	c5.5-3.7,10.1-8.3,14.6-13.1c7-7.6,13.5-15.7,19.6-24c2.5-3.3,4.9-6.6,7.3-10c0.1-0.1,0.2-0.2,0.2-0.4c0.2-0.6,0.6-1,0.9-1.5
	c0.2-0.2,0.4-0.5,0.5-0.7c0-0.3,0.1-0.5,0.4-0.6c0.1-0.1,0.3-0.3,0.3-0.3c0.3,0.2,0.1,0.4-0.1,0.6c0,0.2,0,0.5-0.3,0.6
	c-0.2,0.3-0.4,0.6-0.5,0.9c-0.2,0.6-0.4,1.1-0.9,1.5c-0.1,0.2-0.2,0.3-0.2,0.5c-0.2,0.5-0.4,1-0.6,1.4
	c-7.5,14.5-15.8,28.5-25.2,41.9c-5,7.1-10.1,14.2-16,20.6c-1.8,1.9-3.7,3.8-6,5.1c-1.7,1-2.5,0.5-2.9-1.4c-0.3-1.6-0.1-3.3,0.2-4.9
	c0.5-2.8,1-5.7,1.8-8.4c0.2-0.7,0.8-1.7-0.3-2c-0.8-0.2-0.9,0.7-1.2,1.3c0,0.1,0,0.1-0.1,0.2c-1.2,2.7-2.5,5.3-3.7,8
	c-1.9,4.4-3.7,8.9-4.7,13.7c-0.4,1.8-0.7,3.6-0.2,5.4c0.5,1.8,1.6,2.8,3.5,2.8c1.4,0,2.7-0.5,3.9-1.1c2.6-1.2,4.9-2.8,7.1-4.5
	c4.2-3.1,8.1-6.5,11.9-10c0.3-0.3,0.6-0.8,1.1-0.4c0.5,0.4,0,0.8-0.2,1.2c-2,3.3-4.1,6.6-6.2,9.8c-2.2,3.2-4.4,6.3-7.2,9.1
	c-1.5,1.5-3,2.7-5.2,2.8c-1.2,0-2.2,0.8-2.9,1.7c-1.4,1.8-2.2,3.9-2.7,6.1c-1,4.7-1,9.4-0.4,14.1c0.1,0.5,0,1.1,0.7,1.3
	c0.6,0.2,0.9-0.4,1.2-0.8c4.2-5.9,8.6-11.6,12.6-17.6c6-9.1,11.6-18.5,17.8-27.6c2.2-3.2,4.3-6.4,7-9.2c0.2-0.2,0.4-0.5,0.6-0.4
	c0.3,0.2,0,0.6-0.1,0.9c-0.3,0.6-0.5,1.2-0.8,1.8c-3.2,6.2-7,12-10.8,17.8c-7,10.6-14,21.2-21.1,31.7c-4.1,6-6.7,12.4-7,19.7
	c-0.1,2.8-0.2,5.6,0.1,8.5c0.1,1.4,0.7,1.6,1.7,0.8c0.6-0.4,1.1-1,1.6-1.5c4.6-4.7,9-9.5,13.4-14.4c5.7-6.4,11.4-12.7,16.7-19.3
	c8.7-10.9,15.4-22.9,21-35.6c3.2-7.3,6.1-14.7,8.7-22.3c1.6-4.7,3.2-9.4,4.7-14.1c0.8-2.5,1.6-5,2.4-7.5c0.1-0.3,0.3-0.7,0.7-0.5
	c0.2,0.1,0.3,0.4,0.2,0.7c-0.3,1.6-0.5,3.2-0.8,4.8c-2.2,11.7-4.7,23.3-8,34.8c-3,10.2-6.8,20.2-11.2,29.9
	c-3.7,8.2-8.3,15.9-13.8,23c-5.2,6.8-11.1,12.9-17.3,18.8c-4.2,3.9-8.6,7.5-13.3,10.6c-10.3,6.7-21.5,11.4-33.4,14.4
	c-6.4,1.6-12.9,2.9-19.5,3.2c-0.2,0-0.5,0-0.7,0.1c-23.7,1.4-256.6,14.7-361.2,1.6c-73.3-9.2-301.2,0.3-502.2,8.7
	c-103.3,4.3-192.6,8-247.1,8.6c-86.7,0.9-388,1.5-623-31.2c-197.5-27.5-225.3-14.4-226.4-13.8l0.7,1.4c0.3-0.1,29.2-13.3,225.4,14
	c198.1,27.6,443.3,31.5,567.5,31.5c23.1,0,42.1-0.1,55.7-0.3c54.5-0.6,143.8-4.3,247.1-8.6c191-8,428.8-17.9,502-8.7
	c105.4,13.2,340.7-0.4,361.9-1.6c0.1,0,0.1,0,0.2,0c1.8,0.1,3.7-0.3,5.5-0.5c9.3-1.2,18.3-3.4,27-6.6c10.9-4.1,21.1-9.6,30-17.2
	c6.1-5.2,11.8-10.8,17.1-16.8c5-5.7,9.5-11.9,13.4-18.4c6.7-11.5,11.4-23.8,15.6-36.4c2.9-8.6,4.9-17.5,6.9-26.4
	c1.6-7.2,3-14.3,3.9-21.6c0.2-1.3,0.4-2.6,0.3-3.9c-0.1-0.6-0.1-1.2-0.9-1.4c-0.7-0.1-1.1,0.4-1.3,0.9c-0.5,1.3-1.1,2.5-1.5,3.8
	c-2.6,7.9-4.9,15.9-7.7,23.7c-3.1,8.9-6.4,17.7-10.5,26.2c-3.6,7.6-7.6,15.1-12.2,22.2c-4.2,6.4-9,12.2-14,18
	c-7.1,8.1-14.2,16.2-21.6,23.9c-0.6,0.6-1.2,1.4-2.1,1.8c-0.6-9,0.9-17.2,5.9-24.7c8.1-12,16-24.1,23.9-36.2
	c3.5-5.3,6.9-10.6,9.6-16.4c0.3-0.6,0.5-1.2,0.7-1.8c0.1-0.6,0.1-1.4-0.6-1.8c-0.6-0.4-1.2-0.2-1.8,0.2c-1,0.7-1.8,1.5-2.6,2.4
	c-4.7,5.7-8.6,12-12.6,18.3c-6.8,10.9-13.8,21.7-21.5,31.9c-0.4,0.5-0.6,1.1-1.4,1.4c-0.2-3.5-0.2-6.8,0.2-10.2
	c0.3-2,0.9-3.9,1.8-5.8c0.8-1.5,1.8-2.7,3.8-2.7c1.2,0,2.3-0.6,3.2-1.4c2.1-1.8,4-3.8,5.7-5.9c5.5-7.2,10.1-15,14.6-22.8
	c0.3-0.6,1.1-1.3,0.4-1.9c-0.9-0.7-1.4,0.3-1.9,0.8c-4.9,4.9-9.9,9.6-15.3,13.9c-3.1,2.5-6.2,4.8-9.8,6.6c-1.1,0.5-2.1,1-3.4,1
	c-1.1,0-1.7-0.5-2-1.5c-0.3-1-0.3-1.9-0.1-2.9c0.6-4.2,2-8.1,3.6-12c0.5-1.1,0.8-2.3,1.5-3.3c0.4,0.3,0.3,0.5,0.2,0.8
	c-0.2,1.5-0.3,3-0.1,4.5c0.4,3.2,2.5,4.3,5.3,2.7c0.3-0.2,0.5-0.4,0.8-0.5c2.1-1.3,3.8-3.1,5.4-4.8c5-5.4,9.4-11.3,13.7-17.2
	c8-11.1,15.3-22.7,21.9-34.7c4.7-8.5,9.2-17.1,13.1-25.9c0.3-0.6,1-1.4,0.1-1.9c-0.9-0.5-1.2,0.5-1.6,1
	c-5.6,8.5-11.4,16.8-17.6,24.9c-6.2,8.2-12.6,16.2-19.8,23.6c-4.1,4.2-8.3,8.2-13.3,11.3c-1.9,1.1-3.8,2.1-6,2.3
	c-1.8,0.2-3.4-0.2-4.7-1.5c-1-1-1.6-2.3-2-3.5c-2-5.5-2.7-11.2-2.4-17c0.3-6.4,2.1-12.5,5-18.2c0.2-0.3,0.2-0.9,0.8-0.7
	c0.7,0.2,0.3,0.8,0.2,1.1c-0.5,2-1,4.1-1.4,6.1c-0.8,3.8-1.6,7.6-1.5,11.5c0,0.8,0.1,1.7,0.2,2.5c0.5,2.1,2,2.9,4,2.2
	c0.8-0.3,1.5-0.8,2.2-1.2c4.7-3.1,8.7-7.1,12.7-11.1c7.8-7.8,15.1-16.2,22-24.9c6.5-8.1,11.9-16.9,16.4-26.3
	c0.3-0.7,0.6-1.5,0.8-2.2c0.1-0.4-0.1-0.8-0.4-1c-0.4-0.3-0.8-0.1-1.1,0.2c-0.7,0.8-1.5,1.5-2.1,2.3c-5.1,6.4-9.7,13.2-14.8,19.6
	c-7,8.7-14.2,17.1-22.2,25c-2.6,2.5-5.2,5-8.3,6.9c-0.6,0.4-1.4,1.1-2.2,0.6c-0.8-0.5-0.4-1.4-0.2-2.2c0.7-3.3,2.1-6.5,3.5-9.5
	c3.3-7,6.7-13.9,10-20.9c4.6-9.5,9.2-18.9,13.8-28.4c0.3-0.6,1.1-1.3,0.1-1.8c-1-0.5-1.2,0.5-1.5,1.1c-4,6.2-8.2,12.3-12.5,18.3
	c-3.8,5.2-7.8,10.2-12.2,14.9c-1.9,2-3.9,3.9-6.4,5.2c-2.3,1.2-3.7,0.6-4.4-1.9c-0.1-0.3-0.1-0.5-0.2-0.8c-0.2-1.7-0.2-3.4-0.1-5.1
	c0-1,0.4-1.2,1.3-1.1c2.2,0.1,4.3-0.4,6.3-1.1c3.6-1.4,6.7-3.6,9.5-6.2c3.4-3.3,6.3-7,8.8-11c0.4-0.6,1.2-1.3,0.4-2
	c-0.8-0.6-1.3,0.4-1.8,0.8c-4.4,3.8-8.8,7.5-13.5,10.7c-1.7,1.1-3.4,2.2-5.3,2.9c-1.3,0.5-1.8,0.1-1.5-1.3c0.2-1.4,0.7-2.8,1.4-4.1
	c0.2-0.4,0.5-0.5,0.9-0.5c2.5,0.2,4.6-0.8,6.5-2.2c3.8-2.7,6.5-6.4,9.1-10.2c4.2-6.1,7.5-12.7,10.7-19.4c0.6-1.2,1-2.5,1.5-3.8
	c0.2-0.5,0.1-1-0.4-1.4c-0.6-0.4-1-0.1-1.4,0.3c-0.4,0.3-0.8,0.7-1.1,1.1c-1.7,1.8-3.1,3.7-4.5,5.7c-4.9,7.3-11,13.3-18.2,18.3
	c-2.8,2-5.7,3.8-9.1,4.5c-2.2,0.4-3.3-0.4-3.3-2.6c0-2.6,0.9-5,2-7.4c0.5,0.6,0.4,1.1,0.6,1.6c0.7,1.8,1.7,2.4,3.6,2.4
	c1.4,0,2.6-0.5,3.7-1.2c6.5-3.8,12.5-8.2,17.2-14.1c5.1-6.3,8-13.4,8.5-21.5c0-0.7,0.6-1.9-0.6-2.1c-1-0.2-1,1-1.3,1.7
	c-1.8,3.8-3.6,7.6-6.1,11c-0.2,0.3-0.3,0.8-0.6,0.5c-0.4-0.3,0-0.7,0.2-1c0.1-0.3,0.2-0.6,0.3-0.9c2.1-4.9,3.5-10,4.5-15.2
	c0.2-0.9,0.6-1.6,1.2-2.1c1.5-1.3,2.4-2.9,2.4-4.9c0.1-2.2,0.8-4.4,1.7-6.4c1-2.2,2.3-4.3,4.4-5.6c1.1-0.6,1.2-1.4,0.9-2.4
	c-0.6-2.5-1.3-5.1-1.8-7.6c-0.3-1.2-0.7-2.5-0.6-3.9c0.8,0.4,0.9,1.1,1.2,1.6c1.4,2.9,2.7,5.8,4.2,8.6c0.8,1.5,0.8,1.5,2.3,0.8
	c2.1-1,4.3-1.2,6.5-0.9c1.6,0.2,1.6,0.2,2.1-1.3c1.3-4.5,2.6-8.9,3.9-13.4c0.2-0.7,0.3-1.5,0.5-2.4c0.4,1,0.3,1.7,0,2.4
	c-0.4,4.6-0.8,9.1-1.2,13.7c-0.1,1.2,0.1,1.5,1.3,1.7c1.7,0.3,3.7,0.4,5.1,1.3c1.7,1.2,2.8,0.6,4.1-0.4c0.3-0.2,0.7-0.4,1-0.6
	c3.3-2.1,6.5-4.4,9.9-6.3c0.2-0.2,0.3-0.3,0.5-0.5c0.1-0.3,0.4-0.4,0.6-0.5c0.2-0.1,0.3-0.2,0.5-0.2c0.2-0.2,0.4-0.4,0.6-0.1
	c0,0.1-0.2,0.3-0.3,0.4c-0.1,0.1-0.3,0.2-0.4,0.3c-0.2,0.3-0.4,0.6-0.8,0.7c0,0.1-0.1,0.1-0.2,0.2c-0.4,0.4-0.8,0.9-1.2,1.3
	c-2.9,2.7-5.7,5.3-8.6,8c-0.4,0.3-1,0.6-0.8,1.2c0.2,1.1,0.9,2,1.6,2.9c0.5,0.7,1.4,0.2,2,0.2c2.2-0.3,4.4-0.6,6.6-1
	c0.4-0.3,0.9-0.2,1.4-0.3c0.8-0.5,1.6-0.5,2.5-0.5c-0.7,0.7-1.6,0.9-2.6,1c-0.3,0.1-0.7,0.1-1,0.2c-1.9,0.6-3.8,1.2-5.7,1.8
	c-0.7,0.2-1.5,0.5-2.2,0.7c-0.5,0.1-0.9,0.3-0.9,0.9c0,0.5,0.5,0.7,1,0.8c0.3,0.1,0.5,0.2,0.7,0.2c2.2,0.6,4.4,1.1,6.6,1.7
	c1,0.2,2,0.2,2.9,1c-1-0.1-1.9-0.2-2.9-0.3c-2.7-0.2-5.4-0.3-8.1-0.5c-2-0.1-2-0.2-2.2-2.2c-0.1-1.6-0.2-3.3-0.9-4.8
	c-0.9-2-2.2-2.1-3.6-0.5c-0.3,0.3-0.3,0.9-0.9,0.9c-0.2-0.6-0.3-1.1-0.5-1.7c-0.1-0.2-0.2-0.4-0.3-0.5c-0.6-1-1.5-1.2-2.5-0.5
	c-0.6,0.4-0.8,1-1.2,1.5c-0.2,0.3-0.3,0.9-1,0.8c-0.2-0.5-0.3-1-0.5-1.5c-0.3-0.8-0.6-1.5-1.6-1.5c-0.9-0.1-1.4,0.5-1.9,1.2
	c-0.4,0.6-0.5,1.4-1.3,1.8c-0.1-0.6-0.2-1.2-0.5-1.7c-0.8-1.3-1.9-1.3-2.7,0c-0.4,0.6-0.7,1.3-1,2.1c-0.3-0.4-0.4-0.6-0.5-0.8
	c-0.4-0.8-1-1.2-1.9-1.1c-0.8,0.1-1.2,0.8-1.5,1.4c-0.2,0.6-0.4,1.2-0.7,1.9c-0.2-0.1-0.4-0.2-0.5-0.3c-1.4-1-2.2-0.8-3,0.6
	c-0.3,0.6-0.5,1.2-0.7,1.8c-0.1,0.3-0.2,0.7-0.6,0.5c-1.4-0.5-1.9,0.6-2.2,1.5c-0.5,1.4-0.7,2.9-1.1,4.4c-0.1,0.4,0,0.8,0.4,1
	c0.4,0.3,0.8,0.2,1.1,0c0.3-0.2,0.6-0.5,0.9-0.7c2.8-1.9,5.8-3.4,9.2-3.8c6.4-0.8,12.7,0.1,19,0.9c1,0.1,1.5,0.6,1.2,1.5
	c-0.3,1.2-0.2,2.5-0.4,3.7c-0.2,1.2-0.2,2.6-0.9,3.8c-0.5-0.2-0.9-0.3-1.2-0.5c-3.6-2-7.2-3.8-8.7-8c-0.3-0.9-0.7-0.9-1.5-0.2
	c-1,0.9-2,1.7-3.1,2.4c-3.1,2-6.4,3.7-9.8,4.9c-2.9,1.1-4,3-3.9,6c0,2.1,0.7,4.1,1.5,6c1.8,4.6,4.2,8.9,7.7,12.4
	c2.6,2.6,5.5,4,9.3,2.2c-0.1,2.6-0.5,4.9-1.1,7.3c-0.8,3.1-1.6,3.3-4.1,1.3c-4.4-3.4-7.6-7.9-10.3-12.8c-0.2-0.4-0.3-0.9-0.5-1.3
	c-0.5-0.9-1.1-1-1.9-0.2c-0.6,0.6-0.9,1.4-1,2.3c0,0.7,0,1.4,0.1,2.2c0.4,4.6,2.5,8.6,4.7,12.6c1.4,2.6,3.1,4.9,5.5,6.6
	c3.7,2.7,7.8,2.2,10.5-1.5c0.9-1.3,1.6-2.7,2.1-4.2c0.2-0.7,0.3-1.6,0.8-2.3c2.6,1.7,4.8,3.8,7,6c5.3,5.5,9.5,11.7,12,18.9
	c2.8,8.2,4.4,16.6,5.1,25.1c0.1,0.8-0.3,2.1,0.9,2.3c1,0.2,1.3-1,1.7-1.7c2.7-4.3,5.5-8.6,8.4-12.8c1.3-1.8,2.4-3.7,4.1-5.3
	c0.6,0.5,1.2,0.9,1.8,1.3c5.6,4.5,11,9.2,16.2,14c2.1,2,4.2,4,6,6.2c0.6,0.8,0.7,1.4,0,2.2c-0.8,1-1.5,2.1-2.3,3.2
	c-0.6,0.8-0.7,1.5-0.3,2.4c0.7,1.9,1.4,3.8,1.9,5.8c0,0.1,0.1,0.1,0.1,0.2c0,0.3,0.3,0.6-0.1,0.7c-0.1,0-0.3-0.4-0.4-0.6
	c-0.4-0.6-0.9-1.1-1.3-1.7c-0.5-0.8-1-1.7-1.6-2.5c-0.3-0.4-0.6-0.8-1.1-0.5c-0.6,0.3-0.6,0.8-0.3,1.3c0.1,0.2,0.2,0.5,0.3,0.7
	c0.8,2.3,1.4,4.8,1.9,7.2c0.1,0.3,0.3,0.7-0.4,1c-0.5-0.7-1.1-1.4-1.6-2.2c-0.5-0.8-1-1.5-1.5-2.3c-0.3-0.4-0.5-0.8-1.1-0.5
	c-0.5,0.3-0.4,0.7-0.3,1.2c0.1,0.3,0.2,0.6,0.3,0.9c0.4,1.3,0.7,2.7,1.1,4c0.1,0.3,0.2,0.7-0.2,0.8c-0.4,0.2-0.6-0.2-0.7-0.4
	c-0.7-1.2-1.4-2.4-2.1-3.5c-0.2-0.4-0.5-0.8-1.1-0.6c-0.5,0.1-0.5,0.6-0.5,0.9c-0.2,1.4-0.4,2.7-0.7,4.1c-0.3,1.7-0.4,3.5-1.3,5
	c-0.8-0.1-1.3-0.6-1.7-1c-1.8-1.6-3.6-3.2-5.3-5c-4.7-4.7-9.4-9.5-13.3-14.9c-0.6-0.8-1.2-1.6-2-2.1c-0.8-0.4-1.4-0.3-1.8,0.5
	c-0.3,0.5-0.4,1.1-0.3,1.7c0.1,1.3,0.2,2.6,0.4,3.9c1.4,7.8,3.1,15.5,4.3,23.4c0.9,5.6,1.5,11.2,1.6,16.8c0,0.4,0,0.8,0,1.2
	c0.1,0.4,0.3,0.8,0.7,0.7c0.4,0,0.7-0.3,0.8-0.8c0-0.2,0.1-0.4,0.1-0.6c0.2-3.1,0.6-6.3,1-9.4c0.6-4.2,1.2-8.4,2.4-12.5
	c0.4-1.3,0.8-2.6,1.5-3.8c0.3-0.4,0.5-1,1.1-1c0.6,0.1,0.8,0.6,0.9,1.1c0.4,1.5,0.7,2.9,0.8,4.4c0.4,6.1-0.7,12-2.6,17.8
	c-0.7,2-1.4,4-2.3,5.8c-2.9,5.5-4,11.5-4.1,17.6c-0.2,9.3,1.3,18.4,2.9,27.5c1.2,6.5,2.5,13,3.7,19.5c1,5.4,0.1,10.3-2.6,14.9
	c-2.2,3.8-4.8,7.3-7.6,10.7c-0.3,0.4-0.5,0.9-1.1,0.9c0-2,0-4.1,0-6.1c0-12.8-0.7-25.6-1.6-38.3c-0.8-11.8-2-23.6-3.2-35.4
	c-0.8-8.1-1.8-16.3-2.8-24.4c-0.1-1.2-0.3-2.3-0.5-3.5c-0.1-0.5-0.2-1.1-0.9-1.1c-0.6,0-0.8,0.7-0.8,1.2c-0.2,1.2-0.3,2.3-0.5,3.5
	c-1.2,10-2.2,20.1-2.9,30.1c-0.5,7.5-1.1,14.9-1.4,22.4c-0.6,14.7-0.8,29.4-0.5,44.1c0.1,5,0.3,10,0.9,14.9c0.2,1.8,0.5,3.6,1,5.4
	c0.4,1.7,1.6,2.4,3.1,0.8c2.3-2.5,4.7-4.9,7.1-7.4c0.3-0.3,0.4-0.8,1-0.7c-0.1,1-0.1,2-0.2,3c-0.5,4.8-1.1,9.5-1.7,14.3
	c-0.3,2.2-0.3,4.5,0.3,6.6c0.6,2.2,2.1,3,4.2,2.2c1-0.4,2-1,2.9-1.6c2.7-2,5.2-4.2,7.8-6.3c4.2-3.4,8.4-6.6,13.1-9.4
	c4.9-2.8,10.1-4.9,15.4-6.8c11-4,55.1-15.3,66.6-17.6c1.2-0.2,2.4-0.5,3.7-0.7C1924.8,381.3,1925,381,1924.9,380.6z M1784.7,175.6
	c0.1-1.1,0.1-2.2,0.1-3.3c0-0.6,0.5-0.8,0.9-0.9c1.9-0.5,2.5-1.9,2.5-3.7c0-1.8,0-3.6,0-5.4c0.2,0,0.3,0,0.5,0c1,1.6,1.2,3.4,1,5.3
	c-0.5,4.3-2.4,8.1-5.2,11.5C1784.6,177.8,1784.7,176.7,1784.7,175.6z M1735.6,189.5c-3.8,1.3-7-0.9-8.3-4c-0.8-1.7-0.8-3.5-0.7-5.4
	c0.5-4.9,2.3-9.4,4.5-13.7c1.4-2.7,3-5.4,5.1-7.7c0.5-0.5,0.9-1.1,1.7-1.3c0.1,1-0.1,1.9-0.3,2.7c-1,3.9-2.5,7.6-3.1,11.5
	c-0.3,2.3-0.5,4.6,0.2,6.8c1.1,3.8,3.5,5.8,7.5,6.2C1740.3,186.9,1738.2,188.6,1735.6,189.5z M1749,30.2c0.6,2.5,1.4,5.1,1.7,7.7
	c0.1,0.9,0.5,2-0.4,2.6c-0.8,0.6-1.8,0-2.6-0.3c-1.7-0.8-2.7-2.2-3.1-4.1c-0.8-4.2,0.6-7.8,3.1-11.4
	C1748.2,26.7,1748.6,28.5,1749,30.2z M1755.6,149.2c-0.2,1.6-0.5,3.1-0.7,4.7c-0.1,0.9-0.5,1.6-1.3,2.1c-2.1,1.4-4.4,2.6-6.9,3.2
	c-1.9,0.5-2.5,0.3-3.3-1.5c-0.5-1.1-1-2.2-1.2-3.3c-0.7-4.1-1.9-8-2.4-12.1c-1.1-7.8-0.8-15.6,0.2-23.3c0.4-3.4,1.2-6.8,2.1-10.2
	c1.2-4.4,1.9-8.8,1.4-13.4c-0.2-2-0.1-3.9,0.4-5.9c0.4-1.6,0.7-1.8,2.4-1.3c1.6,0.5,3,1.3,4.4,2.1c0.5,0.3,0.9,0.6,1.3,0.8
	c0.4,0.2,0.8,0.7,1.4,0.4c0.7-0.5,0.5-1.2,0.4-1.8c-0.1-0.9-0.7-1.5-1.2-2.2c-0.3-0.1-0.5-0.4-0.7-0.6l-0.5-0.6
	c-0.2,0-0.4-0.1-0.2-0.3c0.1-0.2,0.3,0,0.4,0.2c0.3,0,0.6,0.1,0.8,0.4c0.3,0.1,0.6,0.2,0.7,0.5c0.2,0.1,0.3,0.2,0.5,0.3
	c0.4,0.2,0.8,0.8,1.4,0.4c0.7-0.5,0.5-1.2,0.4-1.8c-0.2-0.9-0.9-1.6-1.4-2.3c-0.2,0-0.3-0.1-0.3-0.2c-0.1-0.1-0.5-0.2-0.3-0.5
	c0.2-0.2,0.4,0,0.6,0.2c0.1,0,0.3,0,0.3,0.2c1.5,0.4,2.1-0.1,2-1.5c-0.1-1.3-0.9-2.1-2-3.1c0.8-0.2,1.6-0.2,2-0.9
	c0.3-0.8,0.2-1.5,0-2.3c-0.4-1.7-1.5-2.8-2.9-3.5c-2-1.1-4.2-1.5-6.7-1.7c0.5-0.7,1.2-0.8,1.7-1.2c1-0.7,1-1,0.1-1.8
	c-0.5-0.4-1-0.7-1.4-1.1c-1.7-1.5-1.8-3.1-0.4-4.8c0.4-0.5,0.8-0.8,1.2-1.3c0.3-0.3,0.7-0.7,0.5-1.2c-0.2-0.6-0.7-0.5-1.1-0.5
	c-0.8-0.1-1.6-0.2-2.3-0.3c-4-0.7-6-3.5-6.3-7.4c-0.1-0.9,0.3-1.2,1.2-1.1c0.7,0,1.3,0.1,2,0c0.8-0.1,1.4,0,1.9,0.7
	c0.7,0.9,1.6,1.2,2.8,1.1c2.3-0.1,4.6-0.3,6.9-0.1c1,0.1,2.1-0.2,3-0.8c0.7-0.5,1.1-1.1,1.2-1.9c0.2-1.9-0.2-2.3-2.1-2.3
	c-1.6,0-3.2,0.4-4.9,0.5c-7.8,0.4-12.2-7-11-13.2c0.9-4.7,3.3-8.6,6.2-12.3c0.4-0.5,0.8-0.9,1.3-1.5c0.6,2.5,0.6,2.5-0.8,4.3
	c-2.6,3.5-4.1,7.5-3.5,11.9c0.4,3,2,5.1,4.9,6.1c3.1,1.1,4.6-0.1,4.4-3.3c-0.1-1.7-0.5-3.4-0.9-5c-0.6-2.8-1.2-5.6-1.9-8.4
	c-0.3-1.3-0.1-2.3,0.8-3.4c2.6-3.1,5-6.4,7.5-9.6c0.5-0.6,0.9-1.2,1.7-2.1c-0.1,3.2,0.3,5.9,1.3,8.6c0.7,2,1.5,3.9,2.3,5.8
	c1.9,4.9,2.4,9.9,1.1,15c-0.5,1.8-1.5,3.5-2.4,5.1c-0.7,1.2-1.5,2.3-2.2,3.5c-1.3,2.1-0.9,2.9,1.5,3.3c1.6,0.3,3,0.2,3.8-1.5
	c0.3-0.7,1-0.5,1.5-0.5c0.6,0.1,0.5,0.7,0.5,1.1c0.1,4.9-2.7,7.8-7.8,7.8c-0.8,0-1.9-0.6-2.3,0.5c-0.3,0.9,0.8,1.2,1.2,1.8
	c0.2,0.3,0.5,0.6,0.8,0.9c1.2,1.7,1,3.3-0.6,4.7c-0.7,0.6-1.9,0.7-2.1,1.6c-0.2,0.9,0.9,1.5,1.2,2.4c1,2.3,1.5,4.7,1.6,7.2
	c0.1,6.6-1.4,12.8-3.7,19c-0.7,1.8-1,3.6-1,5.5c0.2,8.4,0.7,16.8,1.2,25.1C1756,134.4,1756.4,141.8,1755.6,149.2z M1763.4,150.6
	c0.2-1.2,0.3-2.1,0.8-3.2c0.5,0.7,0.9,1.3,1.4,1.9C1764.9,149.8,1764.3,150.1,1763.4,150.6z M1792,147.9c-1.7-0.3-3.5-0.6-5.2-0.8
	c-4.3-0.5-8.6-0.7-12.9-0.4c-2.5,0.2-4.8,1-7.3,2.1c0.2-1.9,0.4-3.4,1.2-4.9c0.9,0.5,1,1.3,1.4,1.9c0.3,0.4,0.4,1.1,1.1,0.9
	c0.6-0.2,0.7-0.7,0.7-1.3c0.1-1.3,0.5-2.5,1-3.8c0.9,0.6,1,1.5,1.4,2.2c0.2,0.4,0.3,0.7,0.4,1.1c0.1,0.4,0.3,0.7,0.8,0.7
	c0.5,0,0.7-0.4,0.8-0.8c0.2-1.2,0.5-2.3,0.9-3.4c0.1-0.2,0.2-0.5,0.4-0.8c0.8,1.3,0.7,2.6,1,3.9c0.1,0.5,0.2,1.1,0.9,1.1
	c0.6,0,0.7-0.5,0.9-0.9c0.3-0.9,0.6-1.9,1-2.8c0.3-0.6,0.5-1.3,1.2-1.8c0.5,0.8,0.6,1.7,0.8,2.6c0.1,0.7,0.2,1.4,0.3,2.1
	c0.1,0.5,0.1,1,0.7,1c0.6,0,0.8-0.4,0.9-0.9c0.7-1.6,1.3-3.3,2.6-4.6c0.8,1.1,0.8,2.3,0.9,3.4c0.1,0.6,0.1,1.2,0.1,1.8
	c0,0.4,0.1,0.8,0.6,0.9c0.4,0,0.7-0.2,0.9-0.6c0.5-1.1,0.9-2.3,1.6-3.4c0.2-0.3,0.4-0.8,0.8-0.8c0.6,0,0.6,0.6,0.7,1
	c0.3,1.4,0.5,2.8,0.6,4.3C1793.2,148,1792.8,148.1,1792,147.9z M1811.8,395.5c-2.8,3-5.6,6.1-8.6,8.9c-0.1,0.1-0.2,0.1-0.5,0.3
	c-0.9-3.3-1.2-6.6-1.4-9.8c-0.9-14.7-0.7-29.3-0.3-44c0.2-7.2,0.4-14.4,1-21.6c0.5-6.1,0.7-12.3,1.3-18.4c0.6-6.6,1.1-13.2,2.3-19.7
	c0.4,3.1,0.8,6.2,1.1,9.4c0.7,6.4,1.5,12.7,2.1,19.1c0.9,10.4,1.9,20.8,2.6,31.3c0.9,13.2,1.4,26.4,1.4,39.7c0,1.2-0.1,2.4-0.2,3.5
	C1812.4,394.7,1812.2,395.1,1811.8,395.5z"/>
</svg>
