<?xml version="1.0" encoding="utf-8"?>
<!-- Generator: Adobe Illustrator 24.0.2, SVG Export Plug-In . SVG Version: 6.00 Build 0)  -->
<svg version="1.1" id="Layer_1" xmlns="http://www.w3.org/2000/svg" xmlns:xlink="http://www.w3.org/1999/xlink" x="0px" y="0px"
	 viewBox="0 0 449 316" style="enable-background:new 0 0 449 316;" xml:space="preserve">
<style type="text/css">
	.st0{opacity:7.000000e-02;}
	.st1{fill:#7B7575;}
	.st2{fill:#FCBB4E;}
</style>
<g class="st0">
	<g>
		<g>
			<path class="st1" d="M240,134.1c-30.9,0-73.2-9.4-126.2-28.3C59.1,86.3,12.3,63.5,11.9,63.5c-3.9-2-5.5-6.8-3.6-10.7
				s6.8-5.5,10.7-3.6c0.3,0.3,46.5,22.8,100.2,41.6c69.9,24.7,121,32.9,147.7,23.4c67.3-24.1,135-76.8,135.7-77.1
				c3.6-2.6,8.5-2.3,11.4,1.3c2.6,3.6,2.3,8.5-1.3,11.4c-2.9,2.3-70.3,54.7-140.2,79.7C263.4,132.8,252.7,134.1,240,134.1z"/>
		</g>
		<g>
			<path class="st1" d="M240.3,191.7c-28.3,0-67-9.4-115.2-28.3c-49.8-19.5-92.4-42.3-92.7-42.6c-3.9-2-5.5-6.8-3.3-10.7
				c2-3.9,6.8-5.5,10.7-3.3c0.3,0.3,42.3,22.8,91.1,41.6c63.1,24.7,109.3,32.9,133.1,23.4c61.2-24.1,122.6-76.4,123-77.1
				c3.3-2.9,8.5-2.6,11.4,1c2.9,3.3,2.6,8.5-1,11.4c-2.6,2.3-64.1,54.7-127.8,79.7C262.1,190.1,252,191.7,240.3,191.7z"/>
		</g>
		<g>
			<path class="st1" d="M245.2,304.9c-27.7,0-64.4-7.5-110-22.4c-49.4-16.3-91.7-36.1-92.1-36.4c-3.9-2-5.9-6.5-3.9-10.7
				c2-3.9,6.5-5.9,10.7-3.9c0.3,0.3,42,19.5,90.4,35.8c62.8,20.8,109,26.7,133.1,17.2c61.5-24.1,148-83.6,149-84.3
				c3.6-2.6,8.8-1.6,11.1,2c2.3,3.6,1.6,8.8-2,11.1c-3.9,2.9-89.1,61.5-152.2,86.2C269.9,303,258.5,304.9,245.2,304.9z"/>
		</g>
		<g>
			<path class="st1" d="M242.6,250.3c-30.3,0-73.5-10.4-128.8-31.6c-56-21.1-105.1-45.5-105.4-45.9c-3.9-2-5.5-6.8-3.6-10.7
				s6.8-5.5,10.7-3.6c53,26.7,201,91.4,250.2,72.2c61.5-24.1,164-104.4,165.3-105.1c3.6-2.6,8.5-2.3,11.4,1.3
				c2.6,3.6,2.3,8.5-1.3,11.4c-4.2,3.3-105.7,82.3-169.2,107.4C263.7,248.6,254,250.3,242.6,250.3z"/>
		</g>
	</g>
</g>
<g class="st0">
	<g>
		
			<ellipse transform="matrix(0.1735 -0.9848 0.9848 0.1735 137.312 260.7372)" class="st2" cx="224" cy="48.6" rx="36.8" ry="36.8"/>
	</g>
</g>
</svg>
